<?xml version="1.0" encoding="iso-8859-1"?>
<!-- Generator: Adobe Illustrator 19.0.0, SVG Export Plug-In . SVG Version: 6.00 Build 0)  -->
<svg version="1.1" id="Capa_1" xmlns="http://www.w3.org/2000/svg" xmlns:xlink="http://www.w3.org/1999/xlink" x="0px" y="0px"
	 viewBox="0 0 480 480" style="enable-background:new 0 0 480 480;" xml:space="preserve">
<path style="fill:#808080;" d="M83.408,187.928l-57.92-34l16-16l97.752,16.296L83.408,187.928z"/>
<path style="fill:#CCCCCC;" d="M220.44,105.928L117.936,33.32l36.176-23.392l139.824,54.448L220.44,105.928z"/>
<path style="fill:#F2F2F2;" d="M468.952,9.816l-25.944-2.88l-1.968,5.6c-0.117,0.319-0.25,0.631-0.4,0.936
	c-8.259,13.601-21.333,23.597-36.624,28l-7.592,2.536l-5.056-15.2l7.584-2.52c11.105-3.148,20.74-10.122,27.2-19.688l0.184-0.528
	c-23.528,0.108-46.627,6.316-67.04,18.016l-280.2,164.464c-5.406,3.183-7.208,10.147-4.025,15.553
	c2.103,3.572,5.986,5.715,10.129,5.591l18.8,0.232l41.488-8.96c31.418-9.754,62.28-21.216,92.448-34.336l75.552-36.704
	c6.48-3.528,9.376-5.6,15.768-9.296l106.608-61.504c1.365-0.793,2.531-1.887,3.408-3.2l30.12-45.2
	c0.171-0.289,0.075-0.662-0.213-0.833C469.109,9.854,469.032,9.827,468.952,9.816z"/>
<path style="fill:#29ABE2;" d="M398.952,26.344l-7.584,2.52l5.056,15.2l7.592-2.536c15.291-4.403,28.365-14.399,36.624-28
	c0.15-0.305,0.283-0.617,0.4-0.936l1.968-5.6l-0.8-0.088c-5.278-0.547-10.583-0.787-15.888-0.72l-0.184,0.528
	C419.67,16.254,410.043,23.207,398.952,26.344z"/>
<path style="fill:#B3B3B3;" d="M296,393.928h160v72H296V393.928z"/>
<path style="fill:#29485A;" d="M296,393.928h160c0-30.928-25.072-56-56-56h-48C321.072,337.928,296,363,296,393.928z"/>
<path style="fill:#0378A3;" d="M344,425.928h64v40h-64V425.928z"/>
<path style="fill:#8C6239;" d="M24,377.928h88v88H24V377.928z"/>
<path style="fill:#C69C6D;" d="M64,289.928h88v88H64V289.928z"/>
<g>
	<path style="fill:#A67C52;" d="M112,377.928h88v88h-88V377.928z"/>
	<path style="fill:#A67C52;" d="M96,289.928h24v24H96V289.928z"/>
</g>
<g>
	<path style="fill:#C69C6D;" d="M56,377.928h24v24H56V377.928z"/>
	<path style="fill:#C69C6D;" d="M144,377.928h24v24h-24V377.928z"/>
</g>
<path style="fill:#29485A;" d="M0,457.928h480v16H0V457.928z"/>
<g>
	<path style="fill:#CCCCCC;" d="M320,97.928l-80,40v136l40-16L320,97.928z"/>
	<path style="fill:#CCCCCC;" d="M161.488,169.928l-48,24l-16,64l24-8L161.488,169.928z"/>
</g>
<g>
</g>
<g>
</g>
<g>
</g>
<g>
</g>
<g>
</g>
<g>
</g>
<g>
</g>
<g>
</g>
<g>
</g>
<g>
</g>
<g>
</g>
<g>
</g>
<g>
</g>
<g>
</g>
<g>
</g>
</svg>
