<?xml version="1.0" encoding="iso-8859-1"?>
<!-- Generator: Adobe Illustrator 19.0.0, SVG Export Plug-In . SVG Version: 6.00 Build 0)  -->
<svg version="1.1" id="Capa_1" xmlns="http://www.w3.org/2000/svg" xmlns:xlink="http://www.w3.org/1999/xlink" x="0px" y="0px"
	 viewBox="0 0 512 512" style="enable-background:new 0 0 512 512;" xml:space="preserve">
<path style="fill:#303C42;" d="M508.583,109.488c-2.438-2.229-5.771-3.229-9-2.688c-23,3.823-93.042,15.438-121.417,1.01
	c-7.081-3.6-15.505-8.393-24.522-13.804l17.585-23.656c3.5-4.719,2.542-11.375-2.167-14.896l-42.667-32.001
	c-4.667-3.49-11.292-2.583-14.875,2.063l-21.173,27.733c-16.307-10.996-27.926-19.124-28.223-19.337
	c-4.667-3.271-11.167-2.281-14.667,2.344l-64,85.336c-1.708,2.292-2.438,5.167-2,8c0.438,2.833,1.979,5.375,4.292,7.042
	c0,0,10.896,7.857,26.408,19.08L8.042,423.217C2.854,429.977,0,438.394,0,446.926v4.677c0,21.542,17.521,39.064,39.063,39.064
	c12.292,0,24.021-5.886,31.354-15.75l203.818-274.121c10.845,7.917,20.9,15.288,28.745,21.102
	c17.063,12.625,31.687,55.356,39.146,114.295c0.438,3.417,2.5,6.427,5.542,8.052c1.563,0.844,3.313,1.271,5.042,1.271
	c1.625,0,3.25-0.365,4.729-1.104c86.896-43.043,146.104-129.702,154.521-226.163C512.25,114.967,511,111.728,508.583,109.488z"/>
<g>
	<path style="fill:#8E532A;" d="M322.063,46.875l25.708,19.281l-12.354,16.617c-9.216-5.815-18.512-11.853-27.289-17.647
		L322.063,46.875z"/>
	<path style="fill:#8E532A;" d="M53.292,462.188c-3.333,4.479-8.646,7.146-14.229,7.146c-9.771,0-17.729-7.958-17.729-17.729v-4.677
		c0-3.865,1.292-7.677,3.646-10.75l204.46-267.938c8.822,6.393,18.22,13.215,27.549,20L53.292,462.188z"/>
</g>
<path style="fill:#BEB0A3;" d="M315.688,204.76c-28.813-21.333-86.604-63.135-108.646-79.052l51.313-68.417
	c21.438,14.792,77.875,53.146,110.146,69.552c15.815,8.031,39.391,9.885,64.348,8.928c-10.327,51.975-40.24,97.171-84.095,127.122
	C341.221,238.392,330.668,215.863,315.688,204.76z"/>
<path style="opacity:0.2;fill:#FFFFFF;enable-background:new    ;" d="M235.84,121.333c15.007-20.009,42.969-24.905,63.833-11.111
	c24.388,16.124,53.435,34.557,73.312,44.663c13.133,6.669,31.707,8.944,51.889,9.022c3.238-9.141,6.052-18.471,7.973-28.135
	c-24.957,0.957-48.533-0.897-64.348-8.928c-32.271-16.406-88.708-54.76-110.146-69.552l-51.313,68.417
	c4.25,3.069,10.103,7.299,16.547,11.961L235.84,121.333z"/>
<path style="fill:#DFE1DF;" d="M361.146,318.281c-1.618-10.449-3.779-22.016-6.507-33.727
	c53.458-34.027,89.462-87.977,100.194-150.212c11.733-1.109,23.38-2.616,34.313-4.27
	C477.938,208.719,430.208,278.865,361.146,318.281z"/>
<linearGradient id="SVGID_1_" gradientUnits="userSpaceOnUse" x1="-41.9527" y1="636.1251" x2="-27.2804" y2="629.2824" gradientTransform="matrix(21.3333 0 0 -21.3333 996.3329 13791.667)">
	<stop  offset="0" style="stop-color:#FFFFFF;stop-opacity:0.2"/>
	<stop  offset="1" style="stop-color:#FFFFFF;stop-opacity:0"/>
</linearGradient>
<path style="fill:url(#SVGID_1_);" d="M508.583,109.488c-2.438-2.229-5.771-3.229-9-2.688c-23,3.823-93.042,15.438-121.417,1.01
	c-7.081-3.6-15.505-8.393-24.522-13.804l17.585-23.656c3.5-4.719,2.542-11.375-2.167-14.896l-42.667-32.001
	c-4.667-3.49-11.292-2.583-14.875,2.063l-21.173,27.733c-16.307-10.996-27.926-19.124-28.223-19.337
	c-4.667-3.271-11.167-2.281-14.667,2.344l-64,85.336c-1.708,2.292-2.438,5.167-2,8c0.438,2.833,1.979,5.375,4.292,7.042
	c0,0,10.896,7.857,26.408,19.08L8.042,423.217C2.854,429.977,0,438.394,0,446.926v4.677c0,21.542,17.521,39.064,39.063,39.064
	c12.292,0,24.021-5.886,31.354-15.75l203.818-274.121c10.845,7.917,20.9,15.288,28.745,21.102
	c17.063,12.625,31.687,55.356,39.146,114.295c0.438,3.417,2.5,6.427,5.542,8.052c1.563,0.844,3.313,1.271,5.042,1.271
	c1.625,0,3.25-0.365,4.729-1.104c86.896-43.043,146.104-129.702,154.521-226.163C512.25,114.967,511,111.728,508.583,109.488z"/>
<g>
</g>
<g>
</g>
<g>
</g>
<g>
</g>
<g>
</g>
<g>
</g>
<g>
</g>
<g>
</g>
<g>
</g>
<g>
</g>
<g>
</g>
<g>
</g>
<g>
</g>
<g>
</g>
<g>
</g>
</svg>
