<?xml version="1.0" encoding="iso-8859-1"?>
<!-- Generator: Adobe Illustrator 19.0.0, SVG Export Plug-In . SVG Version: 6.00 Build 0)  -->
<svg version="1.1" id="Layer_1" xmlns="http://www.w3.org/2000/svg" xmlns:xlink="http://www.w3.org/1999/xlink" x="0px" y="0px"
	 viewBox="0 0 512 512" style="enable-background:new 0 0 512 512;" xml:space="preserve">
<path style="fill:#CBCDD1;" d="M419.31,317.793c-19.421,0-35.31-15.89-35.31-35.31c0-5.297,3.531-8.828,8.828-8.828
	s8.828,3.531,8.828,8.828c0,9.71,7.945,17.655,17.655,17.655s17.655-7.945,17.655-17.655s-7.945-17.655-17.655-17.655
	c-2.648,0-4.414-0.883-6.179-2.648c-1.766-1.766-2.648-3.531-2.648-6.179V52.966c0-5.297,3.531-8.828,8.828-8.828l0,0
	c5.297,0,8.828,3.531,8.828,8.828v195.09c15.007,3.531,26.483,17.655,26.483,34.428C454.621,301.903,438.731,317.793,419.31,317.793
	"/>
<path style="fill:#FEC24C;" d="M395.476,26.483L205.683,229.517h61.793c6.179,0,12.359,0.883,17.655,2.648l134.179-179.2
	C406.069,52.083,395.476,40.607,395.476,26.483"/>
<path style="fill:#535353;" d="M379.586,512H105.931c-26.483,0-48.552-22.069-48.552-48.552l0,0
	c0-26.483,22.069-48.552,48.552-48.552h273.655c26.483,0,48.552,22.069,48.552,48.552l0,0C428.138,489.931,406.069,512,379.586,512"
	/>
<g>
	<path style="fill:#A2A2A2;" d="M136.828,463.448c0-12.359-9.71-22.069-22.069-22.069s-22.069,9.71-22.069,22.069
		s9.71,22.069,22.069,22.069S136.828,475.807,136.828,463.448"/>
	<path style="fill:#A2A2A2;" d="M392.828,463.448c0-12.359-9.71-22.069-22.069-22.069c-12.359,0-22.069,9.71-22.069,22.069
		s9.71,22.069,22.069,22.069C383.117,485.517,392.828,475.807,392.828,463.448"/>
</g>
<path style="fill:#BC8D2F;" d="M198.621,414.897h88.276v-26.483h-88.276V414.897z"/>
<path style="fill:#FEC24C;" d="M180.966,247.172v70.621H84.745c-15.007,0-27.366,12.359-27.366,27.366v43.255h123.586h141.241
	V284.248c0-7.062-0.883-14.124-3.531-20.303c-7.945-21.186-28.248-34.428-51.2-34.428h-68.855
	C188.91,229.517,180.966,237.462,180.966,247.172"/>
<g>
	<path style="fill:#BC8D2F;" d="M84.745,317.793c-15.007,0-27.366,12.359-27.366,27.366v7.945h44.138
		c15.007,0,26.483-12.359,26.483-26.483v-8.828H84.745z"/>
	<path style="fill:#BC8D2F;" d="M265.71,229.517h-40.607v63.559c0,15.007,9.71,28.248,23.834,33.545l73.269,26.483v-68.855
		c0-17.655-8.828-34.428-23.835-45.903C288.662,232.166,277.186,229.517,265.71,229.517"/>
</g>
<path style="fill:#CBCDD1;" d="M348.69,463.448c0-10.593,7.945-19.421,17.655-22.069l0,0H242.759H119.172l0,0
	c9.71,1.766,17.655,10.593,17.655,22.069s-7.945,19.421-17.655,22.069l0,0h123.586h123.586l0,0
	C356.634,482.869,348.69,474.041,348.69,463.448"/>
<g>
	<path style="fill:#BC8D2F;" d="M448.441,26.483C448.441,11.476,436.966,0,421.959,0s-26.483,11.476-26.483,26.483
		s11.476,26.483,26.483,26.483C436.083,52.966,448.441,41.49,448.441,26.483"/>
	<path style="fill:#BC8D2F;" d="M390.179,91.807l-3.531-47.669c0-2.648-0.883-4.414-2.648-5.297l-14.124,15.007l3.531,40.607
		l-46.786,6.179l-17.655,19.421l3.531,56.497l-64.441,8.828l-15.89,16.772c1.766,1.766,3.531,2.648,6.179,2.648h0.883l75.035-9.71
		l15.007-20.303l-3.531-54.731l49.434-6.179L390.179,91.807z"/>
</g>
<path style="fill:#A2A2A2;" d="M436.966,238.345h-35.31c-5.297,0-8.828-3.531-8.828-8.828s3.531-8.828,8.828-8.828h35.31
	c5.297,0,8.828,3.531,8.828,8.828S442.262,238.345,436.966,238.345"/>
<g>
</g>
<g>
</g>
<g>
</g>
<g>
</g>
<g>
</g>
<g>
</g>
<g>
</g>
<g>
</g>
<g>
</g>
<g>
</g>
<g>
</g>
<g>
</g>
<g>
</g>
<g>
</g>
<g>
</g>
</svg>
