<?xml version="1.0" encoding="iso-8859-1"?>
<!-- Generator: Adobe Illustrator 19.0.0, SVG Export Plug-In . SVG Version: 6.00 Build 0)  -->
<svg version="1.1" id="Capa_1" xmlns="http://www.w3.org/2000/svg" xmlns:xlink="http://www.w3.org/1999/xlink" x="0px" y="0px"
	 viewBox="0 0 512 512" style="enable-background:new 0 0 512 512;" xml:space="preserve">
<g>
	<path style="fill:none;" d="M295.92,398.414c0.048-0.799,0.079-1.603,0.079-2.414c0-8.141-2.451-15.718-6.645-22.043
		l-17.902,17.902L295.92,398.414z"/>
	<path style="fill:none;" d="M278.042,362.645C271.717,358.451,264.141,356,256,356c-0.811,0-1.615,0.032-2.414,0.08l6.555,24.467
		L278.042,362.645z"/>
	<path style="fill:none;" d="M216.079,393.586c-0.048,0.8-0.079,1.603-0.079,2.414c0,8.141,2.451,15.717,6.645,22.042l17.902-17.902
		L216.079,393.586z"/>
	<path style="fill:none;" d="M238.135,360.227c-7.728,3.875-14.031,10.179-17.907,17.907l24.461,6.553L238.135,360.227z"/>
	<path style="fill:none;" d="M233.957,429.355C240.282,433.549,247.859,436,256,436c0.811,0,1.615-0.032,2.414-0.08l-6.555-24.467
		L233.957,429.355z"/>
	<path style="fill:none;" d="M56,412.004l-12.669,21.945C47.364,435.291,51.627,436,56,436s8.636-0.709,12.669-2.051L56,412.004z"/>
	<path style="fill:none;" d="M267.312,407.312l6.553,24.461c7.728-3.876,14.031-10.179,17.907-17.907L267.312,407.312z"/>
	<path style="fill:none;" d="M29.48,366.065c-0.599,0.532-1.19,1.078-1.761,1.649c-5.632,5.632-9.377,12.651-10.92,20.285h25.344
		L29.48,366.065z"/>
	<path style="fill:none;" d="M68.669,358.051C64.636,356.708,60.373,356,56,356s-8.636,0.708-12.669,2.051L56,379.996
		L68.669,358.051z"/>
	<path style="fill:none;" d="M95.201,388c-1.543-7.634-5.287-14.653-10.92-20.285c-0.572-0.572-1.162-1.117-1.761-1.649L69.857,388
		H95.201z"/>
	<path style="fill:none;" d="M82.52,425.934c0.599-0.532,1.19-1.078,1.761-1.649c5.632-5.633,9.377-12.651,10.92-20.285H69.857
		L82.52,425.934z"/>
	<path style="fill:none;" d="M482.52,425.934c0.599-0.532,1.19-1.078,1.761-1.649c5.632-5.633,9.377-12.651,10.92-20.285h-25.344
		L482.52,425.934z"/>
	<path style="fill:none;" d="M495.201,388c-1.542-7.634-5.287-14.653-10.92-20.285c-0.572-0.572-1.162-1.117-1.761-1.649
		L469.857,388H495.201z"/>
	<path style="fill:none;" d="M416.799,404c1.543,7.634,5.287,14.653,10.92,20.285c0.572,0.572,1.162,1.117,1.761,1.649L442.143,404
		H416.799z"/>
	<path style="fill:none;" d="M429.48,366.065c-0.599,0.532-1.19,1.078-1.761,1.649c-5.632,5.632-9.377,12.651-10.92,20.285h25.344
		L429.48,366.065z"/>
	<path style="fill:none;" d="M468.669,358.051C464.635,356.708,460.373,356,456,356s-8.636,0.708-12.669,2.051L456,379.996
		L468.669,358.051z"/>
	<path style="fill:none;" d="M16.799,404c1.542,7.634,5.287,14.653,10.92,20.285c0.572,0.572,1.162,1.117,1.761,1.649L42.143,404
		H16.799z"/>
	<path style="fill:none;" d="M456,412.004l-12.669,21.945C447.364,435.291,451.627,436,456,436s8.636-0.709,12.669-2.051
		L456,412.004z"/>
	<path style="fill:#5C546A;" d="M445.344,242.832c6.875-7.391,10.656-17.047,10.656-27.188V108h-8c-2.918,0-5.645-0.793-8-2.158
		v109.802c0,6.086-2.266,11.871-6.375,16.289c-0.565,0.607-1.106,1.185-1.625,1.737v22.482
		C434.75,253.826,438.813,249.85,445.344,242.832z"/>
	<path style="fill:#888693;" d="M35.295,225.307l7.587-14.089L80,231.206V220v-16v-23.384l-8.957-4.823
		c-3.89-2.095-8.742-0.64-10.836,3.25l-30.344,56.35c-2.095,3.89-0.639,8.742,3.251,10.837L80,271.477v-22.096L35.295,225.307z"/>
	<polygon style="fill:#5C546A;" points="42.882,211.218 35.295,225.307 80,249.381 80,244 80,231.206 	"/>
	<path style="fill:#5C546A;" d="M256,200.612c-2.061-0.778-3.998-1.983-5.657-3.642L240,186.627V220h16V200.612z"/>
	<path style="fill:#5C546A;" d="M112,164.002V148H96v16h15.93C111.953,164,111.976,164.002,112,164.002z"/>
	<path style="fill:#B6B8BE;" d="M472,100c0,1.03-0.201,2.011-0.556,2.915l14.025,4.675c0.828,0.273,1.68,0.41,2.531,0.41
		c1.656,0,3.297-0.516,4.68-1.512c2.086-1.504,3.32-3.918,3.32-6.488V68c0-2.57-1.234-4.984-3.32-6.488
		c-2.102-1.512-4.781-1.91-7.211-1.102l-14.025,4.675C471.798,65.989,472,66.97,472,68V100z"/>
	<rect x="336" y="244" style="fill:#D5D9DE;" width="16" height="40"/>
	<polygon style="fill:#D5D9DE;" points="320,244 80,244 80,249.381 80,271.477 80,284 320,284 	"/>
	<path style="fill:#D5D9DE;" d="M432,228v16h-32v35.055L409.89,284H432v-27.847v-22.482V228c0-4.418-3.578-8-8-8l0,0
		C428.418,220,432,223.582,432,228z"/>
	<rect x="368" y="244" style="fill:#D5D9DE;" width="16" height="40"/>
	<path style="fill:#D5D9DE;" d="M196.302,204l29.713,16l-95.117-51.219c-5.792-3.118-12.321-4.767-18.898-4.779
		c-0.024,0-0.047-0.002-0.07-0.002H96h-8c-4.422,0-8,3.582-8,8v8.616V204H196.302z"/>
	<rect x="368" y="220" style="fill:#E3E6E9;" width="16" height="24"/>
	<path style="fill:#E3E6E9;" d="M432,244v-16c0-4.418-3.582-8-8-8h-24v24H432z"/>
	<rect x="336" y="220" style="fill:#E3E6E9;" width="16" height="24"/>
	<polygon style="fill:#E3E6E9;" points="80,220 80,231.206 80,244 320,244 320,220 256,220 240,220 226.016,220 	"/>
	<path style="fill:#B6B8BE;" d="M431.811,294.96c0.12-0.971,0.189-1.957,0.189-2.96v-8H409.89L431.811,294.96z"/>
	<path style="fill:#B6B8BE;" d="M388.327,291.103c-0.142-0.074-0.28-0.154-0.418-0.236c-0.097-0.058-0.195-0.114-0.288-0.175
		c-0.111-0.073-0.217-0.151-0.324-0.229c-0.111-0.081-0.223-0.161-0.329-0.246c-0.08-0.065-0.155-0.134-0.232-0.202
		c-0.121-0.106-0.243-0.212-0.356-0.324c-0.061-0.06-0.116-0.124-0.175-0.186c-0.119-0.125-0.238-0.251-0.348-0.383
		c-0.056-0.067-0.107-0.139-0.161-0.208c-0.102-0.132-0.205-0.263-0.299-0.4c-0.061-0.089-0.115-0.183-0.173-0.275
		c-0.076-0.122-0.155-0.243-0.224-0.369c-0.064-0.116-0.12-0.236-0.178-0.355c-0.053-0.109-0.109-0.217-0.158-0.328
		c-0.057-0.13-0.104-0.264-0.154-0.398c-0.04-0.108-0.083-0.215-0.119-0.325c-0.041-0.126-0.073-0.256-0.108-0.385
		c-0.034-0.126-0.07-0.252-0.098-0.38c-0.024-0.109-0.041-0.219-0.06-0.33c-0.027-0.156-0.053-0.312-0.071-0.469
		c-0.01-0.088-0.015-0.178-0.022-0.267c-0.015-0.183-0.026-0.366-0.028-0.55c0-0.029-0.004-0.056-0.004-0.084h-16
		c0,4.418-3.578,8-8,8s-8-3.582-8-8h-16c0,4.418-3.578,8-8,8s-8-3.582-8-8H80c0,17.645,14.352,32,32,32h113.596L248,309.89V300
		c0-4.418,3.578-8,8-8s8,3.582,8,8v16h144c6.459,0,12.325-2.569,16.644-6.733l-36.222-18.111
		C388.389,291.14,388.36,291.12,388.327,291.103z"/>
	<path style="fill:#5C546A;" d="M248,309.89L225.596,316l-54.532,14.872C174.129,334.387,176,338.97,176,344
		c0,0.724-0.043,1.438-0.118,2.142L248,326.474V309.89z"/>
	<path style="fill:#5C546A;" d="M140.936,330.872L64,309.89v16.584l72.118,19.669C136.043,345.438,136,344.724,136,344
		C136,338.97,137.87,334.387,140.936,330.872z"/>
	<path style="fill:#5C546A;" d="M431.811,294.96L409.89,284L400,279.055V284c0,4.418-3.578,8-8,8c-1.326,0-2.572-0.327-3.673-0.897
		c0.032,0.017,0.062,0.037,0.094,0.053l36.222,18.111L448,320.945v-17.891L431.811,294.96z"/>
	<path style="fill:#5C546A;" d="M384.032,284.634c-0.014-0.182-0.026-0.365-0.028-0.55
		C384.006,284.268,384.017,284.452,384.032,284.634z"/>
	<path style="fill:#5C546A;" d="M387.297,290.463c-0.111-0.081-0.223-0.16-0.329-0.246
		C387.074,290.302,387.186,290.382,387.297,290.463z"/>
	<path style="fill:#5C546A;" d="M387.909,290.867c-0.097-0.058-0.194-0.114-0.288-0.175
		C387.715,290.753,387.813,290.809,387.909,290.867z"/>
	<path style="fill:#5C546A;" d="M384.821,287.516c-0.053-0.109-0.109-0.216-0.158-0.328
		C384.712,287.299,384.768,287.406,384.821,287.516z"/>
	<path style="fill:#5C546A;" d="M385.224,288.24c-0.076-0.122-0.154-0.243-0.224-0.369
		C385.069,287.997,385.147,288.118,385.224,288.24z"/>
	<path style="fill:#5C546A;" d="M384.125,285.37c-0.027-0.156-0.054-0.311-0.071-0.469
		C384.072,285.059,384.098,285.214,384.125,285.37z"/>
	<path style="fill:#5C546A;" d="M385.695,288.914c-0.102-0.131-0.205-0.262-0.299-0.4
		C385.49,288.652,385.593,288.783,385.695,288.914z"/>
	<path style="fill:#5C546A;" d="M384.51,286.789c-0.04-0.108-0.083-0.215-0.119-0.325
		C384.426,286.574,384.469,286.681,384.51,286.789z"/>
	<path style="fill:#5C546A;" d="M386.735,290.015c-0.121-0.106-0.242-0.211-0.356-0.324
		C386.493,289.803,386.614,289.909,386.735,290.015z"/>
	<path style="fill:#5C546A;" d="M384.282,286.08c-0.034-0.126-0.07-0.251-0.098-0.38
		C384.213,285.828,384.248,285.953,384.282,286.08z"/>
	<path style="fill:#5C546A;" d="M386.204,289.505c-0.119-0.125-0.237-0.25-0.348-0.383
		C385.966,289.254,386.085,289.38,386.204,289.505z"/>
	<path style="fill:#888693;" d="M456,108h8c3.388,0,6.278-2.11,7.444-5.085C471.798,102.011,472,101.03,472,100V68
		c0-1.03-0.201-2.011-0.556-2.915C470.278,62.11,467.388,60,464,60h-16c-8.837,0-16,7.164-16,16v16c0,5.919,3.222,11.074,8,13.842
		c2.355,1.365,5.082,2.158,8,2.158H456z"/>
	<path style="fill:#888693;" d="M384,284c0,0.029,0.004,0.056,0.004,0.084c0.002,0.185,0.013,0.368,0.028,0.55
		c0.007,0.089,0.012,0.178,0.022,0.267c0.018,0.158,0.045,0.313,0.071,0.469c0.019,0.11,0.036,0.221,0.06,0.33
		c0.028,0.128,0.064,0.254,0.098,0.38c0.035,0.129,0.067,0.258,0.108,0.385c0.036,0.11,0.079,0.217,0.119,0.325
		c0.05,0.134,0.097,0.268,0.154,0.398c0.049,0.112,0.104,0.219,0.158,0.328c0.058,0.119,0.114,0.24,0.178,0.355
		c0.07,0.126,0.148,0.247,0.224,0.369c0.057,0.092,0.112,0.186,0.173,0.275c0.094,0.137,0.196,0.269,0.299,0.4
		c0.054,0.069,0.104,0.14,0.161,0.208c0.111,0.133,0.229,0.258,0.348,0.383c0.059,0.062,0.115,0.126,0.175,0.186
		c0.114,0.113,0.236,0.218,0.356,0.324c0.077,0.068,0.153,0.137,0.232,0.202c0.106,0.086,0.218,0.166,0.329,0.246
		c0.107,0.078,0.213,0.156,0.324,0.229c0.094,0.062,0.192,0.117,0.288,0.175c0.137,0.082,0.275,0.162,0.418,0.236
		c1.1,0.57,2.347,0.897,3.673,0.897c4.422,0,8-3.582,8-8v-4.945V244v-24v-8c0-4.418-3.578-8-8-8s-8,3.582-8,8v8v24V284z"/>
	<path style="fill:#888693;" d="M352,284c0,4.418,3.578,8,8,8s8-3.582,8-8v-40v-24v-8c0-4.418-3.578-8-8-8s-8,3.582-8,8v8v24V284z"
		/>
	<path style="fill:#888693;" d="M320,284c0,4.418,3.578,8,8,8s8-3.582,8-8v-40v-24v-8c0-4.418-3.578-8-8-8s-8,3.582-8,8v8v24V284z"
		/>
	<path style="fill:#B6B8BE;" d="M256,200.612c5.701,2.152,12.381,0.947,16.971-3.642l5.657-5.657c3.124-3.124,3.124-8.189,0-11.314
		L256,157.372c-3.124-3.124-8.19-3.124-11.314,0l-5.657,5.657c-6.248,6.248-6.248,16.379,0,22.627l0.971,0.97l10.343,10.343
		C252.002,198.63,253.939,199.834,256,200.612z"/>
	<path style="fill:#888693;" d="M171.064,330.872C167.398,326.669,162.016,324,156,324c-6.016,0-11.398,2.669-15.064,6.872
		C137.87,334.387,136,338.97,136,344c0,0.724,0.043,1.438,0.118,2.142C137.188,356.18,145.678,364,156,364
		c10.321,0,18.812-7.82,19.882-17.858c0.075-0.704,0.118-1.418,0.118-2.142C176,338.97,174.129,334.387,171.064,330.872z"/>
	<polygon style="fill:#B6B8BE;" points="80,204 80,220 226.016,220 196.302,204 	"/>
	<path style="fill:#FFCF00;" d="M256,292c-4.422,0-8,3.582-8,8v9.89v16.584v14.107c2.614-0.376,5.283-0.581,8-0.581
		s5.386,0.205,8,0.581V316v-16C264,295.582,260.422,292,256,292z"/>
	<path style="fill:#FFCF00;" d="M64,300c0-4.418-3.578-8-8-8s-8,3.582-8,8v40.57c2.628-0.374,5.299-0.57,8-0.57
		c2.702,0,5.372,0.196,8,0.57v-14.096V309.89V300z"/>
	<path style="fill:#FFCF00;" d="M464,340.57V300c0-4.418-3.578-8-8-8s-8,3.582-8,8v3.055v17.891v19.625
		c2.628-0.374,5.299-0.57,8-0.57C458.702,340,461.372,340.196,464,340.57z"/>
	<path style="fill:#888693;" d="M291.772,413.865c2.358-4.701,3.817-9.925,4.148-15.451l-24.467-6.555l17.902-17.902
		c-2.974-4.486-6.827-8.338-11.313-11.313l-17.902,17.902l-6.555-24.467c-5.526,0.331-10.75,1.79-15.451,4.148l6.553,24.46
		l-24.461-6.553c-2.358,4.701-3.817,9.926-4.148,15.451l24.467,6.555l-17.902,17.902c2.974,4.486,6.827,8.338,11.313,11.313
		l17.902-17.902l6.555,24.467c5.526-0.331,10.75-1.79,15.451-4.148l-6.553-24.461L291.772,413.865z"/>
	<path style="fill:#5C546A;" d="M248,340.58c-27.099,3.895-48,27.258-48,55.419c0,30.879,25.125,56,56,56s56-25.121,56-56
		c0-28.162-20.901-51.524-48-55.419c-2.614-0.376-5.283-0.581-8-0.581S250.614,340.205,248,340.58z M273.865,431.772
		c-4.701,2.358-9.925,3.817-15.451,4.148c-0.799,0.048-1.603,0.08-2.414,0.08c-8.141,0-15.717-2.451-22.043-6.645
		c-4.486-2.974-8.338-6.827-11.313-11.313C218.451,411.717,216,404.141,216,396c0-0.811,0.032-1.615,0.079-2.414
		c0.331-5.526,1.79-10.75,4.148-15.451c3.876-7.728,10.179-14.031,17.907-17.907c4.701-2.358,9.925-3.817,15.451-4.148
		c0.799-0.048,1.603-0.08,2.414-0.08c8.141,0,15.717,2.451,22.043,6.645c4.486,2.974,8.338,6.827,11.313,11.313
		C293.549,380.282,296,387.859,296,396c0,0.811-0.032,1.615-0.079,2.414c-0.331,5.526-1.79,10.75-4.148,15.451
		C287.897,421.593,281.593,427.897,273.865,431.772z"/>
	<path style="fill:#888693;" d="M68.669,433.949c5.071-1.688,9.773-4.391,13.851-8.014L69.857,404h25.344
		c0.526-2.605,0.799-5.282,0.799-8c0-2.719-0.273-5.395-0.799-8H69.857l12.663-21.935c-4.078-3.623-8.78-6.326-13.851-8.014
		L56,379.996l-12.669-21.945c-5.071,1.688-9.773,4.391-13.851,8.014L42.143,388H16.799c-0.526,2.605-0.799,5.281-0.799,8
		c0,2.718,0.273,5.395,0.799,8h25.344L29.48,425.934c4.078,3.623,8.78,6.326,13.851,8.014L56,412.004L68.669,433.949z"/>
	<path style="fill:#5C546A;" d="M48,340.57c-11.919,1.696-22.927,7.165-31.594,15.832C5.828,366.98,0,381.043,0,396
		s5.828,29.02,16.406,39.598S41.039,452,56,452s29.016-5.824,39.594-16.402S112,410.957,112,396s-5.828-29.02-16.406-39.598
		C86.926,347.734,75.922,342.265,64,340.57c-2.628-0.374-5.298-0.57-8-0.57C53.299,340,50.628,340.196,48,340.57z M43.331,433.949
		c-5.071-1.688-9.773-4.391-13.851-8.014c-0.599-0.532-1.19-1.078-1.761-1.649c-5.632-5.633-9.377-12.651-10.92-20.285
		c-0.526-2.605-0.799-5.282-0.799-8c0-2.719,0.273-5.395,0.799-8c1.542-7.634,5.287-14.653,10.92-20.285
		c0.572-0.572,1.162-1.117,1.761-1.649c4.078-3.623,8.78-6.326,13.851-8.014C47.364,356.708,51.627,356,56,356
		s8.636,0.708,12.669,2.051c5.071,1.688,9.773,4.391,13.851,8.014c0.599,0.532,1.19,1.078,1.761,1.649
		c5.632,5.632,9.377,12.651,10.92,20.285c0.526,2.605,0.799,5.281,0.799,8c0,2.718-0.273,5.395-0.799,8
		c-1.543,7.634-5.287,14.653-10.92,20.285c-0.572,0.572-1.162,1.117-1.761,1.649c-4.078,3.623-8.78,6.326-13.851,8.014
		C64.636,435.291,60.373,436,56,436S47.364,435.291,43.331,433.949z"/>
	<path style="fill:#888693;" d="M468.669,433.949c5.071-1.688,9.773-4.391,13.851-8.014L469.857,404h25.344
		c0.526-2.605,0.799-5.282,0.799-8c0-2.719-0.273-5.395-0.799-8h-25.344l12.663-21.935c-4.078-3.623-8.78-6.326-13.851-8.014
		L456,379.996l-12.669-21.945c-5.071,1.688-9.772,4.391-13.851,8.014L442.143,388h-25.344c-0.526,2.605-0.799,5.281-0.799,8
		c0,2.718,0.273,5.395,0.799,8h25.344l-12.663,21.935c4.078,3.623,8.78,6.326,13.851,8.014L456,412.004L468.669,433.949z"/>
	<path style="fill:#5C546A;" d="M495.594,356.402c-8.668-8.668-19.672-14.137-31.594-15.832c-2.628-0.374-5.298-0.57-8-0.57
		c-2.701,0-5.372,0.197-8,0.57c-11.919,1.696-22.927,7.165-31.594,15.832C405.828,366.98,400,381.043,400,396
		s5.828,29.02,16.406,39.598S441.039,452,456,452s29.016-5.824,39.594-16.402S512,410.957,512,396S506.172,366.98,495.594,356.402z
		 M443.331,433.949c-5.071-1.688-9.773-4.391-13.851-8.014c-0.599-0.532-1.19-1.078-1.761-1.649
		c-5.632-5.633-9.377-12.651-10.92-20.285c-0.526-2.605-0.799-5.282-0.799-8c0-2.719,0.273-5.395,0.799-8
		c1.543-7.634,5.287-14.653,10.92-20.285c0.572-0.572,1.162-1.117,1.761-1.649c4.078-3.623,8.78-6.326,13.851-8.014
		C447.364,356.708,451.627,356,456,356s8.636,0.708,12.669,2.051c5.071,1.688,9.773,4.391,13.851,8.014
		c0.599,0.532,1.19,1.078,1.761,1.649c5.632,5.632,9.377,12.651,10.92,20.285c0.526,2.605,0.799,5.281,0.799,8
		c0,2.718-0.273,5.395-0.799,8c-1.542,7.634-5.287,14.653-10.92,20.285c-0.572,0.572-1.162,1.117-1.761,1.649
		c-4.078,3.623-8.78,6.326-13.851,8.014C464.635,435.291,460.373,436,456,436S447.364,435.291,443.331,433.949z"/>
	<path style="fill:#FF9300;" d="M119,148c0.552,0,1-0.448,1-1v-23c0-8.836-7.163-16-16-16l0,0c-8.837,0-16,7.164-16,16v16
		c0,4.418,3.582,8,8,8h16H119z"/>
</g>
<g>
</g>
<g>
</g>
<g>
</g>
<g>
</g>
<g>
</g>
<g>
</g>
<g>
</g>
<g>
</g>
<g>
</g>
<g>
</g>
<g>
</g>
<g>
</g>
<g>
</g>
<g>
</g>
<g>
</g>
</svg>
