<?xml version="1.0" encoding="iso-8859-1"?>
<!-- Generator: Adobe Illustrator 19.0.0, SVG Export Plug-In . SVG Version: 6.00 Build 0)  -->
<svg version="1.1" id="Layer_1" xmlns="http://www.w3.org/2000/svg" xmlns:xlink="http://www.w3.org/1999/xlink" x="0px" y="0px"
	 viewBox="0 0 512.002 512.002" style="enable-background:new 0 0 512.002 512.002;" xml:space="preserve">
<g>
	<g>
		<path style="fill:#E0E0E0;" d="M237.714,292.572c-5.047,0-9.143-4.087-9.143-9.143v-192c0-5.056,4.096-9.143,9.143-9.143
			s9.143,4.087,9.143,9.143v192C246.857,288.485,242.761,292.572,237.714,292.572"/>
		<path style="fill:#E0E0E0;" d="M45.714,292.572c-5.047,0-9.143-4.087-9.143-9.143v-192c0-5.056,4.096-9.143,9.143-9.143
			s9.143,4.087,9.143,9.143v192C54.857,288.485,50.761,292.572,45.714,292.572"/>
	</g>
	<g>
		<path style="fill:#383838;" d="M274.286,137.144H9.143c-5.047,0-9.143-4.087-9.143-9.143s4.096-9.143,9.143-9.143h265.143
			c5.047,0,9.143,4.087,9.143,9.143S279.333,137.144,274.286,137.144"/>
		<path style="fill:#383838;" d="M274.286,173.715H9.143c-5.047,0-9.143-4.087-9.143-9.143s4.096-9.143,9.143-9.143h265.143
			c5.047,0,9.143,4.087,9.143,9.143S279.333,173.715,274.286,173.715"/>
		<path style="fill:#383838;" d="M274.286,210.287H9.143C4.096,210.287,0,206.2,0,201.144c0-5.056,4.096-9.143,9.143-9.143h265.143
			c5.047,0,9.143,4.087,9.143,9.143C283.429,206.2,279.333,210.287,274.286,210.287"/>
		<path style="fill:#383838;" d="M274.286,246.858H9.143c-5.047,0-9.143-4.087-9.143-9.143c0-5.056,4.096-9.143,9.143-9.143h265.143
			c5.047,0,9.143,4.087,9.143,9.143C283.429,242.771,279.333,246.858,274.286,246.858"/>
	</g>
	<path style="fill:#378CD5;" d="M506.413,213.283l-79.451-87.397c-4.069-4.471-9.838-7.031-15.89-7.031h-84.215
		c-8.832,0-16,7.168-16,16v148.571H9.142V361.9c0,7.159,5.797,12.955,12.955,12.955h14.473c0-30.29,24.558-54.857,54.857-54.857
		s54.857,24.567,54.857,54.857h164.571h45.714c0-30.29,24.558-54.857,54.857-54.857c30.299,0,54.857,24.567,54.857,54.857h32.759
		c7.159,0,12.955-5.797,12.955-12.955V227.738C511.999,222.389,510.006,217.242,506.413,213.283"/>
	<path style="fill:#E0E0E0;" d="M426.964,125.891c-4.069-4.48-9.847-7.031-15.899-7.031h-47.918c-3.63,0-6.574,2.944-6.574,6.574
		V222c0,3.63,2.944,6.574,6.574,6.574h148.855v-0.841c0-5.339-1.993-10.496-5.586-14.446L426.964,125.891z"/>
	<g>
		<path style="fill:#494949;" d="M466.286,374.858c0,30.299-24.558,54.857-54.857,54.857c-30.299,0-54.857-24.558-54.857-54.857
			c0-30.299,24.558-54.857,54.857-54.857C441.728,320.001,466.286,344.559,466.286,374.858"/>
		<path style="fill:#494949;" d="M146.286,374.858c0,30.299-24.558,54.857-54.857,54.857s-54.857-24.558-54.857-54.857
			c0-30.299,24.558-54.857,54.857-54.857S146.286,344.559,146.286,374.858"/>
	</g>
	<g>
		<path style="fill:#A2A2A2;" d="M109.714,374.858c0,10.103-8.183,18.286-18.286,18.286s-18.286-8.183-18.286-18.286
			s8.183-18.286,18.286-18.286S109.714,364.755,109.714,374.858"/>
		<path style="fill:#A2A2A2;" d="M429.714,374.858c0,10.103-8.183,18.286-18.286,18.286s-18.286-8.183-18.286-18.286
			s8.183-18.286,18.286-18.286S429.714,364.755,429.714,374.858"/>
	</g>
	<path style="fill:#83BEEB;" d="M512,265.144h-54.857c-5.047,0-9.143,4.087-9.143,9.143c0,5.056,4.096,9.143,9.143,9.143H512
		V265.144z"/>
</g>
<g>
</g>
<g>
</g>
<g>
</g>
<g>
</g>
<g>
</g>
<g>
</g>
<g>
</g>
<g>
</g>
<g>
</g>
<g>
</g>
<g>
</g>
<g>
</g>
<g>
</g>
<g>
</g>
<g>
</g>
</svg>
