<svg width="326.402" height="277.402" xmlns="http://www.w3.org/2000/svg">

 <g>
  <title>background</title>
  <rect fill="none" id="canvas_background" height="279.402" width="328.402" y="-1" x="-1"/>
 </g>
 <g>
  <title>Layer 1</title>
  <g id="svg_1">
   <path id="svg_2" fill="#E4E7E7" d="m28.441,80.883c-9.626,0 -17.502,7.876 -17.502,17.502l0,157.515c-5.251,0 -8.751,3.5 -8.751,8.751s3.5,8.751 8.751,8.751l26.253,0c5.251,0 8.751,-3.5 8.751,-8.751s-3.5,-8.751 -8.751,-8.751l8.751,-175.017c0,0 -17.502,0 -17.502,0zm210.021,175.017l0,-157.515c0,-9.626 -7.876,-17.502 -17.502,-17.502l-17.502,0l8.752,175.017c-5.251,0 -8.751,3.5 -8.751,8.751s3.5,8.751 8.751,8.751l26.253,0c5.251,0 8.751,-3.5 8.751,-8.751s-3.502,-8.751 -8.752,-8.751z"/>
   <g id="svg_3">
    <path id="svg_4" fill="#C8CBCB" d="m45.942,264.651c0,-5.251 -3.5,-8.751 -8.751,-8.751l8.751,-175.017l-17.501,0l0,175.017l8.751,17.502c5.25,0 8.75,-3.5 8.75,-8.751zm175.018,-183.768l-17.502,0l8.752,175.017c-5.251,0 -8.751,3.5 -8.751,8.751s3.5,8.751 8.751,8.751l8.751,-17.502l0,-175.017l-0.001,0z"/>
   </g>
   <path id="svg_5" fill="#324D5B" d="m63.444,238.399l122.512,0l-17.502,17.501l-87.508,0l-17.502,-17.501z"/>
   <path id="svg_6" fill="#E4E7E7" d="m124.701,-4c48.13,0 86.633,38.504 86.633,86.633l0,156.64l-173.267,0l0,-156.64c0,-48.129 38.503,-86.633 86.634,-86.633z"/>
   <path id="svg_7" fill="#324D5B" d="m124.701,19.627c9.626,0 17.502,7.876 17.502,17.502s-7.876,17.502 -17.502,17.502s-17.502,-7.876 -17.502,-17.502s7.875,-17.502 17.502,-17.502z"/>
   <path id="svg_8" fill="#2494BC" d="m38.067,80.883l0,17.502l173.267,0l0,-17.502l-173.267,0zm42.879,61.256l87.509,0l0,-17.502l-87.509,0l0,17.502zm0,35.004l87.509,0l0,-17.502l-87.509,0l0,17.502zm0,35.003l87.509,0l0,-17.502l-87.509,0l0,17.502z"/>
  </g>
  <g id="svg_9"/>
  <g id="svg_10"/>
  <g id="svg_11"/>
  <g id="svg_12"/>
  <g id="svg_13"/>
  <g id="svg_14"/>
  <g id="svg_15"/>
  <g id="svg_16"/>
  <g id="svg_17"/>
  <g id="svg_18"/>
  <g id="svg_19"/>
  <g id="svg_20"/>
  <g id="svg_21"/>
  <g id="svg_22"/>
  <g id="svg_23"/>
  <linearGradient y2="0.736499" x2="0.809279" y1="0.425469" x1="0.197936" id="svg_28">
   <stop stop-color="#FFFFFF" stop-opacity="0.2" offset="0"/>
   <stop stop-color="#FFFFFF" stop-opacity="0" offset="1"/>
  </linearGradient>
  <g stroke="null" id="svg_53">
   <path stroke="null" id="svg_30" fill="#303C42" d="m315.405254,181.075787c-0.460456,-0.48114 -1.089946,-0.696994 -1.699795,-0.580217c-4.34392,0.825212 -17.57248,3.332363 -22.931555,0.218013c-1.337361,-0.777077 -2.928369,-1.811668 -4.631375,-2.979657l3.32121,-5.106256c0.661031,-1.018618 0.480098,-2.455346 -0.409273,-3.21537l-8.05835,-6.907563c-0.881438,-0.753333 -2.132676,-0.557552 -2.809383,0.445308l-3.998862,5.986295c-3.07984,-2.373537 -5.274275,-4.128003 -5.330368,-4.17398c-0.881438,-0.70606 -2.109068,-0.492364 -2.770099,0.505963l-12.087431,18.420168c-0.322583,0.494739 -0.460456,1.115321 -0.377732,1.726837c0.082723,0.611516 0.373766,1.160218 0.810613,1.520048c0,0 2.057885,1.69597 4.987576,4.118506l-38.550404,57.741751c-0.979837,1.459177 -1.518861,3.276025 -1.518861,5.117697l0,1.009552c0,4.64994 3.309123,8.432144 7.377677,8.432144c2.321542,0 4.536753,-1.27052 5.921708,-3.39971l38.494311,-59.170277c2.048253,1.708921 3.947302,3.299985 5.428956,4.554964c3.222622,2.725164 5.9846,11.948847 7.393352,24.671101c0.082723,0.737575 0.472165,1.387297 1.046696,1.738061c0.295198,0.182181 0.625713,0.274351 0.952263,0.274351c0.306907,0 0.613815,-0.078787 0.893148,-0.238303c16.411709,-9.291029 27.594093,-27.996773 29.183779,-48.818323c0.054771,-0.708435 -0.181311,-1.407588 -0.637801,-1.891102z"/>
   <g stroke="null" transform="matrix(0.18886610158550007,0,0,0.21585459408143606,-782.5364347479044,-822.217571062065) " id="svg_31">
    <path stroke="null" id="svg_32" fill="#8E532A" d="m5626.81398,4585.392632l25.708,19.281l-12.354,16.617c-9.216,-5.815 -18.512,-11.853 -27.289,-17.647l13.935,-18.251z"/>
    <path stroke="null" id="svg_33" fill="#8E532A" d="m5358.04298,5000.705632c-3.333,4.479 -8.646,7.146 -14.229,7.146c-9.771,0 -17.729,-7.958 -17.729,-17.729l0,-4.677c0,-3.865 1.292,-7.677 3.646,-10.75l204.46,-267.938c8.822,6.393 18.22,13.215 27.549,20l-203.697,273.948z"/>
   </g>
   <path stroke="null" id="svg_34" fill="#BEB0A3" d="m278.973928,201.640686c-5.441799,-4.604826 -16.35656,-13.62798 -20.519546,-17.063737l9.691286,-14.768124c4.048911,3.192921 14.707948,11.471808 20.802846,15.013119c2.986917,1.733528 7.439625,2.133723 12.153156,1.92715c-1.95042,11.219043 -7.599972,20.974807 -15.882695,27.439868c-1.422728,-5.288653 -3.415832,-10.151642 -6.245047,-12.548275z"/>
   <path stroke="null" id="svg_35" opacity="0.2" fill="#FFFFFF" d="m263.893347,183.632584c2.834314,-4.319035 8.115388,-5.375859 12.05589,-2.39836c4.606066,3.480439 10.09206,7.459287 13.846152,9.640714c2.480379,1.439534 5.988377,1.930603 9.800073,1.94744c0.611548,-1.973127 1.143018,-3.98705 1.505829,-6.073069c-4.713531,0.206573 -9.166239,-0.193622 -12.153156,-1.92715c-6.094898,-3.54131 -16.753934,-11.820198 -20.802846,-15.013119l-9.691286,14.768124c0.802681,0.662458 1.908114,1.575523 3.125167,2.581837l2.314176,-3.526417z"/>
   <path stroke="null" id="svg_36" fill="#DFE1DF" d="m287.559403,226.144715c-0.305585,-2.255465 -0.713725,-4.752255 -1.228952,-7.280128c10.096404,-7.344884 16.896339,-18.99024 18.92325,-32.42395c2.215966,-0.239383 4.415689,-0.564676 6.480563,-0.921699c-2.116811,16.976316 -11.13139,32.117653 -24.174861,40.625777z"/>
   <path stroke="null" id="svg_37" fill="url(#svg_28)" d="m315.405254,181.075787c-0.460456,-0.48114 -1.089946,-0.696994 -1.699795,-0.580217c-4.34392,0.825212 -17.57248,3.332363 -22.931555,0.218013c-1.337361,-0.777077 -2.928369,-1.811668 -4.631375,-2.979657l3.32121,-5.106256c0.661031,-1.018618 0.480098,-2.455346 -0.409273,-3.21537l-8.05835,-6.907563c-0.881438,-0.753333 -2.132676,-0.557552 -2.809383,0.445308l-3.998862,5.986295c-3.07984,-2.373537 -5.274275,-4.128003 -5.330368,-4.17398c-0.881438,-0.70606 -2.109068,-0.492364 -2.770099,0.505963l-12.087431,18.420168c-0.322583,0.494739 -0.460456,1.115321 -0.377732,1.726837c0.082723,0.611516 0.373766,1.160218 0.810613,1.520048c0,0 2.057885,1.69597 4.987576,4.118506l-38.550404,57.741751c-0.979837,1.459177 -1.518861,3.276025 -1.518861,5.117697l0,1.009552c0,4.64994 3.309123,8.432144 7.377677,8.432144c2.321542,0 4.536753,-1.27052 5.921708,-3.39971l38.494311,-59.170277c2.048253,1.708921 3.947302,3.299985 5.428956,4.554964c3.222622,2.725164 5.9846,11.948847 7.393352,24.671101c0.082723,0.737575 0.472165,1.387297 1.046696,1.738061c0.295198,0.182181 0.625713,0.274351 0.952263,0.274351c0.306907,0 0.613815,-0.078787 0.893148,-0.238303c16.411709,-9.291029 27.594093,-27.996773 29.183779,-48.818323c0.054771,-0.708435 -0.181311,-1.407588 -0.637801,-1.891102z"/>
   <g stroke="null" transform="matrix(0.18886610158550007,0,0,0.21585459408143606,-782.5364347479044,-822.217571062065) " id="svg_38"/>
   <g stroke="null" transform="matrix(0.18886610158550007,0,0,0.21585459408143606,-782.5364347479044,-822.217571062065) " id="svg_39"/>
   <g stroke="null" transform="matrix(0.18886610158550007,0,0,0.21585459408143606,-782.5364347479044,-822.217571062065) " id="svg_40"/>
   <g stroke="null" transform="matrix(0.18886610158550007,0,0,0.21585459408143606,-782.5364347479044,-822.217571062065) " id="svg_41"/>
   <g stroke="null" transform="matrix(0.18886610158550007,0,0,0.21585459408143606,-782.5364347479044,-822.217571062065) " id="svg_42"/>
   <g stroke="null" transform="matrix(0.18886610158550007,0,0,0.21585459408143606,-782.5364347479044,-822.217571062065) " id="svg_43"/>
   <g stroke="null" transform="matrix(0.18886610158550007,0,0,0.21585459408143606,-782.5364347479044,-822.217571062065) " id="svg_44"/>
   <g stroke="null" transform="matrix(0.18886610158550007,0,0,0.21585459408143606,-782.5364347479044,-822.217571062065) " id="svg_45"/>
   <g stroke="null" transform="matrix(0.18886610158550007,0,0,0.21585459408143606,-782.5364347479044,-822.217571062065) " id="svg_46"/>
   <g stroke="null" transform="matrix(0.18886610158550007,0,0,0.21585459408143606,-782.5364347479044,-822.217571062065) " id="svg_47"/>
   <g stroke="null" transform="matrix(0.18886610158550007,0,0,0.21585459408143606,-782.5364347479044,-822.217571062065) " id="svg_48"/>
   <g stroke="null" transform="matrix(0.18886610158550007,0,0,0.21585459408143606,-782.5364347479044,-822.217571062065) " id="svg_49"/>
   <g stroke="null" transform="matrix(0.18886610158550007,0,0,0.21585459408143606,-782.5364347479044,-822.217571062065) " id="svg_50"/>
   <g stroke="null" transform="matrix(0.18886610158550007,0,0,0.21585459408143606,-782.5364347479044,-822.217571062065) " id="svg_51"/>
   <g stroke="null" transform="matrix(0.18886610158550007,0,0,0.21585459408143606,-782.5364347479044,-822.217571062065) " id="svg_52"/>
  </g>
 </g>
</svg>