<?xml version="1.0" encoding="iso-8859-1"?>
<!-- Generator: Adobe Illustrator 19.0.0, SVG Export Plug-In . SVG Version: 6.00 Build 0)  -->
<svg version="1.1" id="Layer_1" xmlns="http://www.w3.org/2000/svg" xmlns:xlink="http://www.w3.org/1999/xlink" x="0px" y="0px"
	 viewBox="0 0 512 512" style="enable-background:new 0 0 512 512;" xml:space="preserve">
<circle style="fill:#273B7A;" cx="256" cy="256" r="256"/>
<path style="fill:#121149;" d="M96.084,317.343l192.59,192.59c107.194-13.655,193.674-93.606,217.06-197.446L347.841,154.595
	L184.33,135.618l-30.165,30.165v90.667l5.875,5.875l-9.509,5.01l30.979,30.979v12.779L96.084,317.343z"/>
<path style="fill:#FFFFFF;" d="M191.509,246.896l-33.723,0.002l0.002,90.519c0,11.033,6.372,20.649,15.455,23.324l18.27,5.382
	l-5.11-8.514l5.11-8.514l-5.11-8.514l5.11-8.516l-5.11-8.516l5.11-8.514l-5.11-8.516l5.11-8.516l-5.11-8.516l5.11-8.514l-5.11-8.518
	l5.11-8.516l-5.11-8.521L191.509,246.896z"/>
<path style="fill:#D0D1D3;" d="M191.509,366.123l-5.11-8.514l5.11-8.514l-5.11-8.514l5.11-8.516l-5.11-8.516l5.11-8.514l-5.11-8.516
	l5.11-8.516l-5.11-8.516l5.11-8.514l-5.11-8.518l5.11-8.514l-5.11-8.521l5.11-8.521l-19.69,0.002v113.349
	c0.467,0.181,0.94,0.353,1.424,0.496L191.509,366.123z"/>
<path style="fill:#E09112;" d="M305.964,131.96l-83.646-10.455c-39.174-4.896-73.775,25.648-73.775,65.127v73.811
	c0,7.194,5.832,13.026,13.026,13.026h188.863c7.194,0,13.026-5.832,13.026-13.026v-63.355
	C363.456,163.987,338.81,136.066,305.964,131.96z M332.191,192.874h-87.257v-11.629c0-16.029,14.048-28.431,29.953-26.441
	l33.961,4.246c13.336,1.667,23.343,13.003,23.343,26.441V192.874z"/>
<path style="fill:#FF5419;" d="M305.964,131.96l-49.676-6.21v33.685c5.198-3.651,11.723-5.491,18.599-4.632l33.961,4.244
	c13.336,1.667,23.343,13.003,23.343,26.443v7.383h-75.904v80.593h94.144c7.194,0,13.026-5.832,13.026-13.026v-63.355
	C363.456,163.987,338.81,136.064,305.964,131.96z"/>
<g>
	<path style="fill:#FFC61B;" d="M215.704,260.443L215.704,260.443c-2.698,0-4.884-2.188-4.884-4.884v-32.563
		c0-2.698,2.188-4.884,4.884-4.884l0,0c2.698,0,4.884,2.188,4.884,4.884v32.563C220.588,258.255,218.402,260.443,215.704,260.443z"
		/>
	<path style="fill:#FFC61B;" d="M234.02,260.443L234.02,260.443c-2.698,0-4.884-2.188-4.884-4.884v-32.563
		c0-2.698,2.188-4.884,4.884-4.884l0,0c2.698,0,4.884,2.188,4.884,4.884v32.563C238.904,258.255,236.718,260.443,234.02,260.443z"/>
</g>
<path style="fill:#930000;" d="M321.388,260.443h-13.552c-4.801,0-8.692-3.891-8.692-8.692v-24.948c0-4.801,3.891-8.692,8.692-8.692
	h13.552c4.801,0,8.692,3.891,8.692,8.692v24.948C330.08,256.552,326.189,260.443,321.388,260.443z"/>
<g>
	<path style="fill:#FFC61B;" d="M197.387,260.443L197.387,260.443c-2.698,0-4.884-2.188-4.884-4.884v-32.563
		c0-2.698,2.188-4.884,4.884-4.884l0,0c2.698,0,4.884,2.188,4.884,4.884v32.563C202.271,258.255,200.085,260.443,197.387,260.443z"
		/>
	<path style="fill:#FFC61B;" d="M411.486,319.462H100.514c-3.148,0-5.699-2.551-5.699-5.699l0,0c0-3.148,2.551-5.699,5.699-5.699
		h310.974c3.148,0,5.699,2.551,5.699,5.699l0,0C417.185,316.911,414.634,319.462,411.486,319.462z"/>
</g>
<path style="fill:#EAA22F;" d="M411.486,308.065H257.15v11.397h154.336c3.148,0,5.699-2.551,5.699-5.698
	C417.185,310.617,414.634,308.065,411.486,308.065z"/>
<g>
</g>
<g>
</g>
<g>
</g>
<g>
</g>
<g>
</g>
<g>
</g>
<g>
</g>
<g>
</g>
<g>
</g>
<g>
</g>
<g>
</g>
<g>
</g>
<g>
</g>
<g>
</g>
<g>
</g>
</svg>
