<?xml version="1.0" encoding="iso-8859-1"?>
<!-- Generator: Adobe Illustrator 19.0.0, SVG Export Plug-In . SVG Version: 6.00 Build 0)  -->
<svg version="1.1" id="Layer_1" xmlns="http://www.w3.org/2000/svg" xmlns:xlink="http://www.w3.org/1999/xlink" x="0px" y="0px"
	 viewBox="0 0 511.997 511.997" style="enable-background:new 0 0 511.997 511.997;" xml:space="preserve">
<rect x="0.208" y="346.305" transform="matrix(-0.7071 0.7071 -0.7071 -0.7071 319.6937 591.5333)" style="fill:#424242;" width="74.257" height="31.345"/>
<g>
	<polygon style="fill:#C2C2C2;" points="73.073,304.068 30.341,346.801 111.441,400.624 126.444,415.628 196.454,345.619 
		181.449,330.615 	"/>
	<polygon style="fill:#C2C2C2;" points="198.772,178.369 151.72,225.421 219.305,293.005 238.619,312.319 335.084,215.853 
		315.77,196.538 	"/>
</g>
<path style="fill:#FFAC00;" d="M361.696,88.854l-18.299,18.299c-16.986,16.986-16.986,44.527,0,61.514l79.813-79.813
	C406.224,71.868,378.682,71.868,361.696,88.854z"/>
<g>
	
		<rect x="116.503" y="227.021" transform="matrix(-0.7071 0.7071 -0.7071 -0.7071 438.9503 303.5686)" style="fill:#424242;" width="80.203" height="31.345"/>
	
		<rect x="294.463" y="404.989" transform="matrix(-0.7071 0.7071 -0.7071 -0.7071 868.5892 481.5421)" style="fill:#424242;" width="80.203" height="31.345"/>
</g>
<path style="fill:#C2C2C2;" d="M449.45,62.628L111.447,400.631l31.064,31.064l128.494-86.989l230.261-230.261
	c14.308-14.308,14.309-37.508,0-51.817C486.958,48.32,463.759,48.32,449.45,62.628z"/>
<g>
	<path style="fill:#EAEAEA;" d="M501.266,62.628c-14.308-14.308-37.508-14.308-51.817,0L111.447,400.631l25.908,25.908
		L501.266,62.628z"/>
	<polygon style="fill:#EAEAEA;" points="273.989,190.05 198.772,178.369 151.72,225.421 195.169,268.87 	"/>
</g>
<polygon style="fill:#C2C2C2;" points="258.051,331.753 351.844,425.545 398.896,378.493 373.681,216.123 "/>
<polygon style="fill:#EAEAEA;" points="258.051,331.753 303.348,377.048 385.858,294.538 373.681,216.123 "/>
<g>
</g>
<g>
</g>
<g>
</g>
<g>
</g>
<g>
</g>
<g>
</g>
<g>
</g>
<g>
</g>
<g>
</g>
<g>
</g>
<g>
</g>
<g>
</g>
<g>
</g>
<g>
</g>
<g>
</g>
</svg>
