<?xml version="1.0" encoding="iso-8859-1"?>
<!-- Generator: Adobe Illustrator 19.0.0, SVG Export Plug-In . SVG Version: 6.00 Build 0)  -->
<svg version="1.1" id="Capa_1" xmlns="http://www.w3.org/2000/svg" xmlns:xlink="http://www.w3.org/1999/xlink" x="0px" y="0px"
	 viewBox="0 0 512.001 512.001" style="enable-background:new 0 0 512.001 512.001;" xml:space="preserve">
<path style="fill:#6E77E5;" d="M13.204,76.837c17.604,17.604,46.027,17.605,63.633,0s17.604-46.029,0-63.633
	c-17.605-17.605-46.027-17.605-63.633,0S-4.401,59.232,13.204,76.837z"/>
<path style="fill:#4C5CE1;" d="M13.204,76.837c17.604,17.604,46.027,17.605,63.633,0L13.204,13.204
	C-4.401,30.81-4.401,59.232,13.204,76.837z"/>
<path style="fill:#FEC478;" d="M98.048,140.47l315.198,315.198c22.484,22.484,48.573,40.937,77.208,54.723
	c5.938,2.971,12.726,1.699,17.181-2.757c4.456-4.456,5.727-11.243,2.757-17.181c-13.787-28.636-32.24-54.724-54.723-77.208
	L140.471,98.048c-5.939-5.939-15.271-5.939-21.211,0l-21.211,21.211C92.109,125.199,92.109,134.53,98.048,140.47z"/>
<path style="fill:#FEB756;" d="M98.048,140.47l315.198,315.198c22.484,22.484,48.573,40.937,77.208,54.723
	c5.938,2.971,12.726,1.699,17.181-2.757L108.654,108.654L98.048,119.26C92.109,125.199,92.109,134.53,98.048,140.47z"/>
<path style="fill:#6E77E5;" d="M66.233,172.287c11.666,11.666,30.756,11.666,42.421,0l63.633-63.633
	c11.666-11.666,11.666-30.756,0-42.421s-30.756-11.666-42.421,0L76.837,76.837l-10.606,53.027
	C54.566,141.53,54.566,160.621,66.233,172.287z"/>
<path style="fill:#4C5CE1;" d="M66.233,172.287c11.666,11.666,30.756,11.666,42.421,0l31.817-31.817L76.837,76.837l-10.606,53.027
	C54.566,141.53,54.566,160.621,66.233,172.287z"/>
<path style="fill:#7986E8;" d="M23.81,129.865c11.666,11.666,30.756,11.666,42.421,0l63.633-63.633
	c11.666-11.666,11.666-30.756,0-42.421c-11.666-11.666-30.756-11.666-42.421,0L23.81,87.443
	C12.144,99.109,12.144,118.199,23.81,129.865z"/>
<path style="fill:#6E77E5;" d="M23.81,129.865c11.666,11.666,30.756,11.666,42.421,0l31.817-31.817L55.627,55.626L23.81,87.443
	C12.144,99.109,12.144,118.199,23.81,129.865z"/>
<path style="fill:#FE318F;" d="M498.796,13.259c-17.605-17.605-46.027-17.605-63.633,0c-17.604,17.604-17.605,46.027,0,63.633
	c17.605,17.605,46.029,17.604,63.633,0C516.402,59.287,516.402,30.865,498.796,13.259z"/>
<path style="fill:#FD0F7F;" d="M498.796,76.892c-17.604,17.604-46.027,17.605-63.633,0l63.633-63.633
	C516.402,30.865,516.402,59.287,498.796,76.892z"/>
<path style="fill:#FEDBAB;" d="M413.952,140.524L98.809,455.669c-22.484,22.484-48.573,40.937-77.208,54.723
	c-5.938,2.971-12.726,1.699-17.181-2.757s-5.727-11.243-2.757-17.181c13.787-28.636,32.24-54.724,54.723-77.208L371.531,98.103
	c5.939-5.939,15.271-5.939,21.211,0l21.211,21.211C419.893,125.254,419.893,134.585,413.952,140.524z"/>
<path style="fill:#FEC478;" d="M413.952,140.524L98.809,455.669c-22.484,22.484-48.573,40.937-77.208,54.723
	c-5.938,2.971-12.726,1.699-17.181-2.757l398.927-398.926l10.606,10.606C419.893,125.254,419.893,134.585,413.952,140.524z"/>
<path style="fill:#FE318F;" d="M445.769,172.341c-11.666,11.666-30.756,11.666-42.421,0l-63.633-63.633
	c-11.666-11.666-11.666-30.756,0-42.421c11.666-11.666,30.756-11.666,42.421,0l53.028,10.606l10.606,53.027
	C457.434,141.585,457.434,160.675,445.769,172.341z"/>
<path style="fill:#FD0F7F;" d="M445.769,172.341c-11.666,11.666-30.756,11.666-42.421,0l-31.817-31.817l63.633-63.633l10.606,53.027
	C457.434,141.585,457.434,160.675,445.769,172.341z"/>
<path style="fill:#FE73B1;" d="M488.191,129.919c-11.666,11.666-30.756,11.666-42.421,0l-63.633-63.633
	c-11.666-11.666-11.666-30.756,0-42.421s30.756-11.666,42.421,0l63.633,63.633C499.857,99.163,499.857,118.254,488.191,129.919z"/>
<path style="fill:#FE52A2;" d="M488.191,129.919c-11.666,11.666-30.756,11.666-42.421,0l-31.817-31.817l42.421-42.421l31.817,31.817
	C499.857,99.163,499.857,118.254,488.191,129.919z"/>
<g>
</g>
<g>
</g>
<g>
</g>
<g>
</g>
<g>
</g>
<g>
</g>
<g>
</g>
<g>
</g>
<g>
</g>
<g>
</g>
<g>
</g>
<g>
</g>
<g>
</g>
<g>
</g>
<g>
</g>
</svg>
