<?xml version="1.0" encoding="iso-8859-1"?>
<!-- Generator: Adobe Illustrator 19.0.0, SVG Export Plug-In . SVG Version: 6.00 Build 0)  -->
<svg version="1.1" id="Capa_1" xmlns="http://www.w3.org/2000/svg" xmlns:xlink="http://www.w3.org/1999/xlink" x="0px" y="0px"
	 viewBox="0 0 512.001 512.001" style="enable-background:new 0 0 512.001 512.001;" xml:space="preserve">
<g>
	<g>
		<path d="M498.84,13.161c-17.547-17.547-46.093-17.547-63.64,0c-3.759,3.759-7.312,9.198-9.459,13.751l-2.146-2.146
			c-11.717-11.715-30.71-11.715-42.427,0c-11.715,11.717-11.715,30.712,0,42.427l63.64,63.64c11.715,11.715,30.71,11.715,42.426,0
			c11.717-11.717,11.717-30.712,0-42.427l-2.148-2.148c4.554-2.15,9.994-5.698,13.755-9.459
			C516.387,59.254,516.387,30.706,498.84,13.161z"/>
	</g>
</g>
<g>
	<g>
		<path d="M423.594,152.046l-63.64-63.64c-11.715-11.715-30.71-11.715-42.427,0c-11.716,11.715-11.716,30.711,0,42.428l63.64,63.638
			c11.717,11.717,30.71,11.717,42.427,0C435.309,182.757,435.309,163.762,423.594,152.046z"/>
	</g>
</g>
<g>
	<g>
		<path d="M306.92,162.652L56.389,413.184C33.944,435.63,15.476,461.64,1.503,490.466c-2.787,5.748-1.628,12.627,2.889,17.142
			c4.515,4.515,11.393,5.676,17.142,2.889c28.826-13.973,54.835-32.441,77.281-54.886l250.531-250.532L306.92,162.652z"/>
	</g>
</g>
<g>
	<g>
		<path d="M130.832,24.767c-11.717-11.715-30.71-11.715-42.427,0l-2.146,2.146c-2.148-4.554-5.7-9.992-9.459-13.751
			c-17.547-17.547-46.093-17.547-63.64,0c-17.547,17.545-17.547,46.093,0,63.638c3.76,3.76,9.201,7.309,13.754,9.459l-2.148,2.148
			c-11.717,11.715-11.717,30.71,0,42.427c11.715,11.715,30.71,11.715,42.426,0l63.64-63.64
			C142.547,55.479,142.547,36.484,130.832,24.767z"/>
	</g>
</g>
<g>
	<g>
		<path d="M194.472,88.407c-11.717-11.716-30.712-11.716-42.427-0.001l-63.64,63.64c-11.715,11.715-11.715,30.71,0,42.426
			c11.717,11.717,30.71,11.717,42.427,0l63.64-63.638C206.187,119.117,206.187,100.122,194.472,88.407z"/>
	</g>
</g>
<g>
	<g>
		
			<rect x="168.723" y="177.718" transform="matrix(0.7071 -0.7071 0.7071 0.7071 -82.3139 198.7231)" width="59.999" height="42.01"/>
	</g>
</g>
<g>
	<g>
		<path d="M510.496,490.466c-13.973-28.826-32.441-54.836-54.886-77.281L319.64,277.214l-42.427,42.427l135.971,135.971
			c22.447,22.445,48.455,40.913,77.281,54.886c5.749,2.787,12.626,1.626,17.142-2.89
			C512.124,503.093,513.283,496.213,510.496,490.466z"/>
	</g>
</g>
<g>
</g>
<g>
</g>
<g>
</g>
<g>
</g>
<g>
</g>
<g>
</g>
<g>
</g>
<g>
</g>
<g>
</g>
<g>
</g>
<g>
</g>
<g>
</g>
<g>
</g>
<g>
</g>
<g>
</g>
</svg>
