<svg width="512" height="512" xmlns="http://www.w3.org/2000/svg">
 <defs>
  <linearGradient y2="0.736499" x2="0.809279" y1="0.425469" x1="0.197936" id="SVGID_1_">
   <stop stop-color="#FFFFFF" stop-opacity="0.2" offset="0"/>
   <stop stop-color="#FFFFFF" stop-opacity="0" offset="1"/>
  </linearGradient>
 </defs>
 <g>
  <title>background</title>
  <rect fill="none" id="canvas_background" height="402" width="582" y="-1" x="-1"/>
 </g>
 <g>
  <title>Layer 1</title>
  <path id="svg_1" fill="#303C42" d="m508.583,109.488c-2.438,-2.229 -5.771,-3.229 -9,-2.688c-23,3.823 -93.042,15.438 -121.417,1.01c-7.081,-3.6 -15.505,-8.393 -24.522,-13.804l17.585,-23.656c3.5,-4.719 2.542,-11.375 -2.167,-14.896l-42.667,-32.001c-4.667,-3.49 -11.292,-2.583 -14.875,2.063l-21.173,27.733c-16.307,-10.996 -27.926,-19.124 -28.223,-19.337c-4.667,-3.271 -11.167,-2.281 -14.667,2.344l-64,85.336c-1.708,2.292 -2.438,5.167 -2,8c0.438,2.833 1.979,5.375 4.292,7.042c0,0 10.896,7.857 26.408,19.08l-204.115,267.503c-5.188,6.76 -8.042,15.177 -8.042,23.709l0,4.677c0,21.542 17.521,39.064 39.063,39.064c12.292,0 24.021,-5.886 31.354,-15.75l203.818,-274.121c10.845,7.917 20.9,15.288 28.745,21.102c17.063,12.625 31.687,55.356 39.146,114.295c0.438,3.417 2.5,6.427 5.542,8.052c1.563,0.844 3.313,1.271 5.042,1.271c1.625,0 3.25,-0.365 4.729,-1.104c86.896,-43.043 146.104,-129.702 154.521,-226.163c0.29,-3.282 -0.96,-6.521 -3.377,-8.761z"/>
  <g id="svg_2">
   <path id="svg_3" fill="#8E532A" d="m322.063,46.875l25.708,19.281l-12.354,16.617c-9.216,-5.815 -18.512,-11.853 -27.289,-17.647l13.935,-18.251z"/>
   <path id="svg_4" fill="#8E532A" d="m53.292,462.188c-3.333,4.479 -8.646,7.146 -14.229,7.146c-9.771,0 -17.729,-7.958 -17.729,-17.729l0,-4.677c0,-3.865 1.292,-7.677 3.646,-10.75l204.46,-267.938c8.822,6.393 18.22,13.215 27.549,20l-203.697,273.948z"/>
  </g>
  <path id="svg_5" fill="#BEB0A3" d="m315.688,204.76c-28.813,-21.333 -86.604,-63.135 -108.646,-79.052l51.313,-68.417c21.438,14.792 77.875,53.146 110.146,69.552c15.815,8.031 39.391,9.885 64.348,8.928c-10.327,51.975 -40.24,97.171 -84.095,127.122c-7.533,-24.501 -18.086,-47.03 -33.066,-58.133z"/>
  <path id="svg_6" opacity="0.2" fill="#FFFFFF" d="m235.84,121.333c15.007,-20.009 42.969,-24.905 63.833,-11.111c24.388,16.124 53.435,34.557 73.312,44.663c13.133,6.669 31.707,8.944 51.889,9.022c3.238,-9.141 6.052,-18.471 7.973,-28.135c-24.957,0.957 -48.533,-0.897 -64.348,-8.928c-32.271,-16.406 -88.708,-54.76 -110.146,-69.552l-51.313,68.417c4.25,3.069 10.103,7.299 16.547,11.961l12.253,-16.337z"/>
  <path id="svg_7" fill="#DFE1DF" d="m361.146,318.281c-1.618,-10.449 -3.779,-22.016 -6.507,-33.727c53.458,-34.027 89.462,-87.977 100.194,-150.212c11.733,-1.109 23.38,-2.616 34.313,-4.27c-11.208,78.647 -58.938,148.793 -128,188.209z"/>
  <path id="svg_8" fill="url(#SVGID_1_)" d="m508.583,109.488c-2.438,-2.229 -5.771,-3.229 -9,-2.688c-23,3.823 -93.042,15.438 -121.417,1.01c-7.081,-3.6 -15.505,-8.393 -24.522,-13.804l17.585,-23.656c3.5,-4.719 2.542,-11.375 -2.167,-14.896l-42.667,-32.001c-4.667,-3.49 -11.292,-2.583 -14.875,2.063l-21.173,27.733c-16.307,-10.996 -27.926,-19.124 -28.223,-19.337c-4.667,-3.271 -11.167,-2.281 -14.667,2.344l-64,85.336c-1.708,2.292 -2.438,5.167 -2,8c0.438,2.833 1.979,5.375 4.292,7.042c0,0 10.896,7.857 26.408,19.08l-204.115,267.503c-5.188,6.76 -8.042,15.177 -8.042,23.709l0,4.677c0,21.542 17.521,39.064 39.063,39.064c12.292,0 24.021,-5.886 31.354,-15.75l203.818,-274.121c10.845,7.917 20.9,15.288 28.745,21.102c17.063,12.625 31.687,55.356 39.146,114.295c0.438,3.417 2.5,6.427 5.542,8.052c1.563,0.844 3.313,1.271 5.042,1.271c1.625,0 3.25,-0.365 4.729,-1.104c86.896,-43.043 146.104,-129.702 154.521,-226.163c0.29,-3.282 -0.96,-6.521 -3.377,-8.761z"/>
  <g id="svg_9"/>
  <g id="svg_10"/>
  <g id="svg_11"/>
  <g id="svg_12"/>
  <g id="svg_13"/>
  <g id="svg_14"/>
  <g id="svg_15"/>
  <g id="svg_16"/>
  <g id="svg_17"/>
  <g id="svg_18"/>
  <g id="svg_19"/>
  <g id="svg_20"/>
  <g id="svg_21"/>
  <g id="svg_22"/>
  <g id="svg_23"/>
  <g stroke="null" id="svg_51">
   <path stroke="null" id="svg_28" fill="#FFDC64" d="m92.993125,33.501153l-25.831135,-2.086946l-10.260914,-20.755555c-0.718492,-1.453325 -3.083914,-1.453325 -3.802213,0l-10.260914,20.755387l-25.831135,2.087114c-1.808784,0.146039 -2.539637,2.10579 -1.175082,3.150104l19.489671,14.914496l-5.703705,22.045343c-0.39942,1.543674 1.514434,2.754721 3.076188,1.946964l22.306082,-11.537762l22.306082,11.537762c1.561947,0.807926 3.475415,-0.40329 3.076188,-1.946964l-5.703898,-22.045343l19.489865,-14.914496c1.364555,-1.044314 0.633509,-3.004065 -1.175082,-3.150104z"/>
   <g stroke="null" transform="matrix(0.19314297571397665,0,0,0.16824781182545456,-193.79306005418232,-145.59245378307304) " id="svg_29">
    <path stroke="null" id="svg_30" fill="#FFF082" d="m1151.406784,924.449245c6.818,9.47 26.062,50.14 37.064,73.842c1.73,3.726 -2.945,7.092 -5.93,4.269c-18.987,-17.952 -51.452,-49.104 -58.27,-58.575c-5.395,-7.493 -3.694,-17.941 3.8,-23.336c7.493,-5.395 17.941,-3.693 23.336,3.8z"/>
    <path stroke="null" id="svg_31" fill="#FFF082" d="m1424.850784,924.449245c-6.818,9.47 -26.062,50.14 -37.064,73.842c-1.73,3.726 2.945,7.092 5.93,4.269c18.987,-17.952 51.451,-49.105 58.27,-58.575c5.395,-7.493 3.694,-17.941 -3.8,-23.336c-7.493,-5.395 -17.941,-3.693 -23.336,3.8z"/>
    <path stroke="null" id="svg_32" fill="#FFF082" d="m1532.589784,1202.155245c-11.094,-3.618 -55.689,-9.595 -81.612,-12.875c-4.075,-0.516 -5.861,4.961 -2.266,6.947c22.873,12.635 62.416,34.099 73.51,37.717c8.778,2.863 18.215,-1.932 21.078,-10.711c2.863,-8.779 -1.932,-18.215 -10.71,-21.078z"/>
    <path stroke="null" id="svg_33" fill="#FFF082" d="m1043.667784,1202.155245c11.094,-3.618 55.689,-9.595 81.612,-12.875c4.075,-0.516 5.861,4.961 2.266,6.947c-22.873,12.635 -62.416,34.099 -73.51,37.717c-8.778,2.863 -18.215,-1.932 -21.078,-10.711s1.932,-18.215 10.71,-21.078z"/>
    <path stroke="null" id="svg_34" fill="#FFF082" d="m1271.922784,1390.836245c0,-11.669 8.145,-55.919 13.065,-81.582c0.773,-4.034 6.534,-4.034 7.307,0c4.92,25.663 13.065,69.913 13.065,81.582c0,9.233 -7.485,16.718 -16.718,16.718c-9.234,0.001 -16.719,-7.485 -16.719,-16.718z"/>
   </g>
   <path stroke="null" id="svg_35" fill="#FFC850" d="m60.632212,18.206249l-3.731329,-7.547597c-0.718492,-1.453325 -3.083914,-1.453325 -3.802213,0l-10.260914,20.755387l-25.830942,2.087114c-1.808784,0.146039 -2.539637,2.10579 -1.175082,3.150104l19.489671,14.914496l-5.703705,22.045343c-0.39942,1.543674 1.514434,2.754721 3.076188,1.946964l2.968801,-1.535598c4.86701,-27.444583 18.549645,-47.590913 24.969524,-55.816212z"/>
   <g stroke="null" transform="matrix(0.19314297571397665,0,0,0.16824781182545456,-193.79306005418232,-145.59245378307304) " id="svg_36"/>
   <g stroke="null" transform="matrix(0.19314297571397665,0,0,0.16824781182545456,-193.79306005418232,-145.59245378307304) " id="svg_37"/>
   <g stroke="null" transform="matrix(0.19314297571397665,0,0,0.16824781182545456,-193.79306005418232,-145.59245378307304) " id="svg_38"/>
   <g stroke="null" transform="matrix(0.19314297571397665,0,0,0.16824781182545456,-193.79306005418232,-145.59245378307304) " id="svg_39"/>
   <g stroke="null" transform="matrix(0.19314297571397665,0,0,0.16824781182545456,-193.79306005418232,-145.59245378307304) " id="svg_40"/>
   <g stroke="null" transform="matrix(0.19314297571397665,0,0,0.16824781182545456,-193.79306005418232,-145.59245378307304) " id="svg_41"/>
   <g stroke="null" transform="matrix(0.19314297571397665,0,0,0.16824781182545456,-193.79306005418232,-145.59245378307304) " id="svg_42"/>
   <g stroke="null" transform="matrix(0.19314297571397665,0,0,0.16824781182545456,-193.79306005418232,-145.59245378307304) " id="svg_43"/>
   <g stroke="null" transform="matrix(0.19314297571397665,0,0,0.16824781182545456,-193.79306005418232,-145.59245378307304) " id="svg_44"/>
   <g stroke="null" transform="matrix(0.19314297571397665,0,0,0.16824781182545456,-193.79306005418232,-145.59245378307304) " id="svg_45"/>
   <g stroke="null" transform="matrix(0.19314297571397665,0,0,0.16824781182545456,-193.79306005418232,-145.59245378307304) " id="svg_46"/>
   <g stroke="null" transform="matrix(0.19314297571397665,0,0,0.16824781182545456,-193.79306005418232,-145.59245378307304) " id="svg_47"/>
   <g stroke="null" transform="matrix(0.19314297571397665,0,0,0.16824781182545456,-193.79306005418232,-145.59245378307304) " id="svg_48"/>
   <g stroke="null" transform="matrix(0.19314297571397665,0,0,0.16824781182545456,-193.79306005418232,-145.59245378307304) " id="svg_49"/>
   <g stroke="null" transform="matrix(0.19314297571397665,0,0,0.16824781182545456,-193.79306005418232,-145.59245378307304) " id="svg_50"/>
  </g>
  <g stroke="null" id="svg_75">
   <path stroke="null" id="svg_52" fill="#FFDC64" d="m180.993125,33.501153l-25.831135,-2.086946l-10.260914,-20.755555c-0.718492,-1.453324 -3.083914,-1.453324 -3.802212,0l-10.260914,20.755387l-25.831135,2.087114c-1.808784,0.146039 -2.539637,2.105789 -1.175082,3.150104l19.489672,14.914495l-5.703705,22.045343c-0.39942,1.543673 1.514434,2.754721 3.076188,1.946963l22.306082,-11.537762l22.306082,11.537762c1.561948,0.807926 3.475415,-0.40329 3.076188,-1.946963l-5.703898,-22.045343l19.489865,-14.914495c1.364555,-1.044315 0.633509,-3.004065 -1.175082,-3.150104z"/>
   <g stroke="null" transform="matrix(0.19314297571397665,0,0,0.16824781182545456,-193.79306005418232,-145.59245378307304) " id="svg_58">
    <path stroke="null" id="svg_53" fill="#FFF082" d="m1607.027817,924.449245c6.818,9.47 26.062,50.14 37.064,73.842c1.73,3.726 -2.945,7.092 -5.93,4.269c-18.987,-17.952 -51.452,-49.104 -58.27,-58.575c-5.395,-7.493 -3.694,-17.941 3.8,-23.336c7.493,-5.395 17.941,-3.693 23.336,3.8z"/>
    <path stroke="null" id="svg_54" fill="#FFF082" d="m1880.471817,924.449245c-6.818,9.47 -26.062,50.14 -37.064,73.842c-1.73,3.726 2.945,7.092 5.93,4.269c18.987,-17.952 51.451,-49.105 58.27,-58.575c5.395,-7.493 3.694,-17.941 -3.8,-23.336c-7.493,-5.395 -17.941,-3.693 -23.336,3.8z"/>
    <path stroke="null" id="svg_55" fill="#FFF082" d="m1988.210817,1202.155245c-11.094,-3.618 -55.689,-9.595 -81.612,-12.875c-4.075,-0.516 -5.861,4.961 -2.266,6.947c22.873,12.635 62.416,34.099 73.51,37.717c8.778,2.863 18.215,-1.932 21.078,-10.711c2.863,-8.779 -1.932,-18.215 -10.71,-21.078z"/>
    <path stroke="null" id="svg_56" fill="#FFF082" d="m1499.288817,1202.155245c11.094,-3.618 55.689,-9.595 81.612,-12.875c4.075,-0.516 5.861,4.961 2.266,6.947c-22.873,12.635 -62.416,34.099 -73.51,37.717c-8.778,2.863 -18.215,-1.932 -21.078,-10.711s1.932,-18.215 10.71,-21.078z"/>
    <path stroke="null" id="svg_57" fill="#FFF082" d="m1727.543817,1390.836245c0,-11.669 8.145,-55.919 13.065,-81.582c0.773,-4.034 6.534,-4.034 7.307,0c4.92,25.663 13.065,69.913 13.065,81.582c0,9.233 -7.485,16.718 -16.718,16.718c-9.234,0.001 -16.719,-7.485 -16.719,-16.718z"/>
   </g>
   <path stroke="null" id="svg_59" fill="#FFC850" d="m148.632212,18.206249l-3.731329,-7.547597c-0.718492,-1.453324 -3.083914,-1.453324 -3.802212,0l-10.260914,20.755387l-25.830942,2.087114c-1.808784,0.146039 -2.539637,2.105789 -1.175082,3.150104l19.489672,14.914495l-5.703705,22.045343c-0.39942,1.543673 1.514434,2.754721 3.076188,1.946963l2.9688,-1.535597c4.86701,-27.444583 18.549645,-47.590913 24.969524,-55.816212z"/>
   <g stroke="null" transform="matrix(0.19314297571397665,0,0,0.16824781182545456,-193.79306005418232,-145.59245378307304) " id="svg_60"/>
   <g stroke="null" transform="matrix(0.19314297571397665,0,0,0.16824781182545456,-193.79306005418232,-145.59245378307304) " id="svg_61"/>
   <g stroke="null" transform="matrix(0.19314297571397665,0,0,0.16824781182545456,-193.79306005418232,-145.59245378307304) " id="svg_62"/>
   <g stroke="null" transform="matrix(0.19314297571397665,0,0,0.16824781182545456,-193.79306005418232,-145.59245378307304) " id="svg_63"/>
   <g stroke="null" transform="matrix(0.19314297571397665,0,0,0.16824781182545456,-193.79306005418232,-145.59245378307304) " id="svg_64"/>
   <g stroke="null" transform="matrix(0.19314297571397665,0,0,0.16824781182545456,-193.79306005418232,-145.59245378307304) " id="svg_65"/>
   <g stroke="null" transform="matrix(0.19314297571397665,0,0,0.16824781182545456,-193.79306005418232,-145.59245378307304) " id="svg_66"/>
   <g stroke="null" transform="matrix(0.19314297571397665,0,0,0.16824781182545456,-193.79306005418232,-145.59245378307304) " id="svg_67"/>
   <g stroke="null" transform="matrix(0.19314297571397665,0,0,0.16824781182545456,-193.79306005418232,-145.59245378307304) " id="svg_68"/>
   <g stroke="null" transform="matrix(0.19314297571397665,0,0,0.16824781182545456,-193.79306005418232,-145.59245378307304) " id="svg_69"/>
   <g stroke="null" transform="matrix(0.19314297571397665,0,0,0.16824781182545456,-193.79306005418232,-145.59245378307304) " id="svg_70"/>
   <g stroke="null" transform="matrix(0.19314297571397665,0,0,0.16824781182545456,-193.79306005418232,-145.59245378307304) " id="svg_71"/>
   <g stroke="null" transform="matrix(0.19314297571397665,0,0,0.16824781182545456,-193.79306005418232,-145.59245378307304) " id="svg_72"/>
   <g stroke="null" transform="matrix(0.19314297571397665,0,0,0.16824781182545456,-193.79306005418232,-145.59245378307304) " id="svg_73"/>
   <g stroke="null" transform="matrix(0.19314297571397665,0,0,0.16824781182545456,-193.79306005418232,-145.59245378307304) " id="svg_74"/>
  </g>
 </g>
</svg>