<svg width="326.402" height="277.402" xmlns="http://www.w3.org/2000/svg">
 <g>
  <title>background</title>
  <rect x="-1" y="-1" width="328.402" height="279.402" id="canvas_background" fill="none"/>
 </g>
 <defs>
  <linearGradient id="svg_28" x1="0.197936" y1="0.425469" x2="0.809279" y2="0.736499">
   <stop offset="0" stop-opacity="0.2" stop-color="#FFFFFF"/>
   <stop offset="1" stop-opacity="0" stop-color="#FFFFFF"/>
  </linearGradient>
 </defs>
 <g>
  <title>Layer 1</title>
  <g id="svg_1">
   <path d="m28.441,80.883c-9.626,0 -17.502,7.876 -17.502,17.502l0,157.515c-5.251,0 -8.751,3.5 -8.751,8.751s3.5,8.751 8.751,8.751l26.253,0c5.251,0 8.751,-3.5 8.751,-8.751s-3.5,-8.751 -8.751,-8.751l8.751,-175.017c0,0 -17.502,0 -17.502,0zm210.021,175.017l0,-157.515c0,-9.626 -7.876,-17.502 -17.502,-17.502l-17.502,0l8.752,175.017c-5.251,0 -8.751,3.5 -8.751,8.751s3.5,8.751 8.751,8.751l26.253,0c5.251,0 8.751,-3.5 8.751,-8.751s-3.502,-8.751 -8.752,-8.751z" fill="#E4E7E7" id="svg_2"/>
   <g id="svg_3">
    <path d="m45.942,264.651c0,-5.251 -3.5,-8.751 -8.751,-8.751l8.751,-175.017l-17.501,0l0,175.017l8.751,17.502c5.25,0 8.75,-3.5 8.75,-8.751zm175.018,-183.768l-17.502,0l8.752,175.017c-5.251,0 -8.751,3.5 -8.751,8.751s3.5,8.751 8.751,8.751l8.751,-17.502l0,-175.017l-0.001,0z" fill="#C8CBCB" id="svg_4"/>
   </g>
   <path d="m63.444,238.399l122.512,0l-17.502,17.501l-87.508,0l-17.502,-17.501z" fill="#324D5B" id="svg_5"/>
   <path d="m124.701,-4c48.13,0 86.633,38.504 86.633,86.633l0,156.64l-173.267,0l0,-156.64c0,-48.129 38.503,-86.633 86.634,-86.633z" fill="#E4E7E7" id="svg_6"/>
   <path d="m124.701,19.627c9.626,0 17.502,7.876 17.502,17.502s-7.876,17.502 -17.502,17.502s-17.502,-7.876 -17.502,-17.502s7.875,-17.502 17.502,-17.502z" fill="#324D5B" id="svg_7"/>
   <path d="m38.067,80.883l0,17.502l173.267,0l0,-17.502l-173.267,0zm42.879,61.256l87.509,0l0,-17.502l-87.509,0l0,17.502zm0,35.004l87.509,0l0,-17.502l-87.509,0l0,17.502zm0,35.003l87.509,0l0,-17.502l-87.509,0l0,17.502z" fill="#2494BC" id="svg_8"/>
  </g>
  <g id="svg_9"/>
  <g id="svg_10"/>
  <g id="svg_11"/>
  <g id="svg_12"/>
  <g id="svg_13"/>
  <g id="svg_14"/>
  <g id="svg_15"/>
  <g id="svg_16"/>
  <g id="svg_17"/>
  <g id="svg_18"/>
  <g id="svg_19"/>
  <g id="svg_20"/>
  <g id="svg_21"/>
  <g id="svg_22"/>
  <g id="svg_23"/>
  <g id="svg_53" stroke="null">
   <path d="m315.405254,181.075787c-0.460456,-0.48114 -1.089946,-0.696994 -1.699795,-0.580217c-4.34392,0.825212 -17.57248,3.332363 -22.931555,0.218013c-1.337361,-0.777077 -2.928369,-1.811668 -4.631375,-2.979657l3.32121,-5.106256c0.661031,-1.018618 0.480098,-2.455346 -0.409273,-3.21537l-8.05835,-6.907563c-0.881438,-0.753333 -2.132676,-0.557552 -2.809383,0.445308l-3.998862,5.986295c-3.07984,-2.373537 -5.274275,-4.128003 -5.330368,-4.17398c-0.881438,-0.70606 -2.109068,-0.492364 -2.770099,0.505963l-12.087431,18.420168c-0.322583,0.494739 -0.460456,1.115321 -0.377732,1.726837c0.082723,0.611516 0.373766,1.160218 0.810613,1.520048c0,0 2.057885,1.69597 4.987576,4.118506l-38.550404,57.741751c-0.979837,1.459177 -1.518861,3.276025 -1.518861,5.117697l0,1.009552c0,4.64994 3.309123,8.432144 7.377677,8.432144c2.321542,0 4.536753,-1.27052 5.921708,-3.39971l38.494311,-59.170277c2.048253,1.708921 3.947302,3.299985 5.428956,4.554964c3.222622,2.725164 5.9846,11.948847 7.393352,24.671101c0.082723,0.737575 0.472165,1.387297 1.046696,1.738061c0.295198,0.182181 0.625713,0.274351 0.952263,0.274351c0.306907,0 0.613815,-0.078787 0.893148,-0.238303c16.411709,-9.291029 27.594093,-27.996773 29.183779,-48.818323c0.054771,-0.708435 -0.181311,-1.407588 -0.637801,-1.891102l0,-0.000001z" fill="#303C42" id="svg_30" stroke="null"/>
   <g id="svg_31" stroke="null">
    <path d="m5626.81398,4585.392632l25.708,19.281l-12.354,16.617c-9.216,-5.815 -18.512,-11.853 -27.289,-17.647l13.935,-18.251z" fill="#8E532A" id="svg_32" stroke="null"/>
    <path d="m5358.04298,5000.705632c-3.333,4.479 -8.646,7.146 -14.229,7.146c-9.771,0 -17.729,-7.958 -17.729,-17.729l0,-4.677c0,-3.865 1.292,-7.677 3.646,-10.75l204.46,-267.938c8.822,6.393 18.22,13.215 27.549,20l-203.697,273.948z" fill="#8E532A" id="svg_33" stroke="null"/>
   </g>
   <path d="m278.973928,201.640686c-5.441799,-4.604826 -16.35656,-13.62798 -20.519546,-17.063737l9.691286,-14.768124c4.048911,3.192921 14.707948,11.471808 20.802846,15.013119c2.986917,1.733528 7.439625,2.133723 12.153156,1.92715c-1.95042,11.219043 -7.599972,20.974807 -15.882695,27.439868c-1.422728,-5.288653 -3.415832,-10.151642 -6.245047,-12.548275l0,-0.000001z" fill="#BEB0A3" id="svg_34" stroke="null"/>
   <path d="m263.893347,183.632584c2.834314,-4.319035 8.115388,-5.375859 12.05589,-2.39836c4.606066,3.480439 10.09206,7.459287 13.846152,9.640714c2.480379,1.439534 5.988377,1.930603 9.800073,1.94744c0.611548,-1.973127 1.143018,-3.98705 1.505829,-6.073069c-4.713531,0.206573 -9.166239,-0.193622 -12.153156,-1.92715c-6.094898,-3.54131 -16.753934,-11.820198 -20.802846,-15.013119l-9.691286,14.768124c0.802681,0.662458 1.908114,1.575523 3.125167,2.581837l2.314176,-3.526417l0.000001,0z" fill="#FFFFFF" opacity="0.2" id="svg_35" stroke="null"/>
   <path d="m287.559403,226.144715c-0.305585,-2.255465 -0.713725,-4.752255 -1.228952,-7.280128c10.096404,-7.344884 16.896339,-18.99024 18.92325,-32.42395c2.215966,-0.239383 4.415689,-0.564676 6.480563,-0.921699c-2.116811,16.976316 -11.13139,32.117653 -24.174861,40.625777z" fill="#DFE1DF" id="svg_36" stroke="null"/>
   <path d="m315.405254,181.075787c-0.460456,-0.48114 -1.089946,-0.696994 -1.699795,-0.580217c-4.34392,0.825212 -17.57248,3.332363 -22.931555,0.218013c-1.337361,-0.777077 -2.928369,-1.811668 -4.631375,-2.979657l3.32121,-5.106256c0.661031,-1.018618 0.480098,-2.455346 -0.409273,-3.21537l-8.05835,-6.907563c-0.881438,-0.753333 -2.132676,-0.557552 -2.809383,0.445308l-3.998862,5.986295c-3.07984,-2.373537 -5.274275,-4.128003 -5.330368,-4.17398c-0.881438,-0.70606 -2.109068,-0.492364 -2.770099,0.505963l-12.087431,18.420168c-0.322583,0.494739 -0.460456,1.115321 -0.377732,1.726837c0.082723,0.611516 0.373766,1.160218 0.810613,1.520048c0,0 2.057885,1.69597 4.987576,4.118506l-38.550404,57.741751c-0.979837,1.459177 -1.518861,3.276025 -1.518861,5.117697l0,1.009552c0,4.64994 3.309123,8.432144 7.377677,8.432144c2.321542,0 4.536753,-1.27052 5.921708,-3.39971l38.494311,-59.170277c2.048253,1.708921 3.947302,3.299985 5.428956,4.554964c3.222622,2.725164 5.9846,11.948847 7.393352,24.671101c0.082723,0.737575 0.472165,1.387297 1.046696,1.738061c0.295198,0.182181 0.625713,0.274351 0.952263,0.274351c0.306907,0 0.613815,-0.078787 0.893148,-0.238303c16.411709,-9.291029 27.594093,-27.996773 29.183779,-48.818323c0.054771,-0.708435 -0.181311,-1.407588 -0.637801,-1.891102l0,-0.000001z" fill="url(#svg_28)" id="svg_37" stroke="null"/>
   <g id="svg_38" transform="matrix(0.18886610158550007,0,0,0.21585459408143606,-782.5364347479044,-822.217571062065) " stroke="null"/>
   <g id="svg_39" stroke="null"/>
   <g id="svg_40" transform="matrix(0.18886610158550007,0,0,0.21585459408143606,-782.5364347479044,-822.217571062065) " stroke="null"/>
   <g id="svg_41" stroke="null"/>
   <g id="svg_42" stroke="null"/>
   <g id="svg_43" stroke="null"/>
   <g id="svg_44" stroke="null"/>
   <g id="svg_45" stroke="null"/>
   <g id="svg_46" stroke="null"/>
   <g id="svg_47" transform="matrix(0.18886610158550007,0,0,0.21585459408143606,-782.5364347479044,-822.217571062065) " stroke="null"/>
   <g id="svg_48" transform="matrix(0.18886610158550007,0,0,0.21585459408143606,-782.5364347479044,-822.217571062065) " stroke="null"/>
   <g id="svg_49" transform="matrix(0.18886610158550007,0,0,0.21585459408143606,-782.5364347479044,-822.217571062065) " stroke="null"/>
   <g id="svg_50" transform="matrix(0.18886610158550007,0,0,0.21585459408143606,-782.5364347479044,-822.217571062065) " stroke="null"/>
   <g id="svg_51" transform="matrix(0.18886610158550007,0,0,0.21585459408143606,-782.5364347479044,-822.217571062065) " stroke="null"/>
   <g id="svg_52" transform="matrix(0.18886610158550007,0,0,0.21585459408143606,-782.5364347479044,-822.217571062065) " stroke="null"/>
  </g>
  <g stroke="null" id="svg_76">
   <path stroke="null" id="svg_29" fill="#FFDC64" d="m52.080945,16.504762l-14.666651,-1.278623l-5.826041,-12.716445c-0.407952,-0.890418 -1.751014,-0.890418 -2.158857,0l-5.826041,12.716342l-14.666651,1.278726c-1.027009,0.089475 -1.44198,1.290168 -0.667199,1.929995l11.066034,9.137764l-3.238505,13.506668c-0.226786,0.945773 0.85988,1.687754 1.746628,1.192859l12.665163,-7.068918l12.665163,7.068918c0.886857,0.494997 1.973305,-0.247086 1.746628,-1.192859l-3.238614,-13.506668l11.066143,-9.137764c0.77478,-0.639827 0.3597,-1.84052 -0.667199,-1.929995z"/>
   <g stroke="null" transform="matrix(0.10966458322073208,0,0,0.10308151501919836,-41.81569977379695,-27.018679742080394) " id="svg_54">
    <path stroke="null" id="svg_55" fill="#FFF082" d="m522.784714,282.209339c6.818,9.47 26.062,50.14 37.064,73.842c1.73,3.726 -2.945,7.092 -5.93,4.269c-18.987,-17.952 -51.452,-49.104 -58.27,-58.575c-5.395,-7.493 -3.694,-17.941 3.8,-23.336c7.493,-5.395 17.941,-3.693 23.336,3.8z"/>
    <path stroke="null" id="svg_56" fill="#FFF082" d="m796.228714,282.209339c-6.818,9.47 -26.062,50.14 -37.064,73.842c-1.73,3.726 2.945,7.092 5.93,4.269c18.987,-17.952 51.451,-49.105 58.27,-58.575c5.395,-7.493 3.694,-17.941 -3.8,-23.336c-7.493,-5.395 -17.941,-3.693 -23.336,3.8z"/>
    <path stroke="null" id="svg_57" fill="#FFF082" d="m903.967714,559.915339c-11.094,-3.618 -55.689,-9.595 -81.612,-12.875c-4.075,-0.516 -5.861,4.961 -2.266,6.947c22.873,12.635 62.416,34.099 73.51,37.717c8.778,2.863 18.215,-1.932 21.078,-10.711c2.863,-8.779 -1.932,-18.215 -10.71,-21.078z"/>
    <path stroke="null" id="svg_58" fill="#FFF082" d="m415.045714,559.915339c11.094,-3.618 55.689,-9.595 81.612,-12.875c4.075,-0.516 5.861,4.961 2.266,6.947c-22.873,12.635 -62.416,34.099 -73.51,37.717c-8.778,2.863 -18.215,-1.932 -21.078,-10.711s1.932,-18.215 10.71,-21.078z"/>
    <path stroke="null" id="svg_59" fill="#FFF082" d="m643.300714,748.596339c0,-11.669 8.145,-55.919 13.065,-81.582c0.773,-4.034 6.534,-4.034 7.307,0c4.92,25.663 13.065,69.913 13.065,81.582c0,9.233 -7.485,16.718 -16.718,16.718c-9.234,0.001 -16.719,-7.485 -16.719,-16.718z"/>
   </g>
   <path stroke="null" id="svg_60" fill="#FFC850" d="m33.706754,7.133931l-2.11861,-4.624237c-0.407952,-0.890418 -1.751014,-0.890418 -2.158857,0l-5.826041,12.716342l-14.666541,1.278726c-1.027009,0.089475 -1.44198,1.290168 -0.667199,1.929995l11.066034,9.137764l-3.238505,13.506668c-0.226786,0.945773 0.85988,1.687754 1.746628,1.192859l1.685654,-0.940825c2.763438,-16.814657 10.532296,-29.157844 14.177437,-34.197293z"/>
   <g stroke="null" transform="matrix(0.10966458322073208,0,0,0.10308151501919836,-41.81569977379695,-27.018679742080394) " id="svg_61"/>
   <g stroke="null" transform="matrix(0.10966458322073208,0,0,0.10308151501919836,-41.81569977379695,-27.018679742080394) " id="svg_62"/>
   <g stroke="null" transform="matrix(0.10966458322073208,0,0,0.10308151501919836,-41.81569977379695,-27.018679742080394) " id="svg_63"/>
   <g stroke="null" transform="matrix(0.10966458322073208,0,0,0.10308151501919836,-41.81569977379695,-27.018679742080394) " id="svg_64"/>
   <g stroke="null" transform="matrix(0.10966458322073208,0,0,0.10308151501919836,-41.81569977379695,-27.018679742080394) " id="svg_65"/>
   <g stroke="null" transform="matrix(0.10966458322073208,0,0,0.10308151501919836,-41.81569977379695,-27.018679742080394) " id="svg_66"/>
   <g stroke="null" transform="matrix(0.10966458322073208,0,0,0.10308151501919836,-41.81569977379695,-27.018679742080394) " id="svg_67"/>
   <g stroke="null" transform="matrix(0.10966458322073208,0,0,0.10308151501919836,-41.81569977379695,-27.018679742080394) " id="svg_68"/>
   <g stroke="null" transform="matrix(0.10966458322073208,0,0,0.10308151501919836,-41.81569977379695,-27.018679742080394) " id="svg_69"/>
   <g stroke="null" transform="matrix(0.10966458322073208,0,0,0.10308151501919836,-41.81569977379695,-27.018679742080394) " id="svg_70"/>
   <g stroke="null" transform="matrix(0.10966458322073208,0,0,0.10308151501919836,-41.81569977379695,-27.018679742080394) " id="svg_71"/>
   <g stroke="null" transform="matrix(0.10966458322073208,0,0,0.10308151501919836,-41.81569977379695,-27.018679742080394) " id="svg_72"/>
   <g stroke="null" transform="matrix(0.10966458322073208,0,0,0.10308151501919836,-41.81569977379695,-27.018679742080394) " id="svg_73"/>
   <g stroke="null" transform="matrix(0.10966458322073208,0,0,0.10308151501919836,-41.81569977379695,-27.018679742080394) " id="svg_74"/>
   <g stroke="null" transform="matrix(0.10966458322073208,0,0,0.10308151501919836,-41.81569977379695,-27.018679742080394) " id="svg_75"/>
  </g>
  <g stroke="null" id="svg_100">
   <path stroke="null" id="svg_77" fill="#FFDC64" d="m105.927041,17.054212l-14.666651,-1.278623l-5.826041,-12.716445c-0.407952,-0.890418 -1.751014,-0.890418 -2.158857,0l-5.82604,12.716342l-14.666651,1.278726c-1.027009,0.089475 -1.44198,1.290168 -0.6672,1.929995l11.066034,9.137764l-3.238505,13.506668c-0.226786,0.945773 0.85988,1.687754 1.746628,1.19286l12.665163,-7.068918l12.665162,7.068918c0.886858,0.494997 1.973305,-0.247087 1.746628,-1.19286l-3.238614,-13.506668l11.066143,-9.137764c0.77478,-0.639827 0.3597,-1.84052 -0.667199,-1.929995z"/>
   <g stroke="null" transform="matrix(0.10966458322073208,0,0,0.10308151501919836,-41.81569977379695,-27.018679742080394) " id="svg_83">
    <path stroke="null" id="svg_78" fill="#FFF082" d="m1013.791886,287.539586c6.818,9.47 26.062,50.14 37.064,73.842c1.73,3.726 -2.945,7.092 -5.93,4.269c-18.987,-17.952 -51.452,-49.104 -58.27,-58.575c-5.395,-7.493 -3.694,-17.941 3.8,-23.336c7.493,-5.395 17.941,-3.693 23.336,3.8z"/>
    <path stroke="null" id="svg_79" fill="#FFF082" d="m1287.235886,287.539586c-6.818,9.47 -26.062,50.14 -37.064,73.842c-1.73,3.726 2.945,7.092 5.93,4.269c18.987,-17.952 51.451,-49.105 58.27,-58.575c5.395,-7.493 3.694,-17.941 -3.8,-23.336c-7.493,-5.395 -17.941,-3.693 -23.336,3.8z"/>
    <path stroke="null" id="svg_80" fill="#FFF082" d="m1394.974886,565.245586c-11.094,-3.618 -55.689,-9.595 -81.612,-12.875c-4.075,-0.516 -5.861,4.961 -2.266,6.947c22.873,12.635 62.416,34.099 73.51,37.717c8.778,2.863 18.215,-1.932 21.078,-10.711c2.863,-8.779 -1.932,-18.215 -10.71,-21.078z"/>
    <path stroke="null" id="svg_81" fill="#FFF082" d="m906.052886,565.245586c11.094,-3.618 55.689,-9.595 81.612,-12.875c4.075,-0.516 5.861,4.961 2.266,6.947c-22.873,12.635 -62.416,34.099 -73.51,37.717c-8.778,2.863 -18.215,-1.932 -21.078,-10.711s1.932,-18.215 10.71,-21.078z"/>
    <path stroke="null" id="svg_82" fill="#FFF082" d="m1134.307886,753.926586c0,-11.669 8.145,-55.919 13.065,-81.582c0.773,-4.034 6.534,-4.034 7.307,0c4.92,25.663 13.065,69.913 13.065,81.582c0,9.233 -7.485,16.718 -16.718,16.718c-9.234,0.001 -16.719,-7.485 -16.719,-16.718z"/>
   </g>
   <path stroke="null" id="svg_84" fill="#FFC850" d="m87.55285,7.683381l-2.11861,-4.624237c-0.407953,-0.890418 -1.751015,-0.890418 -2.158857,0l-5.826041,12.716342l-14.666541,1.278726c-1.027009,0.089475 -1.44198,1.290168 -0.6672,1.929995l11.066034,9.137764l-3.238505,13.506668c-0.226786,0.945773 0.85988,1.687754 1.746628,1.19286l1.685654,-0.940825c2.763438,-16.814657 10.532297,-29.157844 14.177438,-34.197293z"/>
   <g stroke="null" transform="matrix(0.10966458322073208,0,0,0.10308151501919836,-41.81569977379695,-27.018679742080394) " id="svg_85"/>
   <g stroke="null" transform="matrix(0.10966458322073208,0,0,0.10308151501919836,-41.81569977379695,-27.018679742080394) " id="svg_86"/>
   <g stroke="null" transform="matrix(0.10966458322073208,0,0,0.10308151501919836,-41.81569977379695,-27.018679742080394) " id="svg_87"/>
   <g stroke="null" transform="matrix(0.10966458322073208,0,0,0.10308151501919836,-41.81569977379695,-27.018679742080394) " id="svg_88"/>
   <g stroke="null" transform="matrix(0.10966458322073208,0,0,0.10308151501919836,-41.81569977379695,-27.018679742080394) " id="svg_89"/>
   <g stroke="null" transform="matrix(0.10966458322073208,0,0,0.10308151501919836,-41.81569977379695,-27.018679742080394) " id="svg_90"/>
   <g stroke="null" transform="matrix(0.10966458322073208,0,0,0.10308151501919836,-41.81569977379695,-27.018679742080394) " id="svg_91"/>
   <g stroke="null" transform="matrix(0.10966458322073208,0,0,0.10308151501919836,-41.81569977379695,-27.018679742080394) " id="svg_92"/>
   <g stroke="null" transform="matrix(0.10966458322073208,0,0,0.10308151501919836,-41.81569977379695,-27.018679742080394) " id="svg_93"/>
   <g stroke="null" transform="matrix(0.10966458322073208,0,0,0.10308151501919836,-41.81569977379695,-27.018679742080394) " id="svg_94"/>
   <g stroke="null" transform="matrix(0.10966458322073208,0,0,0.10308151501919836,-41.81569977379695,-27.018679742080394) " id="svg_95"/>
   <g stroke="null" transform="matrix(0.10966458322073208,0,0,0.10308151501919836,-41.81569977379695,-27.018679742080394) " id="svg_96"/>
   <g stroke="null" transform="matrix(0.10966458322073208,0,0,0.10308151501919836,-41.81569977379695,-27.018679742080394) " id="svg_97"/>
   <g stroke="null" transform="matrix(0.10966458322073208,0,0,0.10308151501919836,-41.81569977379695,-27.018679742080394) " id="svg_98"/>
   <g stroke="null" transform="matrix(0.10966458322073208,0,0,0.10308151501919836,-41.81569977379695,-27.018679742080394) " id="svg_99"/>
  </g>
  <g stroke="null" id="svg_124">
   <path stroke="null" id="svg_101" fill="#FFDC64" d="m162.520387,18.153112l-14.666651,-1.278623l-5.826041,-12.716445c-0.407952,-0.890418 -1.751014,-0.890418 -2.158857,0l-5.82604,12.716342l-14.666651,1.278726c-1.027009,0.089475 -1.44198,1.290168 -0.6672,1.929995l11.066034,9.137764l-3.238505,13.506668c-0.226786,0.945773 0.85988,1.687754 1.746628,1.19286l12.665163,-7.068918l12.665162,7.068918c0.886858,0.494997 1.973305,-0.247087 1.746628,-1.19286l-3.238614,-13.506668l11.066143,-9.137764c0.77478,-0.639827 0.3597,-1.84052 -0.667199,-1.929995z"/>
   <g stroke="null" transform="matrix(0.10966458322073208,0,0,0.10308151501919836,-41.81569977379695,-27.018679742080394) " id="svg_107">
    <path stroke="null" id="svg_102" fill="#FFF082" d="m1529.850419,298.200081c6.818,9.47 26.062,50.14 37.064,73.842c1.73,3.726 -2.945,7.092 -5.93,4.269c-18.987,-17.952 -51.452,-49.104 -58.27,-58.575c-5.395,-7.493 -3.694,-17.941 3.8,-23.336c7.493,-5.395 17.941,-3.693 23.336,3.8z"/>
    <path stroke="null" id="svg_103" fill="#FFF082" d="m1803.294419,298.200081c-6.818,9.47 -26.062,50.14 -37.064,73.842c-1.73,3.726 2.945,7.092 5.93,4.269c18.987,-17.952 51.451,-49.105 58.27,-58.575c5.395,-7.493 3.694,-17.941 -3.8,-23.336c-7.493,-5.395 -17.941,-3.693 -23.336,3.8z"/>
    <path stroke="null" id="svg_104" fill="#FFF082" d="m1911.033419,575.906081c-11.094,-3.618 -55.689,-9.595 -81.612,-12.875c-4.075,-0.516 -5.861,4.961 -2.266,6.947c22.873,12.635 62.416,34.099 73.51,37.717c8.778,2.863 18.215,-1.932 21.078,-10.711c2.863,-8.779 -1.932,-18.215 -10.71,-21.078z"/>
    <path stroke="null" id="svg_105" fill="#FFF082" d="m1422.111419,575.906081c11.094,-3.618 55.689,-9.595 81.612,-12.875c4.075,-0.516 5.861,4.961 2.266,6.947c-22.873,12.635 -62.416,34.099 -73.51,37.717c-8.778,2.863 -18.215,-1.932 -21.078,-10.711s1.932,-18.215 10.71,-21.078z"/>
    <path stroke="null" id="svg_106" fill="#FFF082" d="m1650.366419,764.587081c0,-11.669 8.145,-55.919 13.065,-81.582c0.773,-4.034 6.534,-4.034 7.307,0c4.92,25.663 13.065,69.913 13.065,81.582c0,9.233 -7.485,16.718 -16.718,16.718c-9.234,0.001 -16.719,-7.485 -16.719,-16.718z"/>
   </g>
   <path stroke="null" id="svg_108" fill="#FFC850" d="m144.146196,8.782281l-2.11861,-4.624237c-0.407953,-0.890418 -1.751015,-0.890418 -2.158857,0l-5.826041,12.716342l-14.666541,1.278726c-1.027009,0.089475 -1.44198,1.290168 -0.6672,1.929995l11.066034,9.137764l-3.238505,13.506668c-0.226786,0.945773 0.85988,1.687754 1.746628,1.19286l1.685654,-0.940825c2.763438,-16.814657 10.532297,-29.157844 14.177438,-34.197293z"/>
   <g stroke="null" transform="matrix(0.10966458322073208,0,0,0.10308151501919836,-41.81569977379695,-27.018679742080394) " id="svg_109"/>
   <g stroke="null" transform="matrix(0.10966458322073208,0,0,0.10308151501919836,-41.81569977379695,-27.018679742080394) " id="svg_110"/>
   <g stroke="null" transform="matrix(0.10966458322073208,0,0,0.10308151501919836,-41.81569977379695,-27.018679742080394) " id="svg_111"/>
   <g stroke="null" transform="matrix(0.10966458322073208,0,0,0.10308151501919836,-41.81569977379695,-27.018679742080394) " id="svg_112"/>
   <g stroke="null" transform="matrix(0.10966458322073208,0,0,0.10308151501919836,-41.81569977379695,-27.018679742080394) " id="svg_113"/>
   <g stroke="null" transform="matrix(0.10966458322073208,0,0,0.10308151501919836,-41.81569977379695,-27.018679742080394) " id="svg_114"/>
   <g stroke="null" transform="matrix(0.10966458322073208,0,0,0.10308151501919836,-41.81569977379695,-27.018679742080394) " id="svg_115"/>
   <g stroke="null" transform="matrix(0.10966458322073208,0,0,0.10308151501919836,-41.81569977379695,-27.018679742080394) " id="svg_116"/>
   <g stroke="null" transform="matrix(0.10966458322073208,0,0,0.10308151501919836,-41.81569977379695,-27.018679742080394) " id="svg_117"/>
   <g stroke="null" transform="matrix(0.10966458322073208,0,0,0.10308151501919836,-41.81569977379695,-27.018679742080394) " id="svg_118"/>
   <g stroke="null" transform="matrix(0.10966458322073208,0,0,0.10308151501919836,-41.81569977379695,-27.018679742080394) " id="svg_119"/>
   <g stroke="null" transform="matrix(0.10966458322073208,0,0,0.10308151501919836,-41.81569977379695,-27.018679742080394) " id="svg_120"/>
   <g stroke="null" transform="matrix(0.10966458322073208,0,0,0.10308151501919836,-41.81569977379695,-27.018679742080394) " id="svg_121"/>
   <g stroke="null" transform="matrix(0.10966458322073208,0,0,0.10308151501919836,-41.81569977379695,-27.018679742080394) " id="svg_122"/>
   <g stroke="null" transform="matrix(0.10966458322073208,0,0,0.10308151501919836,-41.81569977379695,-27.018679742080394) " id="svg_123"/>
  </g>
 </g>
</svg>