<svg width="512" height="512" xmlns="http://www.w3.org/2000/svg">

 <g>
  <title>background</title>
  <rect fill="none" id="canvas_background" height="279.402" width="328.402" y="-1" x="-1"/>
 </g>
 <g>
  <title>Layer 1</title>
  <g id="svg_1">
   <path id="svg_2" fill="#B6B8BE" d="m141.737,409.962l31.514,4.502c5.725,-8.703 15.573,-14.464 26.749,-14.464l0,-280c0,-3.228 0.054,-6.418 0.159,-9.567c-0.081,0.405 -0.134,0.82 -0.152,1.243c-2.931,72.392 -39.581,134.471 -72.008,189.258l0,93.189c0.001,7.962 5.856,14.712 13.738,15.839z"/>
   <path id="svg_3" fill="#B6B8BE" d="m80,448c0,2.254 0.939,4.313 2.469,5.778c-1.53,-1.465 -2.469,-3.525 -2.469,-5.782l0,0.004z"/>
   <path id="svg_4" fill="#FF4F19" d="m173.251,414.464l-31.514,-4.502c-7.882,-1.126 -13.737,-7.877 -13.737,-15.839l0,-93.189l0,0c-0.067,0.114 -0.136,0.23 -0.203,0.344c-25.649,43.335 -47.797,80.765 -47.797,114.722l0,31.997c0,2.256 0.939,4.316 2.469,5.782c1.19,1.14 2.737,1.919 4.476,2.151l81.055,10.806l0,-34.736c0,-6.471 1.936,-12.496 5.251,-17.536z"/>
   <path id="svg_5" fill="#B6B8BE" d="m432,448l0,-0.003c0,2.256 -0.939,4.316 -2.469,5.782c1.529,-1.466 2.469,-3.525 2.469,-5.779z"/>
   <path id="svg_6" fill="#B6B8BE" d="m312,400c11.176,0 21.024,5.761 26.749,14.464l31.514,-4.502c7.882,-1.126 13.737,-7.877 13.737,-15.839l0,-93.189c-32.427,-54.787 -69.076,-116.866 -72.008,-189.258c-0.017,-0.423 -0.071,-0.838 -0.152,-1.243c0.106,3.149 0.159,6.339 0.159,9.567l0,280l0.001,0z"/>
   <path id="svg_7" fill="#FF4F19" d="m384.203,301.277c-0.067,-0.114 -0.136,-0.23 -0.203,-0.344l0,0l0,93.189c0,7.962 -5.855,14.713 -13.737,15.839l-31.514,4.502c3.315,5.041 5.251,11.066 5.251,17.537l0,34.736l81.055,-10.807c1.74,-0.232 3.286,-1.012 4.476,-2.151c1.53,-1.465 2.469,-3.525 2.469,-5.782l0,-31.996c0,-33.957 -22.149,-71.387 -47.797,-114.723z"/>
   <path id="svg_8" fill="#E3E6E9" d="m200,400c5.827,0 11.29,1.572 16,4.304l0,-284.304l0,-12.965c0,-1.938 0.879,-3.809 2.471,-5.266c9.57,-8.749 23.251,-13.769 37.529,-13.769s27.959,5.02 37.529,13.77c1.592,1.457 2.471,3.328 2.471,5.266l0,12.964l0,284.304c4.71,-2.732 10.173,-4.304 16,-4.304l0,-280c0,-3.228 -0.054,-6.418 -0.159,-9.567c-2.131,-63.597 -25.426,-110.433 -55.841,-110.433s-53.71,46.836 -55.841,110.433c-0.105,3.149 -0.159,6.339 -0.159,9.567l0,280z"/>
   <path id="svg_9" fill="#D5D9DE" d="m288,128l-64,0c-5.527,0 -8,-3.582 -8,-8l0,284.304c7.323,4.247 12.821,11.306 14.988,19.696l17.012,0l0,-96c0,-4.418 3.578,-8 8,-8s8,3.582 8,8l0,96l17.012,0c2.167,-8.39 7.664,-15.449 14.988,-19.696l0,-284.304c0,4.418 -2.473,8 -8,8z"/>
   <path id="svg_10" fill="#5C546A" d="m281.012,424l-17.012,0l0,56l16,0l0,-48c0,-2.762 0.352,-5.442 1.012,-8z"/>
   <path id="svg_11" fill="#5C546A" d="m230.987,424c0.661,2.558 1.012,5.238 1.012,8l0,48l16,0l0,-56l-17.012,0z"/>
   <path id="svg_12" fill="#888693" d="m230.987,424c-2.167,-8.39 -7.664,-15.449 -14.988,-19.696c-4.71,-2.732 -10.173,-4.304 -16,-4.304c-11.176,0 -21.024,5.761 -26.749,14.464c-3.314,5.04 -5.25,11.065 -5.25,17.536l0,34.736l0,13.264l40,0l16,0l8,0l0,-48c0,-2.762 -0.352,-5.442 -1.013,-8z"/>
   <path id="svg_13" fill="#E5001E" d="m264,328c0,-4.418 -3.578,-8 -8,-8s-8,3.582 -8,8l0,96l0,56l0,24c0,4.418 3.578,8 8,8s8,-3.582 8,-8l0,-24l0,-56l0,-96z"/>
   <path id="svg_14" fill="#5C546A" d="m224,128l64,0c5.527,0 8,-3.582 8,-8l0,-12.965c0,-1.938 -0.879,-3.809 -2.471,-5.266c-9.57,-8.749 -23.252,-13.769 -37.529,-13.769s-27.959,5.02 -37.529,13.77c-1.592,1.457 -2.471,3.328 -2.471,5.266l0,12.964c0,4.418 2.472,8 8,8z"/>
   <path id="svg_15" fill="#5C546A" d="m208,480l-40,0l0,24c0,4.418 3.578,8 8,8l48,0c4.422,0 8,-3.582 8,-8l0,-24l-8,0l-16,0z"/>
   <path id="svg_16" fill="#888693" d="m344,432c0,-6.471 -1.936,-12.496 -5.251,-17.536c-5.725,-8.703 -15.573,-14.464 -26.749,-14.464c-5.827,0 -11.29,1.572 -16,4.304c-7.323,4.247 -12.821,11.306 -14.988,19.696c-0.661,2.558 -1.012,5.238 -1.012,8l0,48l8,0l16,0l40,0l0,-13.263l0,-34.737z"/>
   <path id="svg_17" fill="#5C546A" d="m288,480l-8,0l0,24c0,4.418 3.578,8 8,8l48,0c4.422,0 8,-3.582 8,-8l0,-24l-40,0l-16,0z"/>
  </g>
  <g id="svg_18"/>
  <g id="svg_19"/>
  <g id="svg_20"/>
  <g id="svg_21"/>
  <g id="svg_22"/>
  <g id="svg_23"/>
  <g id="svg_24"/>
  <g id="svg_25"/>
  <g id="svg_26"/>
  <g id="svg_27"/>
  <g id="svg_28"/>
  <g id="svg_29"/>
  <g id="svg_30"/>
  <g id="svg_31"/>
  <g id="svg_32"/>
  <g stroke="null" id="svg_60">
   <path stroke="null" id="svg_37" fill="#FFDC64" d="m91.108936,32.000646l-25.569917,-2.213502l-10.15715,-22.014214c-0.711226,-1.541457 -3.052728,-1.541457 -3.763763,0l-10.15715,22.014035l-25.569917,2.213681c-1.790493,0.154895 -2.513955,2.233489 -1.163199,3.341132l19.292582,15.818941l-5.646026,23.382217c-0.395381,1.637285 1.499119,2.921773 3.04508,2.065032l22.080512,-12.237435l22.080512,12.237435c1.546152,0.85692 3.44027,-0.427746 3.04508,-2.065032l-5.646218,-23.382217l19.292773,-15.818941c1.350756,-1.107644 0.627103,-3.186237 -1.163199,-3.341132z"/>
   <g stroke="null" transform="matrix(0.19118981419081593,0,0,0.178450701007912,-13.372969016955267,-4.105702001125167) " id="svg_38">
    <path stroke="null" id="svg_39" fill="#FFF082" d="m213.050636,62.318357c6.818,9.47 26.062,50.14 37.064,73.842c1.73,3.726 -2.945,7.092 -5.93,4.269c-18.987,-17.952 -51.452,-49.104 -58.27,-58.575c-5.395,-7.493 -3.694,-17.941 3.8,-23.336c7.493,-5.395 17.941,-3.693 23.336,3.8z"/>
    <path stroke="null" id="svg_40" fill="#FFF082" d="m486.494636,62.318357c-6.818,9.47 -26.062,50.14 -37.064,73.842c-1.73,3.726 2.945,7.092 5.93,4.269c18.987,-17.952 51.451,-49.105 58.27,-58.575c5.395,-7.493 3.694,-17.941 -3.8,-23.336c-7.493,-5.395 -17.941,-3.693 -23.336,3.8z"/>
    <path stroke="null" id="svg_41" fill="#FFF082" d="m594.233636,340.024357c-11.094,-3.618 -55.689,-9.595 -81.612,-12.875c-4.075,-0.516 -5.861,4.961 -2.266,6.947c22.873,12.635 62.416,34.099 73.51,37.717c8.778,2.863 18.215,-1.932 21.078,-10.711c2.863,-8.779 -1.932,-18.215 -10.71,-21.078z"/>
    <path stroke="null" id="svg_42" fill="#FFF082" d="m105.311636,340.024357c11.094,-3.618 55.689,-9.595 81.612,-12.875c4.075,-0.516 5.861,4.961 2.266,6.947c-22.873,12.635 -62.416,34.099 -73.51,37.717c-8.778,2.863 -18.215,-1.932 -21.078,-10.711s1.932,-18.215 10.71,-21.078z"/>
    <path stroke="null" id="svg_43" fill="#FFF082" d="m333.566636,528.705357c0,-11.669 8.145,-55.919 13.065,-81.582c0.773,-4.034 6.534,-4.034 7.307,0c4.92,25.663 13.065,69.913 13.065,81.582c0,9.233 -7.485,16.718 -16.718,16.718c-9.234,0.001 -16.719,-7.485 -16.719,-16.718z"/>
   </g>
   <path stroke="null" id="svg_44" fill="#FFC850" d="m59.075274,15.778228l-3.693596,-8.005298c-0.711226,-1.541457 -3.052728,-1.541457 -3.763763,0l-10.15715,22.014035l-25.569726,2.213681c-1.790493,0.154895 -2.513955,2.233489 -1.163199,3.341132l19.292582,15.818941l-5.646026,23.382217c-0.395381,1.637285 1.499119,2.921773 3.04508,2.065032l2.938779,-1.62872c4.817792,-29.108878 18.362061,-50.476922 24.717019,-59.20102z"/>
   <g stroke="null" transform="matrix(0.19118981419081593,0,0,0.178450701007912,-13.372969016955267,-4.105702001125167) " id="svg_45"/>
   <g stroke="null" transform="matrix(0.19118981419081593,0,0,0.178450701007912,-13.372969016955267,-4.105702001125167) " id="svg_46"/>
   <g stroke="null" transform="matrix(0.19118981419081593,0,0,0.178450701007912,-13.372969016955267,-4.105702001125167) " id="svg_47"/>
   <g stroke="null" transform="matrix(0.19118981419081593,0,0,0.178450701007912,-13.372969016955267,-4.105702001125167) " id="svg_48"/>
   <g stroke="null" transform="matrix(0.19118981419081593,0,0,0.178450701007912,-13.372969016955267,-4.105702001125167) " id="svg_49"/>
   <g stroke="null" transform="matrix(0.19118981419081593,0,0,0.178450701007912,-13.372969016955267,-4.105702001125167) " id="svg_50"/>
   <g stroke="null" transform="matrix(0.19118981419081593,0,0,0.178450701007912,-13.372969016955267,-4.105702001125167) " id="svg_51"/>
   <g stroke="null" transform="matrix(0.19118981419081593,0,0,0.178450701007912,-13.372969016955267,-4.105702001125167) " id="svg_52"/>
   <g stroke="null" transform="matrix(0.19118981419081593,0,0,0.178450701007912,-13.372969016955267,-4.105702001125167) " id="svg_53"/>
   <g stroke="null" transform="matrix(0.19118981419081593,0,0,0.178450701007912,-13.372969016955267,-4.105702001125167) " id="svg_54"/>
   <g stroke="null" transform="matrix(0.19118981419081593,0,0,0.178450701007912,-13.372969016955267,-4.105702001125167) " id="svg_55"/>
   <g stroke="null" transform="matrix(0.19118981419081593,0,0,0.178450701007912,-13.372969016955267,-4.105702001125167) " id="svg_56"/>
   <g stroke="null" transform="matrix(0.19118981419081593,0,0,0.178450701007912,-13.372969016955267,-4.105702001125167) " id="svg_57"/>
   <g stroke="null" transform="matrix(0.19118981419081593,0,0,0.178450701007912,-13.372969016955267,-4.105702001125167) " id="svg_58"/>
   <g stroke="null" transform="matrix(0.19118981419081593,0,0,0.178450701007912,-13.372969016955267,-4.105702001125167) " id="svg_59"/>
  </g>
  <g stroke="null" id="svg_84">
   <path stroke="null" id="svg_61" fill="#FFDC64" d="m182.108936,32.000646l-25.569917,-2.213503l-10.15715,-22.014213c-0.711226,-1.541458 -3.052728,-1.541458 -3.763763,0l-10.15715,22.014035l-25.569917,2.213681c-1.790492,0.154895 -2.513954,2.233489 -1.163198,3.341132l19.292581,15.818941l-5.646026,23.382217c-0.395381,1.637285 1.499119,2.921774 3.04508,2.065032l22.080512,-12.237436l22.080511,12.237436c1.546152,0.85692 3.44027,-0.427747 3.045081,-2.065032l-5.646218,-23.382217l19.292773,-15.818941c1.350756,-1.107643 0.627103,-3.186237 -1.163199,-3.341132z"/>
   <g stroke="null" transform="matrix(0.19118981419081593,0,0,0.178450701007912,-13.372969016955267,-4.105702001125167) " id="svg_67">
    <path stroke="null" id="svg_62" fill="#FFF082" d="m689.017402,62.318357c6.818,9.47 26.062,50.14 37.064,73.842c1.73,3.726 -2.945,7.092 -5.93,4.269c-18.987,-17.952 -51.452,-49.104 -58.27,-58.575c-5.395,-7.493 -3.694,-17.941 3.8,-23.336c7.493,-5.395 17.941,-3.693 23.336,3.8z"/>
    <path stroke="null" id="svg_63" fill="#FFF082" d="m962.461402,62.318357c-6.818,9.47 -26.062,50.14 -37.064,73.842c-1.73,3.726 2.945,7.092 5.93,4.269c18.987,-17.952 51.451,-49.105 58.27,-58.575c5.395,-7.493 3.694,-17.941 -3.8,-23.336c-7.493,-5.395 -17.941,-3.693 -23.336,3.8z"/>
    <path stroke="null" id="svg_64" fill="#FFF082" d="m1070.200402,340.024357c-11.094,-3.618 -55.689,-9.595 -81.612,-12.875c-4.075,-0.516 -5.861,4.961 -2.266,6.947c22.873,12.635 62.416,34.099 73.51,37.717c8.778,2.863 18.215,-1.932 21.078,-10.711c2.863,-8.779 -1.932,-18.215 -10.71,-21.078z"/>
    <path stroke="null" id="svg_65" fill="#FFF082" d="m581.278402,340.024357c11.094,-3.618 55.689,-9.595 81.612,-12.875c4.075,-0.516 5.861,4.961 2.266,6.947c-22.873,12.635 -62.416,34.099 -73.51,37.717c-8.778,2.863 -18.215,-1.932 -21.078,-10.711s1.932,-18.215 10.71,-21.078z"/>
    <path stroke="null" id="svg_66" fill="#FFF082" d="m809.533402,528.705357c0,-11.669 8.145,-55.919 13.065,-81.582c0.773,-4.034 6.534,-4.034 7.307,0c4.92,25.663 13.065,69.913 13.065,81.582c0,9.233 -7.485,16.718 -16.718,16.718c-9.234,0.001 -16.719,-7.485 -16.719,-16.718z"/>
   </g>
   <path stroke="null" id="svg_68" fill="#FFC850" d="m150.075274,15.778228l-3.693596,-8.005298c-0.711226,-1.541458 -3.052728,-1.541458 -3.763763,0l-10.15715,22.014035l-25.569726,2.213681c-1.790492,0.154895 -2.513954,2.233489 -1.163198,3.341132l19.292581,15.818941l-5.646026,23.382217c-0.395381,1.637285 1.499119,2.921774 3.04508,2.065032l2.938779,-1.62872c4.817792,-29.108878 18.362061,-50.476922 24.717019,-59.20102z"/>
   <g stroke="null" transform="matrix(0.19118981419081593,0,0,0.178450701007912,-13.372969016955267,-4.105702001125167) " id="svg_69"/>
   <g stroke="null" transform="matrix(0.19118981419081593,0,0,0.178450701007912,-13.372969016955267,-4.105702001125167) " id="svg_70"/>
   <g stroke="null" transform="matrix(0.19118981419081593,0,0,0.178450701007912,-13.372969016955267,-4.105702001125167) " id="svg_71"/>
   <g stroke="null" transform="matrix(0.19118981419081593,0,0,0.178450701007912,-13.372969016955267,-4.105702001125167) " id="svg_72"/>
   <g stroke="null" transform="matrix(0.19118981419081593,0,0,0.178450701007912,-13.372969016955267,-4.105702001125167) " id="svg_73"/>
   <g stroke="null" transform="matrix(0.19118981419081593,0,0,0.178450701007912,-13.372969016955267,-4.105702001125167) " id="svg_74"/>
   <g stroke="null" transform="matrix(0.19118981419081593,0,0,0.178450701007912,-13.372969016955267,-4.105702001125167) " id="svg_75"/>
   <g stroke="null" transform="matrix(0.19118981419081593,0,0,0.178450701007912,-13.372969016955267,-4.105702001125167) " id="svg_76"/>
   <g stroke="null" transform="matrix(0.19118981419081593,0,0,0.178450701007912,-13.372969016955267,-4.105702001125167) " id="svg_77"/>
   <g stroke="null" transform="matrix(0.19118981419081593,0,0,0.178450701007912,-13.372969016955267,-4.105702001125167) " id="svg_78"/>
   <g stroke="null" transform="matrix(0.19118981419081593,0,0,0.178450701007912,-13.372969016955267,-4.105702001125167) " id="svg_79"/>
   <g stroke="null" transform="matrix(0.19118981419081593,0,0,0.178450701007912,-13.372969016955267,-4.105702001125167) " id="svg_80"/>
   <g stroke="null" transform="matrix(0.19118981419081593,0,0,0.178450701007912,-13.372969016955267,-4.105702001125167) " id="svg_81"/>
   <g stroke="null" transform="matrix(0.19118981419081593,0,0,0.178450701007912,-13.372969016955267,-4.105702001125167) " id="svg_82"/>
   <g stroke="null" transform="matrix(0.19118981419081593,0,0,0.178450701007912,-13.372969016955267,-4.105702001125167) " id="svg_83"/>
  </g>
  <g stroke="null" id="svg_108">
   <path stroke="null" id="svg_85" fill="#FFDC64" d="m273.108936,33.000646l-25.569917,-2.213503l-10.15715,-22.014213c-0.711226,-1.541458 -3.052728,-1.541458 -3.763763,0l-10.15715,22.014035l-25.569917,2.213681c-1.790492,0.154895 -2.513954,2.233489 -1.163198,3.341132l19.292581,15.818941l-5.646026,23.382217c-0.395381,1.637285 1.499119,2.921774 3.04508,2.065032l22.080512,-12.237436l22.080511,12.237436c1.546152,0.85692 3.44027,-0.427747 3.045081,-2.065032l-5.646218,-23.382217l19.292773,-15.818941c1.350756,-1.107643 0.627103,-3.186237 -1.163199,-3.341132z"/>
   <g stroke="null" transform="matrix(0.19118981419081593,0,0,0.178450701007912,-13.372969016955267,-4.105702001125167) " id="svg_91">
    <path stroke="null" id="svg_86" fill="#FFF082" d="m1164.984168,67.922145c6.818,9.47 26.062,50.14 37.064,73.842c1.73,3.726 -2.945,7.092 -5.93,4.269c-18.987,-17.952 -51.452,-49.104 -58.27,-58.575c-5.395,-7.493 -3.694,-17.941 3.8,-23.336c7.493,-5.395 17.941,-3.693 23.336,3.8z"/>
    <path stroke="null" id="svg_87" fill="#FFF082" d="m1438.428168,67.922145c-6.818,9.47 -26.062,50.14 -37.064,73.842c-1.73,3.726 2.945,7.092 5.93,4.269c18.987,-17.952 51.451,-49.105 58.27,-58.575c5.395,-7.493 3.694,-17.941 -3.8,-23.336c-7.493,-5.395 -17.941,-3.693 -23.336,3.8z"/>
    <path stroke="null" id="svg_88" fill="#FFF082" d="m1546.167168,345.628145c-11.094,-3.618 -55.689,-9.595 -81.612,-12.875c-4.075,-0.516 -5.861,4.961 -2.266,6.947c22.873,12.635 62.416,34.099 73.51,37.717c8.778,2.863 18.215,-1.932 21.078,-10.711c2.863,-8.779 -1.932,-18.215 -10.71,-21.078z"/>
    <path stroke="null" id="svg_89" fill="#FFF082" d="m1057.245168,345.628145c11.094,-3.618 55.689,-9.595 81.612,-12.875c4.075,-0.516 5.861,4.961 2.266,6.947c-22.873,12.635 -62.416,34.099 -73.51,37.717c-8.778,2.863 -18.215,-1.932 -21.078,-10.711s1.932,-18.215 10.71,-21.078z"/>
    <path stroke="null" id="svg_90" fill="#FFF082" d="m1285.500168,534.309145c0,-11.669 8.145,-55.919 13.065,-81.582c0.773,-4.034 6.534,-4.034 7.307,0c4.92,25.663 13.065,69.913 13.065,81.582c0,9.233 -7.485,16.718 -16.718,16.718c-9.234,0.001 -16.719,-7.485 -16.719,-16.718z"/>
   </g>
   <path stroke="null" id="svg_92" fill="#FFC850" d="m241.075274,16.778228l-3.693596,-8.005298c-0.711226,-1.541458 -3.052728,-1.541458 -3.763763,0l-10.15715,22.014035l-25.569726,2.213681c-1.790492,0.154895 -2.513954,2.233489 -1.163198,3.341132l19.292581,15.818941l-5.646026,23.382217c-0.395381,1.637285 1.499119,2.921774 3.04508,2.065032l2.938779,-1.62872c4.817792,-29.108878 18.362061,-50.476922 24.717019,-59.20102z"/>
   <g stroke="null" transform="matrix(0.19118981419081593,0,0,0.178450701007912,-13.372969016955267,-4.105702001125167) " id="svg_93"/>
   <g stroke="null" transform="matrix(0.19118981419081593,0,0,0.178450701007912,-13.372969016955267,-4.105702001125167) " id="svg_94"/>
   <g stroke="null" transform="matrix(0.19118981419081593,0,0,0.178450701007912,-13.372969016955267,-4.105702001125167) " id="svg_95"/>
   <g stroke="null" transform="matrix(0.19118981419081593,0,0,0.178450701007912,-13.372969016955267,-4.105702001125167) " id="svg_96"/>
   <g stroke="null" transform="matrix(0.19118981419081593,0,0,0.178450701007912,-13.372969016955267,-4.105702001125167) " id="svg_97"/>
   <g stroke="null" transform="matrix(0.19118981419081593,0,0,0.178450701007912,-13.372969016955267,-4.105702001125167) " id="svg_98"/>
   <g stroke="null" transform="matrix(0.19118981419081593,0,0,0.178450701007912,-13.372969016955267,-4.105702001125167) " id="svg_99"/>
   <g stroke="null" transform="matrix(0.19118981419081593,0,0,0.178450701007912,-13.372969016955267,-4.105702001125167) " id="svg_100"/>
   <g stroke="null" transform="matrix(0.19118981419081593,0,0,0.178450701007912,-13.372969016955267,-4.105702001125167) " id="svg_101"/>
   <g stroke="null" transform="matrix(0.19118981419081593,0,0,0.178450701007912,-13.372969016955267,-4.105702001125167) " id="svg_102"/>
   <g stroke="null" transform="matrix(0.19118981419081593,0,0,0.178450701007912,-13.372969016955267,-4.105702001125167) " id="svg_103"/>
   <g stroke="null" transform="matrix(0.19118981419081593,0,0,0.178450701007912,-13.372969016955267,-4.105702001125167) " id="svg_104"/>
   <g stroke="null" transform="matrix(0.19118981419081593,0,0,0.178450701007912,-13.372969016955267,-4.105702001125167) " id="svg_105"/>
   <g stroke="null" transform="matrix(0.19118981419081593,0,0,0.178450701007912,-13.372969016955267,-4.105702001125167) " id="svg_106"/>
   <g stroke="null" transform="matrix(0.19118981419081593,0,0,0.178450701007912,-13.372969016955267,-4.105702001125167) " id="svg_107"/>
  </g>
 </g>
</svg>