<svg width="512" height="512" xmlns="http://www.w3.org/2000/svg">

 <g>
  <title>background</title>
  <rect fill="none" id="canvas_background" height="279.402" width="328.402" y="-1" x="-1"/>
 </g>
 <g>
  <title>Layer 1</title>
  <g id="svg_1">
   <path id="svg_2" fill="none" d="m295.92,398.414c0.048,-0.799 0.079,-1.603 0.079,-2.414c0,-8.141 -2.451,-15.718 -6.645,-22.043l-17.902,17.902l24.468,6.555z"/>
   <path id="svg_3" fill="none" d="m278.042,362.645c-6.325,-4.194 -13.901,-6.645 -22.042,-6.645c-0.811,0 -1.615,0.032 -2.414,0.08l6.555,24.467l17.901,-17.902z"/>
   <path id="svg_4" fill="none" d="m216.079,393.586c-0.048,0.8 -0.079,1.603 -0.079,2.414c0,8.141 2.451,15.717 6.645,22.042l17.902,-17.902l-24.468,-6.554z"/>
   <path id="svg_5" fill="none" d="m238.135,360.227c-7.728,3.875 -14.031,10.179 -17.907,17.907l24.461,6.553l-6.554,-24.46z"/>
   <path id="svg_6" fill="none" d="m233.957,429.355c6.325,4.194 13.902,6.645 22.043,6.645c0.811,0 1.615,-0.032 2.414,-0.08l-6.555,-24.467l-17.902,17.902z"/>
   <path id="svg_7" fill="none" d="m56,412.004l-12.669,21.945c4.033,1.342 8.296,2.051 12.669,2.051s8.636,-0.709 12.669,-2.051l-12.669,-21.945z"/>
   <path id="svg_8" fill="none" d="m267.312,407.312l6.553,24.461c7.728,-3.876 14.031,-10.179 17.907,-17.907l-24.46,-6.554z"/>
   <path id="svg_9" fill="none" d="m29.48,366.065c-0.599,0.532 -1.19,1.078 -1.761,1.649c-5.632,5.632 -9.377,12.651 -10.92,20.285l25.344,0l-12.663,-21.934z"/>
   <path id="svg_10" fill="none" d="m68.669,358.051c-4.033,-1.343 -8.296,-2.051 -12.669,-2.051s-8.636,0.708 -12.669,2.051l12.669,21.945l12.669,-21.945z"/>
   <path id="svg_11" fill="none" d="m95.201,388c-1.543,-7.634 -5.287,-14.653 -10.92,-20.285c-0.572,-0.572 -1.162,-1.117 -1.761,-1.649l-12.663,21.934l25.344,0z"/>
   <path id="svg_12" fill="none" d="m82.52,425.934c0.599,-0.532 1.19,-1.078 1.761,-1.649c5.632,-5.633 9.377,-12.651 10.92,-20.285l-25.344,0l12.663,21.934z"/>
   <path id="svg_13" fill="none" d="m482.52,425.934c0.599,-0.532 1.19,-1.078 1.761,-1.649c5.632,-5.633 9.377,-12.651 10.92,-20.285l-25.344,0l12.663,21.934z"/>
   <path id="svg_14" fill="none" d="m495.201,388c-1.542,-7.634 -5.287,-14.653 -10.92,-20.285c-0.572,-0.572 -1.162,-1.117 -1.761,-1.649l-12.663,21.934l25.344,0z"/>
   <path id="svg_15" fill="none" d="m416.799,404c1.543,7.634 5.287,14.653 10.92,20.285c0.572,0.572 1.162,1.117 1.761,1.649l12.663,-21.934l-25.344,0z"/>
   <path id="svg_16" fill="none" d="m429.48,366.065c-0.599,0.532 -1.19,1.078 -1.761,1.649c-5.632,5.632 -9.377,12.651 -10.92,20.285l25.344,0l-12.663,-21.934z"/>
   <path id="svg_17" fill="none" d="m468.669,358.051c-4.034,-1.343 -8.296,-2.051 -12.669,-2.051s-8.636,0.708 -12.669,2.051l12.669,21.945l12.669,-21.945z"/>
   <path id="svg_18" fill="none" d="m16.799,404c1.542,7.634 5.287,14.653 10.92,20.285c0.572,0.572 1.162,1.117 1.761,1.649l12.663,-21.934l-25.344,0z"/>
   <path id="svg_19" fill="none" d="m456,412.004l-12.669,21.945c4.033,1.342 8.296,2.051 12.669,2.051s8.636,-0.709 12.669,-2.051l-12.669,-21.945z"/>
   <path id="svg_20" fill="#5C546A" d="m445.344,242.832c6.875,-7.391 10.656,-17.047 10.656,-27.188l0,-107.644l-8,0c-2.918,0 -5.645,-0.793 -8,-2.158l0,109.802c0,6.086 -2.266,11.871 -6.375,16.289c-0.565,0.607 -1.106,1.185 -1.625,1.737l0,22.482c2.75,-2.326 6.813,-6.302 13.344,-13.32z"/>
   <path id="svg_21" fill="#888693" d="m35.295,225.307l7.587,-14.089l37.118,19.988l0,-11.206l0,-16l0,-23.384l-8.957,-4.823c-3.89,-2.095 -8.742,-0.64 -10.836,3.25l-30.344,56.35c-2.095,3.89 -0.639,8.742 3.251,10.837l46.886,25.247l0,-22.096l-44.705,-24.074z"/>
   <polygon id="svg_22" fill="#5C546A" points="42.882,211.218 35.295,225.307 80,249.381 80,244 80,231.206  "/>
   <path id="svg_23" fill="#5C546A" d="m256,200.612c-2.061,-0.778 -3.998,-1.983 -5.657,-3.642l-10.343,-10.343l0,33.373l16,0l0,-19.388z"/>
   <path id="svg_24" fill="#5C546A" d="m112,164.002l0,-16.002l-16,0l0,16l15.93,0c0.023,0 0.046,0.002 0.07,0.002z"/>
   <path id="svg_25" fill="#B6B8BE" d="m472,100c0,1.03 -0.201,2.011 -0.556,2.915l14.025,4.675c0.828,0.273 1.68,0.41 2.531,0.41c1.656,0 3.297,-0.516 4.68,-1.512c2.086,-1.504 3.32,-3.918 3.32,-6.488l0,-32c0,-2.57 -1.234,-4.984 -3.32,-6.488c-2.102,-1.512 -4.781,-1.91 -7.211,-1.102l-14.025,4.675c0.354,0.904 0.556,1.885 0.556,2.915l0,32z"/>
   <rect id="svg_26" fill="#D5D9DE" height="40" width="16" y="244" x="336"/>
   <polygon id="svg_27" fill="#D5D9DE" points="320,244 80,244 80,249.381 80,271.477 80,284 320,284  "/>
   <path id="svg_28" fill="#D5D9DE" d="m432,228l0,16l-32,0l0,35.055l9.89,4.945l22.11,0l0,-27.847l0,-22.482l0,-5.671c0,-4.418 -3.578,-8 -8,-8l0,0c4.418,0 8,3.582 8,8z"/>
   <rect id="svg_29" fill="#D5D9DE" height="40" width="16" y="244" x="368"/>
   <path id="svg_30" fill="#D5D9DE" d="m196.302,204l29.713,16l-95.117,-51.219c-5.792,-3.118 -12.321,-4.767 -18.898,-4.779c-0.024,0 -0.047,-0.002 -0.07,-0.002l-15.93,0l-8,0c-4.422,0 -8,3.582 -8,8l0,8.616l0,23.384l116.302,0z"/>
   <rect id="svg_31" fill="#E3E6E9" height="24" width="16" y="220" x="368"/>
   <path id="svg_32" fill="#E3E6E9" d="m432,244l0,-16c0,-4.418 -3.582,-8 -8,-8l-24,0l0,24l32,0z"/>
   <rect id="svg_33" fill="#E3E6E9" height="24" width="16" y="220" x="336"/>
   <polygon id="svg_34" fill="#E3E6E9" points="80,220 80,231.206 80,244 320,244 320,220 256,220 240,220 226.016,220  "/>
   <path id="svg_35" fill="#B6B8BE" d="m431.811,294.96c0.12,-0.971 0.189,-1.957 0.189,-2.96l0,-8l-22.11,0l21.921,10.96z"/>
   <path id="svg_36" fill="#B6B8BE" d="m388.327,291.103c-0.142,-0.074 -0.28,-0.154 -0.418,-0.236c-0.097,-0.058 -0.195,-0.114 -0.288,-0.175c-0.111,-0.073 -0.217,-0.151 -0.324,-0.229c-0.111,-0.081 -0.223,-0.161 -0.329,-0.246c-0.08,-0.065 -0.155,-0.134 -0.232,-0.202c-0.121,-0.106 -0.243,-0.212 -0.356,-0.324c-0.061,-0.06 -0.116,-0.124 -0.175,-0.186c-0.119,-0.125 -0.238,-0.251 -0.348,-0.383c-0.056,-0.067 -0.107,-0.139 -0.161,-0.208c-0.102,-0.132 -0.205,-0.263 -0.299,-0.4c-0.061,-0.089 -0.115,-0.183 -0.173,-0.275c-0.076,-0.122 -0.155,-0.243 -0.224,-0.369c-0.064,-0.116 -0.12,-0.236 -0.178,-0.355c-0.053,-0.109 -0.109,-0.217 -0.158,-0.328c-0.057,-0.13 -0.104,-0.264 -0.154,-0.398c-0.04,-0.108 -0.083,-0.215 -0.119,-0.325c-0.041,-0.126 -0.073,-0.256 -0.108,-0.385c-0.034,-0.126 -0.07,-0.252 -0.098,-0.38c-0.024,-0.109 -0.041,-0.219 -0.06,-0.33c-0.027,-0.156 -0.053,-0.312 -0.071,-0.469c-0.01,-0.088 -0.015,-0.178 -0.022,-0.267c-0.015,-0.183 -0.026,-0.366 -0.028,-0.55c0,-0.029 -0.004,-0.056 -0.004,-0.084l-16,0c0,4.418 -3.578,8 -8,8s-8,-3.582 -8,-8l-16,0c0,4.418 -3.578,8 -8,8s-8,-3.582 -8,-8l-240,0c0,17.645 14.352,32 32,32l113.596,0l22.404,-6.109l0,-9.89c0,-4.418 3.578,-8 8,-8s8,3.582 8,8l0,16l144,0c6.459,0 12.325,-2.569 16.644,-6.733l-36.222,-18.111c-0.033,-0.016 -0.062,-0.036 -0.095,-0.053z"/>
   <path id="svg_37" fill="#5C546A" d="m248,309.89l-22.404,6.11l-54.532,14.872c3.065,3.515 4.936,8.098 4.936,13.128c0,0.724 -0.043,1.438 -0.118,2.142l72.118,-19.668l0,-16.584z"/>
   <path id="svg_38" fill="#5C546A" d="m140.936,330.872l-76.936,-20.982l0,16.584l72.118,19.669c-0.075,-0.705 -0.118,-1.419 -0.118,-2.143c0,-5.03 1.87,-9.613 4.936,-13.128z"/>
   <path id="svg_39" fill="#5C546A" d="m431.811,294.96l-21.921,-10.96l-9.89,-4.945l0,4.945c0,4.418 -3.578,8 -8,8c-1.326,0 -2.572,-0.327 -3.673,-0.897c0.032,0.017 0.062,0.037 0.094,0.053l36.222,18.111l23.357,11.678l0,-17.891l-16.189,-8.094z"/>
   <path id="svg_40" fill="#5C546A" d="m384.032,284.634c-0.014,-0.182 -0.026,-0.365 -0.028,-0.55c0.002,0.184 0.013,0.368 0.028,0.55z"/>
   <path id="svg_41" fill="#5C546A" d="m387.297,290.463c-0.111,-0.081 -0.223,-0.16 -0.329,-0.246c0.106,0.085 0.218,0.165 0.329,0.246z"/>
   <path id="svg_42" fill="#5C546A" d="m387.909,290.867c-0.097,-0.058 -0.194,-0.114 -0.288,-0.175c0.094,0.061 0.192,0.117 0.288,0.175z"/>
   <path id="svg_43" fill="#5C546A" d="m384.821,287.516c-0.053,-0.109 -0.109,-0.216 -0.158,-0.328c0.049,0.111 0.105,0.218 0.158,0.328z"/>
   <path id="svg_44" fill="#5C546A" d="m385.224,288.24c-0.076,-0.122 -0.154,-0.243 -0.224,-0.369c0.069,0.126 0.147,0.247 0.224,0.369z"/>
   <path id="svg_45" fill="#5C546A" d="m384.125,285.37c-0.027,-0.156 -0.054,-0.311 -0.071,-0.469c0.018,0.158 0.044,0.313 0.071,0.469z"/>
   <path id="svg_46" fill="#5C546A" d="m385.695,288.914c-0.102,-0.131 -0.205,-0.262 -0.299,-0.4c0.094,0.138 0.197,0.269 0.299,0.4z"/>
   <path id="svg_47" fill="#5C546A" d="m384.51,286.789c-0.04,-0.108 -0.083,-0.215 -0.119,-0.325c0.035,0.11 0.078,0.217 0.119,0.325z"/>
   <path id="svg_48" fill="#5C546A" d="m386.735,290.015c-0.121,-0.106 -0.242,-0.211 -0.356,-0.324c0.114,0.112 0.235,0.218 0.356,0.324z"/>
   <path id="svg_49" fill="#5C546A" d="m384.282,286.08c-0.034,-0.126 -0.07,-0.251 -0.098,-0.38c0.029,0.128 0.064,0.253 0.098,0.38z"/>
   <path id="svg_50" fill="#5C546A" d="m386.204,289.505c-0.119,-0.125 -0.237,-0.25 -0.348,-0.383c0.11,0.132 0.229,0.258 0.348,0.383z"/>
   <path id="svg_51" fill="#888693" d="m456,108l8,0c3.388,0 6.278,-2.11 7.444,-5.085c0.354,-0.904 0.556,-1.885 0.556,-2.915l0,-32c0,-1.03 -0.201,-2.011 -0.556,-2.915c-1.166,-2.975 -4.056,-5.085 -7.444,-5.085l-16,0c-8.837,0 -16,7.164 -16,16l0,16c0,5.919 3.222,11.074 8,13.842c2.355,1.365 5.082,2.158 8,2.158l8,0z"/>
   <path id="svg_52" fill="#888693" d="m384,284c0,0.029 0.004,0.056 0.004,0.084c0.002,0.185 0.013,0.368 0.028,0.55c0.007,0.089 0.012,0.178 0.022,0.267c0.018,0.158 0.045,0.313 0.071,0.469c0.019,0.11 0.036,0.221 0.06,0.33c0.028,0.128 0.064,0.254 0.098,0.38c0.035,0.129 0.067,0.258 0.108,0.385c0.036,0.11 0.079,0.217 0.119,0.325c0.05,0.134 0.097,0.268 0.154,0.398c0.049,0.112 0.104,0.219 0.158,0.328c0.058,0.119 0.114,0.24 0.178,0.355c0.07,0.126 0.148,0.247 0.224,0.369c0.057,0.092 0.112,0.186 0.173,0.275c0.094,0.137 0.196,0.269 0.299,0.4c0.054,0.069 0.104,0.14 0.161,0.208c0.111,0.133 0.229,0.258 0.348,0.383c0.059,0.062 0.115,0.126 0.175,0.186c0.114,0.113 0.236,0.218 0.356,0.324c0.077,0.068 0.153,0.137 0.232,0.202c0.106,0.086 0.218,0.166 0.329,0.246c0.107,0.078 0.213,0.156 0.324,0.229c0.094,0.062 0.192,0.117 0.288,0.175c0.137,0.082 0.275,0.162 0.418,0.236c1.1,0.57 2.347,0.897 3.673,0.897c4.422,0 8,-3.582 8,-8l0,-4.945l0,-35.056l0,-24l0,-8c0,-4.418 -3.578,-8 -8,-8s-8,3.582 -8,8l0,8l0,24l0,40z"/>
   <path id="svg_53" fill="#888693" d="m352,284c0,4.418 3.578,8 8,8s8,-3.582 8,-8l0,-40l0,-24l0,-8c0,-4.418 -3.578,-8 -8,-8s-8,3.582 -8,8l0,8l0,24l0,40z"/>
   <path id="svg_54" fill="#888693" d="m320,284c0,4.418 3.578,8 8,8s8,-3.582 8,-8l0,-40l0,-24l0,-8c0,-4.418 -3.578,-8 -8,-8s-8,3.582 -8,8l0,8l0,24l0,40z"/>
   <path id="svg_55" fill="#B6B8BE" d="m256,200.612c5.701,2.152 12.381,0.947 16.971,-3.642l5.657,-5.657c3.124,-3.124 3.124,-8.189 0,-11.314l-22.628,-22.627c-3.124,-3.124 -8.19,-3.124 -11.314,0l-5.657,5.657c-6.248,6.248 -6.248,16.379 0,22.627l0.971,0.97l10.343,10.343c1.659,1.661 3.596,2.865 5.657,3.643z"/>
   <path id="svg_56" fill="#888693" d="m171.064,330.872c-3.666,-4.203 -9.048,-6.872 -15.064,-6.872c-6.016,0 -11.398,2.669 -15.064,6.872c-3.066,3.515 -4.936,8.098 -4.936,13.128c0,0.724 0.043,1.438 0.118,2.142c1.07,10.038 9.56,17.858 19.882,17.858c10.321,0 18.812,-7.82 19.882,-17.858c0.075,-0.704 0.118,-1.418 0.118,-2.142c0,-5.03 -1.871,-9.613 -4.936,-13.128z"/>
   <polygon id="svg_57" fill="#B6B8BE" points="80,204 80,220 226.016,220 196.302,204  "/>
   <path id="svg_58" fill="#FFCF00" d="m256,292c-4.422,0 -8,3.582 -8,8l0,9.89l0,16.584l0,14.107c2.614,-0.376 5.283,-0.581 8,-0.581s5.386,0.205 8,0.581l0,-24.581l0,-16c0,-4.418 -3.578,-8 -8,-8z"/>
   <path id="svg_59" fill="#FFCF00" d="m64,300c0,-4.418 -3.578,-8 -8,-8s-8,3.582 -8,8l0,40.57c2.628,-0.374 5.299,-0.57 8,-0.57c2.702,0 5.372,0.196 8,0.57l0,-14.096l0,-16.584l0,-9.89z"/>
   <path id="svg_60" fill="#FFCF00" d="m464,340.57l0,-40.57c0,-4.418 -3.578,-8 -8,-8s-8,3.582 -8,8l0,3.055l0,17.891l0,19.625c2.628,-0.374 5.299,-0.57 8,-0.57c2.702,-0.001 5.372,0.195 8,0.569z"/>
   <path id="svg_61" fill="#888693" d="m291.772,413.865c2.358,-4.701 3.817,-9.925 4.148,-15.451l-24.467,-6.555l17.902,-17.902c-2.974,-4.486 -6.827,-8.338 -11.313,-11.313l-17.902,17.902l-6.555,-24.467c-5.526,0.331 -10.75,1.79 -15.451,4.148l6.553,24.46l-24.461,-6.553c-2.358,4.701 -3.817,9.926 -4.148,15.451l24.467,6.555l-17.902,17.902c2.974,4.486 6.827,8.338 11.313,11.313l17.902,-17.902l6.555,24.467c5.526,-0.331 10.75,-1.79 15.451,-4.148l-6.553,-24.461l24.461,6.554z"/>
   <path id="svg_62" fill="#5C546A" d="m248,340.58c-27.099,3.895 -48,27.258 -48,55.419c0,30.879 25.125,56 56,56s56,-25.121 56,-56c0,-28.162 -20.901,-51.524 -48,-55.419c-2.614,-0.376 -5.283,-0.581 -8,-0.581s-5.386,0.206 -8,0.581zm25.865,91.192c-4.701,2.358 -9.925,3.817 -15.451,4.148c-0.799,0.048 -1.603,0.08 -2.414,0.08c-8.141,0 -15.717,-2.451 -22.043,-6.645c-4.486,-2.974 -8.338,-6.827 -11.313,-11.313c-4.193,-6.325 -6.644,-13.901 -6.644,-22.042c0,-0.811 0.032,-1.615 0.079,-2.414c0.331,-5.526 1.79,-10.75 4.148,-15.451c3.876,-7.728 10.179,-14.031 17.907,-17.907c4.701,-2.358 9.925,-3.817 15.451,-4.148c0.799,-0.048 1.603,-0.08 2.414,-0.08c8.141,0 15.717,2.451 22.043,6.645c4.486,2.974 8.338,6.827 11.313,11.313c4.194,6.324 6.645,13.901 6.645,22.042c0,0.811 -0.032,1.615 -0.079,2.414c-0.331,5.526 -1.79,10.75 -4.148,15.451c-3.876,7.728 -10.18,14.032 -17.908,17.907z"/>
   <path id="svg_63" fill="#888693" d="m68.669,433.949c5.071,-1.688 9.773,-4.391 13.851,-8.014l-12.663,-21.935l25.344,0c0.526,-2.605 0.799,-5.282 0.799,-8c0,-2.719 -0.273,-5.395 -0.799,-8l-25.344,0l12.663,-21.935c-4.078,-3.623 -8.78,-6.326 -13.851,-8.014l-12.669,21.945l-12.669,-21.945c-5.071,1.688 -9.773,4.391 -13.851,8.014l12.663,21.935l-25.344,0c-0.526,2.605 -0.799,5.281 -0.799,8c0,2.718 0.273,5.395 0.799,8l25.344,0l-12.663,21.934c4.078,3.623 8.78,6.326 13.851,8.014l12.669,-21.944l12.669,21.945z"/>
   <path id="svg_64" fill="#5C546A" d="m48,340.57c-11.919,1.696 -22.927,7.165 -31.594,15.832c-10.578,10.578 -16.406,24.641 -16.406,39.598s5.828,29.02 16.406,39.598s24.633,16.402 39.594,16.402s29.016,-5.824 39.594,-16.402s16.406,-24.641 16.406,-39.598s-5.828,-29.02 -16.406,-39.598c-8.668,-8.668 -19.672,-14.137 -31.594,-15.832c-2.628,-0.374 -5.298,-0.57 -8,-0.57c-2.701,0 -5.372,0.196 -8,0.57zm-4.669,93.379c-5.071,-1.688 -9.773,-4.391 -13.851,-8.014c-0.599,-0.532 -1.19,-1.078 -1.761,-1.649c-5.632,-5.633 -9.377,-12.651 -10.92,-20.285c-0.526,-2.605 -0.799,-5.282 -0.799,-8c0,-2.719 0.273,-5.395 0.799,-8c1.542,-7.634 5.287,-14.653 10.92,-20.285c0.572,-0.572 1.162,-1.117 1.761,-1.649c4.078,-3.623 8.78,-6.326 13.851,-8.014c4.033,-1.345 8.296,-2.053 12.669,-2.053s8.636,0.708 12.669,2.051c5.071,1.688 9.773,4.391 13.851,8.014c0.599,0.532 1.19,1.078 1.761,1.649c5.632,5.632 9.377,12.651 10.92,20.285c0.526,2.605 0.799,5.281 0.799,8c0,2.718 -0.273,5.395 -0.799,8c-1.543,7.634 -5.287,14.653 -10.92,20.285c-0.572,0.572 -1.162,1.117 -1.761,1.649c-4.078,3.623 -8.78,6.326 -13.851,8.014c-4.033,1.344 -8.296,2.053 -12.669,2.053s-8.636,-0.709 -12.669,-2.051z"/>
   <path id="svg_65" fill="#888693" d="m468.669,433.949c5.071,-1.688 9.773,-4.391 13.851,-8.014l-12.663,-21.935l25.344,0c0.526,-2.605 0.799,-5.282 0.799,-8c0,-2.719 -0.273,-5.395 -0.799,-8l-25.344,0l12.663,-21.935c-4.078,-3.623 -8.78,-6.326 -13.851,-8.014l-12.669,21.945l-12.669,-21.945c-5.071,1.688 -9.772,4.391 -13.851,8.014l12.663,21.935l-25.344,0c-0.526,2.605 -0.799,5.281 -0.799,8c0,2.718 0.273,5.395 0.799,8l25.344,0l-12.663,21.935c4.078,3.623 8.78,6.326 13.851,8.014l12.669,-21.945l12.669,21.945z"/>
   <path id="svg_66" fill="#5C546A" d="m495.594,356.402c-8.668,-8.668 -19.672,-14.137 -31.594,-15.832c-2.628,-0.374 -5.298,-0.57 -8,-0.57c-2.701,0 -5.372,0.197 -8,0.57c-11.919,1.696 -22.927,7.165 -31.594,15.832c-10.578,10.578 -16.406,24.641 -16.406,39.598s5.828,29.02 16.406,39.598s24.633,16.402 39.594,16.402s29.016,-5.824 39.594,-16.402s16.406,-24.641 16.406,-39.598s-5.828,-29.02 -16.406,-39.598zm-52.263,77.547c-5.071,-1.688 -9.773,-4.391 -13.851,-8.014c-0.599,-0.532 -1.19,-1.078 -1.761,-1.649c-5.632,-5.633 -9.377,-12.651 -10.92,-20.285c-0.526,-2.605 -0.799,-5.282 -0.799,-8c0,-2.719 0.273,-5.395 0.799,-8c1.543,-7.634 5.287,-14.653 10.92,-20.285c0.572,-0.572 1.162,-1.117 1.761,-1.649c4.078,-3.623 8.78,-6.326 13.851,-8.014c4.033,-1.345 8.296,-2.053 12.669,-2.053s8.636,0.708 12.669,2.051c5.071,1.688 9.773,4.391 13.851,8.014c0.599,0.532 1.19,1.078 1.761,1.649c5.632,5.632 9.377,12.651 10.92,20.285c0.526,2.605 0.799,5.281 0.799,8c0,2.718 -0.273,5.395 -0.799,8c-1.542,7.634 -5.287,14.653 -10.92,20.285c-0.572,0.572 -1.162,1.117 -1.761,1.649c-4.078,3.623 -8.78,6.326 -13.851,8.014c-4.034,1.344 -8.296,2.053 -12.669,2.053s-8.636,-0.709 -12.669,-2.051z"/>
   <path id="svg_67" fill="#FF9300" d="m119,148c0.552,0 1,-0.448 1,-1l0,-23c0,-8.836 -7.163,-16 -16,-16l0,0c-8.837,0 -16,7.164 -16,16l0,16c0,4.418 3.582,8 8,8l16,0l7,0z"/>
  </g>
  <g id="svg_68"/>
  <g id="svg_69"/>
  <g id="svg_70"/>
  <g id="svg_71"/>
  <g id="svg_72"/>
  <g id="svg_73"/>
  <g id="svg_74"/>
  <g id="svg_75"/>
  <g id="svg_76"/>
  <g id="svg_77"/>
  <g id="svg_78"/>
  <g id="svg_79"/>
  <g id="svg_80"/>
  <g id="svg_81"/>
  <g id="svg_82"/>
  <g stroke="null" id="svg_110">
   <path stroke="null" id="svg_87" fill="#FFDC64" d="m85.572143,29.900329l-24.525065,-2.289437l-9.742103,-22.769412c-0.682164,-1.594337 -2.927986,-1.594337 -3.609966,0l-9.742103,22.769227l-24.525065,2.289621c-1.717329,0.160209 -2.411228,2.310109 -1.115668,3.45575l18.504238,16.36161l-5.415315,24.184344c-0.379224,1.693452 1.437861,3.022005 2.92065,2.135872l21.178245,-12.657241l21.178245,12.657241c1.482972,0.886317 3.299691,-0.44242 2.92065,-2.135872l-5.415499,-24.184344l18.504421,-16.36161c1.295561,-1.145641 0.601478,-3.295541 -1.115668,-3.45575z"/>
   <g stroke="null" transform="matrix(0.18337730948253755,0,0,0.1845724536104744,-6.8651744786393465,-1.1732254631446892) " id="svg_88">
    <path stroke="null" id="svg_89" fill="#FFF082" d="m170.650635,28.340316c6.818,9.47 26.062,50.14 37.064,73.842c1.73,3.726 -2.945,7.092 -5.93,4.269c-18.987,-17.952 -51.452,-49.104 -58.27,-58.575c-5.395,-7.493 -3.694,-17.941 3.8,-23.336c7.493,-5.395 17.941,-3.693 23.336,3.8z"/>
    <path stroke="null" id="svg_90" fill="#FFF082" d="m444.094635,28.340316c-6.818,9.47 -26.062,50.14 -37.064,73.842c-1.73,3.726 2.945,7.092 5.93,4.269c18.987,-17.952 51.451,-49.105 58.27,-58.575c5.395,-7.493 3.694,-17.941 -3.8,-23.336c-7.493,-5.395 -17.941,-3.693 -23.336,3.8z"/>
    <path stroke="null" id="svg_91" fill="#FFF082" d="m551.833635,306.046316c-11.094,-3.618 -55.689,-9.595 -81.612,-12.875c-4.075,-0.516 -5.861,4.961 -2.266,6.947c22.873,12.635 62.416,34.099 73.51,37.717c8.778,2.863 18.215,-1.932 21.078,-10.711c2.863,-8.779 -1.932,-18.215 -10.71,-21.078z"/>
    <path stroke="null" id="svg_92" fill="#FFF082" d="m62.911635,306.046316c11.094,-3.618 55.689,-9.595 81.612,-12.875c4.075,-0.516 5.861,4.961 2.266,6.947c-22.873,12.635 -62.416,34.099 -73.51,37.717c-8.778,2.863 -18.215,-1.932 -21.078,-10.711s1.932,-18.215 10.71,-21.078z"/>
    <path stroke="null" id="svg_93" fill="#FFF082" d="m291.166635,494.727316c0,-11.669 8.145,-55.919 13.065,-81.582c0.773,-4.034 6.534,-4.034 7.307,0c4.92,25.663 13.065,69.913 13.065,81.582c0,9.233 -7.485,16.718 -16.718,16.718c-9.234,0.001 -16.719,-7.485 -16.719,-16.718z"/>
   </g>
   <path stroke="null" id="svg_94" fill="#FFC850" d="m54.847459,13.121401l-3.542666,-8.27992c-0.682164,-1.594337 -2.927986,-1.594337 -3.609966,0l-9.742103,22.769227l-24.524881,2.289621c-1.717329,0.160209 -2.411228,2.310109 -1.115668,3.45575l18.504238,16.36161l-5.415315,24.184344c-0.379224,1.693452 1.437861,3.022005 2.92065,2.135872l2.818693,-1.684593c4.620925,-30.107459 17.61174,-52.208533 23.707019,-61.231911z"/>
   <g stroke="null" transform="matrix(0.18337730948253755,0,0,0.1845724536104744,-6.8651744786393465,-1.1732254631446892) " id="svg_95"/>
   <g stroke="null" transform="matrix(0.18337730948253755,0,0,0.1845724536104744,-6.8651744786393465,-1.1732254631446892) " id="svg_96"/>
   <g stroke="null" transform="matrix(0.18337730948253755,0,0,0.1845724536104744,-6.8651744786393465,-1.1732254631446892) " id="svg_97"/>
   <g stroke="null" transform="matrix(0.18337730948253755,0,0,0.1845724536104744,-6.8651744786393465,-1.1732254631446892) " id="svg_98"/>
   <g stroke="null" transform="matrix(0.18337730948253755,0,0,0.1845724536104744,-6.8651744786393465,-1.1732254631446892) " id="svg_99"/>
   <g stroke="null" transform="matrix(0.18337730948253755,0,0,0.1845724536104744,-6.8651744786393465,-1.1732254631446892) " id="svg_100"/>
   <g stroke="null" transform="matrix(0.18337730948253755,0,0,0.1845724536104744,-6.8651744786393465,-1.1732254631446892) " id="svg_101"/>
   <g stroke="null" transform="matrix(0.18337730948253755,0,0,0.1845724536104744,-6.8651744786393465,-1.1732254631446892) " id="svg_102"/>
   <g stroke="null" transform="matrix(0.18337730948253755,0,0,0.1845724536104744,-6.8651744786393465,-1.1732254631446892) " id="svg_103"/>
   <g stroke="null" transform="matrix(0.18337730948253755,0,0,0.1845724536104744,-6.8651744786393465,-1.1732254631446892) " id="svg_104"/>
   <g stroke="null" transform="matrix(0.18337730948253755,0,0,0.1845724536104744,-6.8651744786393465,-1.1732254631446892) " id="svg_105"/>
   <g stroke="null" transform="matrix(0.18337730948253755,0,0,0.1845724536104744,-6.8651744786393465,-1.1732254631446892) " id="svg_106"/>
   <g stroke="null" transform="matrix(0.18337730948253755,0,0,0.1845724536104744,-6.8651744786393465,-1.1732254631446892) " id="svg_107"/>
   <g stroke="null" transform="matrix(0.18337730948253755,0,0,0.1845724536104744,-6.8651744786393465,-1.1732254631446892) " id="svg_108"/>
   <g stroke="null" transform="matrix(0.18337730948253755,0,0,0.1845724536104744,-6.8651744786393465,-1.1732254631446892) " id="svg_109"/>
  </g>
  <g stroke="null" id="svg_134">
   <path stroke="null" id="svg_111" fill="#FFDC64" d="m172.572143,31.900329l-24.525064,-2.289437l-9.742103,-22.769412c-0.682164,-1.594336 -2.927986,-1.594336 -3.609966,0l-9.742103,22.769228l-24.525065,2.289621c-1.717328,0.160209 -2.411228,2.310109 -1.115667,3.45575l18.504237,16.36161l-5.415315,24.184344c-0.379224,1.693452 1.437862,3.022004 2.92065,2.135872l21.178246,-12.657241l21.178245,12.657241c1.482973,0.886317 3.299692,-0.44242 2.920651,-2.135872l-5.415499,-24.184344l18.504421,-16.36161c1.295561,-1.145641 0.601478,-3.295541 -1.115668,-3.45575z"/>
   <g stroke="null" transform="matrix(0.18337730948253755,0,0,0.1845724536104744,-6.8651744786393465,-1.1732254631446892) " id="svg_117">
    <path stroke="null" id="svg_112" fill="#FFF082" d="m645.082276,39.17617c6.818,9.47 26.062,50.14 37.064,73.842c1.73,3.726 -2.945,7.092 -5.93,4.269c-18.987,-17.952 -51.452,-49.104 -58.27,-58.575c-5.395,-7.493 -3.694,-17.941 3.8,-23.336c7.493,-5.395 17.941,-3.693 23.336,3.8z"/>
    <path stroke="null" id="svg_113" fill="#FFF082" d="m918.526276,39.17617c-6.818,9.47 -26.062,50.14 -37.064,73.842c-1.73,3.726 2.945,7.092 5.93,4.269c18.987,-17.952 51.451,-49.105 58.27,-58.575c5.395,-7.493 3.694,-17.941 -3.8,-23.336c-7.493,-5.395 -17.941,-3.693 -23.336,3.8z"/>
    <path stroke="null" id="svg_114" fill="#FFF082" d="m1026.265276,316.88217c-11.094,-3.618 -55.689,-9.595 -81.612,-12.875c-4.075,-0.516 -5.861,4.961 -2.266,6.947c22.873,12.635 62.416,34.099 73.51,37.717c8.778,2.863 18.215,-1.932 21.078,-10.711c2.863,-8.779 -1.932,-18.215 -10.71,-21.078z"/>
    <path stroke="null" id="svg_115" fill="#FFF082" d="m537.343276,316.88217c11.094,-3.618 55.689,-9.595 81.612,-12.875c4.075,-0.516 5.861,4.961 2.266,6.947c-22.873,12.635 -62.416,34.099 -73.51,37.717c-8.778,2.863 -18.215,-1.932 -21.078,-10.711s1.932,-18.215 10.71,-21.078z"/>
    <path stroke="null" id="svg_116" fill="#FFF082" d="m765.598276,505.56317c0,-11.669 8.145,-55.919 13.065,-81.582c0.773,-4.034 6.534,-4.034 7.307,0c4.92,25.663 13.065,69.913 13.065,81.582c0,9.233 -7.485,16.718 -16.718,16.718c-9.234,0.001 -16.719,-7.485 -16.719,-16.718z"/>
   </g>
   <path stroke="null" id="svg_118" fill="#FFC850" d="m141.847459,15.121401l-3.542667,-8.279921c-0.682163,-1.594336 -2.927985,-1.594336 -3.609965,0l-9.742103,22.769228l-24.524882,2.289621c-1.717328,0.160209 -2.411228,2.310109 -1.115667,3.45575l18.504237,16.36161l-5.415315,24.184344c-0.379224,1.693452 1.437862,3.022004 2.92065,2.135872l2.818693,-1.684593c4.620925,-30.107458 17.61174,-52.208533 23.707019,-61.231911z"/>
   <g stroke="null" transform="matrix(0.18337730948253755,0,0,0.1845724536104744,-6.8651744786393465,-1.1732254631446892) " id="svg_119"/>
   <g stroke="null" transform="matrix(0.18337730948253755,0,0,0.1845724536104744,-6.8651744786393465,-1.1732254631446892) " id="svg_120"/>
   <g stroke="null" transform="matrix(0.18337730948253755,0,0,0.1845724536104744,-6.8651744786393465,-1.1732254631446892) " id="svg_121"/>
   <g stroke="null" transform="matrix(0.18337730948253755,0,0,0.1845724536104744,-6.8651744786393465,-1.1732254631446892) " id="svg_122"/>
   <g stroke="null" transform="matrix(0.18337730948253755,0,0,0.1845724536104744,-6.8651744786393465,-1.1732254631446892) " id="svg_123"/>
   <g stroke="null" transform="matrix(0.18337730948253755,0,0,0.1845724536104744,-6.8651744786393465,-1.1732254631446892) " id="svg_124"/>
   <g stroke="null" transform="matrix(0.18337730948253755,0,0,0.1845724536104744,-6.8651744786393465,-1.1732254631446892) " id="svg_125"/>
   <g stroke="null" transform="matrix(0.18337730948253755,0,0,0.1845724536104744,-6.8651744786393465,-1.1732254631446892) " id="svg_126"/>
   <g stroke="null" transform="matrix(0.18337730948253755,0,0,0.1845724536104744,-6.8651744786393465,-1.1732254631446892) " id="svg_127"/>
   <g stroke="null" transform="matrix(0.18337730948253755,0,0,0.1845724536104744,-6.8651744786393465,-1.1732254631446892) " id="svg_128"/>
   <g stroke="null" transform="matrix(0.18337730948253755,0,0,0.1845724536104744,-6.8651744786393465,-1.1732254631446892) " id="svg_129"/>
   <g stroke="null" transform="matrix(0.18337730948253755,0,0,0.1845724536104744,-6.8651744786393465,-1.1732254631446892) " id="svg_130"/>
   <g stroke="null" transform="matrix(0.18337730948253755,0,0,0.1845724536104744,-6.8651744786393465,-1.1732254631446892) " id="svg_131"/>
   <g stroke="null" transform="matrix(0.18337730948253755,0,0,0.1845724536104744,-6.8651744786393465,-1.1732254631446892) " id="svg_132"/>
   <g stroke="null" transform="matrix(0.18337730948253755,0,0,0.1845724536104744,-6.8651744786393465,-1.1732254631446892) " id="svg_133"/>
  </g>
 </g>
</svg>