<svg width="88" height="88" xmlns="http://www.w3.org/2000/svg">

 <g>
  <title>background</title>
  <rect fill="none" id="canvas_background" height="90" width="90" y="-1" x="-1"/>
 </g>
 <g>
  <title>Layer 1</title>
  <g id="svg_1">
   <path id="svg_2" fill="#38454F" d="m51.750002,63l0,-9c0,-0.552 0.448,-1 1,-1s1,0.448 1,1l0,2l12.881,0c-1.064,-4.299 -6.313,-8.115 -9.927,-10.632c-1.511,-1.052 -2.126,-2.724 -2.954,-4.368c-1.561,-3.099 -3.197,-7.479 -3.769,-10.914l-0.53,-3.067c-0.056,0.01 -0.112,0.024 -0.168,0.024c-0.329,0 -0.651,-0.162 -0.842,-0.459c-1.057,-1.642 -2.608,-2.584 -4.255,-2.584c-1.603,0 -3.125,0.896 -4.177,2.458c-0.227,0.336 -0.623,0.487 -0.999,0.423l-0.554,3.205c-0.573,3.435 -2.145,7.815 -3.706,10.914c-0.828,1.644 -1.507,3.316 -3.018,4.368c-3.614,2.517 -8.804,6.333 -9.864,10.632l12.882,0l0,-2c0,-0.552 0.448,-1 1,-1s1,0.448 1,1l0,9c0,0.478 -0.343,0.859 -0.791,0.958c0.058,0.026 0.121,0.042 0.188,0.042l2.009,0c0.191,0 0.362,0.118 0.43,0.296l0.922,2.408c0.069,0.178 0.24,0.296 0.431,0.296l4.279,0l4.279,0c0.191,0 0.362,-0.118 0.431,-0.296l0.922,-2.408c0.068,-0.178 0.239,-0.296 0.43,-0.296l2.009,0c0.074,0 0.141,-0.021 0.203,-0.052c-0.424,-0.116 -0.742,-0.487 -0.742,-0.948z"/>
   <path id="svg_3" fill="#38454F" d="m53.750002,61.008c0.009,-0.001 0.017,-0.007 0.026,-0.008l12.493,-1.004c0.272,-0.022 0.481,-0.249 0.481,-0.521l0,-1.475l-13,0l0,3.008z"/>
   <path id="svg_4" fill="#38454F" d="m21.750002,58l0,1.475c0,0.272 0.209,0.499 0.481,0.521l12.43,1.003c0.032,0.003 0.058,0.021 0.089,0.027l0,-3.026l-13,0z"/>
   <path id="svg_5" fill="#546A79" d="m36.750002,63l0,-9c0,-0.552 -0.448,-1 -1,-1s-1,0.448 -1,1l0,2l-12.882,0c-0.042,0.17 -0.09,0.339 -0.118,0.511l0,1.489l13,0l0,3.026c0.535,0.101 0.936,0.558 0.936,1.111l0,1.402c0,0.187 0.113,0.347 0.273,0.419c0.448,-0.099 0.791,-0.48 0.791,-0.958z"/>
   <path id="svg_6" fill="#546A79" d="m66.631002,56l-12.881,0l0,-2c0,-0.552 -0.448,-1 -1,-1s-1,0.448 -1,1l0,9c0,0.461 0.318,0.832 0.742,0.948c0.151,-0.076 0.258,-0.228 0.258,-0.409l0,-1.401c0,-0.577 0.431,-1.057 1,-1.13l0,-3.008l13,0l0,-1.489c-0.029,-0.172 -0.077,-0.341 -0.119,-0.511z"/>
   <g id="svg_7">
    <path id="svg_8" fill="#F3D55B" d="m69.750002,20l-1.586,0l-2.414,-2.414l0,-1.586c0,-0.552 -0.448,-1 -1,-1s-1,0.448 -1,1l0,1.586l-2.414,2.414l-1.586,0c-0.552,0 -1,0.448 -1,1s0.448,1 1,1l1.586,0l2.414,2.414l0,1.586c0,0.552 0.448,1 1,1s1,-0.448 1,-1l0,-1.586l2.414,-2.414l1.586,0c0.552,0 1,-0.448 1,-1s-0.448,-1 -1,-1z"/>
    <circle id="svg_9" fill="#F3D55B" r="1.5" cy="26" cx="59.750002"/>
    <circle id="svg_10" fill="#F3D55B" r="1.5" cy="47" cx="18.750002"/>
    <circle id="svg_11" fill="#F3D55B" r="1.5" cy="22" cx="19.750002"/>
    <circle id="svg_12" fill="#F3D55B" r="1.5" cy="31" cx="30.750002"/>
    <circle id="svg_13" fill="#F3D55B" r="1.5" cy="45" cx="67.750002"/>
    <circle id="svg_14" fill="#F3D55B" r="1.5" cy="68" cx="26.750002"/>
    <circle id="svg_15" fill="#F3D55B" r="1.5" cy="69" cx="65.750002"/>
   </g>
   <g id="svg_16">
    <path id="svg_17" fill="#E57E25" d="m39.686002,69c-0.552,0 -1,0.448 -1,1l0,1c0,0.552 0.448,1 1,1s1,-0.448 1,-1l0,-1c0,-0.552 -0.448,-1 -1,-1z"/>
    <path id="svg_18" fill="#E57E25" d="m42.686002,69c-0.552,0 -1,0.448 -1,1l0,2c0,0.552 0.448,1 1,1s1,-0.448 1,-1l0,-2c0,-0.552 -0.448,-1 -1,-1z"/>
    <path id="svg_19" fill="#E57E25" d="m45.686002,69c-0.552,0 -1,0.448 -1,1l0,2c0,0.552 0.448,1 1,1s1,-0.448 1,-1l0,-2c0,-0.552 -0.448,-1 -1,-1z"/>
    <path id="svg_20" fill="#E57E25" d="m48.686002,69c-0.552,0 -1,0.448 -1,1l0,1c0,0.552 0.448,1 1,1s1,-0.448 1,-1l0,-1c0,-0.552 -0.448,-1 -1,-1z"/>
   </g>
   <path id="svg_21" fill="#38454F" d="m44.186002,22c1.762,0 3.423,0.724 4.748,2.031l-0.467,-2.704c-0.432,-2.59 -1.525,-3.762 -3.162,-5.791c-0.557,-0.691 -1.616,-0.691 -2.173,0c-1.637,2.029 -2.73,3.2 -3.162,5.791l-0.454,2.626c1.313,-1.256 2.947,-1.953 4.67,-1.953z"/>
   <path id="svg_22" fill="#8697CB" d="m44.186002,24c1.647,0 3.198,0.942 4.255,2.583c0.191,0.297 0.513,0.459 0.842,0.459c0.056,0 0.112,-0.014 0.168,-0.024l-0.517,-2.988c-1.325,-1.306 -2.986,-2.03 -4.748,-2.03c-1.723,0 -3.357,0.697 -4.67,1.953l-0.506,2.928c0.376,0.064 0.772,-0.087 0.999,-0.423c1.052,-1.562 2.574,-2.458 4.177,-2.458z"/>
   <g id="svg_23">
    <path id="svg_24" fill="#546A79" d="m48.750002,55l-9,0c-0.552,0 -1,0.448 -1,1s0.448,1 1,1l9,0c0.552,0 1,-0.448 1,-1s-0.448,-1 -1,-1z"/>
    <path id="svg_25" fill="#546A79" d="m48.750002,50l-9,0c-0.552,0 -1,0.448 -1,1s0.448,1 1,1l9,0c0.552,0 1,-0.448 1,-1s-0.448,-1 -1,-1z"/>
    <path id="svg_26" fill="#546A79" d="m39.750002,47l9,0c0.552,0 1,-0.448 1,-1s-0.448,-1 -1,-1l-9,0c-0.552,0 -1,0.448 -1,1s0.448,1 1,1z"/>
    <path id="svg_27" fill="#546A79" d="m47.750002,59l-7,0c-0.552,0 -1,0.448 -1,1l0,2c0,0.552 0.448,1 1,1s1,-0.448 1,-1l0,-1l5,0l0,1c0,0.552 0.448,1 1,1s1,-0.448 1,-1l0,-2c0,-0.552 -0.448,-1 -1,-1z"/>
   </g>
   <path id="svg_28" fill="#546A79" d="m56.704002,45.368c-1.511,-1.052 -2.126,-2.724 -2.954,-4.368c-1.56,-3.097 -3.194,-7.472 -3.768,-10.906c-0.697,6.676 -0.72,21.841 13.447,21.906c0.364,0.002 0.701,-0.01 1.026,-0.028c-2.143,-2.624 -5.317,-4.909 -7.751,-6.604z"/>
   <path id="svg_29" fill="#546A79" d="m38.493002,29.87l-0.037,0.216c-0.573,3.435 -2.145,7.815 -3.706,10.914c-0.828,1.644 -1.507,3.316 -3.018,4.368c-2.433,1.694 -5.58,3.979 -7.704,6.602c0.33,0.019 0.673,0.031 1.043,0.03c14.332,-0.066 14.141,-15.581 13.422,-22.13z"/>
  </g>
  <g id="svg_30"/>
  <g id="svg_31"/>
  <g id="svg_32"/>
  <g id="svg_33"/>
  <g id="svg_34"/>
  <g id="svg_35"/>
  <g id="svg_36"/>
  <g id="svg_37"/>
  <g id="svg_38"/>
  <g id="svg_39"/>
  <g id="svg_40"/>
  <g id="svg_41"/>
  <g id="svg_42"/>
  <g id="svg_43"/>
  <g id="svg_44"/>
  <g stroke="null" id="svg_72">
   <path stroke="null" id="svg_49" fill="#FFDC64" d="m17.238741,5.491584l-4.877069,-0.406967l-1.93732,-4.047457c-0.135655,-0.283407 -0.582261,-0.283407 -0.71788,0l-1.93732,4.047424l-4.877069,0.407c-0.341509,0.028478 -0.479498,0.410642 -0.221862,0.614289l3.679764,2.908415l-1.076893,4.298973c-0.075413,0.301026 0.285934,0.537187 0.580802,0.37967l4.211518,-2.249932l4.211518,2.249932c0.294905,0.15755 0.656179,-0.078644 0.580802,-0.37967l-1.076929,-4.298973l3.6798,-2.908415c0.257636,-0.203647 0.11961,-0.585811 -0.221862,-0.614289z"/>
   <g stroke="null" transform="matrix(0.03646652054128694,0,0,0.032809325638886486,5.841649495650329,7.696375988652911) " id="svg_50">
    <path stroke="null" id="svg_51" fill="#FFF082" d="m-20.896293,-207.214146c6.818,9.47 26.062,50.14 37.064,73.842c1.73,3.726 -2.945,7.092 -5.93,4.269c-18.987,-17.952 -51.452,-49.104 -58.27,-58.575c-5.395,-7.493 -3.694,-17.941 3.8,-23.336c7.493,-5.395 17.941,-3.693 23.336,3.8z"/>
    <path stroke="null" id="svg_52" fill="#FFF082" d="m252.547707,-207.214146c-6.818,9.47 -26.062,50.14 -37.064,73.842c-1.73,3.726 2.945,7.092 5.93,4.269c18.987,-17.952 51.451,-49.105 58.27,-58.575c5.395,-7.493 3.694,-17.941 -3.8,-23.336c-7.493,-5.395 -17.941,-3.693 -23.336,3.8z"/>
    <path stroke="null" id="svg_53" fill="#FFF082" d="m360.286707,70.491854c-11.094,-3.618 -55.689,-9.595 -81.612,-12.875c-4.075,-0.516 -5.861,4.961 -2.266,6.947c22.873,12.635 62.416,34.099 73.51,37.717c8.778,2.863 18.215,-1.932 21.078,-10.711c2.863,-8.779 -1.932,-18.215 -10.71,-21.078z"/>
    <path stroke="null" id="svg_54" fill="#FFF082" d="m-128.635293,70.491854c11.094,-3.618 55.689,-9.595 81.612,-12.875c4.075,-0.516 5.861,4.961 2.266,6.947c-22.873,12.635 -62.416,34.099 -73.51,37.717c-8.778,2.863 -18.215,-1.932 -21.078,-10.711s1.932,-18.215 10.71,-21.078z"/>
    <path stroke="null" id="svg_55" fill="#FFF082" d="m99.619707,259.172854c0,-11.669 8.145,-55.919 13.065,-81.582c0.773,-4.034 6.534,-4.034 7.307,0c4.92,25.663 13.065,69.913 13.065,81.582c0,9.233 -7.485,16.718 -16.718,16.718c-9.234,0.001 -16.719,-7.485 -16.719,-16.718z"/>
   </g>
   <path stroke="null" id="svg_56" fill="#FFC850" d="m11.128811,2.508987l-0.704497,-1.471826c-0.135655,-0.283407 -0.582261,-0.283407 -0.71788,0l-1.93732,4.047424l-4.877032,0.407c-0.341509,0.028478 -0.479498,0.410642 -0.221862,0.614289l3.679764,2.908415l-1.076893,4.298973c-0.075413,0.301026 0.285934,0.537187 0.580802,0.37967l0.560527,-0.299451c0.91892,-5.351857 3.502281,-9.280511 4.714392,-10.884494z"/>
   <g stroke="null" transform="matrix(0.03646652054128694,0,0,0.032809325638886486,5.841649495650329,7.696375988652911) " id="svg_57"/>
   <g stroke="null" transform="matrix(0.03646652054128694,0,0,0.032809325638886486,5.841649495650329,7.696375988652911) " id="svg_58"/>
   <g stroke="null" transform="matrix(0.03646652054128694,0,0,0.032809325638886486,5.841649495650329,7.696375988652911) " id="svg_59"/>
   <g stroke="null" transform="matrix(0.03646652054128694,0,0,0.032809325638886486,5.841649495650329,7.696375988652911) " id="svg_60"/>
   <g stroke="null" transform="matrix(0.03646652054128694,0,0,0.032809325638886486,5.841649495650329,7.696375988652911) " id="svg_61"/>
   <g stroke="null" transform="matrix(0.03646652054128694,0,0,0.032809325638886486,5.841649495650329,7.696375988652911) " id="svg_62"/>
   <g stroke="null" transform="matrix(0.03646652054128694,0,0,0.032809325638886486,5.841649495650329,7.696375988652911) " id="svg_63"/>
   <g stroke="null" transform="matrix(0.03646652054128694,0,0,0.032809325638886486,5.841649495650329,7.696375988652911) " id="svg_64"/>
   <g stroke="null" transform="matrix(0.03646652054128694,0,0,0.032809325638886486,5.841649495650329,7.696375988652911) " id="svg_65"/>
   <g stroke="null" transform="matrix(0.03646652054128694,0,0,0.032809325638886486,5.841649495650329,7.696375988652911) " id="svg_66"/>
   <g stroke="null" transform="matrix(0.03646652054128694,0,0,0.032809325638886486,5.841649495650329,7.696375988652911) " id="svg_67"/>
   <g stroke="null" transform="matrix(0.03646652054128694,0,0,0.032809325638886486,5.841649495650329,7.696375988652911) " id="svg_68"/>
   <g stroke="null" transform="matrix(0.03646652054128694,0,0,0.032809325638886486,5.841649495650329,7.696375988652911) " id="svg_69"/>
   <g stroke="null" transform="matrix(0.03646652054128694,0,0,0.032809325638886486,5.841649495650329,7.696375988652911) " id="svg_70"/>
   <g stroke="null" transform="matrix(0.03646652054128694,0,0,0.032809325638886486,5.841649495650329,7.696375988652911) " id="svg_71"/>
  </g>
 </g>
</svg>