<svg width="138.008" height="118.00800000000001" xmlns="http://www.w3.org/2000/svg">

 <g>
  <title>background</title>
  <rect fill="none" id="canvas_background" height="120.008" width="140.008" y="-1" x="-1"/>
 </g>
 <g>
  <title>Layer 1</title>
  <g id="svg_1">
   <g id="svg_2">
    <path id="svg_3" fill="#5E5F62" d="m97.235568,52.476638l-13.888,3.721l-0.518,-1.932l13.904,-3.726c-0.919,-3.018 -2.285,-5.786 -4.016,-8.241l-22.11,5.924l-0.518,-1.932l21.31,-5.708c-2.698,-3.275 -6.071,-5.899 -9.849,-7.714l-36.452,9.767c-2.37,3.462 -3.982,7.419 -4.684,11.608l4.181,-1.12l0.518,1.932l-4.975,1.333c-0.273,2.993 -0.078,6.072 0.635,9.147l35.812,-9.596l0.518,1.932l-35.809,9.595c0.388,1.265 0.835,2.497 1.374,3.67c2.763,-0.451 4.167,2.917 2.768,4.771c0.164,0.229 0.346,0.441 0.516,0.664l15.247,-4.086l0.518,1.932l-14.366,3.85c2.57,2.885 5.677,5.215 9.127,6.872l22.228,-5.956l0.518,1.932l-19.706,5.28c5.294,1.841 11.172,2.183 16.995,0.623c5.829,-1.562 10.762,-4.795 14.429,-9.043l-6.439,1.724l-0.518,-1.932l8.954,-2.399c0.151,-0.221 0.304,-0.44 0.449,-0.664c-0.843,-1.531 -0.499,-3.773 1.69,-4.36c0.228,-0.061 0.447,-0.095 0.657,-0.108c0.726,-1.724 1.266,-3.529 1.65,-5.376l-6.264,1.679l-0.518,-1.932l7.148,-1.915c0.43,-3.326 0.281,-6.772 -0.516,-10.216z"/>
    <path id="svg_4" fill="#5E5F62" d="m61.499568,30.994638c-1.862,0.499 -3.631,1.172 -5.299,1.991c0.06,1.234 -0.561,2.477 -2.106,2.892c-0.871,0.233 -1.616,0.085 -2.207,-0.279c-1.778,1.301 -3.386,2.793 -4.806,4.436l31.438,-8.425c-5.3,-1.845 -11.19,-2.177 -17.02,-0.615z"/>
   </g>
   <circle id="svg_5" fill="#77797F" r="20.5" cy="57.498638" cx="64.498568"/>
   <circle id="svg_6" fill="#868C9B" r="11.5" cy="56.498638" cx="60.498568"/>
   <circle id="svg_7" fill="#F3D55B" r="1" cy="32.555638" cx="42.010568"/>
   <circle id="svg_8" fill="#F3D55B" r="1" cy="86.555638" cx="50.010568"/>
   <circle id="svg_9" fill="#F3D55B" r="1" cy="81.555638" cx="95.010568"/>
   <circle id="svg_10" fill="#F3D55B" r="1" cy="84.555638" cx="42.010568"/>
   <circle id="svg_11" fill="#F3D55B" r="1" cy="36.101638" cx="46.303568"/>
   <circle id="svg_12" fill="#F3D55B" r="1" cy="33.555638" cx="92.010568"/>
   <g id="svg_13">
    <path id="svg_14" fill="#7684A3" d="m91.536568,64.357638c-0.005,-0.058 -0.002,-0.118 -0.01,-0.176c-0.232,-1.762 -1.606,-3.546 -3.784,-3.546c-0.357,0 -0.725,0.05 -1.093,0.149c-2.259,0.605 -3.046,2.577 -2.824,4.264c0.057,0.433 0.184,0.866 0.374,1.275l-16.121,4.32c-0.606,-1.184 -1.753,-2.121 -3.328,-2.121c-0.357,0 -0.725,0.05 -1.093,0.149c-2.107,0.564 -2.921,2.316 -2.843,3.918l-14.862,3.982c0.446,0.585 0.912,1.15 1.398,1.696l14.025,-3.758c0.625,1.111 1.736,1.972 3.243,1.972c0.357,0 0.725,-0.05 1.093,-0.149c2.032,-0.545 2.866,-2.195 2.852,-3.749l17.077,-4.576c0.551,0.36 1.208,0.587 1.97,0.587c0.357,0 0.725,-0.05 1.093,-0.149c1.214,-0.326 1.991,-1.05 2.427,-1.909l6.255,-1.676c0.149,-0.716 0.272,-1.439 0.366,-2.168l-6.215,1.665zm-26.343,10.043c-1.372,0.365 -2.242,-0.708 -2.377,-1.728c-0.051,-0.387 -0.103,-1.679 1.359,-2.071c0.199,-0.053 0.393,-0.081 0.575,-0.081c1.074,0 1.687,0.937 1.802,1.808c0.051,0.387 0.103,1.68 -1.359,2.072zm22.992,-7.887c-1.371,0.367 -2.242,-0.708 -2.377,-1.728c-0.051,-0.387 -0.103,-1.679 1.359,-2.071c0.199,-0.053 0.393,-0.081 0.575,-0.081c1.074,0 1.687,0.937 1.802,1.808c0.051,0.388 0.103,1.68 -1.359,2.072z"/>
    <path id="svg_15" fill="#7684A3" d="m78.519568,31.609638l-31.438,8.424c-0.715,0.827 -1.367,1.702 -1.983,2.602l36.452,-9.768c-0.985,-0.473 -1.995,-0.897 -3.031,-1.258z"/>
    <path id="svg_16" fill="#7684A3" d="m48.040568,57.111638c0.356,0 0.724,-0.05 1.092,-0.148c2.032,-0.545 2.866,-2.195 2.852,-3.749l11.728,-3.143c0.583,1.256 1.767,2.272 3.41,2.272c0.357,0 0.725,-0.05 1.093,-0.149c2.182,-0.584 2.981,-2.443 2.834,-4.089l21.669,-5.806c-0.417,-0.592 -0.861,-1.161 -1.319,-1.717l-20.986,5.623c-0.64,-1.037 -1.718,-1.822 -3.157,-1.822c-0.357,0 -0.725,0.05 -1.093,0.149c-1.957,0.525 -2.806,2.075 -2.855,3.577l-11.807,3.164c-0.606,-1.183 -1.753,-2.121 -3.329,-2.121c-0.356,0 -0.724,0.05 -1.092,0.148c-2.107,0.565 -2.921,2.317 -2.843,3.919l-3.823,1.024c-0.119,0.709 -0.211,1.424 -0.276,2.144l4.659,-1.249c0.625,1.112 1.736,1.973 3.243,1.973zm18.64,-10.647c0.199,-0.053 0.393,-0.081 0.575,-0.081c1.074,0 1.687,0.938 1.802,1.808c0.051,0.387 0.103,1.679 -1.359,2.071c-1.37,0.367 -2.242,-0.708 -2.377,-1.727c-0.051,-0.387 -0.103,-1.679 1.359,-2.071zm-19.083,4.768c0.199,-0.053 0.393,-0.08 0.574,-0.08c1.075,0 1.688,0.937 1.803,1.808c0.051,0.387 0.104,1.679 -1.359,2.071c-1.379,0.368 -2.242,-0.71 -2.377,-1.728c-0.051,-0.387 -0.104,-1.679 1.359,-2.071z"/>
    <path id="svg_17" fill="#7684A3" d="m84.956568,77.331638c-0.232,-1.763 -1.606,-3.548 -3.785,-3.548c-0.357,0 -0.725,0.05 -1.093,0.149c-2.259,0.605 -3.046,2.578 -2.823,4.264c0.057,0.433 0.184,0.867 0.374,1.275l-21.152,5.668c0.988,0.475 2.001,0.895 3.039,1.256l19.553,-5.239c0.551,0.36 1.208,0.587 1.97,0.587c0.357,0 0.725,-0.05 1.093,-0.149c1.215,-0.325 1.992,-1.051 2.427,-1.91l6.38,-1.709c0.717,-0.831 1.383,-1.702 2,-2.606l-7.974,2.136c-0.004,-0.058 -0.001,-0.117 -0.009,-0.174zm-3.341,2.331c-1.371,0.365 -2.242,-0.709 -2.377,-1.728c-0.051,-0.387 -0.104,-1.679 1.358,-2.071c0.199,-0.053 0.393,-0.081 0.575,-0.081c1.074,0 1.688,0.938 1.802,1.809c0.051,0.387 0.104,1.679 -1.358,2.071z"/>
    <path id="svg_18" fill="#7684A3" d="m79.784568,59.993638c0.357,0 0.725,-0.05 1.093,-0.149c2.033,-0.544 2.866,-2.195 2.852,-3.749l13.506,-3.619c-0.075,-0.326 -0.131,-0.651 -0.218,-0.977c-0.087,-0.324 -0.186,-0.641 -0.283,-0.959l-13.489,3.614c-0.606,-1.183 -1.753,-2.121 -3.328,-2.121c-0.357,0 -0.725,0.05 -1.093,0.149c-2.107,0.565 -2.921,2.317 -2.843,3.919l-35.209,9.434c0.075,0.325 0.134,0.651 0.221,0.976c0.087,0.326 0.203,0.635 0.301,0.955l35.247,-9.444c0.625,1.11 1.735,1.971 3.243,1.971zm-0.443,-5.879c0.199,-0.053 0.393,-0.081 0.575,-0.081c1.074,0 1.687,0.938 1.802,1.808c0.051,0.387 0.103,1.679 -1.359,2.071c-1.372,0.365 -2.242,-0.708 -2.377,-1.727c-0.051,-0.386 -0.103,-1.679 1.359,-2.071z"/>
   </g>
  </g>
  <g id="svg_19"/>
  <g id="svg_20"/>
  <g id="svg_21"/>
  <g id="svg_22"/>
  <g id="svg_23"/>
  <g id="svg_24"/>
  <g id="svg_25"/>
  <g id="svg_26"/>
  <g id="svg_27"/>
  <g id="svg_28"/>
  <g id="svg_29"/>
  <g id="svg_30"/>
  <g id="svg_31"/>
  <g id="svg_32"/>
  <g id="svg_33"/>
  <g stroke="null" id="svg_61">
   <path stroke="null" id="svg_38" fill="#FFDC64" d="m30.505881,9.140555l-8.626589,-0.712022l-3.426744,-7.081355c-0.239948,-0.495844 -1.029907,-0.495844 -1.26979,0l-3.426744,7.081298l-8.626589,0.712079c-0.604063,0.049825 -0.848139,0.718451 -0.392431,1.074749l6.508788,5.088509l-1.904815,7.521403c-0.133391,0.526669 0.505762,0.939853 1.027327,0.664263l7.44936,-3.93644l7.44936,3.93644c0.521629,0.275647 1.160653,-0.137594 1.027327,-0.664263l-1.904879,-7.521403l6.508853,-5.088509c0.455708,-0.356298 0.211567,-1.024923 -0.392431,-1.074749z"/>
   <g stroke="null" transform="matrix(0.06450220461530556,0,0,0.05740258429492176,-0.5595307665335412,-0.19120632784383673) " id="svg_39">
    <path stroke="null" id="svg_40" fill="#FFF082" d="m148.185776,22.552944c6.818,9.47 26.062,50.14 37.064,73.842c1.73,3.726 -2.945,7.092 -5.93,4.269c-18.987,-17.952 -51.452,-49.104 -58.27,-58.575c-5.395,-7.493 -3.694,-17.941 3.8,-23.336c7.493,-5.395 17.941,-3.693 23.336,3.8z"/>
    <path stroke="null" id="svg_41" fill="#FFF082" d="m421.629776,22.552944c-6.818,9.47 -26.062,50.14 -37.064,73.842c-1.73,3.726 2.945,7.092 5.93,4.269c18.987,-17.952 51.451,-49.105 58.27,-58.575c5.395,-7.493 3.694,-17.941 -3.8,-23.336c-7.493,-5.395 -17.941,-3.693 -23.336,3.8z"/>
    <path stroke="null" id="svg_42" fill="#FFF082" d="m529.368776,300.258944c-11.094,-3.618 -55.689,-9.595 -81.612,-12.875c-4.075,-0.516 -5.861,4.961 -2.266,6.947c22.873,12.635 62.416,34.099 73.51,37.717c8.778,2.863 18.215,-1.932 21.078,-10.711c2.863,-8.779 -1.932,-18.215 -10.71,-21.078z"/>
    <path stroke="null" id="svg_43" fill="#FFF082" d="m40.446776,300.258944c11.094,-3.618 55.689,-9.595 81.612,-12.875c4.075,-0.516 5.861,4.961 2.266,6.947c-22.873,12.635 -62.416,34.099 -73.51,37.717c-8.778,2.863 -18.215,-1.932 -21.078,-10.711s1.932,-18.215 10.71,-21.078z"/>
    <path stroke="null" id="svg_44" fill="#FFF082" d="m268.701776,488.939944c0,-11.669 8.145,-55.919 13.065,-81.582c0.773,-4.034 6.534,-4.034 7.307,0c4.92,25.663 13.065,69.913 13.065,81.582c0,9.233 -7.485,16.718 -16.718,16.718c-9.234,0.001 -16.719,-7.485 -16.719,-16.718z"/>
   </g>
   <path stroke="null" id="svg_45" fill="#FFC850" d="m19.698601,3.922259l-1.246118,-2.57508c-0.239948,-0.495844 -1.029907,-0.495844 -1.26979,0l-3.426744,7.081298l-8.626525,0.712079c-0.604063,0.049825 -0.848139,0.718451 -0.392431,1.074749l6.508788,5.088509l-1.904815,7.521403c-0.133391,0.526669 0.505762,0.939853 1.027327,0.664263l0.991463,-0.523913c1.625391,-9.36351 6.194856,-16.23701 8.338845,-19.043307z"/>
   <g stroke="null" transform="matrix(0.06450220461530556,0,0,0.05740258429492176,-0.5595307665335412,-0.19120632784383673) " id="svg_46"/>
   <g stroke="null" transform="matrix(0.06450220461530556,0,0,0.05740258429492176,-0.5595307665335412,-0.19120632784383673) " id="svg_47"/>
   <g stroke="null" transform="matrix(0.06450220461530556,0,0,0.05740258429492176,-0.5595307665335412,-0.19120632784383673) " id="svg_48"/>
   <g stroke="null" transform="matrix(0.06450220461530556,0,0,0.05740258429492176,-0.5595307665335412,-0.19120632784383673) " id="svg_49"/>
   <g stroke="null" transform="matrix(0.06450220461530556,0,0,0.05740258429492176,-0.5595307665335412,-0.19120632784383673) " id="svg_50"/>
   <g stroke="null" transform="matrix(0.06450220461530556,0,0,0.05740258429492176,-0.5595307665335412,-0.19120632784383673) " id="svg_51"/>
   <g stroke="null" transform="matrix(0.06450220461530556,0,0,0.05740258429492176,-0.5595307665335412,-0.19120632784383673) " id="svg_52"/>
   <g stroke="null" transform="matrix(0.06450220461530556,0,0,0.05740258429492176,-0.5595307665335412,-0.19120632784383673) " id="svg_53"/>
   <g stroke="null" transform="matrix(0.06450220461530556,0,0,0.05740258429492176,-0.5595307665335412,-0.19120632784383673) " id="svg_54"/>
   <g stroke="null" transform="matrix(0.06450220461530556,0,0,0.05740258429492176,-0.5595307665335412,-0.19120632784383673) " id="svg_55"/>
   <g stroke="null" transform="matrix(0.06450220461530556,0,0,0.05740258429492176,-0.5595307665335412,-0.19120632784383673) " id="svg_56"/>
   <g stroke="null" transform="matrix(0.06450220461530556,0,0,0.05740258429492176,-0.5595307665335412,-0.19120632784383673) " id="svg_57"/>
   <g stroke="null" transform="matrix(0.06450220461530556,0,0,0.05740258429492176,-0.5595307665335412,-0.19120632784383673) " id="svg_58"/>
   <g stroke="null" transform="matrix(0.06450220461530556,0,0,0.05740258429492176,-0.5595307665335412,-0.19120632784383673) " id="svg_59"/>
   <g stroke="null" transform="matrix(0.06450220461530556,0,0,0.05740258429492176,-0.5595307665335412,-0.19120632784383673) " id="svg_60"/>
  </g>
  <g stroke="null" id="svg_85">
   <path stroke="null" id="svg_62" fill="#FFDC64" d="m61.737254,9.440857l-8.626589,-0.712021l-3.426745,-7.081355c-0.239948,-0.495844 -1.029906,-0.495844 -1.26979,0l-3.426744,7.081297l-8.626589,0.712079c-0.604064,0.049826 -0.84814,0.718451 -0.392432,1.074749l6.508789,5.088509l-1.904815,7.521404c-0.133391,0.526668 0.505762,0.939852 1.027327,0.664262l7.449359,-3.936439l7.44936,3.936439c0.521629,0.275648 1.160653,-0.137594 1.027326,-0.664262l-1.904879,-7.521404l6.508853,-5.088509c0.455708,-0.356298 0.211568,-1.024923 -0.392431,-1.074749z"/>
   <g stroke="null" transform="matrix(0.06450220461530556,0,0,0.05740258429492176,-0.5595307665335412,-0.19120632784383673) " id="svg_68">
    <path stroke="null" id="svg_63" fill="#FFF082" d="m632.376572,27.784445c6.818,9.47 26.062,50.14 37.064,73.842c1.73,3.726 -2.945,7.092 -5.93,4.269c-18.987,-17.952 -51.452,-49.104 -58.27,-58.575c-5.395,-7.493 -3.694,-17.941 3.8,-23.336c7.493,-5.395 17.941,-3.693 23.336,3.8z"/>
    <path stroke="null" id="svg_64" fill="#FFF082" d="m905.820572,27.784445c-6.818,9.47 -26.062,50.14 -37.064,73.842c-1.73,3.726 2.945,7.092 5.93,4.269c18.987,-17.952 51.451,-49.105 58.27,-58.575c5.395,-7.493 3.694,-17.941 -3.8,-23.336c-7.493,-5.395 -17.941,-3.693 -23.336,3.8z"/>
    <path stroke="null" id="svg_65" fill="#FFF082" d="m1013.559572,305.490445c-11.094,-3.618 -55.689,-9.595 -81.612,-12.875c-4.075,-0.516 -5.861,4.961 -2.266,6.947c22.873,12.635 62.416,34.099 73.51,37.717c8.778,2.863 18.215,-1.932 21.078,-10.711c2.863,-8.779 -1.932,-18.215 -10.71,-21.078z"/>
    <path stroke="null" id="svg_66" fill="#FFF082" d="m524.637572,305.490445c11.094,-3.618 55.689,-9.595 81.612,-12.875c4.075,-0.516 5.861,4.961 2.266,6.947c-22.873,12.635 -62.416,34.099 -73.51,37.717c-8.778,2.863 -18.215,-1.932 -21.078,-10.711s1.932,-18.215 10.71,-21.078z"/>
    <path stroke="null" id="svg_67" fill="#FFF082" d="m752.892572,494.171445c0,-11.669 8.145,-55.919 13.065,-81.582c0.773,-4.034 6.534,-4.034 7.307,0c4.92,25.663 13.065,69.913 13.065,81.582c0,9.233 -7.485,16.718 -16.718,16.718c-9.234,0.001 -16.719,-7.485 -16.719,-16.718z"/>
   </g>
   <path stroke="null" id="svg_69" fill="#FFC850" d="m50.929974,4.222561l-1.246118,-2.57508c-0.239948,-0.495844 -1.029907,-0.495844 -1.26979,0l-3.426745,7.081297l-8.626524,0.712079c-0.604064,0.049826 -0.84814,0.718451 -0.392432,1.074749l6.508789,5.088509l-1.904815,7.521404c-0.133391,0.526668 0.505762,0.939852 1.027327,0.664262l0.991463,-0.523913c1.625391,-9.36351 6.194856,-16.23701 8.338845,-19.043307z"/>
   <g stroke="null" transform="matrix(0.06450220461530556,0,0,0.05740258429492176,-0.5595307665335412,-0.19120632784383673) " id="svg_70"/>
   <g stroke="null" transform="matrix(0.06450220461530556,0,0,0.05740258429492176,-0.5595307665335412,-0.19120632784383673) " id="svg_71"/>
   <g stroke="null" transform="matrix(0.06450220461530556,0,0,0.05740258429492176,-0.5595307665335412,-0.19120632784383673) " id="svg_72"/>
   <g stroke="null" transform="matrix(0.06450220461530556,0,0,0.05740258429492176,-0.5595307665335412,-0.19120632784383673) " id="svg_73"/>
   <g stroke="null" transform="matrix(0.06450220461530556,0,0,0.05740258429492176,-0.5595307665335412,-0.19120632784383673) " id="svg_74"/>
   <g stroke="null" transform="matrix(0.06450220461530556,0,0,0.05740258429492176,-0.5595307665335412,-0.19120632784383673) " id="svg_75"/>
   <g stroke="null" transform="matrix(0.06450220461530556,0,0,0.05740258429492176,-0.5595307665335412,-0.19120632784383673) " id="svg_76"/>
   <g stroke="null" transform="matrix(0.06450220461530556,0,0,0.05740258429492176,-0.5595307665335412,-0.19120632784383673) " id="svg_77"/>
   <g stroke="null" transform="matrix(0.06450220461530556,0,0,0.05740258429492176,-0.5595307665335412,-0.19120632784383673) " id="svg_78"/>
   <g stroke="null" transform="matrix(0.06450220461530556,0,0,0.05740258429492176,-0.5595307665335412,-0.19120632784383673) " id="svg_79"/>
   <g stroke="null" transform="matrix(0.06450220461530556,0,0,0.05740258429492176,-0.5595307665335412,-0.19120632784383673) " id="svg_80"/>
   <g stroke="null" transform="matrix(0.06450220461530556,0,0,0.05740258429492176,-0.5595307665335412,-0.19120632784383673) " id="svg_81"/>
   <g stroke="null" transform="matrix(0.06450220461530556,0,0,0.05740258429492176,-0.5595307665335412,-0.19120632784383673) " id="svg_82"/>
   <g stroke="null" transform="matrix(0.06450220461530556,0,0,0.05740258429492176,-0.5595307665335412,-0.19120632784383673) " id="svg_83"/>
   <g stroke="null" transform="matrix(0.06450220461530556,0,0,0.05740258429492176,-0.5595307665335412,-0.19120632784383673) " id="svg_84"/>
  </g>
  <g stroke="null" id="svg_109">
   <path stroke="null" id="svg_86" fill="#FFDC64" d="m93.268927,9.440857l-8.626589,-0.712021l-3.426745,-7.081355c-0.239948,-0.495844 -1.029906,-0.495844 -1.26979,0l-3.426744,7.081297l-8.626589,0.712079c-0.604064,0.049826 -0.84814,0.718451 -0.392432,1.074749l6.508789,5.088509l-1.904815,7.521404c-0.133391,0.526668 0.505762,0.939852 1.027327,0.664262l7.449359,-3.936439l7.44936,3.936439c0.521629,0.275648 1.160653,-0.137594 1.027326,-0.664262l-1.904879,-7.521404l6.508853,-5.088509c0.455708,-0.356298 0.211568,-1.024923 -0.392431,-1.074749z"/>
   <g stroke="null" transform="matrix(0.06450220461530556,0,0,0.05740258429492176,-0.5595307665335412,-0.19120632784383673) " id="svg_92">
    <path stroke="null" id="svg_87" fill="#FFF082" d="m1121.223008,27.784445c6.818,9.47 26.062,50.14 37.064,73.842c1.73,3.726 -2.945,7.092 -5.93,4.269c-18.987,-17.952 -51.452,-49.104 -58.27,-58.575c-5.395,-7.493 -3.694,-17.941 3.8,-23.336c7.493,-5.395 17.941,-3.693 23.336,3.8z"/>
    <path stroke="null" id="svg_88" fill="#FFF082" d="m1394.667008,27.784445c-6.818,9.47 -26.062,50.14 -37.064,73.842c-1.73,3.726 2.945,7.092 5.93,4.269c18.987,-17.952 51.451,-49.105 58.27,-58.575c5.395,-7.493 3.694,-17.941 -3.8,-23.336c-7.493,-5.395 -17.941,-3.693 -23.336,3.8z"/>
    <path stroke="null" id="svg_89" fill="#FFF082" d="m1502.406008,305.490445c-11.094,-3.618 -55.689,-9.595 -81.612,-12.875c-4.075,-0.516 -5.861,4.961 -2.266,6.947c22.873,12.635 62.416,34.099 73.51,37.717c8.778,2.863 18.215,-1.932 21.078,-10.711c2.863,-8.779 -1.932,-18.215 -10.71,-21.078z"/>
    <path stroke="null" id="svg_90" fill="#FFF082" d="m1013.484008,305.490445c11.094,-3.618 55.689,-9.595 81.612,-12.875c4.075,-0.516 5.861,4.961 2.266,6.947c-22.873,12.635 -62.416,34.099 -73.51,37.717c-8.778,2.863 -18.215,-1.932 -21.078,-10.711s1.932,-18.215 10.71,-21.078z"/>
    <path stroke="null" id="svg_91" fill="#FFF082" d="m1241.739008,494.171445c0,-11.669 8.145,-55.919 13.065,-81.582c0.773,-4.034 6.534,-4.034 7.307,0c4.92,25.663 13.065,69.913 13.065,81.582c0,9.233 -7.485,16.718 -16.718,16.718c-9.234,0.001 -16.719,-7.485 -16.719,-16.718z"/>
   </g>
   <path stroke="null" id="svg_93" fill="#FFC850" d="m82.461647,4.222561l-1.246118,-2.57508c-0.239948,-0.495844 -1.029907,-0.495844 -1.26979,0l-3.426745,7.081297l-8.626524,0.712079c-0.604064,0.049826 -0.84814,0.718451 -0.392432,1.074749l6.508789,5.088509l-1.904815,7.521404c-0.133391,0.526668 0.505762,0.939852 1.027327,0.664262l0.991463,-0.523913c1.625391,-9.36351 6.194856,-16.23701 8.338845,-19.043307z"/>
   <g stroke="null" transform="matrix(0.06450220461530556,0,0,0.05740258429492176,-0.5595307665335412,-0.19120632784383673) " id="svg_94"/>
   <g stroke="null" transform="matrix(0.06450220461530556,0,0,0.05740258429492176,-0.5595307665335412,-0.19120632784383673) " id="svg_95"/>
   <g stroke="null" transform="matrix(0.06450220461530556,0,0,0.05740258429492176,-0.5595307665335412,-0.19120632784383673) " id="svg_96"/>
   <g stroke="null" transform="matrix(0.06450220461530556,0,0,0.05740258429492176,-0.5595307665335412,-0.19120632784383673) " id="svg_97"/>
   <g stroke="null" transform="matrix(0.06450220461530556,0,0,0.05740258429492176,-0.5595307665335412,-0.19120632784383673) " id="svg_98"/>
   <g stroke="null" transform="matrix(0.06450220461530556,0,0,0.05740258429492176,-0.5595307665335412,-0.19120632784383673) " id="svg_99"/>
   <g stroke="null" transform="matrix(0.06450220461530556,0,0,0.05740258429492176,-0.5595307665335412,-0.19120632784383673) " id="svg_100"/>
   <g stroke="null" transform="matrix(0.06450220461530556,0,0,0.05740258429492176,-0.5595307665335412,-0.19120632784383673) " id="svg_101"/>
   <g stroke="null" transform="matrix(0.06450220461530556,0,0,0.05740258429492176,-0.5595307665335412,-0.19120632784383673) " id="svg_102"/>
   <g stroke="null" transform="matrix(0.06450220461530556,0,0,0.05740258429492176,-0.5595307665335412,-0.19120632784383673) " id="svg_103"/>
   <g stroke="null" transform="matrix(0.06450220461530556,0,0,0.05740258429492176,-0.5595307665335412,-0.19120632784383673) " id="svg_104"/>
   <g stroke="null" transform="matrix(0.06450220461530556,0,0,0.05740258429492176,-0.5595307665335412,-0.19120632784383673) " id="svg_105"/>
   <g stroke="null" transform="matrix(0.06450220461530556,0,0,0.05740258429492176,-0.5595307665335412,-0.19120632784383673) " id="svg_106"/>
   <g stroke="null" transform="matrix(0.06450220461530556,0,0,0.05740258429492176,-0.5595307665335412,-0.19120632784383673) " id="svg_107"/>
   <g stroke="null" transform="matrix(0.06450220461530556,0,0,0.05740258429492176,-0.5595307665335412,-0.19120632784383673) " id="svg_108"/>
  </g>
 </g>
</svg>