<svg width="473.858" height="473.858" xmlns="http://www.w3.org/2000/svg">

 <g>
  <title>background</title>
  <rect fill="none" id="canvas_background" height="402" width="582" y="-1" x="-1"/>
 </g>
 <g>
  <title>Layer 1</title>
  <g id="svg_1">
   <path id="svg_2" fill="#FD830C" d="m262.421,252.645c-0.016,-0.016 -90.996,-90.996 -90.996,-90.996c-5.383,-5.383 -12.54,-8.348 -20.152,-8.348c-7.613,0 -14.77,2.965 -20.153,8.348l-5.155,5.155l102.286,102.286c2.929,2.929 2.929,7.678 0,10.606c-1.464,1.464 -3.384,2.197 -5.303,2.197s-3.839,-0.732 -5.303,-2.197l-102.286,-102.286l-67.185,67.185c-11.112,11.112 -11.112,29.193 0,40.305l5.762,5.758c2.93,2.928 2.932,7.676 0.004,10.606c-1.414,1.415 -3.253,2.14 -5.107,2.189l-12.023,100.141c-0.316,2.634 1.272,7.227 3.147,9.102l42.514,42.515c4.874,4.873 12.805,4.873 17.678,0l48.56,-48.561l-10.607,-10.607l-41.49,41.489c-1.464,1.464 -3.384,2.197 -5.303,2.197s-3.839,-0.732 -5.303,-2.197l-31.496,-31.496c-1.627,-1.627 -2.417,-3.912 -2.143,-6.197l10.033,-83.556c0.342,-2.851 2.282,-5.256 4.995,-6.194c2.713,-0.937 5.724,-0.246 7.754,1.785l84.166,84.169l103.099,-103.099c11.112,-11.11 11.114,-29.186 0.007,-40.299zm-99.923,119.008c-1.464,1.464 -3.384,2.197 -5.303,2.197c-1.919,0 -3.839,-0.732 -5.303,-2.197l-21.22,-21.22c-2.929,-2.929 -2.929,-7.678 0,-10.606c2.929,-2.929 7.678,-2.93 10.606,0l21.22,21.22c2.929,2.928 2.929,7.677 0,10.606zm19.092,-19.092c-1.464,1.464 -3.384,2.197 -5.303,2.197s-3.839,-0.732 -5.303,-2.197l-21.22,-21.22c-2.929,-2.929 -2.929,-7.678 0,-10.606c2.929,-2.929 7.678,-2.929 10.606,0l21.22,21.22c2.929,2.928 2.929,7.677 0,10.606zm19.092,-19.092c-1.464,1.464 -3.384,2.197 -5.303,2.197s-3.839,-0.732 -5.303,-2.197l-21.22,-21.22c-2.929,-2.929 -2.929,-7.678 0,-10.606c2.929,-2.929 7.678,-2.929 10.606,0l21.22,21.22c2.929,2.928 2.929,7.677 0,10.606z"/>
   <path id="svg_3" fill="#D4ED85" d="m429.506,59.583c0,-9.904 -3.844,-19.203 -10.824,-26.184c-6.981,-6.981 -16.28,-10.825 -26.186,-10.825c-9.904,0 -19.203,3.844 -26.184,10.825l-150.961,150.962l52.368,52.367l150.961,-150.961c6.982,-6.98 10.826,-16.28 10.826,-26.184z"/>
   <path id="svg_4" fill="#4D3D36" d="m446.011,63.711l-1.656,-0.322c0.09,-1.261 0.152,-2.528 0.152,-3.805c0,-2.399 -0.172,-4.77 -0.488,-7.106l1.362,-0.265c4.066,-0.791 6.721,-4.729 5.93,-8.794c-0.791,-4.065 -4.729,-6.72 -8.795,-5.929l-2.666,0.519c-1.61,-3.537 -3.625,-6.893 -6.018,-10.015l1.904,-1.904c2.929,-2.929 2.929,-7.678 0,-10.606c-2.93,-2.929 -7.678,-2.929 -10.607,0l-2.024,2.024c-2.839,-2.072 -5.863,-3.833 -9.03,-5.275l0.519,-2.665c0.792,-4.066 -1.862,-8.003 -5.928,-8.795c-4.071,-0.792 -8.004,1.864 -8.795,5.929l-0.265,1.362c-2.336,-0.316 -4.708,-0.488 -7.107,-0.488c-1.278,0 -2.545,0.061 -3.805,0.151l-0.323,-1.657c-0.791,-4.065 -4.727,-6.722 -8.795,-5.929c-4.066,0.792 -6.721,4.729 -5.93,8.795l0.39,2.002c-3.41,1.289 -6.676,2.938 -9.753,4.93l-0.676,-1.018c-2.292,-3.451 -6.946,-4.391 -10.397,-2.099c-3.45,2.291 -4.39,6.946 -2.099,10.396l1.693,2.55l-7.283,7.283l-1.554,-1.554c-2.93,-2.929 -7.678,-2.929 -10.607,0c-2.929,2.929 -2.929,7.678 0,10.606l1.554,1.554l-6.99,6.99l-1.554,-1.554c-2.929,-2.928 -7.678,-2.929 -10.606,0c-2.93,2.929 -2.93,7.678 -0.001,10.607l1.554,1.554l-6.99,6.99l-1.554,-1.554c-2.93,-2.929 -7.678,-2.929 -10.607,0c-2.929,2.929 -2.929,7.678 0,10.606l1.554,1.554l-6.99,6.99l-1.555,-1.555c-2.928,-2.929 -7.677,-2.928 -10.606,0c-2.929,2.929 -2.929,7.678 0.001,10.607l1.554,1.554l-6.99,6.99l-1.554,-1.554c-2.93,-2.929 -7.678,-2.929 -10.607,0c-2.929,2.929 -2.929,7.678 0,10.606l1.555,1.555l-6.99,6.99l-1.554,-1.554c-2.929,-2.928 -7.678,-2.929 -10.606,0c-2.93,2.929 -2.93,7.678 -0.001,10.607l1.555,1.555l-6.99,6.99l-1.555,-1.555c-2.93,-2.929 -7.677,-2.928 -10.607,0c-2.929,2.929 -2.928,7.678 0,10.607l1.554,1.554l-6.99,6.99l-1.554,-1.554c-2.929,-2.929 -7.678,-2.928 -10.607,0c-2.929,2.929 -2.929,7.678 0,10.607l1.555,1.555l-6.99,6.99l-22.713,-22.712c-8.216,-8.216 -19.14,-12.741 -30.759,-12.741s-22.543,4.525 -30.759,12.741l-5.155,5.155l-42.756,-42.756c-2.929,-2.929 -7.678,-2.929 -10.606,0c-2.929,2.929 -2.929,7.678 0,10.606l42.756,42.756l-67.185,67.185c-16.058,16.058 -16.902,41.645 -2.551,58.719l-13.103,109.098c-0.86,7.158 2.336,16.4 7.434,21.498l42.514,42.514c5.361,5.361 12.403,8.042 19.445,8.042c7.042,0 14.084,-2.681 19.446,-8.042l162.267,-162.266c15.151,-15.152 16.755,-38.786 4.836,-55.748l7.456,-7.456l1.555,1.555c1.465,1.464 3.384,2.197 5.304,2.197c1.919,0 3.839,-0.732 5.303,-2.196c2.93,-2.929 2.93,-7.678 0.001,-10.607l-1.555,-1.555l6.991,-6.991l1.556,1.556c1.465,1.464 3.384,2.196 5.303,2.196s3.839,-0.732 5.304,-2.197c2.929,-2.929 2.929,-7.678 -0.001,-10.606l-1.555,-1.555l6.99,-6.99l1.555,1.555c1.465,1.464 3.384,2.197 5.304,2.197c1.919,0 3.839,-0.732 5.303,-2.196c2.93,-2.929 2.93,-7.678 0.001,-10.607l-1.555,-1.555l6.99,-6.99l1.555,1.555c1.465,1.464 3.385,2.197 5.304,2.197s3.839,-0.732 5.304,-2.197c2.929,-2.929 2.929,-7.678 0,-10.606l-1.555,-1.555l6.99,-6.99l1.555,1.555c1.465,1.464 3.384,2.197 5.304,2.197c1.919,0 3.839,-0.732 5.303,-2.196c2.93,-2.929 2.93,-7.678 0.001,-10.607l-1.555,-1.555l6.991,-6.991l1.556,1.556c1.465,1.464 3.384,2.196 5.303,2.196s3.839,-0.732 5.304,-2.197c2.929,-2.929 2.929,-7.678 -0.001,-10.606l-1.555,-1.555l6.99,-6.99l1.555,1.555c1.465,1.464 3.384,2.197 5.304,2.197c1.919,0 3.839,-0.732 5.303,-2.196c2.93,-2.929 2.93,-7.678 0.001,-10.607l-1.555,-1.555l6.99,-6.99l1.555,1.555c1.465,1.464 3.385,2.197 5.304,2.197s3.839,-0.732 5.304,-2.197c2.929,-2.929 2.929,-7.678 0,-10.606l-1.555,-1.555l7.283,-7.283l2.551,1.694c1.275,0.847 2.717,1.253 4.142,1.253c2.429,0 4.811,-1.178 6.255,-3.352c2.291,-3.451 1.352,-8.105 -2.1,-10.397l-1.019,-0.677c1.992,-3.077 3.641,-6.344 4.93,-9.754l2.003,0.39c0.484,0.094 0.966,0.14 1.44,0.14c3.518,0 6.657,-2.487 7.354,-6.069c0.784,-4.073 -1.871,-8.01 -5.937,-8.801zm-178.292,173.018l-52.368,-52.367l150.962,-150.963c6.98,-6.98 16.279,-10.825 26.184,-10.825c9.905,0 19.204,3.844 26.186,10.825c6.98,6.98 10.824,16.279 10.824,26.184s-3.845,19.204 -10.826,26.184l-150.962,150.962zm-108.403,159.314l-84.166,-84.169c-2.03,-2.031 -5.042,-2.722 -7.754,-1.785c-2.713,0.938 -4.653,3.344 -4.995,6.194l-10.033,83.556c-0.274,2.285 0.516,4.57 2.143,6.197l31.496,31.496c1.464,1.464 3.384,2.197 5.303,2.197s3.839,-0.732 5.303,-2.197l41.49,-41.489l10.607,10.607l-48.56,48.561c-4.874,4.873 -12.805,4.873 -17.678,0l-42.514,-42.515c-1.875,-1.875 -3.463,-6.468 -3.147,-9.102l12.023,-100.139c1.854,-0.049 3.693,-0.774 5.107,-2.189c2.928,-2.93 2.926,-7.679 -0.004,-10.606l-5.762,-5.758c-11.112,-11.112 -11.112,-29.193 0,-40.305l67.185,-67.185l102.286,102.286c1.464,1.464 3.384,2.197 5.303,2.197s3.839,-0.732 5.303,-2.197c2.929,-2.929 2.929,-7.678 0,-10.606l-102.287,-102.288l5.155,-5.155c5.383,-5.383 12.54,-8.348 20.153,-8.348c7.612,0 14.77,2.965 20.152,8.348l90.98,90.98c11.122,11.129 11.12,29.205 0.01,40.315l-103.099,103.099zm-31.819,-10.607l-36.187,36.187l-23.614,-23.615l7.758,-64.617l52.043,52.045z"/>
   <path id="svg_5" fill="#4D3D36" d="m141.278,339.826c-2.929,-2.93 -7.678,-2.929 -10.606,0c-2.929,2.929 -2.929,7.678 0,10.606l21.22,21.22c1.464,1.465 3.384,2.197 5.303,2.197c1.919,0 3.839,-0.732 5.303,-2.197c2.929,-2.929 2.929,-7.678 0,-10.606l-21.22,-21.22z"/>
   <path id="svg_6" fill="#4D3D36" d="m160.37,320.734c-2.929,-2.929 -7.678,-2.929 -10.606,0c-2.929,2.929 -2.929,7.678 0,10.606l21.22,21.22c1.464,1.464 3.384,2.197 5.303,2.197s3.839,-0.732 5.303,-2.197c2.929,-2.929 2.929,-7.678 0,-10.606l-21.22,-21.22z"/>
   <path id="svg_7" fill="#4D3D36" d="m179.462,301.643c-2.929,-2.929 -7.678,-2.929 -10.606,0c-2.929,2.929 -2.929,7.678 0,10.606l21.22,21.22c1.464,1.464 3.384,2.197 5.303,2.197s3.839,-0.732 5.303,-2.197c2.929,-2.929 2.929,-7.678 0,-10.606l-21.22,-21.22z"/>
  </g>
  <g id="svg_8"/>
  <g id="svg_9"/>
  <g id="svg_10"/>
  <g id="svg_11"/>
  <g id="svg_12"/>
  <g id="svg_13"/>
  <g id="svg_14"/>
  <g id="svg_15"/>
  <g id="svg_16"/>
  <g id="svg_17"/>
  <g id="svg_18"/>
  <g id="svg_19"/>
  <g id="svg_20"/>
  <g id="svg_21"/>
  <g id="svg_22"/>
  <g stroke="null" id="svg_50">
   <path stroke="null" id="svg_27" fill="#FFDC64" d="m72.218761,31.394366l-18.214069,-1.585513l-7.235183,-15.768593c-0.506624,-1.104133 -2.174532,-1.104133 -2.681019,0l-7.235183,15.768465l-18.214069,1.585641c-1.275411,0.11095 -1.790751,1.599829 -0.828575,2.393225l13.742571,11.330972l-4.021801,16.748482c-0.281639,1.172773 1.067859,2.092841 2.169084,1.479164l15.728481,-8.76557l15.728481,8.76557c1.101361,0.613805 2.450587,-0.306391 2.169084,-1.479164l-4.021937,-16.748482l13.742707,-11.330972c0.962176,-0.793396 0.4467,-2.282274 -0.828575,-2.393225z"/>
   <g stroke="null" transform="matrix(0.13618911573947817,0,0,0.12782270986973648,-7.569617179908164,-5.011560081152311) " id="svg_28">
    <path stroke="null" id="svg_29" fill="#FFF082" d="m252.432593,144.801721c6.818,9.47 26.062,50.14 37.064,73.842c1.73,3.726 -2.945,7.092 -5.93,4.269c-18.987,-17.952 -51.452,-49.104 -58.27,-58.575c-5.395,-7.493 -3.694,-17.941 3.8,-23.336c7.493,-5.395 17.941,-3.693 23.336,3.8z"/>
    <path stroke="null" id="svg_30" fill="#FFF082" d="m525.876593,144.801721c-6.818,9.47 -26.062,50.14 -37.064,73.842c-1.73,3.726 2.945,7.092 5.93,4.269c18.987,-17.952 51.451,-49.105 58.27,-58.575c5.395,-7.493 3.694,-17.941 -3.8,-23.336c-7.493,-5.395 -17.941,-3.693 -23.336,3.8z"/>
    <path stroke="null" id="svg_31" fill="#FFF082" d="m633.615593,422.507721c-11.094,-3.618 -55.689,-9.595 -81.612,-12.875c-4.075,-0.516 -5.861,4.961 -2.266,6.947c22.873,12.635 62.416,34.099 73.51,37.717c8.778,2.863 18.215,-1.932 21.078,-10.711c2.863,-8.779 -1.932,-18.215 -10.71,-21.078z"/>
    <path stroke="null" id="svg_32" fill="#FFF082" d="m144.693593,422.507721c11.094,-3.618 55.689,-9.595 81.612,-12.875c4.075,-0.516 5.861,4.961 2.266,6.947c-22.873,12.635 -62.416,34.099 -73.51,37.717c-8.778,2.863 -18.215,-1.932 -21.078,-10.711s1.932,-18.215 10.71,-21.078z"/>
    <path stroke="null" id="svg_33" fill="#FFF082" d="m372.948593,611.188721c0,-11.669 8.145,-55.919 13.065,-81.582c0.773,-4.034 6.534,-4.034 7.307,0c4.92,25.663 13.065,69.913 13.065,81.582c0,9.233 -7.485,16.718 -16.718,16.718c-9.234,0.001 -16.719,-7.485 -16.719,-16.718z"/>
   </g>
   <path stroke="null" id="svg_34" fill="#FFC850" d="m49.40041,19.774387l-2.631038,-5.734127c-0.506624,-1.104133 -2.174532,-1.104133 -2.681019,0l-7.235183,15.768465l-18.213932,1.585641c-1.275411,0.11095 -1.790751,1.599829 -0.828575,2.393225l13.742571,11.330972l-4.021801,16.748482c-0.281639,1.172773 1.067859,2.092841 2.169084,1.479164l2.093363,-1.166638c3.43183,-20.85044 13.079739,-36.156187 17.606529,-42.405184z"/>
   <g stroke="null" transform="matrix(0.13618911573947817,0,0,0.12782270986973648,-7.569617179908164,-5.011560081152311) " id="svg_35"/>
   <g stroke="null" transform="matrix(0.13618911573947817,0,0,0.12782270986973648,-7.569617179908164,-5.011560081152311) " id="svg_36"/>
   <g stroke="null" transform="matrix(0.13618911573947817,0,0,0.12782270986973648,-7.569617179908164,-5.011560081152311) " id="svg_37"/>
   <g stroke="null" transform="matrix(0.13618911573947817,0,0,0.12782270986973648,-7.569617179908164,-5.011560081152311) " id="svg_38"/>
   <g stroke="null" transform="matrix(0.13618911573947817,0,0,0.12782270986973648,-7.569617179908164,-5.011560081152311) " id="svg_39"/>
   <g stroke="null" transform="matrix(0.13618911573947817,0,0,0.12782270986973648,-7.569617179908164,-5.011560081152311) " id="svg_40"/>
   <g stroke="null" transform="matrix(0.13618911573947817,0,0,0.12782270986973648,-7.569617179908164,-5.011560081152311) " id="svg_41"/>
   <g stroke="null" transform="matrix(0.13618911573947817,0,0,0.12782270986973648,-7.569617179908164,-5.011560081152311) " id="svg_42"/>
   <g stroke="null" transform="matrix(0.13618911573947817,0,0,0.12782270986973648,-7.569617179908164,-5.011560081152311) " id="svg_43"/>
   <g stroke="null" transform="matrix(0.13618911573947817,0,0,0.12782270986973648,-7.569617179908164,-5.011560081152311) " id="svg_44"/>
   <g stroke="null" transform="matrix(0.13618911573947817,0,0,0.12782270986973648,-7.569617179908164,-5.011560081152311) " id="svg_45"/>
   <g stroke="null" transform="matrix(0.13618911573947817,0,0,0.12782270986973648,-7.569617179908164,-5.011560081152311) " id="svg_46"/>
   <g stroke="null" transform="matrix(0.13618911573947817,0,0,0.12782270986973648,-7.569617179908164,-5.011560081152311) " id="svg_47"/>
   <g stroke="null" transform="matrix(0.13618911573947817,0,0,0.12782270986973648,-7.569617179908164,-5.011560081152311) " id="svg_48"/>
   <g stroke="null" transform="matrix(0.13618911573947817,0,0,0.12782270986973648,-7.569617179908164,-5.011560081152311) " id="svg_49"/>
  </g>
  <g stroke="null" id="svg_74">
   <path stroke="null" id="svg_51" fill="#FFDC64" d="m141.218761,31.394366l-18.214069,-1.585512l-7.235183,-15.768593c-0.506623,-1.104133 -2.174532,-1.104133 -2.681019,0l-7.235183,15.768465l-18.214068,1.58564c-1.275411,0.110951 -1.790751,1.599829 -0.828575,2.393225l13.742571,11.330972l-4.0218,16.748482c-0.281639,1.172773 1.067858,2.092841 2.169084,1.479164l15.728481,-8.76557l15.728481,8.76557c1.101361,0.613805 2.450587,-0.306391 2.169084,-1.479164l-4.021937,-16.748482l13.742707,-11.330972c0.962176,-0.793396 0.4467,-2.282274 -0.828574,-2.393225z"/>
   <g stroke="null" transform="matrix(0.13618911573947817,0,0,0.12782270986973648,-7.569617179908164,-5.011560081152311) " id="svg_57">
    <path stroke="null" id="svg_52" fill="#FFF082" d="m759.081,144.801721c6.818,9.47 26.062,50.14 37.064,73.842c1.73,3.726 -2.945,7.092 -5.93,4.269c-18.987,-17.952 -51.452,-49.104 -58.27,-58.575c-5.395,-7.493 -3.694,-17.941 3.8,-23.336c7.493,-5.395 17.941,-3.693 23.336,3.8z"/>
    <path stroke="null" id="svg_53" fill="#FFF082" d="m1032.525,144.801721c-6.818,9.47 -26.062,50.14 -37.064,73.842c-1.73,3.726 2.945,7.092 5.93,4.269c18.987,-17.952 51.451,-49.105 58.27,-58.575c5.395,-7.493 3.694,-17.941 -3.8,-23.336c-7.493,-5.395 -17.941,-3.693 -23.336,3.8z"/>
    <path stroke="null" id="svg_54" fill="#FFF082" d="m1140.264,422.507721c-11.094,-3.618 -55.689,-9.595 -81.612,-12.875c-4.075,-0.516 -5.861,4.961 -2.266,6.947c22.873,12.635 62.416,34.099 73.51,37.717c8.778,2.863 18.215,-1.932 21.078,-10.711c2.863,-8.779 -1.932,-18.215 -10.71,-21.078z"/>
    <path stroke="null" id="svg_55" fill="#FFF082" d="m651.342,422.507721c11.094,-3.618 55.689,-9.595 81.612,-12.875c4.075,-0.516 5.861,4.961 2.266,6.947c-22.873,12.635 -62.416,34.099 -73.51,37.717c-8.778,2.863 -18.215,-1.932 -21.078,-10.711s1.932,-18.215 10.71,-21.078z"/>
    <path stroke="null" id="svg_56" fill="#FFF082" d="m879.597,611.188721c0,-11.669 8.145,-55.919 13.065,-81.582c0.773,-4.034 6.534,-4.034 7.307,0c4.92,25.663 13.065,69.913 13.065,81.582c0,9.233 -7.485,16.718 -16.718,16.718c-9.234,0.001 -16.719,-7.485 -16.719,-16.718z"/>
   </g>
   <path stroke="null" id="svg_58" fill="#FFC850" d="m118.40041,19.774387l-2.631037,-5.734126c-0.506624,-1.104133 -2.174532,-1.104133 -2.681019,0l-7.235183,15.768465l-18.213932,1.58564c-1.275411,0.110951 -1.790751,1.599829 -0.828575,2.393225l13.742571,11.330972l-4.0218,16.748482c-0.281639,1.172773 1.067858,2.092841 2.169084,1.479164l2.093363,-1.166638c3.431829,-20.85044 13.079738,-36.156187 17.606528,-42.405184z"/>
   <g stroke="null" transform="matrix(0.13618911573947817,0,0,0.12782270986973648,-7.569617179908164,-5.011560081152311) " id="svg_59"/>
   <g stroke="null" transform="matrix(0.13618911573947817,0,0,0.12782270986973648,-7.569617179908164,-5.011560081152311) " id="svg_60"/>
   <g stroke="null" transform="matrix(0.13618911573947817,0,0,0.12782270986973648,-7.569617179908164,-5.011560081152311) " id="svg_61"/>
   <g stroke="null" transform="matrix(0.13618911573947817,0,0,0.12782270986973648,-7.569617179908164,-5.011560081152311) " id="svg_62"/>
   <g stroke="null" transform="matrix(0.13618911573947817,0,0,0.12782270986973648,-7.569617179908164,-5.011560081152311) " id="svg_63"/>
   <g stroke="null" transform="matrix(0.13618911573947817,0,0,0.12782270986973648,-7.569617179908164,-5.011560081152311) " id="svg_64"/>
   <g stroke="null" transform="matrix(0.13618911573947817,0,0,0.12782270986973648,-7.569617179908164,-5.011560081152311) " id="svg_65"/>
   <g stroke="null" transform="matrix(0.13618911573947817,0,0,0.12782270986973648,-7.569617179908164,-5.011560081152311) " id="svg_66"/>
   <g stroke="null" transform="matrix(0.13618911573947817,0,0,0.12782270986973648,-7.569617179908164,-5.011560081152311) " id="svg_67"/>
   <g stroke="null" transform="matrix(0.13618911573947817,0,0,0.12782270986973648,-7.569617179908164,-5.011560081152311) " id="svg_68"/>
   <g stroke="null" transform="matrix(0.13618911573947817,0,0,0.12782270986973648,-7.569617179908164,-5.011560081152311) " id="svg_69"/>
   <g stroke="null" transform="matrix(0.13618911573947817,0,0,0.12782270986973648,-7.569617179908164,-5.011560081152311) " id="svg_70"/>
   <g stroke="null" transform="matrix(0.13618911573947817,0,0,0.12782270986973648,-7.569617179908164,-5.011560081152311) " id="svg_71"/>
   <g stroke="null" transform="matrix(0.13618911573947817,0,0,0.12782270986973648,-7.569617179908164,-5.011560081152311) " id="svg_72"/>
   <g stroke="null" transform="matrix(0.13618911573947817,0,0,0.12782270986973648,-7.569617179908164,-5.011560081152311) " id="svg_73"/>
  </g>
  <g stroke="null" id="svg_98">
   <path stroke="null" id="svg_75" fill="#FFDC64" d="m207.218761,31.394366l-18.214069,-1.585512l-7.235183,-15.768593c-0.506623,-1.104133 -2.174532,-1.104133 -2.681019,0l-7.235183,15.768465l-18.214068,1.58564c-1.275411,0.110951 -1.790751,1.599829 -0.828575,2.393225l13.742571,11.330972l-4.0218,16.748482c-0.281639,1.172773 1.067858,2.092841 2.169084,1.479164l15.728481,-8.76557l15.728481,8.76557c1.101361,0.613805 2.450587,-0.306391 2.169084,-1.479164l-4.021937,-16.748482l13.742707,-11.330972c0.962176,-0.793396 0.4467,-2.282274 -0.828574,-2.393225z"/>
   <g stroke="null" transform="matrix(0.13618911573947817,0,0,0.12782270986973648,-7.569617179908164,-5.011560081152311) " id="svg_81">
    <path stroke="null" id="svg_76" fill="#FFF082" d="m1243.701239,144.801721c6.818,9.47 26.062,50.14 37.064,73.842c1.73,3.726 -2.945,7.092 -5.93,4.269c-18.987,-17.952 -51.452,-49.104 -58.27,-58.575c-5.395,-7.493 -3.694,-17.941 3.8,-23.336c7.493,-5.395 17.941,-3.693 23.336,3.8z"/>
    <path stroke="null" id="svg_77" fill="#FFF082" d="m1517.145239,144.801721c-6.818,9.47 -26.062,50.14 -37.064,73.842c-1.73,3.726 2.945,7.092 5.93,4.269c18.987,-17.952 51.451,-49.105 58.27,-58.575c5.395,-7.493 3.694,-17.941 -3.8,-23.336c-7.493,-5.395 -17.941,-3.693 -23.336,3.8z"/>
    <path stroke="null" id="svg_78" fill="#FFF082" d="m1624.884239,422.507721c-11.094,-3.618 -55.689,-9.595 -81.612,-12.875c-4.075,-0.516 -5.861,4.961 -2.266,6.947c22.873,12.635 62.416,34.099 73.51,37.717c8.778,2.863 18.215,-1.932 21.078,-10.711c2.863,-8.779 -1.932,-18.215 -10.71,-21.078z"/>
    <path stroke="null" id="svg_79" fill="#FFF082" d="m1135.962239,422.507721c11.094,-3.618 55.689,-9.595 81.612,-12.875c4.075,-0.516 5.861,4.961 2.266,6.947c-22.873,12.635 -62.416,34.099 -73.51,37.717c-8.778,2.863 -18.215,-1.932 -21.078,-10.711s1.932,-18.215 10.71,-21.078z"/>
    <path stroke="null" id="svg_80" fill="#FFF082" d="m1364.217239,611.188721c0,-11.669 8.145,-55.919 13.065,-81.582c0.773,-4.034 6.534,-4.034 7.307,0c4.92,25.663 13.065,69.913 13.065,81.582c0,9.233 -7.485,16.718 -16.718,16.718c-9.234,0.001 -16.719,-7.485 -16.719,-16.718z"/>
   </g>
   <path stroke="null" id="svg_82" fill="#FFC850" d="m184.40041,19.774387l-2.631037,-5.734126c-0.506624,-1.104133 -2.174532,-1.104133 -2.681019,0l-7.235183,15.768465l-18.213932,1.58564c-1.275411,0.110951 -1.790751,1.599829 -0.828575,2.393225l13.742571,11.330972l-4.0218,16.748482c-0.281639,1.172773 1.067858,2.092841 2.169084,1.479164l2.093363,-1.166638c3.431829,-20.85044 13.079738,-36.156187 17.606528,-42.405184z"/>
   <g stroke="null" transform="matrix(0.13618911573947817,0,0,0.12782270986973648,-7.569617179908164,-5.011560081152311) " id="svg_83"/>
   <g stroke="null" transform="matrix(0.13618911573947817,0,0,0.12782270986973648,-7.569617179908164,-5.011560081152311) " id="svg_84"/>
   <g stroke="null" transform="matrix(0.13618911573947817,0,0,0.12782270986973648,-7.569617179908164,-5.011560081152311) " id="svg_85"/>
   <g stroke="null" transform="matrix(0.13618911573947817,0,0,0.12782270986973648,-7.569617179908164,-5.011560081152311) " id="svg_86"/>
   <g stroke="null" transform="matrix(0.13618911573947817,0,0,0.12782270986973648,-7.569617179908164,-5.011560081152311) " id="svg_87"/>
   <g stroke="null" transform="matrix(0.13618911573947817,0,0,0.12782270986973648,-7.569617179908164,-5.011560081152311) " id="svg_88"/>
   <g stroke="null" transform="matrix(0.13618911573947817,0,0,0.12782270986973648,-7.569617179908164,-5.011560081152311) " id="svg_89"/>
   <g stroke="null" transform="matrix(0.13618911573947817,0,0,0.12782270986973648,-7.569617179908164,-5.011560081152311) " id="svg_90"/>
   <g stroke="null" transform="matrix(0.13618911573947817,0,0,0.12782270986973648,-7.569617179908164,-5.011560081152311) " id="svg_91"/>
   <g stroke="null" transform="matrix(0.13618911573947817,0,0,0.12782270986973648,-7.569617179908164,-5.011560081152311) " id="svg_92"/>
   <g stroke="null" transform="matrix(0.13618911573947817,0,0,0.12782270986973648,-7.569617179908164,-5.011560081152311) " id="svg_93"/>
   <g stroke="null" transform="matrix(0.13618911573947817,0,0,0.12782270986973648,-7.569617179908164,-5.011560081152311) " id="svg_94"/>
   <g stroke="null" transform="matrix(0.13618911573947817,0,0,0.12782270986973648,-7.569617179908164,-5.011560081152311) " id="svg_95"/>
   <g stroke="null" transform="matrix(0.13618911573947817,0,0,0.12782270986973648,-7.569617179908164,-5.011560081152311) " id="svg_96"/>
   <g stroke="null" transform="matrix(0.13618911573947817,0,0,0.12782270986973648,-7.569617179908164,-5.011560081152311) " id="svg_97"/>
  </g>
  <g stroke="null" id="svg_122">
   <path stroke="null" id="svg_99" fill="#FFDC64" d="m271.218761,32.394366l-18.214069,-1.585512l-7.235183,-15.768593c-0.506623,-1.104133 -2.174532,-1.104133 -2.681019,0l-7.235183,15.768465l-18.214068,1.58564c-1.275411,0.110951 -1.790751,1.599829 -0.828575,2.393225l13.742571,11.330972l-4.0218,16.748482c-0.281639,1.172773 1.067858,2.092841 2.169084,1.479164l15.728481,-8.76557l15.728481,8.76557c1.101361,0.613805 2.450587,-0.306391 2.169084,-1.479164l-4.021937,-16.748482l13.742707,-11.330972c0.962176,-0.793396 0.4467,-2.282274 -0.828574,-2.393225z"/>
   <g stroke="null" transform="matrix(0.13618911573947817,0,0,0.12782270986973648,-7.569617179908164,-5.011560081152311) " id="svg_105">
    <path stroke="null" id="svg_100" fill="#FFF082" d="m1713.635992,152.625057c6.818,9.47 26.062,50.14 37.064,73.842c1.73,3.726 -2.945,7.092 -5.93,4.269c-18.987,-17.952 -51.452,-49.104 -58.27,-58.575c-5.395,-7.493 -3.694,-17.941 3.8,-23.336c7.493,-5.395 17.941,-3.693 23.336,3.8z"/>
    <path stroke="null" id="svg_101" fill="#FFF082" d="m1987.079992,152.625057c-6.818,9.47 -26.062,50.14 -37.064,73.842c-1.73,3.726 2.945,7.092 5.93,4.269c18.987,-17.952 51.451,-49.105 58.27,-58.575c5.395,-7.493 3.694,-17.941 -3.8,-23.336c-7.493,-5.395 -17.941,-3.693 -23.336,3.8z"/>
    <path stroke="null" id="svg_102" fill="#FFF082" d="m2094.818992,430.331057c-11.094,-3.618 -55.689,-9.595 -81.612,-12.875c-4.075,-0.516 -5.861,4.961 -2.266,6.947c22.873,12.635 62.416,34.099 73.51,37.717c8.778,2.863 18.215,-1.932 21.078,-10.711c2.863,-8.779 -1.932,-18.215 -10.71,-21.078z"/>
    <path stroke="null" id="svg_103" fill="#FFF082" d="m1605.896992,430.331057c11.094,-3.618 55.689,-9.595 81.612,-12.875c4.075,-0.516 5.861,4.961 2.266,6.947c-22.873,12.635 -62.416,34.099 -73.51,37.717c-8.778,2.863 -18.215,-1.932 -21.078,-10.711s1.932,-18.215 10.71,-21.078z"/>
    <path stroke="null" id="svg_104" fill="#FFF082" d="m1834.151992,619.012057c0,-11.669 8.145,-55.919 13.065,-81.582c0.773,-4.034 6.534,-4.034 7.307,0c4.92,25.663 13.065,69.913 13.065,81.582c0,9.233 -7.485,16.718 -16.718,16.718c-9.234,0.001 -16.719,-7.485 -16.719,-16.718z"/>
   </g>
   <path stroke="null" id="svg_106" fill="#FFC850" d="m248.40041,20.774387l-2.631037,-5.734126c-0.506624,-1.104133 -2.174532,-1.104133 -2.681019,0l-7.235183,15.768465l-18.213932,1.58564c-1.275411,0.110951 -1.790751,1.599829 -0.828575,2.393225l13.742571,11.330972l-4.0218,16.748482c-0.281639,1.172773 1.067858,2.092841 2.169084,1.479164l2.093363,-1.166638c3.431829,-20.85044 13.079738,-36.156187 17.606528,-42.405184z"/>
   <g stroke="null" transform="matrix(0.13618911573947817,0,0,0.12782270986973648,-7.569617179908164,-5.011560081152311) " id="svg_107"/>
   <g stroke="null" transform="matrix(0.13618911573947817,0,0,0.12782270986973648,-7.569617179908164,-5.011560081152311) " id="svg_108"/>
   <g stroke="null" transform="matrix(0.13618911573947817,0,0,0.12782270986973648,-7.569617179908164,-5.011560081152311) " id="svg_109"/>
   <g stroke="null" transform="matrix(0.13618911573947817,0,0,0.12782270986973648,-7.569617179908164,-5.011560081152311) " id="svg_110"/>
   <g stroke="null" transform="matrix(0.13618911573947817,0,0,0.12782270986973648,-7.569617179908164,-5.011560081152311) " id="svg_111"/>
   <g stroke="null" transform="matrix(0.13618911573947817,0,0,0.12782270986973648,-7.569617179908164,-5.011560081152311) " id="svg_112"/>
   <g stroke="null" transform="matrix(0.13618911573947817,0,0,0.12782270986973648,-7.569617179908164,-5.011560081152311) " id="svg_113"/>
   <g stroke="null" transform="matrix(0.13618911573947817,0,0,0.12782270986973648,-7.569617179908164,-5.011560081152311) " id="svg_114"/>
   <g stroke="null" transform="matrix(0.13618911573947817,0,0,0.12782270986973648,-7.569617179908164,-5.011560081152311) " id="svg_115"/>
   <g stroke="null" transform="matrix(0.13618911573947817,0,0,0.12782270986973648,-7.569617179908164,-5.011560081152311) " id="svg_116"/>
   <g stroke="null" transform="matrix(0.13618911573947817,0,0,0.12782270986973648,-7.569617179908164,-5.011560081152311) " id="svg_117"/>
   <g stroke="null" transform="matrix(0.13618911573947817,0,0,0.12782270986973648,-7.569617179908164,-5.011560081152311) " id="svg_118"/>
   <g stroke="null" transform="matrix(0.13618911573947817,0,0,0.12782270986973648,-7.569617179908164,-5.011560081152311) " id="svg_119"/>
   <g stroke="null" transform="matrix(0.13618911573947817,0,0,0.12782270986973648,-7.569617179908164,-5.011560081152311) " id="svg_120"/>
   <g stroke="null" transform="matrix(0.13618911573947817,0,0,0.12782270986973648,-7.569617179908164,-5.011560081152311) " id="svg_121"/>
  </g>
 </g>
</svg>