<svg width="441" height="441" xmlns="http://www.w3.org/2000/svg">

 <g>
  <title>background</title>
  <rect fill="none" id="canvas_background" height="402" width="582" y="-1" x="-1"/>
 </g>
 <g>
  <title>Layer 1</title>
  <g id="svg_1">
   <g id="svg_2">
    <g id="svg_3">
     <circle id="svg_4" fill="#FFD3AE" r="27.89" cy="168" cx="139.927"/>
     <circle id="svg_5" fill="#FFD3AE" r="27.89" cy="168" cx="301.062"/>
    </g>
    <g id="svg_6">
     <path id="svg_7" fill="#333333" d="m139.928,201.89c-18.688,0 -33.891,-15.203 -33.891,-33.89s15.203,-33.89 33.891,-33.89c18.687,0 33.89,15.203 33.89,33.89s-15.204,33.89 -33.89,33.89zm0,-55.78c-12.07,0 -21.891,9.82 -21.891,21.89s9.82,21.89 21.891,21.89s21.89,-9.82 21.89,-21.89s-9.82,-21.89 -21.89,-21.89z"/>
     <path id="svg_8" fill="#333333" d="m301.063,201.89c-18.687,0 -33.89,-15.203 -33.89,-33.89s15.203,-33.89 33.89,-33.89s33.89,15.203 33.89,33.89s-15.204,33.89 -33.89,33.89zm0,-55.78c-12.07,0 -21.89,9.82 -21.89,21.89s9.819,21.89 21.89,21.89s21.89,-9.82 21.89,-21.89s-9.82,-21.89 -21.89,-21.89z"/>
    </g>
   </g>
   <path id="svg_9" fill="#4CC18E" d="m269.855,263.97c0.19,0.05 0.39,0.09 0.58,0.14c10.46,2.53 20.19,6.93 28.83,12.81c23.39,15.92 38.75,42.77 38.75,73.19l0,84.89l-47.04,0l-140.96,0l-47.03,0l0,-84.89c0,-30.42 15.35,-57.27 38.74,-73.19c8.64,-5.88 18.37,-10.28 28.83,-12.81c0.19,-0.05 0.39,-0.09 0.58,-0.14"/>
   <path id="svg_10" fill="#4CC18E" d="m150.015,311l0,124l-47.03,0l0,-84.89c0,-30.42 15.35,-57.27 38.74,-73.19c5.3,10.2 8.29,21.79 8.29,34.08z"/>
   <path id="svg_11" fill="#4CC18E" d="m338.015,350.11l0,84.89l-47.04,0l0,-124c0,-12.29 2.99,-23.88 8.29,-34.08c23.39,15.92 38.75,42.77 38.75,73.19z"/>
   <path id="svg_12" fill="#FFD3AE" d="m269.855,263.97c-14.1,9.49 -31.08,15.03 -49.36,15.03s-35.26,-5.54 -49.36,-15.03c-0.19,-0.13 -0.39,-0.26 -0.58,-0.4c-23.28,-15.94 -38.56,-42.72 -38.56,-73.07l0,-22.5l0,-51.5c0,-48.877 39.623,-88.5 88.5,-88.5l0,0c48.877,0 88.5,39.623 88.5,88.5l0,51.5l0,22.5c0,30.35 -15.28,57.13 -38.56,73.07c-0.19,0.14 -0.39,0.27 -0.58,0.4z"/>
   <path id="svg_13" fill="#333333" d="m220.495,285c-18.881,0 -37.107,-5.551 -52.711,-16.052l-0.188,-0.128c-0.167,-0.112 -0.335,-0.228 -0.5,-0.346c-25.736,-17.656 -41.101,-46.799 -41.101,-77.973l0,-74c0,-52.107 42.393,-94.5 94.5,-94.5s94.5,42.393 94.5,94.5l0,74c0,31.172 -15.362,60.313 -41.097,77.97c-0.173,0.125 -0.35,0.245 -0.524,0.363l-0.13,0.088c-0.014,0.009 -0.026,0.018 -0.039,0.027c-15.603,10.5 -33.83,16.051 -52.71,16.051zm0,-251c-45.49,0 -82.5,37.009 -82.5,82.5l0,74c0,27.241 13.439,52.707 35.949,68.119c0.057,0.039 0.111,0.078 0.167,0.118l0.425,0.29c13.565,9.129 29.474,13.973 45.959,13.973c16.484,0 32.395,-4.844 46.009,-14.007l0.363,-0.247c0.052,-0.038 0.124,-0.09 0.178,-0.126c22.511,-15.413 35.95,-40.878 35.95,-68.119l0,-74c0,-45.492 -37.01,-82.501 -82.5,-82.501z"/>
   <g id="svg_14">
    <path id="svg_15" fill="#333333" d="m220.495,48c4.631,0 9.156,0.462 13.531,1.342"/>
    <path id="svg_16" fill="#FFFFFF" d="m234.032,55.343c-0.392,0 -0.79,-0.039 -1.188,-0.119c-4.039,-0.812 -8.195,-1.224 -12.349,-1.224c-3.313,0 -6,-2.686 -6,-6s2.687,-6 6,-6c4.947,0 9.898,0.491 14.714,1.46c3.249,0.654 5.353,3.817 4.699,7.065c-0.572,2.85 -3.077,4.818 -5.876,4.818z"/>
   </g>
   <g id="svg_17">
    <path id="svg_18" fill="#333333" d="m188.885,188.437c-1.58,0 -3.13,-0.64 -4.24,-1.75c-1.12,-1.12 -1.76,-2.67 -1.76,-4.25s0.64,-3.12 1.76,-4.24c1.39,-1.39 3.46,-2.03 5.41,-1.64c0.39,0.08 0.76,0.19 1.13,0.34c0.36,0.15 0.71,0.34 1.03,0.55c0.33,0.22 0.64,0.47 0.91,0.75c0.28,0.28 0.53,0.58 0.75,0.91s0.4,0.68 0.55,1.04c0.15,0.36 0.27,0.74 0.34,1.12c0.08,0.39 0.12,0.78 0.12,1.17s-0.04,0.79 -0.12,1.18c-0.07,0.38 -0.19,0.76 -0.34,1.12s-0.33,0.71 -0.55,1.03c-0.22,0.33 -0.47,0.64 -0.75,0.92c-1.11,1.11 -2.66,1.75 -4.24,1.75z"/>
    <path id="svg_19" fill="#333333" d="m256.885,188.437c-0.39,0 -0.79,-0.04 -1.17,-0.11c-0.38,-0.08 -0.76,-0.2 -1.12,-0.35c-0.37,-0.15 -0.71,-0.33 -1.04,-0.55c-0.33,-0.22 -0.64,-0.47 -0.91,-0.74c-0.28,-0.28 -0.53,-0.59 -0.75,-0.92c-0.22,-0.32 -0.4,-0.67 -0.55,-1.03c-0.15,-0.36 -0.27,-0.74 -0.34,-1.12c-0.08,-0.39 -0.12,-0.79 -0.12,-1.18s0.04,-0.78 0.12,-1.17c0.07,-0.38 0.19,-0.76 0.34,-1.12s0.33,-0.71 0.55,-1.04c0.22,-0.33 0.47,-0.63 0.75,-0.91c0.27,-0.28 0.58,-0.53 0.91,-0.75c0.33,-0.21 0.67,-0.4 1.04,-0.55c0.36,-0.15 0.74,-0.26 1.12,-0.34c1.95,-0.39 4.02,0.25 5.41,1.64c0.28,0.28 0.53,0.58 0.75,0.91s0.4,0.68 0.55,1.04s0.27,0.74 0.34,1.12c0.08,0.39 0.12,0.78 0.12,1.17s-0.04,0.79 -0.12,1.18c-0.07,0.38 -0.19,0.76 -0.34,1.12s-0.33,0.71 -0.55,1.03c-0.22,0.33 -0.47,0.64 -0.75,0.92c-1.11,1.11 -2.66,1.75 -4.24,1.75z"/>
   </g>
   <g id="svg_20">
    <path id="svg_21" fill="#333333" d="m213.552,202c-3.313,0 -6,-2.687 -6,-6l0,-16.857c0,-3.204 -2.606,-5.81 -5.811,-5.81l-28.58,0c-3.313,0 -6,-2.687 -6,-6s2.687,-6 6,-6l28.58,0c9.82,0 17.811,7.989 17.811,17.81l0,16.857c0,3.313 -2.687,6 -6,6z"/>
    <path id="svg_22" fill="#333333" d="m267.828,173.333l-24,0c-3.313,0 -6,-2.687 -6,-6s2.687,-6 6,-6l24,0c3.313,0 6,2.687 6,6s-2.686,6 -6,6z"/>
   </g>
   <path id="svg_23" fill="#333333" d="m296.975,435l-12,0l0,-124c0,-12.816 3.101,-25.558 8.966,-36.846l10.648,5.533c-5.053,9.724 -7.614,20.259 -7.614,31.313l0,124z"/>
   <path id="svg_24" fill="#FFFFFF" d="m318.015,417.875c-3.313,0 -6,-2.687 -6,-6l0,-60.75c0,-3.313 2.687,-6 6,-6s6,2.687 6,6l0,60.75c0,3.313 -2.687,6 -6,6z"/>
   <g id="svg_25">
    <path id="svg_26" opacity="0.44" fill="#333333" d="m146.665,288.92c-15.21,15.89 -24.56,37.45 -24.56,61.19l0,83.89l-19.12,0l0,-83.89c0,-30.42 15.35,-57.27 38.74,-73.19c1.98,3.82 3.64,7.83 4.94,12z"/>
   </g>
   <path id="svg_27" fill="#333333" d="m338.015,441l-235.03,0c-3.313,0 -6,-2.686 -6,-6l0,-84.89c0,-31.306 15.463,-60.521 41.364,-78.15c9.417,-6.408 19.763,-11.008 30.752,-13.671c0.131,-0.033 0.263,-0.064 0.396,-0.095l0.121,-0.028l3.043,11.607c-0.154,0.041 -0.313,0.078 -0.472,0.115l-0.121,0.028c-0.018,0.004 -0.084,0.021 -0.102,0.026c-9.597,2.321 -18.636,6.338 -26.865,11.938c-22.615,15.392 -36.116,40.898 -36.116,68.229l0,78.891l223.03,0l0,-78.89c0,-27.327 -13.505,-52.833 -36.126,-68.23c-8.229,-5.6 -17.267,-9.617 -26.865,-11.938c-0.038,-0.01 -0.076,-0.019 -0.114,-0.029l-0.113,-0.026c-0.154,-0.036 -0.309,-0.072 -0.46,-0.111l3.037,-11.609l-1.519,5.805l1.513,-5.806l0.121,0.028c0.135,0.031 0.269,0.063 0.4,0.096c10.991,2.664 21.337,7.264 30.752,13.671c25.907,17.633 41.374,46.848 41.374,78.15l0,84.889c0,3.314 -2.687,6 -6,6z"/>
   <path id="svg_28" fill="#333333" d="m156.015,435l-12,0l0,-124c0,-11.054 -2.562,-21.59 -7.614,-31.313l10.648,-5.533c5.865,11.289 8.966,24.03 8.966,36.846l0,124z"/>
   <path id="svg_29" fill="#FFFFFF" d="m287.306,145c-3.313,0 -6,-2.687 -6,-6l0,-24.378c0,-21.181 -10.934,-40.963 -28.534,-51.625c-0.529,-0.32 -1.064,-0.634 -1.604,-0.939c-2.884,-1.631 -3.899,-5.292 -2.269,-8.176c1.631,-2.883 5.289,-3.901 8.177,-2.269c0.644,0.364 1.28,0.737 1.912,1.12c21.169,12.823 34.318,36.537 34.318,61.889l0,24.378c0,3.313 -2.687,6 -6,6z"/>
   <g id="svg_30">
    <path id="svg_31" fill="#333333" d="m352,441l-262.771,0c-3.313,0 -6,-2.687 -6,-6s2.687,-6 6,-6l262.771,0c3.313,0 6,2.687 6,6s-2.687,6 -6,6z"/>
    <path id="svg_32" fill="#333333" d="m384,441l-11,0c-3.313,0 -6,-2.687 -6,-6s2.687,-6 6,-6l11,0c3.313,0 6,2.687 6,6s-2.687,6 -6,6z"/>
    <path id="svg_33" fill="#333333" d="m68,441l-11,0c-3.313,0 -6,-2.687 -6,-6s2.687,-6 6,-6l11,0c3.313,0 6,2.687 6,6s-2.687,6 -6,6z"/>
   </g>
   <path id="svg_34" opacity="0.44" fill="#333333" d="m202.135,263.97c10.02,6.74 21.5,11.49 33.86,13.68c-5.03,0.89 -10.21,1.35 -15.5,1.35c-18.28,0 -35.26,-5.54 -49.36,-15.03c-0.19,-0.13 -0.39,-0.26 -0.58,-0.4c-23.28,-15.94 -38.56,-42.72 -38.56,-73.07l0,-22.5c0,-139 54.89,-137.301 54.89,-134.411l-10.384,15.807c-15.364,23.387 -15.305,53.174 -0.958,76.231c2.423,3.895 10.151,17.294 10.019,20.366c-0.483,11.29 -9.201,21.36 -21.338,21.975c-0.407,0.021 -0.817,0.031 -1.229,0.031l0,22.5c0,30.35 15.28,57.13 38.56,73.07c0.19,0.141 0.39,0.271 0.58,0.401z"/>
   <path id="svg_35" fill="#333333" d="m251.108,337.869c-0.836,0 -1.677,-0.174 -2.468,-0.532c-2.149,-0.97 -3.531,-3.11 -3.531,-5.468c0,-13.46 -15.872,-25.327 -24.603,-30.323c-8.726,5.015 -24.617,16.919 -24.617,30.323c0,2.358 -1.382,4.498 -3.531,5.468c-2.146,0.971 -4.668,0.593 -6.437,-0.968c-1.119,-0.987 -27.39,-24.524 -25.635,-55.707l11.98,0.674c-0.894,15.879 7.66,29.799 14.265,38.063c7.786,-18.213 30.165,-29.475 31.31,-30.04c1.674,-0.828 3.64,-0.828 5.317,0c1.144,0.565 23.501,11.815 31.296,30.014c6.605,-8.29 15.166,-22.236 14.276,-38.037l11.98,-0.675c1.756,31.183 -24.516,54.721 -25.635,55.707c-1.115,0.987 -2.533,1.501 -3.967,1.501z"/>
   <path id="svg_36" fill="#FFFFFF" d="m293,188c-3.313,0 -6,-2.687 -6,-6l0,-9c0,-3.313 2.687,-6 6,-6s6,2.687 6,6l0,9c0,3.313 -2.687,6 -6,6z"/>
   <path id="svg_37" fill="#F7774B" d="m329.14,147.15c0.46,5.85 -4.16,10.85 -10.03,10.85l-197.23,0c-5.87,0 -10.49,-5 -10.03,-10.85l3.42,-43.87c0.41,-5.24 4.78,-9.28 10.03,-9.28l6.7,0l176.98,0l6.71,0c5.25,0 9.62,4.04 10.03,9.28l3.42,43.87z"/>
   <path id="svg_38" opacity="0.44" fill="#333333" d="m167.71,158l-45.83,0c-5.87,0 -10.49,-5 -10.03,-10.85l3.42,-43.87c0.41,-5.24 4.78,-9.28 10.03,-9.28l45.83,0c-5.25,0 -9.62,4.04 -10.03,9.28l-3.42,43.87c-0.46,5.85 4.16,10.85 10.03,10.85z"/>
   <path id="svg_39" fill="#333333" d="m319.109,164l-197.229,0c-4.465,0 -8.764,-1.88 -11.794,-5.158s-4.567,-7.711 -4.218,-12.163l3.42,-43.866c0.65,-8.307 7.684,-14.813 16.012,-14.813l190.39,0c8.328,0 15.362,6.506 16.012,14.812l3.42,43.872c0.351,4.448 -1.188,8.881 -4.218,12.159s-7.33,5.157 -11.795,5.157zm-193.809,-64c-2.105,0 -3.884,1.646 -4.049,3.748l-3.42,43.868c-0.09,1.147 0.289,2.239 1.066,3.08c0.45,0.487 1.436,1.304 2.982,1.304l197.229,0c1.547,0 2.532,-0.817 2.982,-1.304c0.777,-0.841 1.156,-1.933 1.066,-3.076l-3.42,-43.874c-0.165,-2.1 -1.943,-3.746 -4.049,-3.746c0,0 -190.387,0 -190.387,0z"/>
   <path id="svg_40" fill="#F7774B" d="m308.98,94c-0.076,-14.303 -3.55,-27.801 -9.649,-39.733l-2.539,-33.637c-0.428,-5.67 -5.69,-9.708 -11.278,-8.654l-23.388,4.413c-12.408,-6.628 -26.577,-10.389 -41.626,-10.389l-0.01,0c-15.05,0 -29.221,3.762 -41.631,10.39l-23.394,-4.414c-5.587,-1.054 -10.85,2.984 -11.278,8.654l-2.539,33.642c-6.098,11.931 -9.572,25.426 -9.648,39.728l176.98,0z"/>
   <path id="svg_41" fill="#333333" d="m308.979,100l-176.979,0c-1.597,0 -3.128,-0.636 -4.254,-1.769c-1.126,-1.132 -1.755,-2.667 -1.746,-4.263c0.061,-11.201 2.065,-22.159 5.96,-32.568c2.605,-6.967 4.243,-14.692 4.866,-22.96l1.378,-18.261c0.333,-4.403 2.532,-8.469 6.034,-11.157c3.502,-2.687 7.998,-3.761 12.339,-2.941l10.861,2.049c6.322,1.193 12.844,0.59 18.854,-1.746c10.904,-4.236 22.41,-6.384 34.198,-6.384c11.797,0 23.301,2.147 34.202,6.383c6.011,2.336 12.528,2.939 18.854,1.746l10.855,-2.048c4.34,-0.819 8.836,0.254 12.338,2.941c3.503,2.688 5.703,6.754 6.035,11.157l1.378,18.253c0.623,8.27 2.261,15.996 4.867,22.965c3.895,10.413 5.899,21.372 5.959,32.572c0.009,1.597 -0.62,3.131 -1.746,4.263s-2.656,1.768 -4.253,1.768zm-170.73,-12l164.481,0c-0.596,-7.682 -2.254,-15.192 -4.95,-22.4c-3.002,-8.03 -4.885,-16.867 -5.594,-26.265l-1.378,-18.253c-0.104,-1.372 -0.904,-2.18 -1.373,-2.54c-0.468,-0.36 -1.451,-0.925 -2.809,-0.669l-10.855,2.048c-8.532,1.609 -17.322,0.796 -25.425,-2.352c-9.51,-3.695 -19.552,-5.569 -29.846,-5.569c-10.306,0 -20.349,1.874 -29.861,5.57c-8.103,3.147 -16.894,3.962 -25.425,2.352l-10.861,-2.049c-1.356,-0.255 -2.341,0.31 -2.809,0.669c-0.469,0.36 -1.27,1.167 -1.373,2.539l-1.378,18.261c-0.709,9.397 -2.592,18.233 -5.594,26.261c-2.696,7.206 -4.353,14.715 -4.95,22.397z"/>
   <path id="svg_42" opacity="0.44" fill="#333333" d="m220.5,6c13.14,0 25.61,2.87 36.82,8.01c-0.27,-0.01 -0.55,-0.01 -0.82,-0.01c-46.01,0 -83.82,35.11 -88.09,80l-36.41,0c0.08,-14.3 3.55,-27.8 9.65,-39.73l2.54,-33.64c0.43,-5.67 5.69,-9.71 11.28,-8.65l23.39,4.41c12.41,-6.63 26.58,-10.39 41.63,-10.39l0.01,0z"/>
   <path id="svg_43" fill="#FFFFFF" d="m284.379,82.002c-2.559,0 -4.93,-1.65 -5.729,-4.223c-6.391,-20.589 -21.372,-37.466 -41.102,-46.303c-3.023,-1.355 -4.377,-4.904 -3.022,-7.928c1.354,-3.023 4.901,-4.378 7.929,-3.023c22.873,10.246 40.243,29.817 47.656,53.697c0.982,3.165 -0.787,6.527 -3.952,7.509c-0.592,0.183 -1.191,0.271 -1.78,0.271z"/>
   <path id="svg_44" fill="#FFFFFF" d="m307.998,142c-3.083,0 -5.704,-2.362 -5.972,-5.49l-2.005,-23.5c-0.281,-3.302 2.167,-6.207 5.469,-6.488c3.278,-0.285 6.205,2.166 6.488,5.468l2.005,23.5c0.281,3.302 -2.167,6.207 -5.469,6.489c-0.172,0.014 -0.345,0.021 -0.516,0.021z"/>
   <rect id="svg_45" fill="#333333" height="153.261" width="12" y="282.739" x="214.5"/>
   <path id="svg_46" fill="#E8B974" d="m283.2,226.63c21.44,-15.95 25.79,-57.63 25.79,-57.63l0,44.5c0,30.35 -15.27,57.13 -38.56,73.07c-0.19,0.14 -0.39,0.27 -0.57,0.4c-14.11,9.49 -31.09,15.03 -49.37,15.03c-18.27,0 -35.25,-5.54 -49.36,-15.03c-0.19,-0.13 -0.39,-0.26 -0.57,-0.4c-23.28,-15.94 -38.57,-42.72 -38.57,-73.07l0,-44.5c0,0 1.09,10.42 4.86,22.83c3.77,12.42 10.21,26.82 20.93,34.8c20.02,-8.62 41.36,-12.93 62.71,-12.93c21.36,0 42.7,4.31 62.71,12.93z"/>
   <path id="svg_47" opacity="0.44" fill="#333333" d="m213.14,286.97c8.52,5.73 18.09,10.02 28.36,12.52c-6.74,1.64 -13.77,2.51 -21.01,2.51c-18.27,0 -35.25,-5.54 -49.36,-15.03c-0.19,-0.13 -0.39,-0.26 -0.57,-0.4c-23.28,-15.94 -38.57,-42.72 -38.57,-73.07l0,-44.5c0,0 1.09,10.42 4.86,22.83c3.77,12.42 10.21,26.82 20.93,34.8c5.41,-2.33 10.92,-4.34 16.5,-6.04c2.17,27.4 16.84,51.29 38.29,65.98c0.18,0.14 0.38,0.27 0.57,0.4z"/>
   <path id="svg_48" fill="#333333" d="m220.49,308c-18.869,0 -37.096,-5.55 -52.709,-16.051l-0.143,-0.097c-0.196,-0.133 -0.393,-0.269 -0.582,-0.409c-25.717,-17.664 -41.066,-46.791 -41.066,-77.943l0,-44.5l12,0l0,44.5c0,27.236 13.442,52.702 35.959,68.119c0.098,0.067 0.194,0.137 0.288,0.21l0.282,0.19c13.586,9.136 29.496,13.98 45.971,13.98c16.474,0 32.379,-4.839 46,-13.995l0.372,-0.26c0.054,-0.04 0.123,-0.089 0.179,-0.127c22.51,-15.407 35.949,-40.872 35.949,-68.119l0,-44.498l12,0l0,44.5c0,31.18 -15.362,60.32 -41.097,77.97c-0.128,0.093 -0.258,0.183 -0.387,0.271l-0.137,0.094c-0.054,0.039 -0.107,0.077 -0.162,0.113c-15.611,10.502 -33.841,16.052 -52.717,16.052z"/>
   <path id="svg_49" fill="#333333" d="m283.199,232.63c-0.803,0 -1.61,-0.161 -2.373,-0.49c-19.162,-8.254 -39.462,-12.44 -60.336,-12.44c-20.865,0 -41.166,4.186 -60.337,12.44c-1.967,0.848 -4.236,0.582 -5.956,-0.698c-9.938,-7.397 -17.706,-20.139 -23.089,-37.87c-3.892,-12.811 -5.039,-23.5 -5.086,-23.949l11.935,-1.252c0.011,0.099 1.092,10.055 4.634,21.714c4.047,13.331 9.62,23.477 16.229,29.608c19.67,-7.961 40.397,-11.994 61.671,-11.994c21.282,0 42.01,4.033 61.673,11.994c6.611,-6.13 12.186,-16.275 16.23,-29.603c3.56,-11.729 4.619,-21.616 4.629,-21.714l11.936,1.246c-0.189,1.809 -4.892,44.499 -28.177,61.821c-1.053,0.784 -2.312,1.187 -3.583,1.187z"/>
   <g id="svg_50">
    <path id="svg_51" fill="#333333" d="m232.495,241l-24,0c-3.313,0 -6,-2.687 -6,-6s2.687,-6 6,-6l24,0c3.313,0 6,2.687 6,6s-2.686,6 -6,6z"/>
   </g>
   <g id="svg_52">
    <g id="svg_53">
     <path id="svg_54" fill="#333333" d="m238,358.451c-0.39,0 -0.79,-0.04 -1.17,-0.11c-0.38,-0.08 -0.76,-0.2 -1.12,-0.35c-0.37,-0.15 -0.71,-0.33 -1.04,-0.55c-0.33,-0.22 -0.64,-0.47 -0.91,-0.74c-0.28,-0.28 -0.53,-0.59 -0.75,-0.92c-0.22,-0.32 -0.4,-0.67 -0.55,-1.03c-0.15,-0.36 -0.27,-0.74 -0.34,-1.12c-0.08,-0.39 -0.12,-0.79 -0.12,-1.18c0,-0.39 0.04,-0.78 0.12,-1.17c0.07,-0.38 0.19,-0.76 0.34,-1.12s0.33,-0.71 0.55,-1.04c0.22,-0.33 0.47,-0.63 0.75,-0.91c0.27,-0.28 0.58,-0.53 0.91,-0.75c0.33,-0.21 0.67,-0.4 1.04,-0.55c0.36,-0.15 0.74,-0.26 1.12,-0.34c1.95,-0.39 4.02,0.25 5.41,1.64c0.28,0.28 0.53,0.58 0.75,0.91c0.22,0.33 0.4,0.68 0.55,1.04c0.15,0.36 0.27,0.74 0.34,1.12c0.08,0.39 0.12,0.78 0.12,1.17s-0.04,0.79 -0.12,1.18c-0.07,0.38 -0.19,0.76 -0.34,1.12s-0.33,0.71 -0.55,1.03c-0.22,0.33 -0.47,0.64 -0.75,0.92c-1.11,1.11 -2.66,1.75 -4.24,1.75z"/>
    </g>
    <g id="svg_55">
     <path id="svg_56" fill="#333333" d="m238,424c-0.39,0 -0.79,-0.04 -1.17,-0.11c-0.38,-0.08 -0.76,-0.2 -1.12,-0.35c-0.37,-0.15 -0.71,-0.33 -1.04,-0.55c-0.33,-0.22 -0.64,-0.47 -0.91,-0.74c-0.28,-0.28 -0.53,-0.59 -0.75,-0.92c-0.22,-0.32 -0.4,-0.67 -0.55,-1.03c-0.15,-0.36 -0.27,-0.74 -0.34,-1.12c-0.08,-0.39 -0.12,-0.79 -0.12,-1.18c0,-0.39 0.04,-0.78 0.12,-1.17c0.07,-0.38 0.19,-0.76 0.34,-1.12s0.33,-0.71 0.55,-1.04c0.22,-0.33 0.47,-0.63 0.75,-0.91c0.27,-0.28 0.58,-0.53 0.91,-0.75c0.33,-0.21 0.67,-0.4 1.04,-0.55c0.36,-0.15 0.74,-0.26 1.12,-0.34c1.95,-0.39 4.02,0.25 5.41,1.64c0.28,0.28 0.53,0.58 0.75,0.91c0.22,0.33 0.4,0.68 0.55,1.04c0.15,0.36 0.27,0.74 0.34,1.12c0.08,0.39 0.12,0.78 0.12,1.17s-0.04,0.79 -0.12,1.18c-0.07,0.38 -0.19,0.76 -0.34,1.12s-0.33,0.71 -0.55,1.03c-0.22,0.33 -0.47,0.64 -0.75,0.92c-1.11,1.11 -2.66,1.75 -4.24,1.75z"/>
    </g>
    <g id="svg_57">
     <path id="svg_58" fill="#333333" d="m238,391.225c-0.39,0 -0.79,-0.04 -1.17,-0.11c-0.38,-0.08 -0.76,-0.2 -1.12,-0.35c-0.37,-0.15 -0.71,-0.33 -1.04,-0.55c-0.33,-0.22 -0.64,-0.47 -0.91,-0.74c-0.28,-0.28 -0.53,-0.59 -0.75,-0.92c-0.22,-0.32 -0.4,-0.67 -0.55,-1.03c-0.15,-0.36 -0.27,-0.74 -0.34,-1.12c-0.08,-0.39 -0.12,-0.79 -0.12,-1.18c0,-0.39 0.04,-0.78 0.12,-1.17c0.07,-0.38 0.19,-0.76 0.34,-1.12s0.33,-0.71 0.55,-1.04c0.22,-0.33 0.47,-0.63 0.75,-0.91c0.27,-0.28 0.58,-0.53 0.91,-0.75c0.33,-0.21 0.67,-0.4 1.04,-0.55c0.36,-0.15 0.74,-0.26 1.12,-0.34c1.95,-0.39 4.02,0.25 5.41,1.64c0.28,0.28 0.53,0.58 0.75,0.91c0.22,0.33 0.4,0.68 0.55,1.04c0.15,0.36 0.27,0.74 0.34,1.12c0.08,0.39 0.12,0.78 0.12,1.17s-0.04,0.79 -0.12,1.18c-0.07,0.38 -0.19,0.76 -0.34,1.12s-0.33,0.71 -0.55,1.03c-0.22,0.33 -0.47,0.64 -0.75,0.92c-1.11,1.111 -2.66,1.75 -4.24,1.75z"/>
    </g>
   </g>
  </g>
  <g id="svg_59"/>
  <g id="svg_60"/>
  <g id="svg_61"/>
  <g id="svg_62"/>
  <g id="svg_63"/>
  <g id="svg_64"/>
  <g id="svg_65"/>
  <g id="svg_66"/>
  <g id="svg_67"/>
  <g id="svg_68"/>
  <g id="svg_69"/>
  <g id="svg_70"/>
  <g id="svg_71"/>
  <g id="svg_72"/>
  <g id="svg_73"/>
  <g stroke="null" id="svg_102">
   <path stroke="null" id="svg_79" fill="#FFDC64" d="m73.778025,27.513649l-19.905808,-1.705895l-7.907193,-16.96584c-0.553679,-1.187965 -2.376504,-1.187965 -2.930034,0l-7.907193,16.965703l-19.905808,1.706032c-1.393872,0.119374 -1.957077,1.721298 -0.905533,2.574933l15.018994,12.191288l-4.395349,18.020128c-0.307798,1.261817 1.167043,2.251742 2.370551,1.591472l17.189356,-9.431105l17.189356,9.431105c1.203657,0.660408 2.6782,-0.329654 2.370551,-1.591472l-4.395498,-18.020128l15.019143,-12.191288c1.051544,-0.853635 0.48819,-2.455559 -0.905533,-2.574933z"/>
   <g stroke="null" transform="matrix(0.14883848360908983,0,0,0.13752778499543256,-5.153689357846133,-4.8803470089548) " id="svg_80">
    <path stroke="null" id="svg_81" fill="#FFF082" d="m196.88591,95.531154c6.818,9.47 26.062,50.14 37.064,73.842c1.73,3.726 -2.945,7.092 -5.93,4.269c-18.987,-17.952 -51.452,-49.104 -58.27,-58.575c-5.395,-7.493 -3.694,-17.941 3.8,-23.336c7.493,-5.395 17.941,-3.693 23.336,3.8z"/>
    <path stroke="null" id="svg_82" fill="#FFF082" d="m470.32991,95.531154c-6.818,9.47 -26.062,50.14 -37.064,73.842c-1.73,3.726 2.945,7.092 5.93,4.269c18.987,-17.952 51.451,-49.105 58.27,-58.575c5.395,-7.493 3.694,-17.941 -3.8,-23.336c-7.493,-5.395 -17.941,-3.693 -23.336,3.8z"/>
    <path stroke="null" id="svg_83" fill="#FFF082" d="m578.06891,373.237154c-11.094,-3.618 -55.689,-9.595 -81.612,-12.875c-4.075,-0.516 -5.861,4.961 -2.266,6.947c22.873,12.635 62.416,34.099 73.51,37.717c8.778,2.863 18.215,-1.932 21.078,-10.711c2.863,-8.779 -1.932,-18.215 -10.71,-21.078z"/>
    <path stroke="null" id="svg_84" fill="#FFF082" d="m89.14691,373.237154c11.094,-3.618 55.689,-9.595 81.612,-12.875c4.075,-0.516 5.861,4.961 2.266,6.947c-22.873,12.635 -62.416,34.099 -73.51,37.717c-8.778,2.863 -18.215,-1.932 -21.078,-10.711s1.932,-18.215 10.71,-21.078z"/>
    <path stroke="null" id="svg_85" fill="#FFF082" d="m317.40191,561.918154c0,-11.669 8.145,-55.919 13.065,-81.582c0.773,-4.034 6.534,-4.034 7.307,0c4.92,25.663 13.065,69.913 13.065,81.582c0,9.233 -7.485,16.718 -16.718,16.718c-9.234,0.001 -16.719,-7.485 -16.719,-16.718z"/>
   </g>
   <path stroke="null" id="svg_86" fill="#FFC850" d="m48.840286,15.01141l-2.875411,-6.169496c-0.553679,-1.187965 -2.376504,-1.187965 -2.930034,0l-7.907193,16.965703l-19.905659,1.706032c-1.393872,0.119374 -1.957077,1.721298 -0.905533,2.574933l15.018994,12.191288l-4.395349,18.020128c-0.307798,1.261817 1.167043,2.251742 2.370551,1.591472l2.287796,-1.255216c3.750581,-22.433532 14.294597,-38.901384 19.241839,-45.624843z"/>
   <g stroke="null" transform="matrix(0.14883848360908983,0,0,0.13752778499543256,-5.153689357846133,-4.8803470089548) " id="svg_87"/>
   <g stroke="null" transform="matrix(0.14883848360908983,0,0,0.13752778499543256,-5.153689357846133,-4.8803470089548) " id="svg_88"/>
   <g stroke="null" transform="matrix(0.14883848360908983,0,0,0.13752778499543256,-5.153689357846133,-4.8803470089548) " id="svg_89"/>
   <g stroke="null" transform="matrix(0.14883848360908983,0,0,0.13752778499543256,-5.153689357846133,-4.8803470089548) " id="svg_90"/>
   <g stroke="null" transform="matrix(0.14883848360908983,0,0,0.13752778499543256,-5.153689357846133,-4.8803470089548) " id="svg_91"/>
   <g stroke="null" transform="matrix(0.14883848360908983,0,0,0.13752778499543256,-5.153689357846133,-4.8803470089548) " id="svg_92"/>
   <g stroke="null" transform="matrix(0.14883848360908983,0,0,0.13752778499543256,-5.153689357846133,-4.8803470089548) " id="svg_93"/>
   <g stroke="null" transform="matrix(0.14883848360908983,0,0,0.13752778499543256,-5.153689357846133,-4.8803470089548) " id="svg_94"/>
   <g stroke="null" transform="matrix(0.14883848360908983,0,0,0.13752778499543256,-5.153689357846133,-4.8803470089548) " id="svg_95"/>
   <g stroke="null" transform="matrix(0.14883848360908983,0,0,0.13752778499543256,-5.153689357846133,-4.8803470089548) " id="svg_96"/>
   <g stroke="null" transform="matrix(0.14883848360908983,0,0,0.13752778499543256,-5.153689357846133,-4.8803470089548) " id="svg_97"/>
   <g stroke="null" transform="matrix(0.14883848360908983,0,0,0.13752778499543256,-5.153689357846133,-4.8803470089548) " id="svg_98"/>
   <g stroke="null" transform="matrix(0.14883848360908983,0,0,0.13752778499543256,-5.153689357846133,-4.8803470089548) " id="svg_99"/>
   <g stroke="null" transform="matrix(0.14883848360908983,0,0,0.13752778499543256,-5.153689357846133,-4.8803470089548) " id="svg_100"/>
   <g stroke="null" transform="matrix(0.14883848360908983,0,0,0.13752778499543256,-5.153689357846133,-4.8803470089548) " id="svg_101"/>
  </g>
  <g stroke="null" id="svg_127">
   <path stroke="null" id="svg_104" fill="#FFDC64" d="m142.778025,28.513649l-19.905808,-1.705895l-7.907193,-16.96584c-0.553679,-1.187965 -2.376504,-1.187965 -2.930035,0l-7.907193,16.965702l-19.905808,1.706033c-1.393872,0.119374 -1.957077,1.721297 -0.905533,2.574932l15.018994,12.191288l-4.39535,18.020128c-0.307797,1.261818 1.167043,2.251743 2.370551,1.591472l17.189356,-9.431105l17.189357,9.431105c1.203657,0.660408 2.6782,-0.329654 2.37055,-1.591472l-4.395498,-18.020128l15.019143,-12.191288c1.051544,-0.853635 0.48819,-2.455558 -0.905533,-2.574932z"/>
   <g stroke="null" transform="matrix(0.14883848360908983,0,0,0.13752778499543256,-5.153689357846133,-4.8803470089548) " id="svg_110">
    <path stroke="null" id="svg_105" fill="#FFF082" d="m660.475696,102.802412c6.818,9.47 26.062,50.14 37.064,73.842c1.73,3.726 -2.945,7.092 -5.93,4.269c-18.987,-17.952 -51.452,-49.104 -58.27,-58.575c-5.395,-7.493 -3.694,-17.941 3.8,-23.336c7.493,-5.395 17.941,-3.693 23.336,3.8z"/>
    <path stroke="null" id="svg_106" fill="#FFF082" d="m933.919696,102.802412c-6.818,9.47 -26.062,50.14 -37.064,73.842c-1.73,3.726 2.945,7.092 5.93,4.269c18.987,-17.952 51.451,-49.105 58.27,-58.575c5.395,-7.493 3.694,-17.941 -3.8,-23.336c-7.493,-5.395 -17.941,-3.693 -23.336,3.8z"/>
    <path stroke="null" id="svg_107" fill="#FFF082" d="m1041.658696,380.508412c-11.094,-3.618 -55.689,-9.595 -81.612,-12.875c-4.075,-0.516 -5.861,4.961 -2.266,6.947c22.873,12.635 62.416,34.099 73.51,37.717c8.778,2.863 18.215,-1.932 21.078,-10.711c2.863,-8.779 -1.932,-18.215 -10.71,-21.078z"/>
    <path stroke="null" id="svg_108" fill="#FFF082" d="m552.736696,380.508412c11.094,-3.618 55.689,-9.595 81.612,-12.875c4.075,-0.516 5.861,4.961 2.266,6.947c-22.873,12.635 -62.416,34.099 -73.51,37.717c-8.778,2.863 -18.215,-1.932 -21.078,-10.711s1.932,-18.215 10.71,-21.078z"/>
    <path stroke="null" id="svg_109" fill="#FFF082" d="m780.991696,569.189412c0,-11.669 8.145,-55.919 13.065,-81.582c0.773,-4.034 6.534,-4.034 7.307,0c4.92,25.663 13.065,69.913 13.065,81.582c0,9.233 -7.485,16.718 -16.718,16.718c-9.234,0.001 -16.719,-7.485 -16.719,-16.718z"/>
   </g>
   <path stroke="null" id="svg_111" fill="#FFC850" d="m117.840286,16.01141l-2.875411,-6.169496c-0.553679,-1.187965 -2.376504,-1.187965 -2.930035,0l-7.907193,16.965702l-19.905659,1.706033c-1.393872,0.119374 -1.957077,1.721297 -0.905533,2.574932l15.018994,12.191288l-4.39535,18.020128c-0.307797,1.261818 1.167043,2.251743 2.370551,1.591472l2.287796,-1.255216c3.750581,-22.433532 14.294597,-38.901384 19.24184,-45.624843z"/>
   <g stroke="null" transform="matrix(0.14883848360908983,0,0,0.13752778499543256,-5.153689357846133,-4.8803470089548) " id="svg_112"/>
   <g stroke="null" transform="matrix(0.14883848360908983,0,0,0.13752778499543256,-5.153689357846133,-4.8803470089548) " id="svg_113"/>
   <g stroke="null" transform="matrix(0.14883848360908983,0,0,0.13752778499543256,-5.153689357846133,-4.8803470089548) " id="svg_114"/>
   <g stroke="null" transform="matrix(0.14883848360908983,0,0,0.13752778499543256,-5.153689357846133,-4.8803470089548) " id="svg_115"/>
   <g stroke="null" transform="matrix(0.14883848360908983,0,0,0.13752778499543256,-5.153689357846133,-4.8803470089548) " id="svg_116"/>
   <g stroke="null" transform="matrix(0.14883848360908983,0,0,0.13752778499543256,-5.153689357846133,-4.8803470089548) " id="svg_117"/>
   <g stroke="null" transform="matrix(0.14883848360908983,0,0,0.13752778499543256,-5.153689357846133,-4.8803470089548) " id="svg_118"/>
   <g stroke="null" transform="matrix(0.14883848360908983,0,0,0.13752778499543256,-5.153689357846133,-4.8803470089548) " id="svg_119"/>
   <g stroke="null" transform="matrix(0.14883848360908983,0,0,0.13752778499543256,-5.153689357846133,-4.8803470089548) " id="svg_120"/>
   <g stroke="null" transform="matrix(0.14883848360908983,0,0,0.13752778499543256,-5.153689357846133,-4.8803470089548) " id="svg_121"/>
   <g stroke="null" transform="matrix(0.14883848360908983,0,0,0.13752778499543256,-5.153689357846133,-4.8803470089548) " id="svg_122"/>
   <g stroke="null" transform="matrix(0.14883848360908983,0,0,0.13752778499543256,-5.153689357846133,-4.8803470089548) " id="svg_123"/>
   <g stroke="null" transform="matrix(0.14883848360908983,0,0,0.13752778499543256,-5.153689357846133,-4.8803470089548) " id="svg_124"/>
   <g stroke="null" transform="matrix(0.14883848360908983,0,0,0.13752778499543256,-5.153689357846133,-4.8803470089548) " id="svg_125"/>
   <g stroke="null" transform="matrix(0.14883848360908983,0,0,0.13752778499543256,-5.153689357846133,-4.8803470089548) " id="svg_126"/>
  </g>
  <g stroke="null" id="svg_151">
   <path stroke="null" id="svg_128" fill="#FFDC64" d="m213.778025,28.513649l-19.905808,-1.705895l-7.907193,-16.96584c-0.553679,-1.187965 -2.376504,-1.187965 -2.930035,0l-7.907193,16.965702l-19.905808,1.706033c-1.393872,0.119374 -1.957077,1.721297 -0.905533,2.574932l15.018994,12.191288l-4.39535,18.020128c-0.307797,1.261818 1.167043,2.251743 2.370551,1.591472l17.189356,-9.431105l17.189357,9.431105c1.203657,0.660408 2.6782,-0.329654 2.37055,-1.591472l-4.395498,-18.020128l15.019143,-12.191288c1.051544,-0.853635 0.48819,-2.455558 -0.905533,-2.574932z"/>
   <g stroke="null" transform="matrix(0.14883848360908983,0,0,0.13752778499543256,-5.153689357846133,-4.8803470089548) " id="svg_134">
    <path stroke="null" id="svg_129" fill="#FFF082" d="m1137.502857,102.802412c6.818,9.47 26.062,50.14 37.064,73.842c1.73,3.726 -2.945,7.092 -5.93,4.269c-18.987,-17.952 -51.452,-49.104 -58.27,-58.575c-5.395,-7.493 -3.694,-17.941 3.8,-23.336c7.493,-5.395 17.941,-3.693 23.336,3.8z"/>
    <path stroke="null" id="svg_130" fill="#FFF082" d="m1410.946857,102.802412c-6.818,9.47 -26.062,50.14 -37.064,73.842c-1.73,3.726 2.945,7.092 5.93,4.269c18.987,-17.952 51.451,-49.105 58.27,-58.575c5.395,-7.493 3.694,-17.941 -3.8,-23.336c-7.493,-5.395 -17.941,-3.693 -23.336,3.8z"/>
    <path stroke="null" id="svg_131" fill="#FFF082" d="m1518.685857,380.508412c-11.094,-3.618 -55.689,-9.595 -81.612,-12.875c-4.075,-0.516 -5.861,4.961 -2.266,6.947c22.873,12.635 62.416,34.099 73.51,37.717c8.778,2.863 18.215,-1.932 21.078,-10.711c2.863,-8.779 -1.932,-18.215 -10.71,-21.078z"/>
    <path stroke="null" id="svg_132" fill="#FFF082" d="m1029.763857,380.508412c11.094,-3.618 55.689,-9.595 81.612,-12.875c4.075,-0.516 5.861,4.961 2.266,6.947c-22.873,12.635 -62.416,34.099 -73.51,37.717c-8.778,2.863 -18.215,-1.932 -21.078,-10.711s1.932,-18.215 10.71,-21.078z"/>
    <path stroke="null" id="svg_133" fill="#FFF082" d="m1258.018857,569.189412c0,-11.669 8.145,-55.919 13.065,-81.582c0.773,-4.034 6.534,-4.034 7.307,0c4.92,25.663 13.065,69.913 13.065,81.582c0,9.233 -7.485,16.718 -16.718,16.718c-9.234,0.001 -16.719,-7.485 -16.719,-16.718z"/>
   </g>
   <path stroke="null" id="svg_135" fill="#FFC850" d="m188.840286,16.01141l-2.875411,-6.169496c-0.553679,-1.187965 -2.376504,-1.187965 -2.930035,0l-7.907193,16.965702l-19.905659,1.706033c-1.393872,0.119374 -1.957077,1.721297 -0.905533,2.574932l15.018994,12.191288l-4.39535,18.020128c-0.307797,1.261818 1.167043,2.251743 2.370551,1.591472l2.287796,-1.255216c3.750581,-22.433532 14.294597,-38.901384 19.24184,-45.624843z"/>
   <g stroke="null" transform="matrix(0.14883848360908983,0,0,0.13752778499543256,-5.153689357846133,-4.8803470089548) " id="svg_136"/>
   <g stroke="null" transform="matrix(0.14883848360908983,0,0,0.13752778499543256,-5.153689357846133,-4.8803470089548) " id="svg_137"/>
   <g stroke="null" transform="matrix(0.14883848360908983,0,0,0.13752778499543256,-5.153689357846133,-4.8803470089548) " id="svg_138"/>
   <g stroke="null" transform="matrix(0.14883848360908983,0,0,0.13752778499543256,-5.153689357846133,-4.8803470089548) " id="svg_139"/>
   <g stroke="null" transform="matrix(0.14883848360908983,0,0,0.13752778499543256,-5.153689357846133,-4.8803470089548) " id="svg_140"/>
   <g stroke="null" transform="matrix(0.14883848360908983,0,0,0.13752778499543256,-5.153689357846133,-4.8803470089548) " id="svg_141"/>
   <g stroke="null" transform="matrix(0.14883848360908983,0,0,0.13752778499543256,-5.153689357846133,-4.8803470089548) " id="svg_142"/>
   <g stroke="null" transform="matrix(0.14883848360908983,0,0,0.13752778499543256,-5.153689357846133,-4.8803470089548) " id="svg_143"/>
   <g stroke="null" transform="matrix(0.14883848360908983,0,0,0.13752778499543256,-5.153689357846133,-4.8803470089548) " id="svg_144"/>
   <g stroke="null" transform="matrix(0.14883848360908983,0,0,0.13752778499543256,-5.153689357846133,-4.8803470089548) " id="svg_145"/>
   <g stroke="null" transform="matrix(0.14883848360908983,0,0,0.13752778499543256,-5.153689357846133,-4.8803470089548) " id="svg_146"/>
   <g stroke="null" transform="matrix(0.14883848360908983,0,0,0.13752778499543256,-5.153689357846133,-4.8803470089548) " id="svg_147"/>
   <g stroke="null" transform="matrix(0.14883848360908983,0,0,0.13752778499543256,-5.153689357846133,-4.8803470089548) " id="svg_148"/>
   <g stroke="null" transform="matrix(0.14883848360908983,0,0,0.13752778499543256,-5.153689357846133,-4.8803470089548) " id="svg_149"/>
   <g stroke="null" transform="matrix(0.14883848360908983,0,0,0.13752778499543256,-5.153689357846133,-4.8803470089548) " id="svg_150"/>
  </g>
  <g stroke="null" id="svg_175">
   <path stroke="null" id="svg_152" fill="#FFDC64" d="m284.778025,29.513649l-19.905808,-1.705895l-7.907193,-16.96584c-0.553679,-1.187965 -2.376504,-1.187965 -2.930035,0l-7.907193,16.965702l-19.905808,1.706033c-1.393872,0.119374 -1.957077,1.721297 -0.905533,2.574932l15.018994,12.191288l-4.39535,18.020128c-0.307797,1.261818 1.167043,2.251743 2.370551,1.591472l17.189356,-9.431105l17.189357,9.431105c1.203657,0.660408 2.6782,-0.329654 2.37055,-1.591472l-4.395498,-18.020128l15.019143,-12.191288c1.051544,-0.853635 0.48819,-2.455558 -0.905533,-2.574932z"/>
   <g stroke="null" transform="matrix(0.14883848360908983,0,0,0.13752778499543256,-5.153689357846133,-4.8803470089548) " id="svg_158">
    <path stroke="null" id="svg_153" fill="#FFF082" d="m1614.530018,110.07367c6.818,9.47 26.062,50.14 37.064,73.842c1.73,3.726 -2.945,7.092 -5.93,4.269c-18.987,-17.952 -51.452,-49.104 -58.27,-58.575c-5.395,-7.493 -3.694,-17.941 3.8,-23.336c7.493,-5.395 17.941,-3.693 23.336,3.8z"/>
    <path stroke="null" id="svg_154" fill="#FFF082" d="m1887.974018,110.07367c-6.818,9.47 -26.062,50.14 -37.064,73.842c-1.73,3.726 2.945,7.092 5.93,4.269c18.987,-17.952 51.451,-49.105 58.27,-58.575c5.395,-7.493 3.694,-17.941 -3.8,-23.336c-7.493,-5.395 -17.941,-3.693 -23.336,3.8z"/>
    <path stroke="null" id="svg_155" fill="#FFF082" d="m1995.713018,387.77967c-11.094,-3.618 -55.689,-9.595 -81.612,-12.875c-4.075,-0.516 -5.861,4.961 -2.266,6.947c22.873,12.635 62.416,34.099 73.51,37.717c8.778,2.863 18.215,-1.932 21.078,-10.711c2.863,-8.779 -1.932,-18.215 -10.71,-21.078z"/>
    <path stroke="null" id="svg_156" fill="#FFF082" d="m1506.791018,387.77967c11.094,-3.618 55.689,-9.595 81.612,-12.875c4.075,-0.516 5.861,4.961 2.266,6.947c-22.873,12.635 -62.416,34.099 -73.51,37.717c-8.778,2.863 -18.215,-1.932 -21.078,-10.711s1.932,-18.215 10.71,-21.078z"/>
    <path stroke="null" id="svg_157" fill="#FFF082" d="m1735.046018,576.46067c0,-11.669 8.145,-55.919 13.065,-81.582c0.773,-4.034 6.534,-4.034 7.307,0c4.92,25.663 13.065,69.913 13.065,81.582c0,9.233 -7.485,16.718 -16.718,16.718c-9.234,0.001 -16.719,-7.485 -16.719,-16.718z"/>
   </g>
   <path stroke="null" id="svg_159" fill="#FFC850" d="m259.840286,17.01141l-2.875411,-6.169496c-0.553679,-1.187965 -2.376504,-1.187965 -2.930035,0l-7.907193,16.965702l-19.905659,1.706033c-1.393872,0.119374 -1.957077,1.721297 -0.905533,2.574932l15.018994,12.191288l-4.39535,18.020128c-0.307797,1.261818 1.167043,2.251743 2.370551,1.591472l2.287796,-1.255216c3.750581,-22.433532 14.294597,-38.901384 19.24184,-45.624843z"/>
   <g stroke="null" transform="matrix(0.14883848360908983,0,0,0.13752778499543256,-5.153689357846133,-4.8803470089548) " id="svg_160"/>
   <g stroke="null" transform="matrix(0.14883848360908983,0,0,0.13752778499543256,-5.153689357846133,-4.8803470089548) " id="svg_161"/>
   <g stroke="null" transform="matrix(0.14883848360908983,0,0,0.13752778499543256,-5.153689357846133,-4.8803470089548) " id="svg_162"/>
   <g stroke="null" transform="matrix(0.14883848360908983,0,0,0.13752778499543256,-5.153689357846133,-4.8803470089548) " id="svg_163"/>
   <g stroke="null" transform="matrix(0.14883848360908983,0,0,0.13752778499543256,-5.153689357846133,-4.8803470089548) " id="svg_164"/>
   <g stroke="null" transform="matrix(0.14883848360908983,0,0,0.13752778499543256,-5.153689357846133,-4.8803470089548) " id="svg_165"/>
   <g stroke="null" transform="matrix(0.14883848360908983,0,0,0.13752778499543256,-5.153689357846133,-4.8803470089548) " id="svg_166"/>
   <g stroke="null" transform="matrix(0.14883848360908983,0,0,0.13752778499543256,-5.153689357846133,-4.8803470089548) " id="svg_167"/>
   <g stroke="null" transform="matrix(0.14883848360908983,0,0,0.13752778499543256,-5.153689357846133,-4.8803470089548) " id="svg_168"/>
   <g stroke="null" transform="matrix(0.14883848360908983,0,0,0.13752778499543256,-5.153689357846133,-4.8803470089548) " id="svg_169"/>
   <g stroke="null" transform="matrix(0.14883848360908983,0,0,0.13752778499543256,-5.153689357846133,-4.8803470089548) " id="svg_170"/>
   <g stroke="null" transform="matrix(0.14883848360908983,0,0,0.13752778499543256,-5.153689357846133,-4.8803470089548) " id="svg_171"/>
   <g stroke="null" transform="matrix(0.14883848360908983,0,0,0.13752778499543256,-5.153689357846133,-4.8803470089548) " id="svg_172"/>
   <g stroke="null" transform="matrix(0.14883848360908983,0,0,0.13752778499543256,-5.153689357846133,-4.8803470089548) " id="svg_173"/>
   <g stroke="null" transform="matrix(0.14883848360908983,0,0,0.13752778499543256,-5.153689357846133,-4.8803470089548) " id="svg_174"/>
  </g>
 </g>
</svg>