<svg width="512" height="532" xmlns="http://www.w3.org/2000/svg">

 <g>
  <title>background</title>
  <rect fill="none" id="canvas_background" height="534" width="514" y="-1" x="-1"/>
 </g>
 <g>
  <title>Layer 1</title>
  <circle id="svg_1" fill="#273B7A" r="256" cy="272" cx="256"/>
  <path id="svg_2" fill="#121149" d="m96.084,333.343l192.59,192.59c107.194,-13.655 193.674,-93.606 217.06,-197.446l-157.893,-157.892l-163.511,-18.977l-30.165,30.165l0,90.667l5.875,5.875l-9.509,5.01l30.979,30.979l0,12.779l-85.426,6.25z"/>
  <path id="svg_3" fill="#FFFFFF" d="m191.509,262.896l-33.723,0.002l0.002,90.519c0,11.033 6.372,20.649 15.455,23.324l18.27,5.382l-5.11,-8.514l5.11,-8.514l-5.11,-8.514l5.11,-8.516l-5.11,-8.516l5.11,-8.514l-5.11,-8.516l5.11,-8.516l-5.11,-8.516l5.11,-8.514l-5.11,-8.518l5.11,-8.516l-5.11,-8.521l5.106,-8.522z"/>
  <path id="svg_4" fill="#D0D1D3" d="m191.509,382.123l-5.11,-8.514l5.11,-8.514l-5.11,-8.514l5.11,-8.516l-5.11,-8.516l5.11,-8.514l-5.11,-8.516l5.11,-8.516l-5.11,-8.516l5.11,-8.514l-5.11,-8.518l5.11,-8.514l-5.11,-8.521l5.11,-8.521l-19.69,0.002l0,113.349c0.467,0.181 0.94,0.353 1.424,0.496l18.266,5.377z"/>
  <path id="svg_5" fill="#E09112" d="m305.964,147.96l-83.646,-10.455c-39.174,-4.896 -73.775,25.648 -73.775,65.127l0,73.811c0,7.194 5.832,13.026 13.026,13.026l188.863,0c7.194,0 13.026,-5.832 13.026,-13.026l0,-63.355c-0.002,-33.101 -24.648,-61.022 -57.494,-65.128zm26.227,60.914l-87.257,0l0,-11.629c0,-16.029 14.048,-28.431 29.953,-26.441l33.961,4.246c13.336,1.667 23.343,13.003 23.343,26.441l0,7.383z"/>
  <path id="svg_6" fill="#FF5419" d="m305.964,147.96l-49.676,-6.21l0,33.685c5.198,-3.651 11.723,-5.491 18.599,-4.632l33.961,4.244c13.336,1.667 23.343,13.003 23.343,26.443l0,7.383l-75.904,0l0,80.593l94.144,0c7.194,0 13.026,-5.832 13.026,-13.026l0,-63.355c-0.001,-33.098 -24.647,-61.021 -57.493,-65.125z"/>
  <g id="svg_7">
   <path id="svg_8" fill="#FFC61B" d="m215.704,276.443l0,0c-2.698,0 -4.884,-2.188 -4.884,-4.884l0,-32.563c0,-2.698 2.188,-4.884 4.884,-4.884l0,0c2.698,0 4.884,2.188 4.884,4.884l0,32.563c0,2.696 -2.186,4.884 -4.884,4.884z"/>
   <path id="svg_9" fill="#FFC61B" d="m234.02,276.443l0,0c-2.698,0 -4.884,-2.188 -4.884,-4.884l0,-32.563c0,-2.698 2.188,-4.884 4.884,-4.884l0,0c2.698,0 4.884,2.188 4.884,4.884l0,32.563c0,2.696 -2.186,4.884 -4.884,4.884z"/>
  </g>
  <path id="svg_10" fill="#930000" d="m321.388,276.443l-13.552,0c-4.801,0 -8.692,-3.891 -8.692,-8.692l0,-24.948c0,-4.801 3.891,-8.692 8.692,-8.692l13.552,0c4.801,0 8.692,3.891 8.692,8.692l0,24.948c0,4.801 -3.891,8.692 -8.692,8.692z"/>
  <g id="svg_11">
   <path id="svg_12" fill="#FFC61B" d="m197.387,276.443l0,0c-2.698,0 -4.884,-2.188 -4.884,-4.884l0,-32.563c0,-2.698 2.188,-4.884 4.884,-4.884l0,0c2.698,0 4.884,2.188 4.884,4.884l0,32.563c0,2.696 -2.186,4.884 -4.884,4.884z"/>
   <path id="svg_13" fill="#FFC61B" d="m411.486,335.462l-310.972,0c-3.148,0 -5.699,-2.551 -5.699,-5.699l0,0c0,-3.148 2.551,-5.699 5.699,-5.699l310.974,0c3.148,0 5.699,2.551 5.699,5.699l0,0c-0.002,3.148 -2.553,5.699 -5.701,5.699z"/>
  </g>
  <path id="svg_14" fill="#EAA22F" d="m411.486,324.065l-154.336,0l0,11.397l154.336,0c3.148,0 5.699,-2.551 5.699,-5.698c0,-3.147 -2.551,-5.699 -5.699,-5.699z"/>
  <g id="svg_15"/>
  <g id="svg_16"/>
  <g id="svg_17"/>
  <g id="svg_18"/>
  <g id="svg_19"/>
  <g id="svg_20"/>
  <g id="svg_21"/>
  <g id="svg_22"/>
  <g id="svg_23"/>
  <g id="svg_24"/>
  <g id="svg_25"/>
  <g id="svg_26"/>
  <g id="svg_27"/>
  <g id="svg_28"/>
  <g id="svg_29"/>
  <g stroke="null" id="svg_57">
   <path stroke="null" id="svg_34" fill="#FFDC64" d="m86.12366,28.534039l-23.880196,-2.019543l-9.485941,-20.085207c-0.664227,-1.406386 -2.850996,-1.406386 -3.515044,0l-9.485941,20.085044l-23.880196,2.019706c-1.672173,0.141322 -2.347827,2.037778 -1.086332,3.048364l18.017682,14.432798l-5.272923,21.333338c-0.369253,1.493817 1.400054,2.665751 2.843854,1.884082l20.621379,-11.165124l20.621379,11.165124c1.443979,0.781832 3.212928,-0.390265 2.843854,-1.884082l-5.273102,-21.333338l18.01786,-14.432798c1.261495,-1.010586 0.585662,-2.907042 -1.086332,-3.048364z"/>
   <g stroke="null" transform="matrix(0.17855553367848145,0,0,0.1628138641769374,-2.583770842162039,-1.6453386389277966) " id="svg_35">
    <path stroke="null" id="svg_36" fill="#FFF082" d="m163.373825,45.347316c6.818,9.47 26.062,50.14 37.064,73.842c1.73,3.726 -2.945,7.092 -5.93,4.269c-18.987,-17.952 -51.452,-49.104 -58.27,-58.575c-5.395,-7.493 -3.694,-17.941 3.8,-23.336c7.493,-5.395 17.941,-3.693 23.336,3.8z"/>
    <path stroke="null" id="svg_37" fill="#FFF082" d="m436.817825,45.347316c-6.818,9.47 -26.062,50.14 -37.064,73.842c-1.73,3.726 2.945,7.092 5.93,4.269c18.987,-17.952 51.451,-49.105 58.27,-58.575c5.395,-7.493 3.694,-17.941 -3.8,-23.336c-7.493,-5.395 -17.941,-3.693 -23.336,3.8z"/>
    <path stroke="null" id="svg_38" fill="#FFF082" d="m544.556825,323.053316c-11.094,-3.618 -55.689,-9.595 -81.612,-12.875c-4.075,-0.516 -5.861,4.961 -2.266,6.947c22.873,12.635 62.416,34.099 73.51,37.717c8.778,2.863 18.215,-1.932 21.078,-10.711c2.863,-8.779 -1.932,-18.215 -10.71,-21.078z"/>
    <path stroke="null" id="svg_39" fill="#FFF082" d="m55.634825,323.053316c11.094,-3.618 55.689,-9.595 81.612,-12.875c4.075,-0.516 5.861,4.961 2.266,6.947c-22.873,12.635 -62.416,34.099 -73.51,37.717c-8.778,2.863 -18.215,-1.932 -21.078,-10.711s1.932,-18.215 10.71,-21.078z"/>
    <path stroke="null" id="svg_40" fill="#FFF082" d="m283.889825,511.734316c0,-11.669 8.145,-55.919 13.065,-81.582c0.773,-4.034 6.534,-4.034 7.307,0c4.92,25.663 13.065,69.913 13.065,81.582c0,9.233 -7.485,16.718 -16.718,16.718c-9.234,0.001 -16.719,-7.485 -16.719,-16.718z"/>
   </g>
   <path stroke="null" id="svg_41" fill="#FFC850" d="m56.206859,13.733119l-3.449514,-7.30383c-0.664227,-1.406386 -2.850996,-1.406386 -3.515044,0l-9.485941,20.085044l-23.880017,2.019706c-1.672173,0.141322 -2.347827,2.037778 -1.086332,3.048364l18.017682,14.432798l-5.272923,21.333338c-0.369253,1.493817 1.400054,2.665751 2.843854,1.884082l2.744577,-1.486002c4.499421,-26.558198 17.148652,-46.053855 23.083659,-54.013499z"/>
   <g stroke="null" transform="matrix(0.17855553367848145,0,0,0.1628138641769374,-2.583770842162039,-1.6453386389277966) " id="svg_42"/>
   <g stroke="null" transform="matrix(0.17855553367848145,0,0,0.1628138641769374,-2.583770842162039,-1.6453386389277966) " id="svg_43"/>
   <g stroke="null" transform="matrix(0.17855553367848145,0,0,0.1628138641769374,-2.583770842162039,-1.6453386389277966) " id="svg_44"/>
   <g stroke="null" transform="matrix(0.17855553367848145,0,0,0.1628138641769374,-2.583770842162039,-1.6453386389277966) " id="svg_45"/>
   <g stroke="null" transform="matrix(0.17855553367848145,0,0,0.1628138641769374,-2.583770842162039,-1.6453386389277966) " id="svg_46"/>
   <g stroke="null" transform="matrix(0.17855553367848145,0,0,0.1628138641769374,-2.583770842162039,-1.6453386389277966) " id="svg_47"/>
   <g stroke="null" transform="matrix(0.17855553367848145,0,0,0.1628138641769374,-2.583770842162039,-1.6453386389277966) " id="svg_48"/>
   <g stroke="null" transform="matrix(0.17855553367848145,0,0,0.1628138641769374,-2.583770842162039,-1.6453386389277966) " id="svg_49"/>
   <g stroke="null" transform="matrix(0.17855553367848145,0,0,0.1628138641769374,-2.583770842162039,-1.6453386389277966) " id="svg_50"/>
   <g stroke="null" transform="matrix(0.17855553367848145,0,0,0.1628138641769374,-2.583770842162039,-1.6453386389277966) " id="svg_51"/>
   <g stroke="null" transform="matrix(0.17855553367848145,0,0,0.1628138641769374,-2.583770842162039,-1.6453386389277966) " id="svg_52"/>
   <g stroke="null" transform="matrix(0.17855553367848145,0,0,0.1628138641769374,-2.583770842162039,-1.6453386389277966) " id="svg_53"/>
   <g stroke="null" transform="matrix(0.17855553367848145,0,0,0.1628138641769374,-2.583770842162039,-1.6453386389277966) " id="svg_54"/>
   <g stroke="null" transform="matrix(0.17855553367848145,0,0,0.1628138641769374,-2.583770842162039,-1.6453386389277966) " id="svg_55"/>
   <g stroke="null" transform="matrix(0.17855553367848145,0,0,0.1628138641769374,-2.583770842162039,-1.6453386389277966) " id="svg_56"/>
  </g>
  <g stroke="null" id="svg_81">
   <path stroke="null" id="svg_58" fill="#FFDC64" d="m171.12366,28.534039l-23.880196,-2.019544l-9.485941,-20.085206c-0.664227,-1.406386 -2.850996,-1.406386 -3.515044,0l-9.485941,20.085044l-23.880196,2.019706c-1.672173,0.141322 -2.347827,2.037778 -1.086332,3.048364l18.017682,14.432797l-5.272924,21.333338c-0.369252,1.493817 1.400054,2.665752 2.843854,1.884082l20.621379,-11.165123l20.621379,11.165123c1.443978,0.781832 3.212928,-0.390265 2.843854,-1.884082l-5.273103,-21.333338l18.017861,-14.432797c1.261495,-1.010586 0.585662,-2.907042 -1.086332,-3.048364z"/>
   <g stroke="null" transform="matrix(0.17855553367848145,0,0,0.1628138641769374,-2.583770842162039,-1.6453386389277966) " id="svg_64">
    <path stroke="null" id="svg_59" fill="#FFF082" d="m639.416183,45.347316c6.818,9.47 26.062,50.14 37.064,73.842c1.73,3.726 -2.945,7.092 -5.93,4.269c-18.987,-17.952 -51.452,-49.104 -58.27,-58.575c-5.395,-7.493 -3.694,-17.941 3.8,-23.336c7.493,-5.395 17.941,-3.693 23.336,3.8z"/>
    <path stroke="null" id="svg_60" fill="#FFF082" d="m912.860183,45.347316c-6.818,9.47 -26.062,50.14 -37.064,73.842c-1.73,3.726 2.945,7.092 5.93,4.269c18.987,-17.952 51.451,-49.105 58.27,-58.575c5.395,-7.493 3.694,-17.941 -3.8,-23.336c-7.493,-5.395 -17.941,-3.693 -23.336,3.8z"/>
    <path stroke="null" id="svg_61" fill="#FFF082" d="m1020.599183,323.053316c-11.094,-3.618 -55.689,-9.595 -81.612,-12.875c-4.075,-0.516 -5.861,4.961 -2.266,6.947c22.873,12.635 62.416,34.099 73.51,37.717c8.778,2.863 18.215,-1.932 21.078,-10.711c2.863,-8.779 -1.932,-18.215 -10.71,-21.078z"/>
    <path stroke="null" id="svg_62" fill="#FFF082" d="m531.677183,323.053316c11.094,-3.618 55.689,-9.595 81.612,-12.875c4.075,-0.516 5.861,4.961 2.266,6.947c-22.873,12.635 -62.416,34.099 -73.51,37.717c-8.778,2.863 -18.215,-1.932 -21.078,-10.711s1.932,-18.215 10.71,-21.078z"/>
    <path stroke="null" id="svg_63" fill="#FFF082" d="m759.932183,511.734316c0,-11.669 8.145,-55.919 13.065,-81.582c0.773,-4.034 6.534,-4.034 7.307,0c4.92,25.663 13.065,69.913 13.065,81.582c0,9.233 -7.485,16.718 -16.718,16.718c-9.234,0.001 -16.719,-7.485 -16.719,-16.718z"/>
   </g>
   <path stroke="null" id="svg_65" fill="#FFC850" d="m141.206859,13.733119l-3.449514,-7.30383c-0.664227,-1.406386 -2.850997,-1.406386 -3.515045,0l-9.485941,20.085044l-23.880017,2.019706c-1.672173,0.141322 -2.347827,2.037778 -1.086332,3.048364l18.017682,14.432797l-5.272924,21.333338c-0.369252,1.493817 1.400054,2.665752 2.843854,1.884082l2.744577,-1.486002c4.499421,-26.558197 17.148652,-46.053855 23.08366,-54.013499z"/>
   <g stroke="null" transform="matrix(0.17855553367848145,0,0,0.1628138641769374,-2.583770842162039,-1.6453386389277966) " id="svg_66"/>
   <g stroke="null" transform="matrix(0.17855553367848145,0,0,0.1628138641769374,-2.583770842162039,-1.6453386389277966) " id="svg_67"/>
   <g stroke="null" transform="matrix(0.17855553367848145,0,0,0.1628138641769374,-2.583770842162039,-1.6453386389277966) " id="svg_68"/>
   <g stroke="null" transform="matrix(0.17855553367848145,0,0,0.1628138641769374,-2.583770842162039,-1.6453386389277966) " id="svg_69"/>
   <g stroke="null" transform="matrix(0.17855553367848145,0,0,0.1628138641769374,-2.583770842162039,-1.6453386389277966) " id="svg_70"/>
   <g stroke="null" transform="matrix(0.17855553367848145,0,0,0.1628138641769374,-2.583770842162039,-1.6453386389277966) " id="svg_71"/>
   <g stroke="null" transform="matrix(0.17855553367848145,0,0,0.1628138641769374,-2.583770842162039,-1.6453386389277966) " id="svg_72"/>
   <g stroke="null" transform="matrix(0.17855553367848145,0,0,0.1628138641769374,-2.583770842162039,-1.6453386389277966) " id="svg_73"/>
   <g stroke="null" transform="matrix(0.17855553367848145,0,0,0.1628138641769374,-2.583770842162039,-1.6453386389277966) " id="svg_74"/>
   <g stroke="null" transform="matrix(0.17855553367848145,0,0,0.1628138641769374,-2.583770842162039,-1.6453386389277966) " id="svg_75"/>
   <g stroke="null" transform="matrix(0.17855553367848145,0,0,0.1628138641769374,-2.583770842162039,-1.6453386389277966) " id="svg_76"/>
   <g stroke="null" transform="matrix(0.17855553367848145,0,0,0.1628138641769374,-2.583770842162039,-1.6453386389277966) " id="svg_77"/>
   <g stroke="null" transform="matrix(0.17855553367848145,0,0,0.1628138641769374,-2.583770842162039,-1.6453386389277966) " id="svg_78"/>
   <g stroke="null" transform="matrix(0.17855553367848145,0,0,0.1628138641769374,-2.583770842162039,-1.6453386389277966) " id="svg_79"/>
   <g stroke="null" transform="matrix(0.17855553367848145,0,0,0.1628138641769374,-2.583770842162039,-1.6453386389277966) " id="svg_80"/>
  </g>
  <g stroke="null" id="svg_105">
   <path stroke="null" id="svg_82" fill="#FFDC64" d="m258.12366,29.534039l-23.880196,-2.019544l-9.485941,-20.085206c-0.664227,-1.406386 -2.850996,-1.406386 -3.515044,0l-9.485941,20.085044l-23.880196,2.019706c-1.672173,0.141322 -2.347827,2.037778 -1.086332,3.048364l18.017682,14.432797l-5.272924,21.333338c-0.369252,1.493817 1.400054,2.665752 2.843854,1.884082l20.621379,-11.165123l20.621379,11.165123c1.443978,0.781832 3.212928,-0.390265 2.843854,-1.884082l-5.273103,-21.333338l18.017861,-14.432797c1.261495,-1.010586 0.585662,-2.907042 -1.086332,-3.048364z"/>
   <g stroke="null" transform="matrix(0.17855553367848145,0,0,0.1628138641769374,-2.583770842162039,-1.6453386389277966) " id="svg_88">
    <path stroke="null" id="svg_83" fill="#FFF082" d="m1126.659561,51.489299c6.818,9.47 26.062,50.14 37.064,73.842c1.73,3.726 -2.945,7.092 -5.93,4.269c-18.987,-17.952 -51.452,-49.104 -58.27,-58.575c-5.395,-7.493 -3.694,-17.941 3.8,-23.336c7.493,-5.395 17.941,-3.693 23.336,3.8z"/>
    <path stroke="null" id="svg_84" fill="#FFF082" d="m1400.103561,51.489299c-6.818,9.47 -26.062,50.14 -37.064,73.842c-1.73,3.726 2.945,7.092 5.93,4.269c18.987,-17.952 51.451,-49.105 58.27,-58.575c5.395,-7.493 3.694,-17.941 -3.8,-23.336c-7.493,-5.395 -17.941,-3.693 -23.336,3.8z"/>
    <path stroke="null" id="svg_85" fill="#FFF082" d="m1507.842561,329.195299c-11.094,-3.618 -55.689,-9.595 -81.612,-12.875c-4.075,-0.516 -5.861,4.961 -2.266,6.947c22.873,12.635 62.416,34.099 73.51,37.717c8.778,2.863 18.215,-1.932 21.078,-10.711c2.863,-8.779 -1.932,-18.215 -10.71,-21.078z"/>
    <path stroke="null" id="svg_86" fill="#FFF082" d="m1018.920561,329.195299c11.094,-3.618 55.689,-9.595 81.612,-12.875c4.075,-0.516 5.861,4.961 2.266,6.947c-22.873,12.635 -62.416,34.099 -73.51,37.717c-8.778,2.863 -18.215,-1.932 -21.078,-10.711s1.932,-18.215 10.71,-21.078z"/>
    <path stroke="null" id="svg_87" fill="#FFF082" d="m1247.175561,517.876299c0,-11.669 8.145,-55.919 13.065,-81.582c0.773,-4.034 6.534,-4.034 7.307,0c4.92,25.663 13.065,69.913 13.065,81.582c0,9.233 -7.485,16.718 -16.718,16.718c-9.234,0.001 -16.719,-7.485 -16.719,-16.718z"/>
   </g>
   <path stroke="null" id="svg_89" fill="#FFC850" d="m228.206859,14.733119l-3.449514,-7.30383c-0.664227,-1.406386 -2.850997,-1.406386 -3.515045,0l-9.485941,20.085044l-23.880017,2.019706c-1.672173,0.141322 -2.347827,2.037778 -1.086332,3.048364l18.017682,14.432797l-5.272924,21.333338c-0.369252,1.493817 1.400054,2.665752 2.843854,1.884082l2.744577,-1.486002c4.499421,-26.558197 17.148652,-46.053855 23.08366,-54.013499z"/>
   <g stroke="null" transform="matrix(0.17855553367848145,0,0,0.1628138641769374,-2.583770842162039,-1.6453386389277966) " id="svg_90"/>
   <g stroke="null" transform="matrix(0.17855553367848145,0,0,0.1628138641769374,-2.583770842162039,-1.6453386389277966) " id="svg_91"/>
   <g stroke="null" transform="matrix(0.17855553367848145,0,0,0.1628138641769374,-2.583770842162039,-1.6453386389277966) " id="svg_92"/>
   <g stroke="null" transform="matrix(0.17855553367848145,0,0,0.1628138641769374,-2.583770842162039,-1.6453386389277966) " id="svg_93"/>
   <g stroke="null" transform="matrix(0.17855553367848145,0,0,0.1628138641769374,-2.583770842162039,-1.6453386389277966) " id="svg_94"/>
   <g stroke="null" transform="matrix(0.17855553367848145,0,0,0.1628138641769374,-2.583770842162039,-1.6453386389277966) " id="svg_95"/>
   <g stroke="null" transform="matrix(0.17855553367848145,0,0,0.1628138641769374,-2.583770842162039,-1.6453386389277966) " id="svg_96"/>
   <g stroke="null" transform="matrix(0.17855553367848145,0,0,0.1628138641769374,-2.583770842162039,-1.6453386389277966) " id="svg_97"/>
   <g stroke="null" transform="matrix(0.17855553367848145,0,0,0.1628138641769374,-2.583770842162039,-1.6453386389277966) " id="svg_98"/>
   <g stroke="null" transform="matrix(0.17855553367848145,0,0,0.1628138641769374,-2.583770842162039,-1.6453386389277966) " id="svg_99"/>
   <g stroke="null" transform="matrix(0.17855553367848145,0,0,0.1628138641769374,-2.583770842162039,-1.6453386389277966) " id="svg_100"/>
   <g stroke="null" transform="matrix(0.17855553367848145,0,0,0.1628138641769374,-2.583770842162039,-1.6453386389277966) " id="svg_101"/>
   <g stroke="null" transform="matrix(0.17855553367848145,0,0,0.1628138641769374,-2.583770842162039,-1.6453386389277966) " id="svg_102"/>
   <g stroke="null" transform="matrix(0.17855553367848145,0,0,0.1628138641769374,-2.583770842162039,-1.6453386389277966) " id="svg_103"/>
   <g stroke="null" transform="matrix(0.17855553367848145,0,0,0.1628138641769374,-2.583770842162039,-1.6453386389277966) " id="svg_104"/>
  </g>
 </g>
</svg>