<svg width="512.002" height="512.002" xmlns="http://www.w3.org/2000/svg">

 <g>
  <title>background</title>
  <rect fill="none" id="canvas_background" height="443" width="587" y="-1" x="-1"/>
 </g>
 <g>
  <title>Layer 1</title>
  <g id="svg_1">
   <g id="svg_2">
    <path id="svg_3" fill="#E0E0E0" d="m237.714,292.572c-5.047,0 -9.143,-4.087 -9.143,-9.143l0,-192c0,-5.056 4.096,-9.143 9.143,-9.143s9.143,4.087 9.143,9.143l0,192c0,5.056 -4.096,9.143 -9.143,9.143"/>
    <path id="svg_4" fill="#E0E0E0" d="m45.714,292.572c-5.047,0 -9.143,-4.087 -9.143,-9.143l0,-192c0,-5.056 4.096,-9.143 9.143,-9.143s9.143,4.087 9.143,9.143l0,192c0,5.056 -4.096,9.143 -9.143,9.143"/>
   </g>
   <g id="svg_5">
    <path id="svg_6" fill="#383838" d="m274.286,137.144l-265.143,0c-5.047,0 -9.143,-4.087 -9.143,-9.143s4.096,-9.143 9.143,-9.143l265.143,0c5.047,0 9.143,4.087 9.143,9.143s-4.096,9.143 -9.143,9.143"/>
    <path id="svg_7" fill="#383838" d="m274.286,173.715l-265.143,0c-5.047,0 -9.143,-4.087 -9.143,-9.143s4.096,-9.143 9.143,-9.143l265.143,0c5.047,0 9.143,4.087 9.143,9.143s-4.096,9.143 -9.143,9.143"/>
    <path id="svg_8" fill="#383838" d="m274.286,210.287l-265.143,0c-5.047,0 -9.143,-4.087 -9.143,-9.143c0,-5.056 4.096,-9.143 9.143,-9.143l265.143,0c5.047,0 9.143,4.087 9.143,9.143c0,5.056 -4.096,9.143 -9.143,9.143"/>
    <path id="svg_9" fill="#383838" d="m274.286,246.858l-265.143,0c-5.047,0 -9.143,-4.087 -9.143,-9.143c0,-5.056 4.096,-9.143 9.143,-9.143l265.143,0c5.047,0 9.143,4.087 9.143,9.143c0,5.056 -4.096,9.143 -9.143,9.143"/>
   </g>
   <path id="svg_10" fill="#378CD5" d="m506.413,213.283l-79.451,-87.397c-4.069,-4.471 -9.838,-7.031 -15.89,-7.031l-84.215,0c-8.832,0 -16,7.168 -16,16l0,148.571l-301.715,0l0,78.474c0,7.159 5.797,12.955 12.955,12.955l14.473,0c0,-30.29 24.558,-54.857 54.857,-54.857s54.857,24.567 54.857,54.857l164.571,0l45.714,0c0,-30.29 24.558,-54.857 54.857,-54.857c30.299,0 54.857,24.567 54.857,54.857l32.759,0c7.159,0 12.955,-5.797 12.955,-12.955l0,-134.162c0.002,-5.349 -1.991,-10.496 -5.584,-14.455"/>
   <path id="svg_11" fill="#E0E0E0" d="m426.964,125.891c-4.069,-4.48 -9.847,-7.031 -15.899,-7.031l-47.918,0c-3.63,0 -6.574,2.944 -6.574,6.574l0,96.566c0,3.63 2.944,6.574 6.574,6.574l148.855,0l0,-0.841c0,-5.339 -1.993,-10.496 -5.586,-14.446l-79.452,-87.396z"/>
   <g id="svg_12">
    <path id="svg_13" fill="#494949" d="m466.286,374.858c0,30.299 -24.558,54.857 -54.857,54.857c-30.299,0 -54.857,-24.558 -54.857,-54.857c0,-30.299 24.558,-54.857 54.857,-54.857c30.299,0 54.857,24.558 54.857,54.857"/>
    <path id="svg_14" fill="#494949" d="m146.286,374.858c0,30.299 -24.558,54.857 -54.857,54.857s-54.857,-24.558 -54.857,-54.857c0,-30.299 24.558,-54.857 54.857,-54.857s54.857,24.558 54.857,54.857"/>
   </g>
   <g id="svg_15">
    <path id="svg_16" fill="#A2A2A2" d="m109.714,374.858c0,10.103 -8.183,18.286 -18.286,18.286s-18.286,-8.183 -18.286,-18.286s8.183,-18.286 18.286,-18.286s18.286,8.183 18.286,18.286"/>
    <path id="svg_17" fill="#A2A2A2" d="m429.714,374.858c0,10.103 -8.183,18.286 -18.286,18.286s-18.286,-8.183 -18.286,-18.286s8.183,-18.286 18.286,-18.286s18.286,8.183 18.286,18.286"/>
   </g>
   <path id="svg_18" fill="#83BEEB" d="m512,265.144l-54.857,0c-5.047,0 -9.143,4.087 -9.143,9.143c0,5.056 4.096,9.143 9.143,9.143l54.857,0l0,-18.286z"/>
  </g>
  <g id="svg_19"/>
  <g id="svg_20"/>
  <g id="svg_21"/>
  <g id="svg_22"/>
  <g id="svg_23"/>
  <g id="svg_24"/>
  <g id="svg_25"/>
  <g id="svg_26"/>
  <g id="svg_27"/>
  <g id="svg_28"/>
  <g id="svg_29"/>
  <g id="svg_30"/>
  <g id="svg_31"/>
  <g id="svg_32"/>
  <g id="svg_33"/>
  <g stroke="null" id="svg_61">
   <path stroke="null" id="svg_38" fill="#FFDC64" d="m86.383923,30.902296l-22.696686,-2.036334l-9.015815,-20.252195c-0.631307,-1.418079 -2.7097,-1.418079 -3.340838,0l-9.015815,20.252031l-22.696686,2.036498c-1.589299,0.142497 -2.231468,2.05472 -1.032493,3.073708l17.12472,14.552792l-5.011596,21.510703c-0.350953,1.506237 1.330667,2.687914 2.702912,1.899746l19.599377,-11.25795l19.599377,11.25795c1.372415,0.788332 3.053695,-0.393509 2.702912,-1.899746l-5.011766,-21.510703l17.12489,-14.552792c1.198975,-1.018988 0.556637,-2.931211 -1.032493,-3.073708z"/>
   <g stroke="null" transform="matrix(0.16970627065606658,0,0,0.1641674987310264,-5.039399283500893,-3.2351453076766514) " id="svg_39">
    <path stroke="null" id="svg_40" fill="#FFF082" d="m205.283127,67.928737c6.818,9.47 26.062,50.14 37.064,73.842c1.73,3.726 -2.945,7.092 -5.93,4.269c-18.987,-17.952 -51.452,-49.104 -58.27,-58.575c-5.395,-7.493 -3.694,-17.941 3.8,-23.336c7.493,-5.395 17.941,-3.693 23.336,3.8z"/>
    <path stroke="null" id="svg_41" fill="#FFF082" d="m478.727127,67.928737c-6.818,9.47 -26.062,50.14 -37.064,73.842c-1.73,3.726 2.945,7.092 5.93,4.269c18.987,-17.952 51.451,-49.105 58.27,-58.575c5.395,-7.493 3.694,-17.941 -3.8,-23.336c-7.493,-5.395 -17.941,-3.693 -23.336,3.8z"/>
    <path stroke="null" id="svg_42" fill="#FFF082" d="m586.466127,345.634737c-11.094,-3.618 -55.689,-9.595 -81.612,-12.875c-4.075,-0.516 -5.861,4.961 -2.266,6.947c22.873,12.635 62.416,34.099 73.51,37.717c8.778,2.863 18.215,-1.932 21.078,-10.711c2.863,-8.779 -1.932,-18.215 -10.71,-21.078z"/>
    <path stroke="null" id="svg_43" fill="#FFF082" d="m97.544127,345.634737c11.094,-3.618 55.689,-9.595 81.612,-12.875c4.075,-0.516 5.861,4.961 2.266,6.947c-22.873,12.635 -62.416,34.099 -73.51,37.717c-8.778,2.863 -18.215,-1.932 -21.078,-10.711s1.932,-18.215 10.71,-21.078z"/>
    <path stroke="null" id="svg_44" fill="#FFF082" d="m325.799127,534.315737c0,-11.669 8.145,-55.919 13.065,-81.582c0.773,-4.034 6.534,-4.034 7.307,0c4.92,25.663 13.065,69.913 13.065,81.582c0,9.233 -7.485,16.718 -16.718,16.718c-9.234,0.001 -16.719,-7.485 -16.719,-16.718z"/>
   </g>
   <path stroke="null" id="svg_45" fill="#FFC850" d="m57.949807,15.978321l-3.278555,-7.364554c-0.631307,-1.418079 -2.7097,-1.418079 -3.340838,0l-9.015815,20.252031l-22.696517,2.036498c-1.589299,0.142497 -2.231468,2.05472 -1.032493,3.073708l17.12472,14.552792l-5.011596,21.510703c-0.350953,1.506237 1.330667,2.687914 2.702912,1.899746l2.608555,-1.498357c4.276428,-26.779002 16.29876,-46.436747 21.939627,-54.462568z"/>
   <g stroke="null" transform="matrix(0.16970627065606658,0,0,0.1641674987310264,-5.039399283500893,-3.2351453076766514) " id="svg_46"/>
   <g stroke="null" transform="matrix(0.16970627065606658,0,0,0.1641674987310264,-5.039399283500893,-3.2351453076766514) " id="svg_47"/>
   <g stroke="null" transform="matrix(0.16970627065606658,0,0,0.1641674987310264,-5.039399283500893,-3.2351453076766514) " id="svg_48"/>
   <g stroke="null" transform="matrix(0.16970627065606658,0,0,0.1641674987310264,-5.039399283500893,-3.2351453076766514) " id="svg_49"/>
   <g stroke="null" transform="matrix(0.16970627065606658,0,0,0.1641674987310264,-5.039399283500893,-3.2351453076766514) " id="svg_50"/>
   <g stroke="null" transform="matrix(0.16970627065606658,0,0,0.1641674987310264,-5.039399283500893,-3.2351453076766514) " id="svg_51"/>
   <g stroke="null" transform="matrix(0.16970627065606658,0,0,0.1641674987310264,-5.039399283500893,-3.2351453076766514) " id="svg_52"/>
   <g stroke="null" transform="matrix(0.16970627065606658,0,0,0.1641674987310264,-5.039399283500893,-3.2351453076766514) " id="svg_53"/>
   <g stroke="null" transform="matrix(0.16970627065606658,0,0,0.1641674987310264,-5.039399283500893,-3.2351453076766514) " id="svg_54"/>
   <g stroke="null" transform="matrix(0.16970627065606658,0,0,0.1641674987310264,-5.039399283500893,-3.2351453076766514) " id="svg_55"/>
   <g stroke="null" transform="matrix(0.16970627065606658,0,0,0.1641674987310264,-5.039399283500893,-3.2351453076766514) " id="svg_56"/>
   <g stroke="null" transform="matrix(0.16970627065606658,0,0,0.1641674987310264,-5.039399283500893,-3.2351453076766514) " id="svg_57"/>
   <g stroke="null" transform="matrix(0.16970627065606658,0,0,0.1641674987310264,-5.039399283500893,-3.2351453076766514) " id="svg_58"/>
   <g stroke="null" transform="matrix(0.16970627065606658,0,0,0.1641674987310264,-5.039399283500893,-3.2351453076766514) " id="svg_59"/>
   <g stroke="null" transform="matrix(0.16970627065606658,0,0,0.1641674987310264,-5.039399283500893,-3.2351453076766514) " id="svg_60"/>
  </g>
  <g stroke="null" id="svg_85">
   <path stroke="null" id="svg_62" fill="#FFDC64" d="m168.383923,30.902296l-22.696686,-2.036334l-9.015815,-20.252195c-0.631308,-1.418079 -2.7097,-1.418079 -3.340838,0l-9.015815,20.252031l-22.696687,2.036498c-1.589299,0.142497 -2.231467,2.05472 -1.032493,3.073708l17.124721,14.552792l-5.011596,21.510703c-0.350953,1.506237 1.330667,2.687914 2.702912,1.899746l19.599377,-11.25795l19.599377,11.25795c1.372415,0.788333 3.053695,-0.393509 2.702912,-1.899746l-5.011766,-21.510703l17.12489,-14.552792c1.198975,-1.018988 0.556637,-2.931211 -1.032493,-3.073708z"/>
   <g stroke="null" transform="matrix(0.16970627065606658,0,0,0.1641674987310264,-5.039399283500893,-3.2351453076766514) " id="svg_68">
    <path stroke="null" id="svg_63" fill="#FFF082" d="m688.470932,67.928737c6.818,9.47 26.062,50.14 37.064,73.842c1.73,3.726 -2.945,7.092 -5.93,4.269c-18.987,-17.952 -51.452,-49.104 -58.27,-58.575c-5.395,-7.493 -3.694,-17.941 3.8,-23.336c7.493,-5.395 17.941,-3.693 23.336,3.8z"/>
    <path stroke="null" id="svg_64" fill="#FFF082" d="m961.914932,67.928737c-6.818,9.47 -26.062,50.14 -37.064,73.842c-1.73,3.726 2.945,7.092 5.93,4.269c18.987,-17.952 51.451,-49.105 58.27,-58.575c5.395,-7.493 3.694,-17.941 -3.8,-23.336c-7.493,-5.395 -17.941,-3.693 -23.336,3.8z"/>
    <path stroke="null" id="svg_65" fill="#FFF082" d="m1069.653932,345.634737c-11.094,-3.618 -55.689,-9.595 -81.612,-12.875c-4.075,-0.516 -5.861,4.961 -2.266,6.947c22.873,12.635 62.416,34.099 73.51,37.717c8.778,2.863 18.215,-1.932 21.078,-10.711c2.863,-8.779 -1.932,-18.215 -10.71,-21.078z"/>
    <path stroke="null" id="svg_66" fill="#FFF082" d="m580.731932,345.634737c11.094,-3.618 55.689,-9.595 81.612,-12.875c4.075,-0.516 5.861,4.961 2.266,6.947c-22.873,12.635 -62.416,34.099 -73.51,37.717c-8.778,2.863 -18.215,-1.932 -21.078,-10.711s1.932,-18.215 10.71,-21.078z"/>
    <path stroke="null" id="svg_67" fill="#FFF082" d="m808.986932,534.315737c0,-11.669 8.145,-55.919 13.065,-81.582c0.773,-4.034 6.534,-4.034 7.307,0c4.92,25.663 13.065,69.913 13.065,81.582c0,9.233 -7.485,16.718 -16.718,16.718c-9.234,0.001 -16.719,-7.485 -16.719,-16.718z"/>
   </g>
   <path stroke="null" id="svg_69" fill="#FFC850" d="m139.949807,15.978321l-3.278555,-7.364554c-0.631307,-1.418079 -2.7097,-1.418079 -3.340838,0l-9.015815,20.252031l-22.696517,2.036498c-1.589299,0.142497 -2.231467,2.05472 -1.032493,3.073708l17.124721,14.552792l-5.011596,21.510703c-0.350953,1.506237 1.330667,2.687914 2.702912,1.899746l2.608555,-1.498357c4.276428,-26.779002 16.29876,-46.436747 21.939626,-54.462567z"/>
   <g stroke="null" transform="matrix(0.16970627065606658,0,0,0.1641674987310264,-5.039399283500893,-3.2351453076766514) " id="svg_70"/>
   <g stroke="null" transform="matrix(0.16970627065606658,0,0,0.1641674987310264,-5.039399283500893,-3.2351453076766514) " id="svg_71"/>
   <g stroke="null" transform="matrix(0.16970627065606658,0,0,0.1641674987310264,-5.039399283500893,-3.2351453076766514) " id="svg_72"/>
   <g stroke="null" transform="matrix(0.16970627065606658,0,0,0.1641674987310264,-5.039399283500893,-3.2351453076766514) " id="svg_73"/>
   <g stroke="null" transform="matrix(0.16970627065606658,0,0,0.1641674987310264,-5.039399283500893,-3.2351453076766514) " id="svg_74"/>
   <g stroke="null" transform="matrix(0.16970627065606658,0,0,0.1641674987310264,-5.039399283500893,-3.2351453076766514) " id="svg_75"/>
   <g stroke="null" transform="matrix(0.16970627065606658,0,0,0.1641674987310264,-5.039399283500893,-3.2351453076766514) " id="svg_76"/>
   <g stroke="null" transform="matrix(0.16970627065606658,0,0,0.1641674987310264,-5.039399283500893,-3.2351453076766514) " id="svg_77"/>
   <g stroke="null" transform="matrix(0.16970627065606658,0,0,0.1641674987310264,-5.039399283500893,-3.2351453076766514) " id="svg_78"/>
   <g stroke="null" transform="matrix(0.16970627065606658,0,0,0.1641674987310264,-5.039399283500893,-3.2351453076766514) " id="svg_79"/>
   <g stroke="null" transform="matrix(0.16970627065606658,0,0,0.1641674987310264,-5.039399283500893,-3.2351453076766514) " id="svg_80"/>
   <g stroke="null" transform="matrix(0.16970627065606658,0,0,0.1641674987310264,-5.039399283500893,-3.2351453076766514) " id="svg_81"/>
   <g stroke="null" transform="matrix(0.16970627065606658,0,0,0.1641674987310264,-5.039399283500893,-3.2351453076766514) " id="svg_82"/>
   <g stroke="null" transform="matrix(0.16970627065606658,0,0,0.1641674987310264,-5.039399283500893,-3.2351453076766514) " id="svg_83"/>
   <g stroke="null" transform="matrix(0.16970627065606658,0,0,0.1641674987310264,-5.039399283500893,-3.2351453076766514) " id="svg_84"/>
  </g>
  <g stroke="null" id="svg_109">
   <path stroke="null" id="svg_86" fill="#FFDC64" d="m252.383923,31.902296l-22.696686,-2.036334l-9.015815,-20.252195c-0.631308,-1.418079 -2.7097,-1.418079 -3.340838,0l-9.015815,20.252031l-22.696687,2.036498c-1.589299,0.142497 -2.231467,2.05472 -1.032493,3.073708l17.124721,14.552792l-5.011596,21.510703c-0.350953,1.506237 1.330667,2.687914 2.702912,1.899746l19.599377,-11.25795l19.599377,11.25795c1.372415,0.788333 3.053695,-0.393509 2.702912,-1.899746l-5.011766,-21.510703l17.12489,-14.552792c1.198975,-1.018988 0.556637,-2.931211 -1.032493,-3.073708z"/>
   <g stroke="null" transform="matrix(0.16970627065606658,0,0,0.1641674987310264,-5.039399283500893,-3.2351453076766514) " id="svg_92">
    <path stroke="null" id="svg_87" fill="#FFF082" d="m1183.443802,74.020077c6.818,9.47 26.062,50.14 37.064,73.842c1.73,3.726 -2.945,7.092 -5.93,4.269c-18.987,-17.952 -51.452,-49.104 -58.27,-58.575c-5.395,-7.493 -3.694,-17.941 3.8,-23.336c7.493,-5.395 17.941,-3.693 23.336,3.8z"/>
    <path stroke="null" id="svg_88" fill="#FFF082" d="m1456.887802,74.020077c-6.818,9.47 -26.062,50.14 -37.064,73.842c-1.73,3.726 2.945,7.092 5.93,4.269c18.987,-17.952 51.451,-49.105 58.27,-58.575c5.395,-7.493 3.694,-17.941 -3.8,-23.336c-7.493,-5.395 -17.941,-3.693 -23.336,3.8z"/>
    <path stroke="null" id="svg_89" fill="#FFF082" d="m1564.626802,351.726077c-11.094,-3.618 -55.689,-9.595 -81.612,-12.875c-4.075,-0.516 -5.861,4.961 -2.266,6.947c22.873,12.635 62.416,34.099 73.51,37.717c8.778,2.863 18.215,-1.932 21.078,-10.711c2.863,-8.779 -1.932,-18.215 -10.71,-21.078z"/>
    <path stroke="null" id="svg_90" fill="#FFF082" d="m1075.704802,351.726077c11.094,-3.618 55.689,-9.595 81.612,-12.875c4.075,-0.516 5.861,4.961 2.266,6.947c-22.873,12.635 -62.416,34.099 -73.51,37.717c-8.778,2.863 -18.215,-1.932 -21.078,-10.711s1.932,-18.215 10.71,-21.078z"/>
    <path stroke="null" id="svg_91" fill="#FFF082" d="m1303.959802,540.407077c0,-11.669 8.145,-55.919 13.065,-81.582c0.773,-4.034 6.534,-4.034 7.307,0c4.92,25.663 13.065,69.913 13.065,81.582c0,9.233 -7.485,16.718 -16.718,16.718c-9.234,0.001 -16.719,-7.485 -16.719,-16.718z"/>
   </g>
   <path stroke="null" id="svg_93" fill="#FFC850" d="m223.949807,16.978321l-3.278555,-7.364554c-0.631307,-1.418079 -2.7097,-1.418079 -3.340838,0l-9.015815,20.252031l-22.696517,2.036498c-1.589299,0.142497 -2.231467,2.05472 -1.032493,3.073708l17.124721,14.552792l-5.011596,21.510703c-0.350953,1.506237 1.330667,2.687914 2.702912,1.899746l2.608555,-1.498357c4.276428,-26.779002 16.29876,-46.436747 21.939626,-54.462567z"/>
   <g stroke="null" transform="matrix(0.16970627065606658,0,0,0.1641674987310264,-5.039399283500893,-3.2351453076766514) " id="svg_94"/>
   <g stroke="null" transform="matrix(0.16970627065606658,0,0,0.1641674987310264,-5.039399283500893,-3.2351453076766514) " id="svg_95"/>
   <g stroke="null" transform="matrix(0.16970627065606658,0,0,0.1641674987310264,-5.039399283500893,-3.2351453076766514) " id="svg_96"/>
   <g stroke="null" transform="matrix(0.16970627065606658,0,0,0.1641674987310264,-5.039399283500893,-3.2351453076766514) " id="svg_97"/>
   <g stroke="null" transform="matrix(0.16970627065606658,0,0,0.1641674987310264,-5.039399283500893,-3.2351453076766514) " id="svg_98"/>
   <g stroke="null" transform="matrix(0.16970627065606658,0,0,0.1641674987310264,-5.039399283500893,-3.2351453076766514) " id="svg_99"/>
   <g stroke="null" transform="matrix(0.16970627065606658,0,0,0.1641674987310264,-5.039399283500893,-3.2351453076766514) " id="svg_100"/>
   <g stroke="null" transform="matrix(0.16970627065606658,0,0,0.1641674987310264,-5.039399283500893,-3.2351453076766514) " id="svg_101"/>
   <g stroke="null" transform="matrix(0.16970627065606658,0,0,0.1641674987310264,-5.039399283500893,-3.2351453076766514) " id="svg_102"/>
   <g stroke="null" transform="matrix(0.16970627065606658,0,0,0.1641674987310264,-5.039399283500893,-3.2351453076766514) " id="svg_103"/>
   <g stroke="null" transform="matrix(0.16970627065606658,0,0,0.1641674987310264,-5.039399283500893,-3.2351453076766514) " id="svg_104"/>
   <g stroke="null" transform="matrix(0.16970627065606658,0,0,0.1641674987310264,-5.039399283500893,-3.2351453076766514) " id="svg_105"/>
   <g stroke="null" transform="matrix(0.16970627065606658,0,0,0.1641674987310264,-5.039399283500893,-3.2351453076766514) " id="svg_106"/>
   <g stroke="null" transform="matrix(0.16970627065606658,0,0,0.1641674987310264,-5.039399283500893,-3.2351453076766514) " id="svg_107"/>
   <g stroke="null" transform="matrix(0.16970627065606658,0,0,0.1641674987310264,-5.039399283500893,-3.2351453076766514) " id="svg_108"/>
  </g>
 </g>
</svg>