<svg width="512" height="512" xmlns="http://www.w3.org/2000/svg">

 <g>
  <title>background</title>
  <rect fill="none" id="canvas_background" height="443" width="587" y="-1" x="-1"/>
 </g>
 <g>
  <title>Layer 1</title>
  <polygon id="svg_1" fill="#B4E1FA" points="441.379,220.69 344.276,220.69 344.276,132.414 423.724,132.414 "/>
  <path id="svg_2" fill="#707487" d="m17.655,370.759l476.69,0c4.875,0 8.828,-3.953 8.828,-8.828l0,-61.793l-494.345,0l0,61.793c0,4.875 3.952,8.828 8.827,8.828z"/>
  <polygon id="svg_3" fill="#5B5D6E" points="344.276,300.138 344.276,158.897 308.966,158.897 308.966,300.138 8.828,300.138   8.828,335.448 503.172,335.448 503.172,300.138 "/>
  <g id="svg_4">
   <path id="svg_5" fill="#FFD782" d="m8.828,79.448l300.138,0c4.875,0 8.828,3.953 8.828,8.828l0,211.862c0,4.875 -3.953,8.828 -8.828,8.828l-300.138,0c-4.875,0 -8.828,-3.953 -8.828,-8.828l0,-211.862c0,-4.875 3.953,-8.828 8.828,-8.828z"/>
   <path id="svg_6" fill="#FFD782" d="m490.367,225.858l-41.22,-11.777l-12.785,-70.339c-3.06,-16.793 -17.673,-28.983 -34.741,-28.983l-57.345,0c-4.879,0 -8.828,3.948 -8.828,8.828l0,158.897l167.724,0l0,-39.649c0,-7.883 -5.225,-14.812 -12.805,-16.977zm-119.608,-13.996c-9.751,0 -17.655,-7.904 -17.655,-17.655l0,-44.138c0,-4.875 3.953,-8.828 8.828,-8.828l48.768,0c4.271,0 7.93,3.058 8.687,7.262l10.326,57.292c0.569,3.16 -1.859,6.067 -5.07,6.067l-53.884,0z"/>
  </g>
  <circle id="svg_7" fill="#464655" r="52.966" cy="379.586" cx="414.897"/>
  <circle id="svg_8" fill="#C7CFE2" r="35.31" cy="379.586" cx="414.897"/>
  <circle id="svg_9" fill="#AFB9D2" r="13.241" cy="379.586" cx="414.897"/>
  <circle id="svg_10" fill="#464655" r="52.966" cy="379.586" cx="88.276"/>
  <circle id="svg_11" fill="#C7CFE2" r="35.31" cy="379.586" cx="88.276"/>
  <circle id="svg_12" fill="#AFB9D2" r="13.241" cy="379.586" cx="88.276"/>
  <path id="svg_13" fill="#FFC36E" d="m344.276,361.931l3.372,0c3.343,0 6.4,-1.889 7.895,-4.879l19.164,-38.326c2.99,-5.982 9.103,-9.76 15.791,-9.76l48.798,0c6.687,0 12.801,3.778 15.791,9.76l19.164,38.326c1.495,2.99 4.552,4.879 7.895,4.879l21.026,0c4.875,0 8.828,-3.953 8.828,-8.828l0,-61.793c0,-9.751 -7.904,-17.655 -17.655,-17.655l-158.897,0l0,79.448c0,4.875 3.953,8.828 8.828,8.828z"/>
  <path id="svg_14" fill="#AFB9D2" d="m308.966,388.414l-88.276,0c-4.875,0 -8.828,-3.953 -8.828,-8.828l0,-35.31c0,-4.875 3.953,-8.828 8.828,-8.828l88.276,0c4.875,0 8.828,3.953 8.828,8.828l0,35.31c-0.001,4.875 -3.953,8.828 -8.828,8.828z"/>
  <g id="svg_15">
   <path id="svg_16" fill="#959CB3" d="m247.172,353.103l0,0c-4.875,0 -8.828,3.953 -8.828,8.828l0,26.483l17.656,0l0,-26.483c0,-4.875 -3.953,-8.828 -8.828,-8.828z"/>
   <path id="svg_17" fill="#959CB3" d="m282.483,353.103l0,0c-4.875,0 -8.828,3.953 -8.828,8.828l0,26.483l17.655,0l0,-26.483c0,-4.875 -3.952,-8.828 -8.827,-8.828z"/>
  </g>
  <path id="svg_18" fill="#FFC36E" d="m291.31,291.31l-264.827,0c-4.875,0 -8.828,-3.953 -8.828,-8.828l0,0c0,-4.875 3.953,-8.828 8.828,-8.828l264.827,0c4.875,0 8.828,3.953 8.828,8.828l0,0c0,4.876 -3.953,8.828 -8.828,8.828z"/>
  <g id="svg_19"/>
  <g id="svg_20"/>
  <g id="svg_21"/>
  <g id="svg_22"/>
  <g id="svg_23"/>
  <g id="svg_24"/>
  <g id="svg_25"/>
  <g id="svg_26"/>
  <g id="svg_27"/>
  <g id="svg_28"/>
  <g id="svg_29"/>
  <g id="svg_30"/>
  <g id="svg_31"/>
  <g id="svg_32"/>
  <g id="svg_33"/>
  <g stroke="null" id="svg_61">
   <path stroke="null" id="svg_38" fill="#FFDC64" d="m82.730147,26.001695l-21.912931,-1.960389l-8.704484,-19.496893c-0.609507,-1.365192 -2.616129,-1.365192 -3.225473,0l-8.704484,19.496735l-21.912931,1.960547c-1.534418,0.137183 -2.154411,1.97809 -0.996839,2.959075l16.533374,14.010048l-4.838537,20.708466c-0.338834,1.450062 1.284717,2.587669 2.609576,1.828896l18.922577,-10.838087l18.922577,10.838087c1.325023,0.758932 2.948245,-0.378834 2.609576,-1.828896l-4.838701,-20.708466l16.533538,-14.010048c1.157572,-0.980985 0.537415,-2.821892 -0.996839,-2.959075z"/>
   <g stroke="null" transform="matrix(0.1638460212207826,0,0,0.15804490315113573,-4.060500932940499,-2.86155012429532) " id="svg_39">
    <path stroke="null" id="svg_40" fill="#FFF082" d="m196.276535,42.612882c6.818,9.47 26.062,50.14 37.064,73.842c1.73,3.726 -2.945,7.092 -5.93,4.269c-18.987,-17.952 -51.452,-49.104 -58.27,-58.575c-5.395,-7.493 -3.694,-17.941 3.8,-23.336c7.493,-5.395 17.941,-3.693 23.336,3.8z"/>
    <path stroke="null" id="svg_41" fill="#FFF082" d="m469.720535,42.612882c-6.818,9.47 -26.062,50.14 -37.064,73.842c-1.73,3.726 2.945,7.092 5.93,4.269c18.987,-17.952 51.451,-49.105 58.27,-58.575c5.395,-7.493 3.694,-17.941 -3.8,-23.336c-7.493,-5.395 -17.941,-3.693 -23.336,3.8z"/>
    <path stroke="null" id="svg_42" fill="#FFF082" d="m577.459535,320.318882c-11.094,-3.618 -55.689,-9.595 -81.612,-12.875c-4.075,-0.516 -5.861,4.961 -2.266,6.947c22.873,12.635 62.416,34.099 73.51,37.717c8.778,2.863 18.215,-1.932 21.078,-10.711c2.863,-8.779 -1.932,-18.215 -10.71,-21.078z"/>
    <path stroke="null" id="svg_43" fill="#FFF082" d="m88.537535,320.318882c11.094,-3.618 55.689,-9.595 81.612,-12.875c4.075,-0.516 5.861,4.961 2.266,6.947c-22.873,12.635 -62.416,34.099 -73.51,37.717c-8.778,2.863 -18.215,-1.932 -21.078,-10.711s1.932,-18.215 10.71,-21.078z"/>
    <path stroke="null" id="svg_44" fill="#FFF082" d="m316.792535,508.999882c0,-11.669 8.145,-55.919 13.065,-81.582c0.773,-4.034 6.534,-4.034 7.307,0c4.92,25.663 13.065,69.913 13.065,81.582c0,9.233 -7.485,16.718 -16.718,16.718c-9.234,0.001 -16.719,-7.485 -16.719,-16.718z"/>
   </g>
   <path stroke="null" id="svg_45" fill="#FFC850" d="m55.27791,11.634307l-3.165341,-7.089894c-0.609507,-1.365192 -2.616129,-1.365192 -3.225473,0l-8.704484,19.496735l-21.912767,1.960547c-1.534418,0.137183 -2.154411,1.97809 -0.996839,2.959075l16.533374,14.010048l-4.838537,20.708466c-0.338834,1.450062 1.284717,2.587669 2.609576,1.828896l2.518477,-1.442476c4.128756,-25.780285 15.735936,-44.704897 21.182014,-52.431397z"/>
   <g stroke="null" transform="matrix(0.1638460212207826,0,0,0.15804490315113573,-4.060500932940499,-2.86155012429532) " id="svg_46"/>
   <g stroke="null" transform="matrix(0.1638460212207826,0,0,0.15804490315113573,-4.060500932940499,-2.86155012429532) " id="svg_47"/>
   <g stroke="null" transform="matrix(0.1638460212207826,0,0,0.15804490315113573,-4.060500932940499,-2.86155012429532) " id="svg_48"/>
   <g stroke="null" transform="matrix(0.1638460212207826,0,0,0.15804490315113573,-4.060500932940499,-2.86155012429532) " id="svg_49"/>
   <g stroke="null" transform="matrix(0.1638460212207826,0,0,0.15804490315113573,-4.060500932940499,-2.86155012429532) " id="svg_50"/>
   <g stroke="null" transform="matrix(0.1638460212207826,0,0,0.15804490315113573,-4.060500932940499,-2.86155012429532) " id="svg_51"/>
   <g stroke="null" transform="matrix(0.1638460212207826,0,0,0.15804490315113573,-4.060500932940499,-2.86155012429532) " id="svg_52"/>
   <g stroke="null" transform="matrix(0.1638460212207826,0,0,0.15804490315113573,-4.060500932940499,-2.86155012429532) " id="svg_53"/>
   <g stroke="null" transform="matrix(0.1638460212207826,0,0,0.15804490315113573,-4.060500932940499,-2.86155012429532) " id="svg_54"/>
   <g stroke="null" transform="matrix(0.1638460212207826,0,0,0.15804490315113573,-4.060500932940499,-2.86155012429532) " id="svg_55"/>
   <g stroke="null" transform="matrix(0.1638460212207826,0,0,0.15804490315113573,-4.060500932940499,-2.86155012429532) " id="svg_56"/>
   <g stroke="null" transform="matrix(0.1638460212207826,0,0,0.15804490315113573,-4.060500932940499,-2.86155012429532) " id="svg_57"/>
   <g stroke="null" transform="matrix(0.1638460212207826,0,0,0.15804490315113573,-4.060500932940499,-2.86155012429532) " id="svg_58"/>
   <g stroke="null" transform="matrix(0.1638460212207826,0,0,0.15804490315113573,-4.060500932940499,-2.86155012429532) " id="svg_59"/>
   <g stroke="null" transform="matrix(0.1638460212207826,0,0,0.15804490315113573,-4.060500932940499,-2.86155012429532) " id="svg_60"/>
  </g>
  <g stroke="null" id="svg_85">
   <path stroke="null" id="svg_62" fill="#FFDC64" d="m158.730147,26.001695l-21.912931,-1.960389l-8.704483,-19.496893c-0.609508,-1.365192 -2.61613,-1.365192 -3.225473,0l-8.704484,19.496735l-21.912931,1.960547c-1.534418,0.137183 -2.154411,1.97809 -0.996839,2.959075l16.533375,14.010048l-4.838537,20.708466c-0.338834,1.450062 1.284716,2.587669 2.609575,1.828896l18.922577,-10.838088l18.922577,10.838088c1.325023,0.758931 2.948246,-0.378834 2.609576,-1.828896l-4.838701,-20.708466l16.533538,-14.010048c1.157572,-0.980985 0.537415,-2.821892 -0.996839,-2.959075z"/>
   <g stroke="null" transform="matrix(0.1638460212207826,0,0,0.15804490315113573,-4.060500932940499,-2.86155012429532) " id="svg_68">
    <path stroke="null" id="svg_63" fill="#FFF082" d="m660.126663,42.612882c6.818,9.47 26.062,50.14 37.064,73.842c1.73,3.726 -2.945,7.092 -5.93,4.269c-18.987,-17.952 -51.452,-49.104 -58.27,-58.575c-5.395,-7.493 -3.694,-17.941 3.8,-23.336c7.493,-5.395 17.941,-3.693 23.336,3.8z"/>
    <path stroke="null" id="svg_64" fill="#FFF082" d="m933.570663,42.612882c-6.818,9.47 -26.062,50.14 -37.064,73.842c-1.73,3.726 2.945,7.092 5.93,4.269c18.987,-17.952 51.451,-49.105 58.27,-58.575c5.395,-7.493 3.694,-17.941 -3.8,-23.336c-7.493,-5.395 -17.941,-3.693 -23.336,3.8z"/>
    <path stroke="null" id="svg_65" fill="#FFF082" d="m1041.309663,320.318882c-11.094,-3.618 -55.689,-9.595 -81.612,-12.875c-4.075,-0.516 -5.861,4.961 -2.266,6.947c22.873,12.635 62.416,34.099 73.51,37.717c8.778,2.863 18.215,-1.932 21.078,-10.711c2.863,-8.779 -1.932,-18.215 -10.71,-21.078z"/>
    <path stroke="null" id="svg_66" fill="#FFF082" d="m552.387663,320.318882c11.094,-3.618 55.689,-9.595 81.612,-12.875c4.075,-0.516 5.861,4.961 2.266,6.947c-22.873,12.635 -62.416,34.099 -73.51,37.717c-8.778,2.863 -18.215,-1.932 -21.078,-10.711s1.932,-18.215 10.71,-21.078z"/>
    <path stroke="null" id="svg_67" fill="#FFF082" d="m780.642663,508.999882c0,-11.669 8.145,-55.919 13.065,-81.582c0.773,-4.034 6.534,-4.034 7.307,0c4.92,25.663 13.065,69.913 13.065,81.582c0,9.233 -7.485,16.718 -16.718,16.718c-9.234,0.001 -16.719,-7.485 -16.719,-16.718z"/>
   </g>
   <path stroke="null" id="svg_69" fill="#FFC850" d="m131.27791,11.634307l-3.165341,-7.089894c-0.609507,-1.365192 -2.61613,-1.365192 -3.225473,0l-8.704484,19.496735l-21.912767,1.960547c-1.534418,0.137183 -2.154411,1.97809 -0.996839,2.959075l16.533375,14.010048l-4.838537,20.708466c-0.338834,1.450062 1.284716,2.587669 2.609575,1.828896l2.518477,-1.442476c4.128756,-25.780285 15.735936,-44.704898 21.182014,-52.431397z"/>
   <g stroke="null" transform="matrix(0.1638460212207826,0,0,0.15804490315113573,-4.060500932940499,-2.86155012429532) " id="svg_70"/>
   <g stroke="null" transform="matrix(0.1638460212207826,0,0,0.15804490315113573,-4.060500932940499,-2.86155012429532) " id="svg_71"/>
   <g stroke="null" transform="matrix(0.1638460212207826,0,0,0.15804490315113573,-4.060500932940499,-2.86155012429532) " id="svg_72"/>
   <g stroke="null" transform="matrix(0.1638460212207826,0,0,0.15804490315113573,-4.060500932940499,-2.86155012429532) " id="svg_73"/>
   <g stroke="null" transform="matrix(0.1638460212207826,0,0,0.15804490315113573,-4.060500932940499,-2.86155012429532) " id="svg_74"/>
   <g stroke="null" transform="matrix(0.1638460212207826,0,0,0.15804490315113573,-4.060500932940499,-2.86155012429532) " id="svg_75"/>
   <g stroke="null" transform="matrix(0.1638460212207826,0,0,0.15804490315113573,-4.060500932940499,-2.86155012429532) " id="svg_76"/>
   <g stroke="null" transform="matrix(0.1638460212207826,0,0,0.15804490315113573,-4.060500932940499,-2.86155012429532) " id="svg_77"/>
   <g stroke="null" transform="matrix(0.1638460212207826,0,0,0.15804490315113573,-4.060500932940499,-2.86155012429532) " id="svg_78"/>
   <g stroke="null" transform="matrix(0.1638460212207826,0,0,0.15804490315113573,-4.060500932940499,-2.86155012429532) " id="svg_79"/>
   <g stroke="null" transform="matrix(0.1638460212207826,0,0,0.15804490315113573,-4.060500932940499,-2.86155012429532) " id="svg_80"/>
   <g stroke="null" transform="matrix(0.1638460212207826,0,0,0.15804490315113573,-4.060500932940499,-2.86155012429532) " id="svg_81"/>
   <g stroke="null" transform="matrix(0.1638460212207826,0,0,0.15804490315113573,-4.060500932940499,-2.86155012429532) " id="svg_82"/>
   <g stroke="null" transform="matrix(0.1638460212207826,0,0,0.15804490315113573,-4.060500932940499,-2.86155012429532) " id="svg_83"/>
   <g stroke="null" transform="matrix(0.1638460212207826,0,0,0.15804490315113573,-4.060500932940499,-2.86155012429532) " id="svg_84"/>
  </g>
 </g>
</svg>