<svg width="512" height="582" xmlns="http://www.w3.org/2000/svg">

 <g>
  <title>background</title>
  <rect fill="none" id="canvas_background" height="584" width="514" y="-1" x="-1"/>
 </g>
 <g>
  <title>Layer 1</title>
  <path id="svg_1" fill="#CBCDD1" d="m419.31,386.793c-19.421,0 -35.31,-15.89 -35.31,-35.31c0,-5.297 3.531,-8.828 8.828,-8.828s8.828,3.531 8.828,8.828c0,9.71 7.945,17.655 17.655,17.655s17.655,-7.945 17.655,-17.655s-7.945,-17.655 -17.655,-17.655c-2.648,0 -4.414,-0.883 -6.179,-2.648c-1.766,-1.766 -2.648,-3.531 -2.648,-6.179l0,-203.035c0,-5.297 3.531,-8.828 8.828,-8.828l0,0c5.297,0 8.828,3.531 8.828,8.828l0,195.09c15.007,3.531 26.483,17.655 26.483,34.428c-0.002,19.419 -15.892,35.309 -35.313,35.309"/>
  <path id="svg_2" fill="#FEC24C" d="m395.476,95.483l-189.793,203.034l61.793,0c6.179,0 12.359,0.883 17.655,2.648l134.179,-179.2c-13.241,-0.882 -23.834,-12.358 -23.834,-26.482"/>
  <path id="svg_3" fill="#535353" d="m379.586,581l-273.655,0c-26.483,0 -48.552,-22.069 -48.552,-48.552l0,0c0,-26.483 22.069,-48.552 48.552,-48.552l273.655,0c26.483,0 48.552,22.069 48.552,48.552l0,0c0,26.483 -22.069,48.552 -48.552,48.552"/>
  <g id="svg_4">
   <path id="svg_5" fill="#A2A2A2" d="m136.828,532.448c0,-12.359 -9.71,-22.069 -22.069,-22.069s-22.069,9.71 -22.069,22.069s9.71,22.069 22.069,22.069s22.069,-9.71 22.069,-22.069"/>
   <path id="svg_6" fill="#A2A2A2" d="m392.828,532.448c0,-12.359 -9.71,-22.069 -22.069,-22.069c-12.359,0 -22.069,9.71 -22.069,22.069s9.71,22.069 22.069,22.069c12.358,0 22.069,-9.71 22.069,-22.069"/>
  </g>
  <path id="svg_7" fill="#BC8D2F" d="m198.621,483.897l88.276,0l0,-26.483l-88.276,0l0,26.483z"/>
  <path id="svg_8" fill="#FEC24C" d="m180.966,316.172l0,70.621l-96.221,0c-15.007,0 -27.366,12.359 -27.366,27.366l0,43.255l123.586,0l141.241,0l0,-104.166c0,-7.062 -0.883,-14.124 -3.531,-20.303c-7.945,-21.186 -28.248,-34.428 -51.2,-34.428l-68.855,0c-9.71,0 -17.654,7.945 -17.654,17.655"/>
  <g id="svg_9">
   <path id="svg_10" fill="#BC8D2F" d="m84.745,386.793c-15.007,0 -27.366,12.359 -27.366,27.366l0,7.945l44.138,0c15.007,0 26.483,-12.359 26.483,-26.483l0,-8.828l-43.255,0z"/>
   <path id="svg_11" fill="#BC8D2F" d="m265.71,298.517l-40.607,0l0,63.559c0,15.007 9.71,28.248 23.834,33.545l73.269,26.483l0,-68.855c0,-17.655 -8.828,-34.428 -23.835,-45.903c-9.709,-6.18 -21.185,-8.829 -32.661,-8.829"/>
  </g>
  <path id="svg_12" fill="#CBCDD1" d="m348.69,532.448c0,-10.593 7.945,-19.421 17.655,-22.069l0,0l-123.586,0l-123.587,0l0,0c9.71,1.766 17.655,10.593 17.655,22.069s-7.945,19.421 -17.655,22.069l0,0l123.586,0l123.586,0l0,0c-9.71,-2.648 -17.654,-11.476 -17.654,-22.069"/>
  <g id="svg_13">
   <path id="svg_14" fill="#BC8D2F" d="m448.441,95.483c0,-15.007 -11.475,-26.483 -26.482,-26.483s-26.483,11.476 -26.483,26.483s11.476,26.483 26.483,26.483c14.124,0 26.482,-11.476 26.482,-26.483"/>
   <path id="svg_15" fill="#BC8D2F" d="m390.179,160.807l-3.531,-47.669c0,-2.648 -0.883,-4.414 -2.648,-5.297l-14.124,15.007l3.531,40.607l-46.786,6.179l-17.655,19.421l3.531,56.497l-64.441,8.828l-15.89,16.772c1.766,1.766 3.531,2.648 6.179,2.648l0.883,0l75.035,-9.71l15.007,-20.303l-3.531,-54.731l49.434,-6.179l15.006,-22.07z"/>
  </g>
  <path id="svg_16" fill="#A2A2A2" d="m436.966,307.345l-35.31,0c-5.297,0 -8.828,-3.531 -8.828,-8.828s3.531,-8.828 8.828,-8.828l35.31,0c5.297,0 8.828,3.531 8.828,8.828s-3.532,8.828 -8.828,8.828"/>
  <g id="svg_17"/>
  <g id="svg_18"/>
  <g id="svg_19"/>
  <g id="svg_20"/>
  <g id="svg_21"/>
  <g id="svg_22"/>
  <g id="svg_23"/>
  <g id="svg_24"/>
  <g id="svg_25"/>
  <g id="svg_26"/>
  <g id="svg_27"/>
  <g id="svg_28"/>
  <g id="svg_29"/>
  <g id="svg_30"/>
  <g id="svg_31"/>
  <g stroke="null" id="svg_59">
   <path stroke="null" id="svg_36" fill="#FFDC64" d="m95.346738,32.518776l-25.731596,-2.337698l-10.221374,-23.249394c-0.715723,-1.627946 -3.07203,-1.627946 -3.787561,0l-10.221374,23.249206l-25.731596,2.337887c-1.801814,0.163586 -2.529851,2.358806 -1.170554,3.528598l19.414569,16.706515l-5.681726,24.694154c-0.397881,1.72915 1.508598,3.085709 3.064334,2.180897l22.220127,-12.924057l22.220127,12.924057c1.555928,0.905001 3.462022,-0.451746 3.064334,-2.180897l-5.681919,-24.694154l19.414762,-16.706515c1.359297,-1.169792 0.631068,-3.365012 -1.170554,-3.528598z"/>
   <g stroke="null" transform="matrix(0.19239871191742797,0,0,0.18846326870464808,-2.8044608144571157,-1.820202962413532) " id="svg_37">
    <path stroke="null" id="svg_38" fill="#FFF082" d="m176.712814,42.191145c6.818,9.47 26.062,50.14 37.064,73.842c1.73,3.726 -2.945,7.092 -5.93,4.269c-18.987,-17.952 -51.452,-49.104 -58.27,-58.575c-5.395,-7.493 -3.694,-17.941 3.8,-23.336c7.493,-5.395 17.941,-3.693 23.336,3.8z"/>
    <path stroke="null" id="svg_39" fill="#FFF082" d="m450.156814,42.191145c-6.818,9.47 -26.062,50.14 -37.064,73.842c-1.73,3.726 2.945,7.092 5.93,4.269c18.987,-17.952 51.451,-49.105 58.27,-58.575c5.395,-7.493 3.694,-17.941 -3.8,-23.336c-7.493,-5.395 -17.941,-3.693 -23.336,3.8z"/>
    <path stroke="null" id="svg_40" fill="#FFF082" d="m557.895814,319.897145c-11.094,-3.618 -55.689,-9.595 -81.612,-12.875c-4.075,-0.516 -5.861,4.961 -2.266,6.947c22.873,12.635 62.416,34.099 73.51,37.717c8.778,2.863 18.215,-1.932 21.078,-10.711c2.863,-8.779 -1.932,-18.215 -10.71,-21.078z"/>
    <path stroke="null" id="svg_41" fill="#FFF082" d="m68.973814,319.897145c11.094,-3.618 55.689,-9.595 81.612,-12.875c4.075,-0.516 5.861,4.961 2.266,6.947c-22.873,12.635 -62.416,34.099 -73.51,37.717c-8.778,2.863 -18.215,-1.932 -21.078,-10.711s1.932,-18.215 10.71,-21.078z"/>
    <path stroke="null" id="svg_42" fill="#FFF082" d="m297.228814,508.578145c0,-11.669 8.145,-55.919 13.065,-81.582c0.773,-4.034 6.534,-4.034 7.307,0c4.92,25.663 13.065,69.913 13.065,81.582c0,9.233 -7.485,16.718 -16.718,16.718c-9.234,0.001 -16.719,-7.485 -16.719,-16.718z"/>
   </g>
   <path stroke="null" id="svg_43" fill="#FFC850" d="m63.110527,15.386146l-3.716951,-8.454462c-0.715723,-1.627946 -3.07203,-1.627946 -3.787561,0l-10.221374,23.249206l-25.731404,2.337887c-1.801814,0.163586 -2.529851,2.358806 -1.170554,3.528598l19.414569,16.706515l-5.681726,24.694154c-0.397881,1.72915 1.508598,3.085709 3.064334,2.180897l2.957361,-1.720104c4.848255,-30.742128 18.478165,-53.309097 24.873305,-62.522689z"/>
   <g stroke="null" transform="matrix(0.19239871191742797,0,0,0.18846326870464808,-2.8044608144571157,-1.820202962413532) " id="svg_44"/>
   <g stroke="null" transform="matrix(0.19239871191742797,0,0,0.18846326870464808,-2.8044608144571157,-1.820202962413532) " id="svg_45"/>
   <g stroke="null" transform="matrix(0.19239871191742797,0,0,0.18846326870464808,-2.8044608144571157,-1.820202962413532) " id="svg_46"/>
   <g stroke="null" transform="matrix(0.19239871191742797,0,0,0.18846326870464808,-2.8044608144571157,-1.820202962413532) " id="svg_47"/>
   <g stroke="null" transform="matrix(0.19239871191742797,0,0,0.18846326870464808,-2.8044608144571157,-1.820202962413532) " id="svg_48"/>
   <g stroke="null" transform="matrix(0.19239871191742797,0,0,0.18846326870464808,-2.8044608144571157,-1.820202962413532) " id="svg_49"/>
   <g stroke="null" transform="matrix(0.19239871191742797,0,0,0.18846326870464808,-2.8044608144571157,-1.820202962413532) " id="svg_50"/>
   <g stroke="null" transform="matrix(0.19239871191742797,0,0,0.18846326870464808,-2.8044608144571157,-1.820202962413532) " id="svg_51"/>
   <g stroke="null" transform="matrix(0.19239871191742797,0,0,0.18846326870464808,-2.8044608144571157,-1.820202962413532) " id="svg_52"/>
   <g stroke="null" transform="matrix(0.19239871191742797,0,0,0.18846326870464808,-2.8044608144571157,-1.820202962413532) " id="svg_53"/>
   <g stroke="null" transform="matrix(0.19239871191742797,0,0,0.18846326870464808,-2.8044608144571157,-1.820202962413532) " id="svg_54"/>
   <g stroke="null" transform="matrix(0.19239871191742797,0,0,0.18846326870464808,-2.8044608144571157,-1.820202962413532) " id="svg_55"/>
   <g stroke="null" transform="matrix(0.19239871191742797,0,0,0.18846326870464808,-2.8044608144571157,-1.820202962413532) " id="svg_56"/>
   <g stroke="null" transform="matrix(0.19239871191742797,0,0,0.18846326870464808,-2.8044608144571157,-1.820202962413532) " id="svg_57"/>
   <g stroke="null" transform="matrix(0.19239871191742797,0,0,0.18846326870464808,-2.8044608144571157,-1.820202962413532) " id="svg_58"/>
  </g>
  <g stroke="null" id="svg_83">
   <path stroke="null" id="svg_60" fill="#FFDC64" d="m191.346738,31.518776l-25.731596,-2.337699l-10.221374,-23.249394c-0.715723,-1.627945 -3.07203,-1.627945 -3.787561,0l-10.221374,23.249206l-25.731596,2.337887c-1.801814,0.163586 -2.529851,2.358806 -1.170554,3.528598l19.41457,16.706515l-5.681727,24.694153c-0.39788,1.729151 1.508599,3.085709 3.064334,2.180897l22.220128,-12.924057l22.220127,12.924057c1.555928,0.905001 3.462022,-0.451746 3.064334,-2.180897l-5.681919,-24.694153l19.414762,-16.706515c1.359297,-1.169792 0.631068,-3.365012 -1.170554,-3.528598z"/>
   <g stroke="null" transform="matrix(0.19239871191742797,0,0,0.18846326870464808,-2.8044608144571157,-1.820202962413532) " id="svg_66">
    <path stroke="null" id="svg_61" fill="#FFF082" d="m675.676651,36.885071c6.818,9.47 26.062,50.14 37.064,73.842c1.73,3.726 -2.945,7.092 -5.93,4.269c-18.987,-17.952 -51.452,-49.104 -58.27,-58.575c-5.395,-7.493 -3.694,-17.941 3.8,-23.336c7.493,-5.395 17.941,-3.693 23.336,3.8z"/>
    <path stroke="null" id="svg_62" fill="#FFF082" d="m949.120651,36.885071c-6.818,9.47 -26.062,50.14 -37.064,73.842c-1.73,3.726 2.945,7.092 5.93,4.269c18.987,-17.952 51.451,-49.105 58.27,-58.575c5.395,-7.493 3.694,-17.941 -3.8,-23.336c-7.493,-5.395 -17.941,-3.693 -23.336,3.8z"/>
    <path stroke="null" id="svg_63" fill="#FFF082" d="m1056.859651,314.591071c-11.094,-3.618 -55.689,-9.595 -81.612,-12.875c-4.075,-0.516 -5.861,4.961 -2.266,6.947c22.873,12.635 62.416,34.099 73.51,37.717c8.778,2.863 18.215,-1.932 21.078,-10.711c2.863,-8.779 -1.932,-18.215 -10.71,-21.078z"/>
    <path stroke="null" id="svg_64" fill="#FFF082" d="m567.937651,314.591071c11.094,-3.618 55.689,-9.595 81.612,-12.875c4.075,-0.516 5.861,4.961 2.266,6.947c-22.873,12.635 -62.416,34.099 -73.51,37.717c-8.778,2.863 -18.215,-1.932 -21.078,-10.711s1.932,-18.215 10.71,-21.078z"/>
    <path stroke="null" id="svg_65" fill="#FFF082" d="m796.192651,503.272071c0,-11.669 8.145,-55.919 13.065,-81.582c0.773,-4.034 6.534,-4.034 7.307,0c4.92,25.663 13.065,69.913 13.065,81.582c0,9.233 -7.485,16.718 -16.718,16.718c-9.234,0.001 -16.719,-7.485 -16.719,-16.718z"/>
   </g>
   <path stroke="null" id="svg_67" fill="#FFC850" d="m159.110527,14.386146l-3.716951,-8.454463c-0.715723,-1.627945 -3.07203,-1.627945 -3.787561,0l-10.221374,23.249206l-25.731404,2.337887c-1.801814,0.163586 -2.529851,2.358806 -1.170554,3.528598l19.41457,16.706515l-5.681727,24.694153c-0.39788,1.729151 1.508599,3.085709 3.064334,2.180897l2.957361,-1.720104c4.848255,-30.742128 18.478165,-53.309097 24.873306,-62.522689z"/>
   <g stroke="null" transform="matrix(0.19239871191742797,0,0,0.18846326870464808,-2.8044608144571157,-1.820202962413532) " id="svg_68"/>
   <g stroke="null" transform="matrix(0.19239871191742797,0,0,0.18846326870464808,-2.8044608144571157,-1.820202962413532) " id="svg_69"/>
   <g stroke="null" transform="matrix(0.19239871191742797,0,0,0.18846326870464808,-2.8044608144571157,-1.820202962413532) " id="svg_70"/>
   <g stroke="null" transform="matrix(0.19239871191742797,0,0,0.18846326870464808,-2.8044608144571157,-1.820202962413532) " id="svg_71"/>
   <g stroke="null" transform="matrix(0.19239871191742797,0,0,0.18846326870464808,-2.8044608144571157,-1.820202962413532) " id="svg_72"/>
   <g stroke="null" transform="matrix(0.19239871191742797,0,0,0.18846326870464808,-2.8044608144571157,-1.820202962413532) " id="svg_73"/>
   <g stroke="null" transform="matrix(0.19239871191742797,0,0,0.18846326870464808,-2.8044608144571157,-1.820202962413532) " id="svg_74"/>
   <g stroke="null" transform="matrix(0.19239871191742797,0,0,0.18846326870464808,-2.8044608144571157,-1.820202962413532) " id="svg_75"/>
   <g stroke="null" transform="matrix(0.19239871191742797,0,0,0.18846326870464808,-2.8044608144571157,-1.820202962413532) " id="svg_76"/>
   <g stroke="null" transform="matrix(0.19239871191742797,0,0,0.18846326870464808,-2.8044608144571157,-1.820202962413532) " id="svg_77"/>
   <g stroke="null" transform="matrix(0.19239871191742797,0,0,0.18846326870464808,-2.8044608144571157,-1.820202962413532) " id="svg_78"/>
   <g stroke="null" transform="matrix(0.19239871191742797,0,0,0.18846326870464808,-2.8044608144571157,-1.820202962413532) " id="svg_79"/>
   <g stroke="null" transform="matrix(0.19239871191742797,0,0,0.18846326870464808,-2.8044608144571157,-1.820202962413532) " id="svg_80"/>
   <g stroke="null" transform="matrix(0.19239871191742797,0,0,0.18846326870464808,-2.8044608144571157,-1.820202962413532) " id="svg_81"/>
   <g stroke="null" transform="matrix(0.19239871191742797,0,0,0.18846326870464808,-2.8044608144571157,-1.820202962413532) " id="svg_82"/>
  </g>
 </g>
</svg>