<svg width="480" height="480" xmlns="http://www.w3.org/2000/svg">

 <g>
  <title>background</title>
  <rect fill="none" id="canvas_background" height="443" width="587" y="-1" x="-1"/>
 </g>
 <g>
  <title>Layer 1</title>
  <path id="svg_1" fill="#808080" d="m83.408,187.928l-57.92,-34l16,-16l97.752,16.296l-55.832,33.704z"/>
  <path id="svg_2" fill="#CCCCCC" d="m220.44,105.928l-102.504,-72.608l36.176,-23.392l139.824,54.448l-73.496,41.552z"/>
  <path id="svg_3" fill="#F2F2F2" d="m468.952,9.816l-25.944,-2.88l-1.968,5.6c-0.117,0.319 -0.25,0.631 -0.4,0.936c-8.259,13.601 -21.333,23.597 -36.624,28l-7.592,2.536l-5.056,-15.2l7.584,-2.52c11.105,-3.148 20.74,-10.122 27.2,-19.688l0.184,-0.528c-23.528,0.108 -46.627,6.316 -67.04,18.016l-280.2,164.464c-5.406,3.183 -7.208,10.147 -4.025,15.553c2.103,3.572 5.986,5.715 10.129,5.591l18.8,0.232l41.488,-8.96c31.418,-9.754 62.28,-21.216 92.448,-34.336l75.552,-36.704c6.48,-3.528 9.376,-5.6 15.768,-9.296l106.608,-61.504c1.365,-0.793 2.531,-1.887 3.408,-3.2l30.12,-45.2c0.171,-0.289 0.075,-0.662 -0.213,-0.833c-0.07,-0.041 -0.147,-0.068 -0.227,-0.079z"/>
  <path id="svg_4" fill="#29ABE2" d="m398.952,26.344l-7.584,2.52l5.056,15.2l7.592,-2.536c15.291,-4.403 28.365,-14.399 36.624,-28c0.15,-0.305 0.283,-0.617 0.4,-0.936l1.968,-5.6l-0.8,-0.088c-5.278,-0.547 -10.583,-0.787 -15.888,-0.72l-0.184,0.528c-6.466,9.542 -16.093,16.495 -27.184,19.632z"/>
  <path id="svg_5" fill="#B3B3B3" d="m296,393.928l160,0l0,72l-160,0l0,-72z"/>
  <path id="svg_6" fill="#29485A" d="m296,393.928l160,0c0,-30.928 -25.072,-56 -56,-56l-48,0c-30.928,0 -56,25.072 -56,56z"/>
  <path id="svg_7" fill="#0378A3" d="m344,425.928l64,0l0,40l-64,0l0,-40z"/>
  <path id="svg_8" fill="#8C6239" d="m24,377.928l88,0l0,88l-88,0l0,-88z"/>
  <path id="svg_9" fill="#C69C6D" d="m64,289.928l88,0l0,88l-88,0l0,-88z"/>
  <g id="svg_10">
   <path id="svg_11" fill="#A67C52" d="m112,377.928l88,0l0,88l-88,0l0,-88z"/>
   <path id="svg_12" fill="#A67C52" d="m96,289.928l24,0l0,24l-24,0l0,-24z"/>
  </g>
  <g id="svg_13">
   <path id="svg_14" fill="#C69C6D" d="m56,377.928l24,0l0,24l-24,0l0,-24z"/>
   <path id="svg_15" fill="#C69C6D" d="m144,377.928l24,0l0,24l-24,0l0,-24z"/>
  </g>
  <path id="svg_16" fill="#29485A" d="m0,457.928l480,0l0,16l-480,0l0,-16z"/>
  <g id="svg_17">
   <path id="svg_18" fill="#CCCCCC" d="m320,97.928l-80,40l0,136l40,-16l40,-160z"/>
   <path id="svg_19" fill="#CCCCCC" d="m161.488,169.928l-48,24l-16,64l24,-8l40,-80z"/>
  </g>
  <g id="svg_20"/>
  <g id="svg_21"/>
  <g id="svg_22"/>
  <g id="svg_23"/>
  <g id="svg_24"/>
  <g id="svg_25"/>
  <g id="svg_26"/>
  <g id="svg_27"/>
  <g id="svg_28"/>
  <g id="svg_29"/>
  <g id="svg_30"/>
  <g id="svg_31"/>
  <g id="svg_32"/>
  <g id="svg_33"/>
  <g id="svg_34"/>
  <g stroke="null" id="svg_62">
   <path stroke="null" id="svg_39" fill="#FFDC64" d="m77.620234,24.820599l-21.158306,-1.920051l-8.404724,-19.095712c-0.588517,-1.337101 -2.526037,-1.337101 -3.114396,0l-8.404724,19.095558l-21.158306,1.920206c-1.481577,0.13436 -2.080219,1.937388 -0.962511,2.898187l15.964008,13.721768l-4.67191,20.282355c-0.327165,1.420225 1.240474,2.534424 2.519709,1.791263l18.270932,-10.615076l18.270932,10.615076c1.279392,0.743315 2.846715,-0.371039 2.519709,-1.791263l-4.672068,-20.282355l15.964166,-13.721768c1.117708,-0.960799 0.518908,-2.763827 -0.962511,-2.898187z"/>
   <g stroke="null" transform="matrix(0.1582035878315496,0,0,0.1547928671227715,-3.7199555669302473,-2.354965228104832) " id="svg_40">
    <path stroke="null" id="svg_41" fill="#FFF082" d="m180.716721,35.546808c6.818,9.47 26.062,50.14 37.064,73.842c1.73,3.726 -2.945,7.092 -5.93,4.269c-18.987,-17.952 -51.452,-49.104 -58.27,-58.575c-5.395,-7.493 -3.694,-17.941 3.8,-23.336c7.493,-5.395 17.941,-3.693 23.336,3.8z"/>
    <path stroke="null" id="svg_42" fill="#FFF082" d="m454.160721,35.546808c-6.818,9.47 -26.062,50.14 -37.064,73.842c-1.73,3.726 2.945,7.092 5.93,4.269c18.987,-17.952 51.451,-49.105 58.27,-58.575c5.395,-7.493 3.694,-17.941 -3.8,-23.336c-7.493,-5.395 -17.941,-3.693 -23.336,3.8z"/>
    <path stroke="null" id="svg_43" fill="#FFF082" d="m561.899721,313.252808c-11.094,-3.618 -55.689,-9.595 -81.612,-12.875c-4.075,-0.516 -5.861,4.961 -2.266,6.947c22.873,12.635 62.416,34.099 73.51,37.717c8.778,2.863 18.215,-1.932 21.078,-10.711c2.863,-8.779 -1.932,-18.215 -10.71,-21.078z"/>
    <path stroke="null" id="svg_44" fill="#FFF082" d="m72.977721,313.252808c11.094,-3.618 55.689,-9.595 81.612,-12.875c4.075,-0.516 5.861,4.961 2.266,6.947c-22.873,12.635 -62.416,34.099 -73.51,37.717c-8.778,2.863 -18.215,-1.932 -21.078,-10.711s1.932,-18.215 10.71,-21.078z"/>
    <path stroke="null" id="svg_45" fill="#FFF082" d="m301.232721,501.933808c0,-11.669 8.145,-55.919 13.065,-81.582c0.773,-4.034 6.534,-4.034 7.307,0c4.92,25.663 13.065,69.913 13.065,81.582c0,9.233 -7.485,16.718 -16.718,16.718c-9.234,0.001 -16.719,-7.485 -16.719,-16.718z"/>
   </g>
   <path stroke="null" id="svg_46" fill="#FFC850" d="m51.113381,10.748843l-3.056335,-6.944008c-0.588517,-1.337101 -2.526037,-1.337101 -3.114396,0l-8.404724,19.095558l-21.158148,1.920206c-1.481577,0.13436 -2.080219,1.937388 -0.962511,2.898187l15.964008,13.721768l-4.67191,20.282355c-0.327165,1.420225 1.240474,2.534424 2.519709,1.791263l2.431747,-1.412794c3.986572,-25.249812 15.194031,-43.78502 20.45256,-51.352534z"/>
   <g stroke="null" transform="matrix(0.1582035878315496,0,0,0.1547928671227715,-3.7199555669302473,-2.354965228104832) " id="svg_47"/>
   <g stroke="null" transform="matrix(0.1582035878315496,0,0,0.1547928671227715,-3.7199555669302473,-2.354965228104832) " id="svg_48"/>
   <g stroke="null" transform="matrix(0.1582035878315496,0,0,0.1547928671227715,-3.7199555669302473,-2.354965228104832) " id="svg_49"/>
   <g stroke="null" transform="matrix(0.1582035878315496,0,0,0.1547928671227715,-3.7199555669302473,-2.354965228104832) " id="svg_50"/>
   <g stroke="null" transform="matrix(0.1582035878315496,0,0,0.1547928671227715,-3.7199555669302473,-2.354965228104832) " id="svg_51"/>
   <g stroke="null" transform="matrix(0.1582035878315496,0,0,0.1547928671227715,-3.7199555669302473,-2.354965228104832) " id="svg_52"/>
   <g stroke="null" transform="matrix(0.1582035878315496,0,0,0.1547928671227715,-3.7199555669302473,-2.354965228104832) " id="svg_53"/>
   <g stroke="null" transform="matrix(0.1582035878315496,0,0,0.1547928671227715,-3.7199555669302473,-2.354965228104832) " id="svg_54"/>
   <g stroke="null" transform="matrix(0.1582035878315496,0,0,0.1547928671227715,-3.7199555669302473,-2.354965228104832) " id="svg_55"/>
   <g stroke="null" transform="matrix(0.1582035878315496,0,0,0.1547928671227715,-3.7199555669302473,-2.354965228104832) " id="svg_56"/>
   <g stroke="null" transform="matrix(0.1582035878315496,0,0,0.1547928671227715,-3.7199555669302473,-2.354965228104832) " id="svg_57"/>
   <g stroke="null" transform="matrix(0.1582035878315496,0,0,0.1547928671227715,-3.7199555669302473,-2.354965228104832) " id="svg_58"/>
   <g stroke="null" transform="matrix(0.1582035878315496,0,0,0.1547928671227715,-3.7199555669302473,-2.354965228104832) " id="svg_59"/>
   <g stroke="null" transform="matrix(0.1582035878315496,0,0,0.1547928671227715,-3.7199555669302473,-2.354965228104832) " id="svg_60"/>
   <g stroke="null" transform="matrix(0.1582035878315496,0,0,0.1547928671227715,-3.7199555669302473,-2.354965228104832) " id="svg_61"/>
  </g>
  <g stroke="null" id="svg_86">
   <path stroke="null" id="svg_63" fill="#FFDC64" d="m151.620234,25.820599l-21.158306,-1.920051l-8.404724,-19.095713c-0.588517,-1.3371 -2.526037,-1.3371 -3.114396,0l-8.404724,19.095558l-21.158306,1.920206c-1.481576,0.13436 -2.080219,1.937387 -0.96251,2.898186l15.964007,13.721769l-4.67191,20.282355c-0.327165,1.420224 1.240474,2.534423 2.519709,1.791263l18.270932,-10.615076l18.270932,10.615076c1.279393,0.743315 2.846716,-0.371039 2.519709,-1.791263l-4.672068,-20.282355l15.964165,-13.721769c1.117709,-0.960799 0.518908,-2.763826 -0.96251,-2.898186z"/>
   <g stroke="null" transform="matrix(0.1582035878315496,0,0,0.1547928671227715,-3.7199555669302473,-2.354965228104832) " id="svg_69">
    <path stroke="null" id="svg_64" fill="#FFF082" d="m648.46843,42.007054c6.818,9.47 26.062,50.14 37.064,73.842c1.73,3.726 -2.945,7.092 -5.93,4.269c-18.987,-17.952 -51.452,-49.104 -58.27,-58.575c-5.395,-7.493 -3.694,-17.941 3.8,-23.336c7.493,-5.395 17.941,-3.693 23.336,3.8z"/>
    <path stroke="null" id="svg_65" fill="#FFF082" d="m921.91243,42.007054c-6.818,9.47 -26.062,50.14 -37.064,73.842c-1.73,3.726 2.945,7.092 5.93,4.269c18.987,-17.952 51.451,-49.105 58.27,-58.575c5.395,-7.493 3.694,-17.941 -3.8,-23.336c-7.493,-5.395 -17.941,-3.693 -23.336,3.8z"/>
    <path stroke="null" id="svg_66" fill="#FFF082" d="m1029.65143,319.713054c-11.094,-3.618 -55.689,-9.595 -81.612,-12.875c-4.075,-0.516 -5.861,4.961 -2.266,6.947c22.873,12.635 62.416,34.099 73.51,37.717c8.778,2.863 18.215,-1.932 21.078,-10.711c2.863,-8.779 -1.932,-18.215 -10.71,-21.078z"/>
    <path stroke="null" id="svg_67" fill="#FFF082" d="m540.72943,319.713054c11.094,-3.618 55.689,-9.595 81.612,-12.875c4.075,-0.516 5.861,4.961 2.266,6.947c-22.873,12.635 -62.416,34.099 -73.51,37.717c-8.778,2.863 -18.215,-1.932 -21.078,-10.711s1.932,-18.215 10.71,-21.078z"/>
    <path stroke="null" id="svg_68" fill="#FFF082" d="m768.98443,508.394054c0,-11.669 8.145,-55.919 13.065,-81.582c0.773,-4.034 6.534,-4.034 7.307,0c4.92,25.663 13.065,69.913 13.065,81.582c0,9.233 -7.485,16.718 -16.718,16.718c-9.234,0.001 -16.719,-7.485 -16.719,-16.718z"/>
   </g>
   <path stroke="null" id="svg_70" fill="#FFC850" d="m125.113381,11.748843l-3.056335,-6.944008c-0.588518,-1.3371 -2.526037,-1.3371 -3.114396,0l-8.404724,19.095558l-21.158148,1.920206c-1.481576,0.13436 -2.080219,1.937387 -0.96251,2.898186l15.964007,13.721769l-4.67191,20.282355c-0.327165,1.420224 1.240474,2.534423 2.519709,1.791263l2.431747,-1.412795c3.986572,-25.249812 15.194031,-43.78502 20.45256,-51.352534z"/>
   <g stroke="null" transform="matrix(0.1582035878315496,0,0,0.1547928671227715,-3.7199555669302473,-2.354965228104832) " id="svg_71"/>
   <g stroke="null" transform="matrix(0.1582035878315496,0,0,0.1547928671227715,-3.7199555669302473,-2.354965228104832) " id="svg_72"/>
   <g stroke="null" transform="matrix(0.1582035878315496,0,0,0.1547928671227715,-3.7199555669302473,-2.354965228104832) " id="svg_73"/>
   <g stroke="null" transform="matrix(0.1582035878315496,0,0,0.1547928671227715,-3.7199555669302473,-2.354965228104832) " id="svg_74"/>
   <g stroke="null" transform="matrix(0.1582035878315496,0,0,0.1547928671227715,-3.7199555669302473,-2.354965228104832) " id="svg_75"/>
   <g stroke="null" transform="matrix(0.1582035878315496,0,0,0.1547928671227715,-3.7199555669302473,-2.354965228104832) " id="svg_76"/>
   <g stroke="null" transform="matrix(0.1582035878315496,0,0,0.1547928671227715,-3.7199555669302473,-2.354965228104832) " id="svg_77"/>
   <g stroke="null" transform="matrix(0.1582035878315496,0,0,0.1547928671227715,-3.7199555669302473,-2.354965228104832) " id="svg_78"/>
   <g stroke="null" transform="matrix(0.1582035878315496,0,0,0.1547928671227715,-3.7199555669302473,-2.354965228104832) " id="svg_79"/>
   <g stroke="null" transform="matrix(0.1582035878315496,0,0,0.1547928671227715,-3.7199555669302473,-2.354965228104832) " id="svg_80"/>
   <g stroke="null" transform="matrix(0.1582035878315496,0,0,0.1547928671227715,-3.7199555669302473,-2.354965228104832) " id="svg_81"/>
   <g stroke="null" transform="matrix(0.1582035878315496,0,0,0.1547928671227715,-3.7199555669302473,-2.354965228104832) " id="svg_82"/>
   <g stroke="null" transform="matrix(0.1582035878315496,0,0,0.1547928671227715,-3.7199555669302473,-2.354965228104832) " id="svg_83"/>
   <g stroke="null" transform="matrix(0.1582035878315496,0,0,0.1547928671227715,-3.7199555669302473,-2.354965228104832) " id="svg_84"/>
   <g stroke="null" transform="matrix(0.1582035878315496,0,0,0.1547928671227715,-3.7199555669302473,-2.354965228104832) " id="svg_85"/>
  </g>
  <g stroke="null" id="svg_110">
   <path stroke="null" id="svg_87" fill="#FFDC64" d="m225.620234,25.820599l-21.158306,-1.920051l-8.404724,-19.095713c-0.588517,-1.3371 -2.526037,-1.3371 -3.114396,0l-8.404724,19.095558l-21.158306,1.920206c-1.481576,0.13436 -2.080219,1.937387 -0.96251,2.898186l15.964007,13.721769l-4.67191,20.282355c-0.327165,1.420224 1.240474,2.534423 2.519709,1.791263l18.270932,-10.615076l18.270932,10.615076c1.279393,0.743315 2.846716,-0.371039 2.519709,-1.791263l-4.672068,-20.282355l15.964165,-13.721769c1.117709,-0.960799 0.518908,-2.763826 -0.96251,-2.898186z"/>
   <g stroke="null" transform="matrix(0.1582035878315496,0,0,0.1547928671227715,-3.7199555669302473,-2.354965228104832) " id="svg_93">
    <path stroke="null" id="svg_88" fill="#FFF082" d="m1116.220139,42.007054c6.818,9.47 26.062,50.14 37.064,73.842c1.73,3.726 -2.945,7.092 -5.93,4.269c-18.987,-17.952 -51.452,-49.104 -58.27,-58.575c-5.395,-7.493 -3.694,-17.941 3.8,-23.336c7.493,-5.395 17.941,-3.693 23.336,3.8z"/>
    <path stroke="null" id="svg_89" fill="#FFF082" d="m1389.664139,42.007054c-6.818,9.47 -26.062,50.14 -37.064,73.842c-1.73,3.726 2.945,7.092 5.93,4.269c18.987,-17.952 51.451,-49.105 58.27,-58.575c5.395,-7.493 3.694,-17.941 -3.8,-23.336c-7.493,-5.395 -17.941,-3.693 -23.336,3.8z"/>
    <path stroke="null" id="svg_90" fill="#FFF082" d="m1497.403139,319.713054c-11.094,-3.618 -55.689,-9.595 -81.612,-12.875c-4.075,-0.516 -5.861,4.961 -2.266,6.947c22.873,12.635 62.416,34.099 73.51,37.717c8.778,2.863 18.215,-1.932 21.078,-10.711c2.863,-8.779 -1.932,-18.215 -10.71,-21.078z"/>
    <path stroke="null" id="svg_91" fill="#FFF082" d="m1008.481139,319.713054c11.094,-3.618 55.689,-9.595 81.612,-12.875c4.075,-0.516 5.861,4.961 2.266,6.947c-22.873,12.635 -62.416,34.099 -73.51,37.717c-8.778,2.863 -18.215,-1.932 -21.078,-10.711s1.932,-18.215 10.71,-21.078z"/>
    <path stroke="null" id="svg_92" fill="#FFF082" d="m1236.736139,508.394054c0,-11.669 8.145,-55.919 13.065,-81.582c0.773,-4.034 6.534,-4.034 7.307,0c4.92,25.663 13.065,69.913 13.065,81.582c0,9.233 -7.485,16.718 -16.718,16.718c-9.234,0.001 -16.719,-7.485 -16.719,-16.718z"/>
   </g>
   <path stroke="null" id="svg_94" fill="#FFC850" d="m199.113381,11.748843l-3.056335,-6.944008c-0.588518,-1.3371 -2.526037,-1.3371 -3.114396,0l-8.404724,19.095558l-21.158148,1.920206c-1.481576,0.13436 -2.080219,1.937387 -0.96251,2.898186l15.964007,13.721769l-4.67191,20.282355c-0.327165,1.420224 1.240474,2.534423 2.519709,1.791263l2.431747,-1.412795c3.986572,-25.249812 15.194031,-43.78502 20.45256,-51.352534z"/>
   <g stroke="null" transform="matrix(0.1582035878315496,0,0,0.1547928671227715,-3.7199555669302473,-2.354965228104832) " id="svg_95"/>
   <g stroke="null" transform="matrix(0.1582035878315496,0,0,0.1547928671227715,-3.7199555669302473,-2.354965228104832) " id="svg_96"/>
   <g stroke="null" transform="matrix(0.1582035878315496,0,0,0.1547928671227715,-3.7199555669302473,-2.354965228104832) " id="svg_97"/>
   <g stroke="null" transform="matrix(0.1582035878315496,0,0,0.1547928671227715,-3.7199555669302473,-2.354965228104832) " id="svg_98"/>
   <g stroke="null" transform="matrix(0.1582035878315496,0,0,0.1547928671227715,-3.7199555669302473,-2.354965228104832) " id="svg_99"/>
   <g stroke="null" transform="matrix(0.1582035878315496,0,0,0.1547928671227715,-3.7199555669302473,-2.354965228104832) " id="svg_100"/>
   <g stroke="null" transform="matrix(0.1582035878315496,0,0,0.1547928671227715,-3.7199555669302473,-2.354965228104832) " id="svg_101"/>
   <g stroke="null" transform="matrix(0.1582035878315496,0,0,0.1547928671227715,-3.7199555669302473,-2.354965228104832) " id="svg_102"/>
   <g stroke="null" transform="matrix(0.1582035878315496,0,0,0.1547928671227715,-3.7199555669302473,-2.354965228104832) " id="svg_103"/>
   <g stroke="null" transform="matrix(0.1582035878315496,0,0,0.1547928671227715,-3.7199555669302473,-2.354965228104832) " id="svg_104"/>
   <g stroke="null" transform="matrix(0.1582035878315496,0,0,0.1547928671227715,-3.7199555669302473,-2.354965228104832) " id="svg_105"/>
   <g stroke="null" transform="matrix(0.1582035878315496,0,0,0.1547928671227715,-3.7199555669302473,-2.354965228104832) " id="svg_106"/>
   <g stroke="null" transform="matrix(0.1582035878315496,0,0,0.1547928671227715,-3.7199555669302473,-2.354965228104832) " id="svg_107"/>
   <g stroke="null" transform="matrix(0.1582035878315496,0,0,0.1547928671227715,-3.7199555669302473,-2.354965228104832) " id="svg_108"/>
   <g stroke="null" transform="matrix(0.1582035878315496,0,0,0.1547928671227715,-3.7199555669302473,-2.354965228104832) " id="svg_109"/>
  </g>
 </g>
</svg>